<?xml version="1.0" encoding="utf-8"?>
<!-- Generator: Adobe Illustrator 28.2.0, SVG Export Plug-In . SVG Version: 6.00 Build 0)  -->
<svg version="1.1" id="Layer_1" xmlns="http://www.w3.org/2000/svg" xmlns:xlink="http://www.w3.org/1999/xlink" x="0px" y="0px"
	 viewBox="0 0 60.9 60.9" style="enable-background:new 0 0 60.9 60.9;" xml:space="preserve">
<style type="text/css">
	.st0{fill:none;stroke:#571246;stroke-width:0.15;stroke-miterlimit:10;}
	.st1{font-family:'Laila-Medium';}
	.st2{font-size:9px;}
	.st3{fill:#571246;}
</style>
<path class="st0" d="M56.5,60.4H4.4c-2.1,0-3.8-1.7-3.8-3.8V4.4c0-2.1,1.7-3.8,3.8-3.8h52.1c2.1,0,3.8,1.7,3.8,3.8v52.1
	C60.4,58.6,58.6,60.4,56.5,60.4z"/>
<text transform="matrix(1 0 0 1 10.8136 54.4696)" class="st1 st2">Vrat Food</text>
<g>
	<path class="st3" d="M27.8,22.6c-0.1,0-0.1,0-0.1,0c0,0,0,0,0,0c0,0,0,0,0,0c0,0,0,0,0,0c0,0,0,0,0.1-0.1c0,0,0.1,0,0.1,0H28v-1.1
		h-1.1v1.1c0.1,0,0.2,0,0.2,0c0,0,0.1,0,0.1,0.1c0,0,0,0,0,0c0,0,0,0-0.1,0c-0.1,0-0.5,0-1.4,0c-0.3,0-0.4,0-0.4,0c0,0,0,0,0,0
		s0,0,0,0c0,0,0-0.1,0.1-0.1c0.2,0,0.2,0,0.2,0c0,0,0-0.4,0-1.1c-0.1,0-0.2,0-0.4,0c0,0,0,0,0,0s0,0,0-0.1c0,0,0-0.1,0-0.1
		c0,0,0.1,0,0.2,0h0.2c0-0.5,0-0.8,0-0.9l-0.2-0.1C25.1,20,24.8,20,24.6,20c-0.2,0-0.4,0-0.5,0.1c-0.1,0-0.1,0.1-0.2,0.1
		c-0.1,0.1-0.2,0.3-0.2,0.5c0,0.2,0,0.3,0.1,0.3c0,0,0.1,0,0.1,0c0,0,0,0,0.1,0c0,0,0,0,0,0c0,0,0,0,0,0c0,0,0,0,0-0.1c0,0,0,0,0,0
		c0,0,0,0,0.1,0c0.1,0,0.1,0,0.2,0.1c0,0,0,0,0,0c0,0.1-0.1,0.2-0.2,0.2c0,0-0.1,0-0.1,0c-0.1,0-0.2,0-0.3-0.1
		c-0.1-0.1-0.2-0.2-0.2-0.4c0-0.1,0-0.2,0.1-0.4c0.2-0.3,0.5-0.5,1-0.5c0.2,0,0.5,0.1,0.8,0.2c0.1,0,0.1,0,0.1,0c0,0,0-0.1,0-0.3
		v-1.3c-0.1,0-0.2,0-0.2,0c-0.1,0-0.1,0-0.1-0.1c0,0,0,0,0-0.1c0,0,0.1,0,0.4,0c0.1,0,0.3,0,0.5,0c0.1,0,0.3,0,0.4,0
		c0.4,0,0.6,0,0.6,0c0,0,0,0,0,0.1c0,0,0,0.1,0,0.1c0,0-0.1,0-0.3,0l0,0.4c0,0.1,0,0.2,0,0.4c0,0.2,0,0.3,0,0.4c0,0.1,0,0.3,0,0.4
		c0,0.4,0,0.6,0,0.8l0.1,0.1c0.3,0.2,0.6,0.3,0.8,0.3l0.1,0c0-1.3,0-2.2,0-2.7c-0.2,0-0.3,0-0.3,0c0,0-0.1,0-0.1-0.1
		c0-0.1,0-0.1,0.1-0.1c0.1,0,0.7,0,1.8,0l0,0c0,0,0,0,0,0.1c0,0,0,0,0,0s0,0-0.1,0c0,0-0.1,0-0.2,0c0,1.8,0,3.1,0,4c0,0,0,0,0.1,0
		c0.1,0,0.2,0,0.2,0.1c0,0,0,0,0,0.1c0,0,0,0-0.1,0c-0.1,0-0.2,0-0.4,0C28.3,22.6,27.9,22.6,27.8,22.6z M25.7,19.7
		C25.7,19.7,25.7,19.7,25.7,19.7c0.3-0.2,0.3-0.4,0.3-0.6v0c0-0.2-0.1-0.4-0.2-0.5c0,0,0,0-0.1-0.1c0,0,0,0-0.1,0c0,0,0,0,0,0
		c0,0,0,0,0,0.1c0,0,0,0.1,0,0.1c0,0,0,0,0,0c0,0,0.1,0.1,0.1,0.1c0.1,0.1,0.1,0.2,0.1,0.3c0,0,0,0.1,0,0.1c0,0.1-0.1,0.2-0.2,0.3
		c0,0-0.1,0-0.1,0C25.7,19.5,25.7,19.5,25.7,19.7C25.7,19.6,25.7,19.7,25.7,19.7z M25.7,19.3L25.7,19.3c0-0.1,0.1-0.1,0.1-0.1
		c0-0.1,0-0.1,0-0.1c0-0.1,0-0.1-0.1-0.2V19.3z M25.7,21.1c0,0,0.1-0.1,0.1-0.1c0.1-0.1,0.1-0.2,0.2-0.3c0-0.1,0-0.2,0-0.2
		c0-0.1,0-0.2-0.1-0.3c0,0,0-0.1-0.1-0.1c0,0-0.1-0.1-0.1-0.1c0,0-0.1-0.1-0.1-0.1c0,0,0,0,0,0.1c0,0,0,0.1,0,0.1c0,0,0,0,0,0
		c0,0,0.1,0.1,0.1,0.2c0,0.1,0.1,0.1,0.1,0.2c0,0.1,0,0.2-0.1,0.3l-0.1,0.1V21.1z M25.7,20.6C25.7,20.6,25.7,20.6,25.7,20.6
		c0-0.1,0-0.1,0-0.2c0,0,0-0.1,0-0.2c0,0,0,0,0,0c0,0,0,0.1,0,0.2C25.7,20.6,25.7,20.6,25.7,20.6z M25.7,22.4
		C25.7,22.4,25.8,22.4,25.7,22.4c0.1-0.1,0.2-0.2,0.2-0.3C26,22,26,21.9,26,21.8c0-0.2,0-0.3-0.1-0.4c-0.1-0.1-0.1-0.1-0.2-0.1
		c0,0,0,0,0,0.1c0,0,0,0,0,0.1s0,0,0,0c0.1,0.1,0.1,0.2,0.1,0.4c0,0.1,0,0.2,0,0.2c0,0.1-0.1,0.1-0.1,0.2l-0.1,0.1V22.4z M25.7,22
		c0,0,0-0.1,0-0.2c0-0.1,0-0.2,0-0.2c0,0,0,0.1,0,0.2C25.7,22,25.7,22,25.7,22z M26.4,20.6c0,0,0.1-0.1,0.2-0.2l-0.7-0.7l-0.1,0.1
		l0.1,0.1c0.2,0.1,0.2,0.3,0.3,0.5l0,0.1C26.3,20.5,26.4,20.6,26.4,20.6z M26.4,22l0.1-0.1c0.1-0.1,0.1-0.1,0.1-0.1
		c0,0-0.2-0.2-0.6-0.6C26,21.1,26,21,26,21c0,0,0,0,0,0c0,0,0,0,0,0c0,0,0,0,0,0c0.1,0.1,0.2,0.2,0.3,0.3c0,0,0,0.1,0.1,0.2
		c0,0.1,0,0.1,0,0.2c0,0,0,0.1,0,0.1C26.3,21.9,26.3,21.9,26.4,22C26.4,22,26.4,22,26.4,22z M26.4,19.2c0,0,0,0,0.1-0.1
		c0.1-0.1,0.1-0.1,0.1-0.1s0,0-0.1-0.1c0,0-0.1-0.1-0.2-0.1c-0.1-0.1-0.2-0.2-0.4-0.4h-0.1l0.1,0.1c0.1,0.1,0.2,0.3,0.2,0.4l0,0.1
		C26.4,19.1,26.4,19.2,26.4,19.2z M26.5,22.4C26.5,22.4,26.6,22.4,26.5,22.4c0.1,0,0-0.1-0.1-0.2S26.2,22,26.2,22c0,0,0,0,0,0.1
		c0,0.1-0.1,0.2-0.2,0.3l0.3,0c0,0,0,0,0,0s0,0,0-0.1c0,0,0,0,0,0c0,0,0,0,0.1,0s0,0,0,0.1L26.5,22.4L26.5,22.4z M26.4,21.3
		c0.1-0.1,0.1-0.1,0.1-0.2c0,0,0.1-0.1,0.1-0.1s-0.1-0.1-0.2-0.2s-0.2-0.2-0.2-0.2c0,0,0,0,0,0.1c0,0,0,0.1,0,0.1c0,0.1,0,0.1,0,0.1
		C26.1,20.9,26.2,21,26.4,21.3z M26.4,19.9C26.4,19.9,26.4,19.9,26.4,19.9C26.5,19.9,26.5,19.9,26.4,19.9c0.1-0.1,0.1-0.1,0.1-0.1
		c0,0,0,0,0.1,0s0,0,0,0c-0.1-0.1-0.2-0.2-0.4-0.4c0,0-0.1-0.1-0.1-0.1c0,0,0,0,0,0c0,0,0,0,0,0c0,0,0,0,0,0.1c0,0,0,0.1,0,0.1
		c0,0,0,0.1,0,0.1C26.1,19.6,26.2,19.7,26.4,19.9C26.4,19.9,26.4,19.9,26.4,19.9z M26.4,18.5c0.1-0.1,0.1-0.1,0.1-0.2c0,0,0,0-0.1,0
		l-0.2,0L26.4,18.5z M26.3,20.4C26.3,20.4,26.3,20.3,26.3,20.4C26.3,20.3,26.3,20.3,26.3,20.4c-0.1-0.1-0.1-0.1,0-0.1s0,0,0,0
		c0,0,0,0,0,0C26.4,20.2,26.4,20.3,26.3,20.4C26.4,20.3,26.4,20.4,26.3,20.4z M26.4,19.7C26.3,19.7,26.3,19.7,26.4,19.7
		C26.3,19.6,26.3,19.6,26.4,19.7c-0.1-0.1-0.1-0.1-0.1-0.1c0,0,0,0,0.1,0c0,0,0,0,0.1,0S26.4,19.6,26.4,19.7
		C26.4,19.6,26.4,19.6,26.4,19.7C26.4,19.6,26.4,19.7,26.4,19.7C26.4,19.7,26.4,19.7,26.4,19.7z M26.4,21.1L26.4,21.1
		C26.3,21.1,26.3,21.1,26.4,21.1C26.3,21.1,26.3,21,26.4,21.1C26.3,21,26.3,21,26.3,21c0,0,0,0,0.1,0s0,0,0.1,0
		C26.4,21,26.4,21,26.4,21.1C26.4,21,26.4,21,26.4,21.1C26.4,21.1,26.4,21.1,26.4,21.1z M26.4,19C26.4,19,26.3,19,26.4,19
		C26.3,19,26.3,19,26.4,19C26.3,18.9,26.3,18.9,26.4,19c-0.1-0.1-0.1-0.1,0-0.1c0,0,0,0,0,0c0,0,0,0,0,0S26.4,18.9,26.4,19
		C26.4,18.9,26.4,19,26.4,19C26.4,19,26.4,19,26.4,19z M26.4,21.8C26.3,21.8,26.3,21.7,26.4,21.8C26.3,21.7,26.3,21.7,26.4,21.8
		c-0.1-0.1-0.1-0.1,0-0.1s0,0,0,0c0,0,0,0,0,0C26.4,21.6,26.4,21.7,26.4,21.8C26.4,21.7,26.4,21.7,26.4,21.8
		C26.4,21.7,26.4,21.8,26.4,21.8z M26.7,20.9l0-0.2c0-0.1,0-0.1,0-0.2c0,0,0-0.1,0-0.1c-0.1,0.1-0.2,0.2-0.2,0.2
		c0,0,0.1,0.1,0.1,0.1C26.7,20.8,26.7,20.9,26.7,20.9z M26.7,22.3l0-0.3c0,0,0-0.1,0-0.1c-0.1,0.1-0.2,0.2-0.2,0.2c0,0,0,0,0.1,0.1
		L26.7,22.3z M26.7,19.5c0,0,0-0.1,0-0.4l-0.2,0.2C26.7,19.5,26.7,19.5,26.7,19.5z M26.7,21.6c0-0.1,0-0.2,0-0.4
		c-0.1,0.1-0.1,0.2-0.2,0.2L26.7,21.6z M26.7,20.2c0,0,0-0.1,0-0.1c0-0.1,0-0.1,0-0.1c0,0-0.1,0-0.2,0.1
		C26.7,20.2,26.7,20.2,26.7,20.2z M26.7,18.8c0,0,0-0.1,0-0.4l-0.1,0.1c0,0-0.1,0.1-0.1,0.1s0,0,0.1,0.1
		C26.7,18.8,26.7,18.8,26.7,18.8z M27.3,21.1l-0.1-0.1c-0.1,0-0.2-0.1-0.2-0.1c0,0.1,0,0.1,0,0.2H27.3z M29.2,19v-0.1
		c-0.4,0-0.8,0-1.1,0V19H29.2z M29.2,19.4L29.2,19.4c0-0.1,0-0.1,0-0.2s-0.2,0-0.5,0c-0.3,0-0.5,0-0.6,0c0,0.1,0,0.1,0,0.1
		c0,0,0,0,0,0c0.1,0,0.2,0,0.5,0C29,19.4,29.1,19.4,29.2,19.4z M28.5,19.6c0.1,0,0.3,0,0.7,0c0-0.1,0-0.1,0-0.1s0,0,0,0
		c0,0-0.4,0-1,0v0.1C28.2,19.6,28.3,19.6,28.5,19.6z M29.2,19.9v-0.1l-1.1,0c0,0.1,0,0.1,0,0.1c0,0,0.3,0,0.7,0H29.2z M29.2,20.2V20
		c-0.6,0-0.9,0-1.1,0c0,0.1,0,0.1,0,0.1C28.2,20.2,28.5,20.2,29.2,20.2z M28.4,20.8c0,0,0,0,0.1-0.1c0.1-0.1,0.1-0.1,0.2-0.1
		c0,0,0.1,0,0.2,0.1c0.1,0,0.1,0.1,0.1,0.1c0,0,0,0,0,0s0,0,0.1,0s0.1,0,0.1,0c0,0,0,0,0.1,0c0,0,0,0,0,0c0-0.1,0-0.2,0-0.2
		c0,0,0,0-0.1,0.1c-0.1,0.1-0.1,0.1-0.1,0.1c0,0,0,0-0.1,0c0,0-0.1-0.1-0.1-0.1c0,0-0.1-0.1-0.1-0.1c0,0,0,0,0,0c0,0,0,0,0,0
		c-0.1,0.1-0.2,0.2-0.2,0.2c0,0-0.1,0-0.1-0.1c-0.1-0.1-0.1-0.1-0.1-0.1c0,0,0,0,0,0.1c0,0.1,0,0.1,0,0.1s0,0,0.1,0.1
		S28.4,20.8,28.4,20.8z M28.9,21.2C28.9,21.2,29,21.2,28.9,21.2c0.1-0.1,0.2-0.2,0.3-0.2v-0.2c-0.1,0.1-0.2,0.1-0.2,0.1
		c0,0-0.1,0-0.1,0c0,0-0.1,0-0.2-0.1c0,0-0.1-0.1-0.1-0.1c0,0,0,0,0,0c-0.1,0.1-0.2,0.1-0.2,0.1c0,0,0,0,0,0c0,0-0.1,0-0.2-0.1
		c0,0,0,0,0,0c0,0,0,0.1,0,0.2l0.2,0.1l0.1,0c0.1-0.1,0.2-0.2,0.3-0.2c0,0,0,0,0.1,0C28.7,21,28.8,21.1,28.9,21.2
		C28.9,21.2,28.9,21.2,28.9,21.2z M28.9,21.5c0.2-0.1,0.3-0.2,0.3-0.2c0,0,0,0,0-0.1l0-0.1c-0.1,0.1-0.2,0.2-0.2,0.2c0,0,0,0-0.1,0
		c0,0-0.1,0-0.2-0.1c0,0-0.1-0.1-0.1-0.1c0,0,0,0,0,0l-0.2,0.1c-0.1,0-0.1,0.1-0.1,0.1c0,0-0.1,0-0.2-0.1c0,0.1,0,0.1,0,0.1s0,0,0,0
		c0,0,0.1,0,0.2,0.1c0.1-0.1,0.2-0.2,0.2-0.2C28.6,21.4,28.7,21.4,28.9,21.5L28.9,21.5z M28.4,21.9c0.1-0.1,0.1-0.1,0.2-0.2
		c0,0,0,0,0.1,0c0,0,0.1,0,0.2,0.1c0.1,0.1,0.1,0.1,0.1,0.1c0,0,0,0,0.1-0.1c0.1-0.1,0.2-0.1,0.2-0.2c0,0,0-0.1,0-0.1
		c-0.1,0-0.1,0.1-0.2,0.1c0,0-0.1,0.1-0.1,0.1c0,0-0.1,0-0.2-0.1c-0.1-0.1-0.1-0.1-0.2-0.1s0,0-0.1,0c-0.1,0.1-0.1,0.1-0.2,0.1
		c0,0-0.1,0-0.1-0.1c-0.1,0-0.1-0.1-0.1-0.1c0,0,0,0,0,0.1L28.4,21.9z M28.4,22.3c0.1,0,0.1-0.1,0.1-0.1c0.1-0.1,0.1-0.1,0.1-0.1
		c0,0,0,0,0,0c0,0,0.1,0.1,0.2,0.2c0,0,0.1,0,0.1-0.1c0,0,0.1,0,0.1-0.1c0,0,0.1,0,0.1-0.1c0,0,0,0,0.1,0c0,0,0,0,0,0s0,0,0,0
		c0,0,0-0.1,0-0.1c0,0,0,0,0,0C29.1,22,29,22,29,22c0,0-0.1,0-0.1,0s-0.1-0.1-0.3-0.2c-0.1,0.1-0.2,0.2-0.2,0.2c0,0,0,0,0,0
		c0,0-0.1-0.1-0.2-0.2v0.2L28.4,22.3z M28.2,22.4c0,0,0.2,0,0.7,0c-0.1-0.1-0.1-0.1-0.1-0.1c0,0,0-0.1-0.1-0.1c0,0,0,0-0.1,0.1
		c0,0-0.1,0.1-0.1,0.1c0,0,0,0-0.1,0s0,0,0,0C28.3,22.4,28.3,22.4,28.2,22.4c0-0.1,0-0.1,0-0.1c0,0,0,0,0,0
		C28.1,22.3,28.1,22.3,28.2,22.4C28.1,22.4,28.1,22.4,28.2,22.4L28.2,22.4z M29.2,18.8v-0.2c-0.1,0-0.2,0-0.3,0c-0.5,0-0.7,0-0.8,0
		c0,0,0,0,0,0l0,0.1c0.5,0,0.8,0,0.8,0C28.9,18.8,29,18.8,29.2,18.8z M28.2,18.5c0.1,0,0.5,0,1.1,0v-0.1
		C28.6,18.4,28.2,18.4,28.2,18.5L28.2,18.5z M28.4,20.4C28.4,20.4,28.4,20.4,28.4,20.4C28.4,20.4,28.5,20.4,28.4,20.4
		c0.1-0.1,0.1-0.1,0.2-0.1c-0.2,0-0.3,0-0.3,0c0,0,0,0,0,0C28.3,20.4,28.4,20.4,28.4,20.4z M29,20.4l0.1-0.1h-0.3
		C28.9,20.4,28.9,20.4,29,20.4L29,20.4z M29,22.4c0,0,0.1,0,0.1,0c0,0,0.1,0,0.1,0c0-0.2,0-0.2,0-0.2S29.1,22.3,29,22.4
		C28.9,22.4,28.9,22.4,29,22.4z"/>
	<path class="st3" d="M31.9,22.7c0,0-0.1,0-0.1,0c-0.4,0-0.7-0.1-1-0.3c-0.3-0.2-0.6-0.5-0.8-0.9c0,0,0-0.1,0-0.1c0,0,0,0,0-0.1
		c0,0-0.1-0.1-0.1-0.3c-0.1-0.2-0.1-0.4-0.1-0.6c0-0.1,0-0.3,0-0.4c0.1-0.6,0.4-1.1,0.9-1.4c0,0,0,0,0,0c0,0,0,0,0,0
		c0,0,0.1-0.1,0.2-0.1c0.1,0,0.1-0.1,0.1-0.1c0,0,0.1,0,0.2-0.1s0.2,0,0.3-0.1c0.1,0,0.2,0,0.4,0c0.1,0,0.1,0,0.2,0
		c0.4,0,0.7,0.2,1,0.4c0.3,0.2,0.5,0.5,0.7,0.8c0.1,0.2,0.2,0.5,0.2,0.7c0,0.1,0,0.2,0,0.4c0,0.5-0.2,1-0.5,1.4
		c-0.4,0.5-0.9,0.8-1.5,0.8C32,22.7,32,22.7,31.9,22.7z M30,20.2C30,20.2,30,20.2,30,20.2c0.3-0.1,0.4-0.3,0.5-0.5
		c0-0.1,0-0.1,0-0.1c0-0.1-0.1-0.3-0.1-0.4c0,0.1-0.1,0.1-0.1,0.1c0,0,0,0,0,0.1c0,0.1,0.1,0.2,0.1,0.2c0,0.1,0,0.2-0.1,0.3
		c-0.1,0.1-0.1,0.2-0.3,0.2c0,0,0,0,0,0C30,20.1,30,20.1,30,20.2C29.9,20.2,29.9,20.2,30,20.2z M30.1,21.1
		C30.1,21.1,30.1,21.1,30.1,21.1C30.1,21,30.1,21,30.1,21.1c0-0.1,0-0.2,0-0.2c0-0.1,0-0.1,0-0.2c0,0,0-0.1-0.1-0.2c0,0,0,0,0,0
		c0,0,0,0,0,0c0,0,0,0,0,0c0,0,0,0.1,0,0.2C30,20.9,30,21,30.1,21.1L30.1,21.1z M30,19.9C30,19.9,30,19.9,30,19.9
		c0.1-0.1,0.2-0.2,0.2-0.3c0,0,0-0.1,0-0.1c0,0,0,0,0,0c0,0,0,0.1-0.1,0.2C30,19.8,30,19.9,30,19.9C30,19.9,30,19.9,30,19.9z
		 M30.4,21.3C30.4,21.3,30.4,21.3,30.4,21.3c0.1,0,0.1-0.1,0.2-0.1c0,0,0.1,0,0.1,0c0,0,0,0,0,0c0,0,0-0.1-0.1-0.1c0,0,0,0,0-0.1
		c0,0,0,0,0,0s0,0,0-0.1c0,0,0-0.1-0.1-0.1c0-0.1,0-0.1-0.1-0.1c0,0,0-0.1,0-0.1c0,0,0,0,0,0c-0.1-0.1-0.1-0.2-0.1-0.2s0,0,0,0l0,0
		c0,0,0,0-0.1,0c0,0-0.1,0-0.1,0s0,0,0,0c0,0,0.1,0.1,0.1,0.2c0,0,0,0.1,0,0.1c0,0.2,0,0.3,0,0.4C30.3,21.2,30.3,21.3,30.4,21.3
		C30.3,21.3,30.4,21.3,30.4,21.3z M30.2,21.5C30.2,21.5,30.2,21.5,30.2,21.5C30.2,21.4,30.2,21.4,30.2,21.5c0-0.1,0-0.1,0-0.1
		c0-0.1,0-0.1-0.1-0.1c0,0,0,0,0,0S30.1,21.3,30.2,21.5C30.2,21.5,30.2,21.5,30.2,21.5z M30.4,21.1C30.4,21.1,30.3,21.1,30.4,21.1
		C30.3,21.1,30.3,21.1,30.4,21.1c-0.1-0.1-0.1-0.1,0-0.1c0,0,0,0,0,0c0,0,0,0,0,0C30.4,21,30.4,21.1,30.4,21.1
		C30.4,21.1,30.4,21.1,30.4,21.1C30.4,21.1,30.4,21.1,30.4,21.1z M30.5,20.7C30.5,20.7,30.6,20.7,30.5,20.7c0.1,0,0.1,0,0.1-0.1
		c0,0,0.1,0,0.1,0c0,0,0,0,0,0c0,0,0,0,0,0c0,0-0.1-0.2-0.2-0.4c0-0.1-0.1-0.1-0.1-0.1c0,0,0,0,0,0c0,0.1-0.1,0.1-0.2,0.2
		C30.5,20.5,30.5,20.7,30.5,20.7z M30.5,21.8c0,0,0,0,0.1,0c0-0.1,0-0.2,0-0.2c0-0.1,0-0.1,0-0.1c0,0-0.1,0-0.1,0.1c0,0-0.1,0-0.1,0
		s0,0,0,0c0,0,0,0,0,0c0,0,0,0,0,0.1C30.5,21.6,30.5,21.7,30.5,21.8C30.5,21.8,30.5,21.8,30.5,21.8z M30.7,20l0.1-0.1
		c0.1,0,0.1-0.1,0.1-0.1c0,0,0-0.1-0.1-0.2c0-0.1-0.1-0.2-0.2-0.5c0,0,0-0.1,0-0.1c0,0,0,0-0.1,0c0,0-0.1,0-0.1,0c0,0,0,0,0,0
		c0,0,0,0.1,0.1,0.2c0,0.1,0.1,0.2,0.1,0.3c0,0,0,0.1,0,0.2C30.7,19.9,30.7,20,30.7,20C30.7,20,30.7,20,30.7,20z M30.6,20.5
		C30.5,20.5,30.5,20.5,30.6,20.5L30.6,20.5c-0.1-0.1-0.1-0.1,0-0.1c0,0,0,0,0,0C30.6,20.3,30.6,20.3,30.6,20.5
		C30.6,20.4,30.6,20.4,30.6,20.5C30.6,20.5,30.6,20.5,30.6,20.5z M30.5,18.9C30.5,18.9,30.6,18.9,30.5,18.9c0.1-0.1,0.2-0.1,0.3-0.1
		c0.1-0.1,0.1-0.1,0.2-0.2c0,0,0,0,0,0c0,0-0.1,0-0.1,0.1C30.7,18.7,30.6,18.8,30.5,18.9L30.5,18.9z M30.8,22.1
		C30.8,22.1,30.8,22.1,30.8,22.1L30.8,22.1c0,0,0-0.1,0-0.1s0-0.1,0-0.1c0,0,0,0,0,0s0,0,0,0c0,0,0,0,0,0c0,0,0,0.1,0.1,0.1
		C30.7,22.1,30.7,22.1,30.8,22.1z M30.7,21C30.7,21,30.7,21,30.7,21c0-0.1,0-0.1,0-0.2c0,0,0,0,0,0c0,0,0,0,0,0c0,0,0,0-0.1,0
		s-0.1,0-0.1,0c0,0,0,0,0,0.1C30.7,21,30.7,21,30.7,21z M30.8,19.8C30.7,19.8,30.7,19.8,30.8,19.8C30.7,19.8,30.7,19.8,30.8,19.8
		c-0.1-0.1-0.1-0.1-0.1-0.1c0,0,0,0,0.1,0c0,0,0,0,0,0C30.8,19.7,30.8,19.7,30.8,19.8C30.8,19.8,30.8,19.8,30.8,19.8
		C30.8,19.8,30.8,19.8,30.8,19.8C30.8,19.8,30.8,19.8,30.8,19.8z M31,19.4C31,19.4,31,19.4,31,19.4c0.1,0,0.1-0.1,0.2-0.1
		c0,0,0.1,0,0.1-0.1s0,0,0,0c0,0,0-0.1-0.1-0.2c0-0.1-0.1-0.1-0.1-0.2c0,0,0-0.1,0-0.1c0,0,0,0-0.1,0.1c-0.1,0.1-0.1,0.1-0.1,0.1
		c0,0-0.1,0.1-0.1,0.1c0,0,0,0.1,0.1,0.2C30.9,19.4,31,19.4,31,19.4z M30.9,20.3C30.9,20.3,30.9,20.3,30.9,20.3c0-0.1,0-0.1,0-0.1
		c0,0,0,0,0,0c0,0,0,0-0.1,0C30.8,20.2,30.8,20.2,30.9,20.3C30.8,20.2,30.8,20.2,30.9,20.3C30.8,20.3,30.9,20.3,30.9,20.3z
		 M31.3,22.3c0.2,0,0.5-0.2,0.7-0.5c0.3-0.4,0.6-1,0.8-1.6c0.1-0.3,0.1-0.6,0.1-0.9c0-0.4-0.1-0.6-0.2-0.8c-0.1-0.1-0.2-0.1-0.2-0.1
		c0,0-0.1,0-0.1,0c-0.2,0.1-0.5,0.3-0.7,0.6c-0.2,0.3-0.4,0.7-0.6,1.2c-0.1,0.4-0.2,0.8-0.2,1.2c0,0.4,0.1,0.6,0.2,0.8
		C31.1,22.3,31.2,22.3,31.3,22.3z M31,19.2C31,19.2,31,19.2,31,19.2C31,19.2,30.9,19.2,31,19.2c-0.1-0.1-0.1-0.1,0-0.1c0,0,0,0,0,0
		c0,0,0,0,0,0C31.1,19.1,31.1,19.1,31,19.2C31.1,19.2,31.1,19.2,31,19.2C31,19.2,31,19.2,31,19.2z M31.1,19.7
		C31.1,19.7,31.1,19.6,31.1,19.7c0.1-0.1,0.1-0.1,0.1-0.1h0c0,0,0,0-0.1,0C31.1,19.6,31.1,19.6,31.1,19.7
		C31.1,19.6,31.1,19.7,31.1,19.7z M31.3,18.8l0.3-0.2c-0.1-0.1-0.1-0.2-0.1-0.2c0,0,0-0.1-0.1-0.1c0,0,0,0-0.1,0c0,0-0.1,0-0.1,0
		c0,0,0,0,0,0c0,0.1,0,0.1,0,0.1c0,0,0,0,0,0c0,0,0,0.1,0,0.1C31.2,18.7,31.2,18.8,31.3,18.8C31.3,18.8,31.3,18.8,31.3,18.8
		C31.3,18.8,31.3,18.8,31.3,18.8z M31.3,18.6C31.3,18.6,31.3,18.6,31.3,18.6C31.3,18.6,31.3,18.6,31.3,18.6
		c-0.1-0.1-0.1-0.1-0.1-0.1c0,0,0,0,0.1,0c0,0,0,0,0.1,0C31.4,18.5,31.4,18.5,31.3,18.6C31.4,18.6,31.4,18.6,31.3,18.6
		C31.4,18.6,31.4,18.6,31.3,18.6z M31.4,19.1C31.4,19.1,31.4,19.1,31.4,19.1c0.1-0.2,0.2-0.2,0.2-0.2c0,0,0,0-0.1,0
		c-0.1,0-0.1,0.1-0.1,0.1C31.4,19,31.4,19,31.4,19.1C31.4,19.1,31.4,19.1,31.4,19.1z M31.5,22.5C31.6,22.5,31.6,22.5,31.5,22.5
		C31.6,22.5,31.5,22.4,31.5,22.5C31.5,22.4,31.5,22.4,31.5,22.5C31.5,22.5,31.5,22.5,31.5,22.5C31.5,22.5,31.5,22.5,31.5,22.5z
		 M31.6,18.4c0.1,0,0.1-0.1,0.1-0.1c0,0,0,0,0,0C31.7,18.3,31.6,18.3,31.6,18.4C31.6,18.4,31.6,18.4,31.6,18.4
		C31.6,18.4,31.6,18.4,31.6,18.4L31.6,18.4z M31.9,22.5l-0.1-0.1c0-0.1-0.1-0.1-0.1-0.1c0,0,0,0,0,0s0,0-0.1,0.1c0,0,0,0.1,0.1,0.1
		c0,0,0,0,0,0.1S31.8,22.5,31.9,22.5z M31.8,18.7C31.8,18.7,31.8,18.6,31.8,18.7c0.1-0.1,0.1-0.1,0.2-0.2c0.1,0,0.1-0.1,0.1-0.1
		c0,0,0,0,0,0c0,0-0.1,0-0.2,0.1c-0.1,0-0.2,0.1-0.2,0.1C31.7,18.5,31.7,18.6,31.8,18.7C31.8,18.6,31.8,18.6,31.8,18.7z M32.1,22.5
		c0.1,0,0.2,0,0.3,0c0,0,0.1,0,0.1,0c0,0,0.1,0,0.1,0c0,0,0,0,0-0.1c0,0,0,0,0,0l-0.1,0c0,0-0.1,0-0.1,0s-0.1,0-0.1,0
		c0,0-0.1,0-0.1,0c0,0,0-0.1-0.1-0.1c0-0.1-0.1-0.1-0.1-0.1c0,0-0.1,0.1-0.1,0.1l0.1,0.2C32.1,22.4,32.1,22.5,32.1,22.5L32.1,22.5z
		 M32.8,22.3c0,0,0.1,0,0.2-0.1l0,0c0,0-0.1,0-0.1,0c0,0,0-0.1-0.1-0.1c0-0.1-0.1-0.1-0.1-0.1c0,0,0,0-0.1,0c-0.1,0-0.1,0-0.2,0
		c0,0,0,0-0.1,0c0,0,0,0-0.1-0.1c0,0,0-0.1-0.1-0.1c0,0.1-0.1,0.1-0.1,0.1c0,0,0,0,0,0c0,0,0,0,0,0.1c0,0,0,0.1,0.1,0.1c0,0,0,0,0,0
		c0,0,0.1,0,0.2,0c0,0,0.1,0,0.1,0c0,0,0.1,0,0.1,0C32.7,22.2,32.7,22.2,32.8,22.3C32.7,22.3,32.8,22.3,32.8,22.3z M33,22.1
		c0,0,0.1,0,0.2,0c0,0,0.1,0,0.1-0.1c0.1-0.1,0.1-0.1,0.1-0.1c0,0,0,0,0,0c0,0-0.1,0-0.1,0c-0.1,0-0.1,0-0.1,0c0,0,0,0-0.1,0
		c0,0,0,0-0.1-0.1c0,0-0.1-0.1-0.1-0.1c0,0,0,0,0,0c0,0-0.1,0-0.2,0c0,0,0,0,0,0s0,0,0,0c0,0,0,0,0,0c0,0-0.1,0-0.1-0.1
		c0,0,0-0.1-0.1-0.1c0,0.1-0.1,0.1-0.1,0.1c0,0,0,0.1,0.1,0.2c0,0,0.1,0,0.2,0c0.1,0,0.1,0,0.1,0c0,0,0,0,0.1,0
		C32.8,21.9,32.8,21.9,33,22.1C32.9,22,32.9,22.1,33,22.1C32.9,22.1,32.9,22.1,33,22.1z M33.1,21.8l0.1,0c0.2,0,0.3,0,0.3-0.1
		c0,0,0-0.1,0.1-0.2c0,0,0,0,0,0l0,0c0,0-0.1,0-0.1,0s-0.1,0-0.1,0c0,0,0,0,0,0c0,0,0,0-0.1,0c0,0-0.1-0.1-0.1-0.2
		c0-0.1-0.1-0.1-0.1-0.1c0,0-0.1,0-0.2,0c-0.1,0-0.1,0-0.2,0c0,0-0.1,0-0.1-0.1c0,0.1-0.1,0.1-0.1,0.1c0,0,0,0.1,0.1,0.1l0,0.1
		c0.2,0,0.3-0.1,0.3-0.1c0,0,0.1,0,0.1,0.1C33,21.6,33.1,21.7,33.1,21.8C33.1,21.7,33.1,21.8,33.1,21.8z M33.3,21.4l0.4-0.1
		c0-0.1,0-0.1,0-0.1l0,0c0,0-0.1,0-0.3,0.1c0,0-0.1,0-0.1,0c0,0-0.1-0.1-0.2-0.2L33.1,21C33,21,32.9,21,32.9,21c0,0-0.1,0-0.1,0l0,0
		c0,0.1-0.1,0.2-0.1,0.2c0,0,0,0,0,0.1l0,0c0.2,0,0.3-0.1,0.3-0.1c0,0,0.1,0,0.1,0.1S33.3,21.4,33.3,21.4z M33.4,21.1
		c0,0,0.1,0,0.2,0c0.1,0,0.2-0.1,0.2-0.1c0,0,0,0,0,0c0,0,0,0,0-0.1c0,0,0,0,0,0c0,0,0,0-0.1,0c-0.1,0-0.2,0-0.2,0
		c0,0-0.1-0.1-0.2-0.2c0-0.1,0-0.1-0.1-0.1c0,0-0.1,0-0.2,0.1c-0.1,0-0.1,0-0.1,0c0,0-0.1,0-0.1,0c0,0,0,0,0,0c0,0,0,0-0.1,0.1
		l0,0.1c0,0,0,0,0.1,0c0.2,0,0.2-0.1,0.3-0.1c0,0,0.1,0,0.1,0.1C33.3,21,33.4,21.1,33.4,21.1z M33,20.5c0,0,0.1,0,0.1,0c0,0,0,0,0,0
		s0,0,0,0s0,0-0.1,0c0,0-0.1,0-0.1,0c0,0,0,0,0,0C32.9,20.4,32.9,20.4,33,20.5C33,20.5,33,20.5,33,20.5C33,20.5,33,20.5,33,20.5
		L33,20.5z M33.9,20.6C33.9,20.6,33.9,20.6,33.9,20.6c0-0.1,0-0.1,0-0.1c0,0-0.1,0-0.1-0.1c0,0-0.1,0-0.3-0.1
		c-0.2-0.1-0.4-0.2-0.4-0.2h0c0,0,0,0,0,0.1s0,0,0,0.1c0,0,0.1,0,0.3,0.1c0.1,0,0.1,0.1,0.2,0.1C33.7,20.5,33.9,20.6,33.9,20.6z
		 M33.1,18.8C33.1,18.8,33.1,18.8,33.1,18.8C33.1,18.8,33.1,18.8,33.1,18.8C33,18.7,33,18.7,33,18.7c0,0,0,0,0,0
		C33,18.7,33,18.7,33.1,18.8C33.1,18.8,33.1,18.8,33.1,18.8z M33.9,20.3C33.9,20.3,33.9,20.3,33.9,20.3c0-0.1,0-0.1,0-0.1
		c0,0,0,0-0.1,0c0,0-0.1-0.1-0.3-0.1c-0.1,0-0.1,0-0.1-0.1c0,0-0.1,0-0.2-0.1c0,0-0.1,0-0.1,0c0,0,0,0,0,0s0,0,0,0.1c0,0,0,0,0,0
		c0.2,0.1,0.4,0.1,0.6,0.2C33.8,20.2,33.8,20.3,33.9,20.3C33.8,20.3,33.9,20.3,33.9,20.3z M33.5,19.2C33.5,19.2,33.5,19.2,33.5,19.2
		c0,0,0-0.1-0.1-0.2c-0.2-0.1-0.3-0.1-0.3-0.1v0c0,0,0,0,0,0.1s0,0.1,0,0.1c0,0,0.1,0,0.2,0.1C33.4,19.2,33.5,19.2,33.5,19.2z
		 M33.8,20C33.8,20,33.8,20,33.8,20C33.8,19.9,33.8,19.9,33.8,20c0-0.1,0-0.1,0-0.1c0,0,0,0-0.1,0c0,0-0.1,0-0.2-0.1
		c-0.3-0.1-0.4-0.2-0.4-0.2c0,0,0,0,0,0c0,0,0,0,0,0.1c0.3,0.1,0.5,0.2,0.5,0.2C33.7,19.9,33.7,19.9,33.8,20
		C33.8,20,33.8,20,33.8,20z M33.7,19.6C33.7,19.6,33.7,19.6,33.7,19.6c0,0,0-0.1,0-0.1c0,0,0,0,0,0s0,0-0.1,0
		c-0.1,0-0.1-0.1-0.3-0.1c-0.1,0-0.2-0.1-0.2-0.1s0,0,0,0c0,0,0,0.1,0,0.1s0.1,0,0.1,0.1c0.1,0,0.2,0.1,0.3,0.1
		C33.6,19.6,33.7,19.6,33.7,19.6z M33.5,20.7C33.6,20.7,33.6,20.7,33.5,20.7c0.1,0,0.1,0,0.2,0c0,0-0.1-0.1-0.3-0.1
		C33.4,20.6,33.5,20.6,33.5,20.7C33.5,20.7,33.5,20.7,33.5,20.7z"/>
	<path class="st3" d="M35.9,22.7c-0.1,0-0.2,0-0.3,0c-0.4-0.1-0.8-0.3-1-0.7c-0.1-0.2-0.1-0.3-0.1-0.5c0-0.1,0-1.1,0-3.1
		c-0.1,0-0.2,0-0.2,0c-0.1,0-0.1,0-0.1-0.1c0,0,0,0,0-0.1c0,0,0.2,0,0.4,0c0.1,0,0.2,0,0.5,0c0.1,0,0.2,0,0.4,0c0.4,0,0.6,0,0.7,0
		c0,0,0,0,0,0.1c0,0,0,0.1,0,0.1c0,0-0.1,0-0.3,0l0,0.4c0,0.1,0,0.1,0,0.2c0,0.2,0,0.4,0,0.7c0,0.2,0,0.3,0,0.4s0,0.2,0,0.3
		c0,0.1,0,0.2,0,0.5c0,0.2,0,0.5,0,0.8l0,1l0.1,0c0.3,0,0.6-0.1,0.8-0.3c0.1-0.1,0.2-0.2,0.2-0.3c0,0,0-0.1,0.1-0.2s0-0.1,0-0.2
		c0-0.1,0-1.2,0-3.2c-0.3,0-0.4,0-0.4,0c0,0,0,0,0,0c0,0,0-0.1,0-0.1c0,0,0.1,0,0.2,0c0.1,0,0.3,0,0.6,0l0,0c0,0,0,0,0,0.1s0,0,0,0
		c0,0,0,0-0.1,0c0,0-0.1,0-0.2,0c0,0,0,0,0,0c0,0,0,1.1,0,3.2l0,0.1c0,0.2-0.1,0.3-0.1,0.4c-0.2,0.4-0.5,0.6-1,0.7
		C36,22.7,35.9,22.7,35.9,22.7z M34.6,19.7C34.6,19.7,34.7,19.6,34.6,19.7c0.3-0.2,0.4-0.4,0.4-0.6v0c0-0.2-0.1-0.4-0.2-0.5
		c0,0,0,0-0.1-0.1c0,0,0,0-0.1,0c0,0,0,0,0,0c0,0,0,0,0,0.1c0,0,0,0.1,0,0.1c0,0,0,0,0,0c0,0,0.1,0.1,0.1,0.1
		c0.1,0.1,0.1,0.2,0.1,0.3c0,0,0,0.1,0,0.1c0,0.1-0.1,0.2-0.2,0.3c0,0,0,0-0.1,0c0,0,0,0,0,0C34.6,19.5,34.6,19.5,34.6,19.7
		C34.6,19.6,34.6,19.7,34.6,19.7z M34.6,19.3L34.6,19.3c0-0.1,0.1-0.1,0.1-0.1c0-0.1,0-0.1,0-0.1c0-0.1,0-0.1-0.1-0.2V19.3z
		 M34.6,21.1C34.7,21,34.7,21,34.6,21.1c0.1-0.1,0.1-0.1,0.1-0.1c0.1-0.1,0.1-0.2,0.2-0.3c0-0.1,0-0.2,0-0.2c0-0.1,0-0.2-0.1-0.3
		c0,0,0-0.1-0.1-0.1c0,0-0.1-0.1-0.1-0.1c0,0-0.1-0.1-0.1-0.1c0,0,0,0,0,0.1c0,0,0,0.1,0,0.1c0,0,0,0,0,0c0,0,0.1,0.1,0.1,0.2
		c0,0.1,0,0.1,0,0.2c0,0.1,0,0.2-0.1,0.3l-0.1,0.1V21.1z M34.6,20.6C34.6,20.6,34.7,20.6,34.6,20.6c0-0.1,0-0.1,0-0.2
		c0,0,0-0.1,0-0.1c0,0,0-0.1,0-0.1c0,0,0,0.1,0,0.2C34.6,20.5,34.6,20.6,34.6,20.6z M34.9,22.1l0.1-0.1c0-0.1,0-0.1,0-0.2
		c0-0.2-0.1-0.4-0.3-0.5c0,0-0.1,0-0.1,0c0,0,0,0,0,0.1c0,0,0,0,0,0.1s0,0,0,0c0.1,0.1,0.2,0.2,0.2,0.4c0,0,0,0.1,0,0.2
		C34.8,22.1,34.9,22.1,34.9,22.1z M35.3,20.6c0,0,0.1-0.1,0.2-0.2l-0.7-0.7l-0.1,0.1l0.1,0.1c0.2,0.1,0.2,0.3,0.3,0.5l0,0.1
		C35.2,20.5,35.3,20.6,35.3,20.6z M35.4,22c0,0,0.1,0,0.1-0.1c0.1-0.1,0.1-0.1,0.1-0.1c0,0-0.1-0.1-0.2-0.3C35,21.2,34.9,21,34.9,21
		c0,0,0,0-0.1,0.1c0.1,0.1,0.2,0.2,0.3,0.3c0,0,0,0.1,0.1,0.2s0,0.1,0,0.2S35.2,21.8,35.4,22C35.3,22,35.3,22,35.4,22z M35.4,19.2
		c0,0,0,0,0.1-0.1c0.1-0.1,0.1-0.1,0.1-0.1c0,0,0,0-0.1-0.1s-0.1-0.1-0.2-0.1c-0.1-0.1-0.2-0.2-0.4-0.4h-0.1l0.1,0.1
		c0.1,0.1,0.2,0.3,0.2,0.4l0,0.1C35.3,19.1,35.4,19.2,35.4,19.2z M35.4,19.9C35.4,19.9,35.4,19.9,35.4,19.9c0.2-0.1,0.2-0.2,0.2-0.2
		c-0.1-0.1-0.2-0.2-0.4-0.4c0,0-0.1-0.1-0.1-0.1c0,0,0,0,0,0c0,0,0,0,0,0c0,0,0,0,0,0.1c0,0,0,0.1,0,0.1c0,0,0,0.1,0,0.1
		C35,19.5,35.1,19.7,35.4,19.9z M35.4,21.3c0.1-0.1,0.1-0.1,0.1-0.2c0,0,0.1-0.1,0.1-0.1c0,0-0.1-0.1-0.2-0.2
		c-0.2-0.2-0.2-0.2-0.2-0.2c0,0,0,0,0,0.1c0,0,0,0.1,0,0.1c0,0.1,0,0.1,0,0.1C35,20.9,35.1,21,35.4,21.3z M35.6,22.5L35.6,22.5
		c0,0-0.1-0.1-0.2-0.3c-0.2-0.2-0.2-0.3-0.3-0.3c0,0,0,0,0,0s0,0.1-0.1,0.2c0.1,0,0.1,0.1,0.2,0.1l0,0c0,0,0,0,0,0c0,0,0,0,0.1,0
		c0,0,0,0,0,0.1v0c0,0,0,0,0,0C35.4,22.5,35.5,22.5,35.6,22.5C35.6,22.5,35.6,22.5,35.6,22.5z M35.4,18.5c0.1-0.1,0.1-0.1,0.1-0.2
		s-0.1,0-0.3,0L35.4,18.5z M35.3,20.3C35.3,20.3,35.2,20.3,35.3,20.3C35.2,20.3,35.2,20.3,35.3,20.3c-0.1-0.1-0.1-0.1,0-0.1
		c0,0,0,0,0,0c0,0,0,0,0,0C35.3,20.2,35.3,20.3,35.3,20.3C35.3,20.3,35.3,20.3,35.3,20.3z M35.3,19.7C35.3,19.7,35.3,19.7,35.3,19.7
		C35.2,19.6,35.2,19.6,35.3,19.7c-0.1-0.1,0-0.2,0-0.2c0,0,0,0,0,0S35.4,19.6,35.3,19.7C35.4,19.6,35.4,19.6,35.3,19.7
		C35.3,19.6,35.3,19.6,35.3,19.7C35.3,19.7,35.3,19.7,35.3,19.7z M35.3,21.1C35.3,21.1,35.3,21.1,35.3,21.1
		C35.2,21.1,35.2,21,35.3,21.1c-0.1-0.1-0.1-0.1-0.1-0.1c0,0,0,0,0.1,0c0,0,0,0,0.1,0C35.4,21,35.4,21,35.3,21.1
		C35.4,21,35.4,21,35.3,21.1C35.3,21.1,35.3,21.1,35.3,21.1z M35.3,19C35.3,19,35.3,19,35.3,19C35.2,19,35.2,19,35.3,19
		C35.2,18.9,35.2,18.9,35.3,19c-0.1-0.1-0.1-0.1,0-0.1c0,0,0,0,0,0c0,0,0,0,0,0C35.4,18.9,35.4,18.9,35.3,19
		C35.4,18.9,35.4,19,35.3,19C35.3,19,35.3,19,35.3,19z M35.3,21.7C35.3,21.7,35.3,21.7,35.3,21.7C35.2,21.7,35.2,21.7,35.3,21.7
		c-0.1-0.1-0.1-0.1,0-0.1c0,0,0,0,0,0c0,0,0,0,0,0C35.3,21.6,35.4,21.7,35.3,21.7C35.4,21.7,35.4,21.7,35.3,21.7
		C35.3,21.7,35.3,21.7,35.3,21.7z M35.7,20.9c0,0,0-0.1,0-0.1c0,0,0-0.1,0-0.1c0,0,0-0.1,0-0.2c-0.1,0.1-0.2,0.2-0.2,0.2
		c0.1,0,0.1,0.1,0.1,0.1C35.6,20.8,35.6,20.9,35.7,20.9z M35.7,22.3c0-0.1,0-0.2,0-0.3c0,0,0-0.1,0-0.1c-0.1,0.1-0.2,0.2-0.2,0.2
		C35.5,22.1,35.5,22.2,35.7,22.3z M35.7,19.5c0,0,0-0.1,0-0.4l-0.2,0.2C35.6,19.5,35.7,19.5,35.7,19.5z M35.7,21.6
		c0-0.1,0-0.2,0-0.4c-0.1,0.1-0.1,0.2-0.2,0.2L35.7,21.6z M35.6,20.2c0,0,0-0.1,0-0.1c0-0.1,0-0.1,0-0.1s-0.1,0-0.2,0.1
		C35.6,20.1,35.6,20.2,35.6,20.2z M35.7,18.8c0,0,0-0.1,0-0.4l-0.1,0.1c0,0-0.1,0.1-0.1,0.1c0,0,0,0,0.1,0.1
		C35.6,18.8,35.7,18.8,35.7,18.8z"/>
	<path class="st3" d="M39.4,22.7c-0.4,0-0.7-0.1-1-0.3c-0.3-0.2-0.4-0.3-0.5-0.6c0,0,0-0.1,0-0.1c-0.1,0-0.1,0-0.1,0c0,0,0,0,0,0
		c0,0,0,0,0,0c0,0,0,0,0-0.1l0,0c0.2,0,0.4,0,0.5,0c0.1,0,0.1,0,0.2,0c0,0,0,0,0,0c0,0,0,0,0,0.1c0,0,0,0,0,0c0,0-0.1,0-0.3,0
		c-0.1,0-0.1,0-0.1,0c0,0,0,0,0,0.1c0.1,0.3,0.4,0.5,0.8,0.6c0.2,0.1,0.4,0.1,0.6,0.1c0.1,0,0.2,0,0.4,0c0.1,0,0.1,0,0.1,0
		c0,0,0,0,0,0c0,0,0.1,0,0.1-0.1c0.1-0.1,0.2-0.2,0.2-0.4c0-0.2-0.1-0.3-0.2-0.5c-0.1-0.1-0.2-0.1-0.3-0.2c-0.1-0.1-0.3-0.1-0.5-0.2
		c-0.3-0.1-0.5-0.2-0.6-0.3c-0.1-0.1-0.2-0.1-0.3-0.2c-0.4-0.3-0.6-0.6-0.6-1.1c0-0.1,0-0.3,0.1-0.4c0.1-0.4,0.4-0.6,0.7-0.9
		c0.3-0.2,0.7-0.3,1.1-0.3c0.4,0,0.8,0.1,1.1,0.3c0.2,0.1,0.3,0.3,0.4,0.4l0,0.1c0.1,0,0.2,0,0.2,0c0,0,0,0,0,0v0c0,0,0,0,0,0.1
		c0,0,0,0-0.1,0c-0.1,0-0.3,0-0.4,0c-0.1,0-0.1,0-0.1-0.1c0,0,0-0.1,0-0.1c0,0,0.1,0,0.2,0l0-0.1c0-0.1-0.1-0.1-0.2-0.2
		c-0.3-0.2-0.7-0.4-1.1-0.4c-0.3,0-0.6,0.1-0.8,0.2c0,0,0,0-0.1,0c0,0,0,0,0,0c0,0,0,0,0,0c0,0.1-0.1,0.2-0.1,0.3
		c0,0.1,0,0.2,0.1,0.3c0.1,0.1,0.2,0.3,0.3,0.4c0.1,0.1,0.4,0.2,0.7,0.3c0.3,0.1,0.6,0.2,0.8,0.3c0.2,0.1,0.3,0.2,0.4,0.2
		c0.2,0.2,0.4,0.4,0.5,0.7c0,0.1,0,0.1,0,0.2c0,0.2,0,0.3-0.1,0.4c0,0.1-0.1,0.2-0.2,0.3c0,0.1-0.1,0.1-0.2,0.2s-0.1,0.1-0.2,0.2
		C40.3,22.6,39.9,22.7,39.4,22.7z M38.2,19.7c0,0,0.1,0,0.2,0c0.2,0,0.2-0.1,0.2-0.1c0,0,0-0.1,0-0.1c0-0.1-0.1-0.2-0.1-0.2
		c0,0,0,0-0.1,0c0,0-0.1,0-0.1,0l-0.4,0.1c0,0.1,0,0.1,0,0.1c0,0,0,0,0,0s0,0,0.1,0C38,19.6,38.1,19.6,38.2,19.7
		C38.2,19.7,38.2,19.7,38.2,19.7z M38.5,20.5C38.5,20.5,38.5,20.5,38.5,20.5c0-0.2,0-0.4-0.1-0.5c0-0.1-0.1-0.1-0.1-0.1
		s-0.1-0.1-0.2-0.1c0,0-0.1,0-0.1,0c0,0,0,0,0,0c0,0,0,0,0,0c0,0.1,0,0.1,0.1,0.1c0.1,0,0.2,0.1,0.2,0.1c0.1,0.1,0.1,0.2,0.1,0.3
		c0,0,0,0,0,0.1c0,0,0,0,0,0.1c0,0,0,0,0,0C38.4,20.5,38.4,20.5,38.5,20.5z M38,19.2C38,19.2,38,19.2,38,19.2c0.1,0,0.1,0,0.1,0
		s0,0,0,0c0-0.1,0-0.2,0-0.2C38.1,19,38,19,38,19.2C38,19.2,38,19.2,38,19.2C38,19.2,38,19.2,38,19.2z M38.1,20.3
		C38.1,20.3,38.1,20.3,38.1,20.3c0-0.1,0-0.2-0.1-0.2C38,20,38,20,38,20c0,0,0,0,0,0c0,0,0,0.1,0.1,0.1
		C38.1,20.2,38.1,20.3,38.1,20.3z M38.3,19.2C38.3,19.2,38.3,19.2,38.3,19.2C38.3,19.1,38.3,19.1,38.3,19.2c0.1,0,0.1,0,0.2,0l0.1,0
		l0-0.1c0-0.1-0.1-0.2-0.1-0.3l0-0.1c0,0,0,0-0.1,0c0,0-0.1,0-0.1,0.1l-0.1,0.1C38.2,19,38.3,19.1,38.3,19.2
		C38.3,19.1,38.3,19.2,38.3,19.2z M38.3,19.6C38.3,19.6,38.2,19.5,38.3,19.6c-0.1-0.1,0-0.1,0-0.1C38.3,19.4,38.4,19.5,38.3,19.6
		C38.4,19.5,38.4,19.5,38.3,19.6C38.3,19.6,38.3,19.6,38.3,19.6z M38.5,20.1c0,0,0.1,0,0.1,0c0,0,0.2,0,0.5-0.1c0,0,0-0.1,0-0.1
		c0-0.1,0-0.2-0.1-0.2c-0.1,0-0.2,0-0.2,0c-0.4,0.1-0.5,0.1-0.5,0.1c0,0,0,0,0,0C38.4,19.9,38.5,19.9,38.5,20.1z M38.6,20.5
		L38.6,20.5c0.2-0.1,0.3-0.1,0.5-0.1c0,0,0.2,0,0.4-0.1c0.2,0,0.3-0.1,0.3-0.1c0,0,0,0,0,0c0,0,0-0.1,0-0.1c0-0.1,0-0.1,0-0.1
		c0,0,0,0,0,0c0,0,0,0-0.1,0c0,0,0,0-0.1,0c-0.6,0.1-0.9,0.2-0.9,0.2c0,0,0,0,0,0.1C38.6,20.4,38.6,20.5,38.6,20.5z M39.8,21.2
		C39.8,21.2,39.9,21.1,39.8,21.2c0,0,0-0.1,0-0.1c0-0.1-0.1-0.1-0.1-0.2c-0.1-0.1-0.2-0.2-0.3-0.2c-0.1,0-0.1,0-0.2-0.1
		c0,0-0.1,0-0.2,0c-0.1,0-0.2,0-0.3,0.1c-0.1,0-0.1,0-0.1,0.1s0,0,0.1,0l0.1,0c0.1,0,0.2-0.1,0.3-0.1c0.1,0,0.1,0,0.2,0
		c0.2,0.1,0.3,0.2,0.3,0.3c0,0,0,0,0,0s0,0,0,0s0,0,0.1,0C39.8,21.1,39.8,21.1,39.8,21.2C39.8,21.1,39.8,21.2,39.8,21.2z M38.8,19.9
		C38.8,19.9,38.8,19.9,38.8,19.9C38.8,19.9,38.8,19.9,38.8,19.9c-0.1-0.1,0-0.1,0-0.1c0,0,0,0,0,0C38.9,19.8,38.9,19.8,38.8,19.9
		C38.9,19.9,38.9,19.9,38.8,19.9C38.9,19.9,38.8,19.9,38.8,19.9z M38.8,19.5C38.8,19.5,38.8,19.5,38.8,19.5
		C38.9,19.5,38.9,19.5,38.8,19.5c0.1,0,0.1,0,0.1,0s0,0,0,0c0,0-0.1-0.1-0.2-0.2C38.8,19.4,38.8,19.5,38.8,19.5
		C38.8,19.5,38.8,19.5,38.8,19.5z M39.4,21C39.4,21,39.4,21,39.4,21C39.4,21,39.4,21,39.4,21c0-0.1-0.1-0.1-0.1-0.1c0,0-0.1,0-0.1,0
		l-0.1,0c0.1,0,0.2,0.1,0.3,0.1C39.4,21,39.4,21,39.4,21z M39.3,20.3C39.3,20.3,39.3,20.3,39.3,20.3C39.3,20.3,39.3,20.2,39.3,20.3
		c-0.1-0.1-0.1-0.1-0.1-0.1c0,0,0,0,0.1,0c0,0,0,0,0,0C39.4,20.2,39.4,20.2,39.3,20.3C39.4,20.2,39.4,20.3,39.3,20.3
		C39.4,20.3,39.3,20.3,39.3,20.3z M39.4,19.9l0.1,0c0.1,0,0.2,0,0.2,0c0,0,0,0,0,0c0,0,0,0-0.1,0c0,0-0.1,0-0.1,0s-0.1,0-0.1,0
		s0,0,0,0l0,0C39.3,19.8,39.4,19.9,39.4,19.9z M39.8,20.7c0,0,0.1,0,0.2,0c0.2,0,0.3-0.1,0.4-0.1c0-0.1,0-0.2,0-0.2c0,0,0-0.1,0-0.1
		c0,0-0.1,0-0.1,0c-0.5,0.1-0.7,0.1-0.7,0.1c0,0,0,0,0.1,0.1C39.7,20.6,39.7,20.6,39.8,20.7C39.8,20.7,39.8,20.7,39.8,20.7
		C39.8,20.7,39.8,20.7,39.8,20.7z M40,20.2c0,0,0.1,0,0.2,0c0.1,0,0.2,0,0.2,0c0,0-0.1,0-0.2-0.1S39.9,20,39.9,20
		C39.9,20,39.9,20,40,20.2C39.9,20.2,40,20.2,40,20.2z M40.1,21.2C40.1,21.2,40.1,21.1,40.1,21.2c0.1,0,0.2-0.1,0.5-0.1
		C40.8,21,41,21,41,21v0c0,0,0-0.1,0-0.2c0-0.1,0-0.2,0-0.2c0,0,0,0,0,0c0,0-0.1,0-0.1,0c0,0-0.1,0-0.2,0c-0.1,0-0.2,0-0.3,0
		c-0.1,0-0.2,0-0.2,0c-0.1,0-0.1,0-0.1,0c0,0,0,0,0,0C40,21,40,21,40.1,21.2C40,21.1,40,21.1,40.1,21.2C40,21.1,40,21.2,40.1,21.2z
		 M40.1,20.6C40.1,20.6,40.1,20.6,40.1,20.6C40,20.6,40,20.5,40.1,20.6C40,20.5,40,20.5,40,20.5c0,0,0,0,0.1,0
		C40.2,20.4,40.2,20.5,40.1,20.6C40.2,20.5,40.2,20.6,40.1,20.6C40.1,20.6,40.1,20.6,40.1,20.6z M40.4,22.4
		C40.4,22.4,40.4,22.4,40.4,22.4c0.2-0.1,0.3-0.2,0.3-0.2c0-0.1,0-0.2,0-0.3c0-0.1,0-0.2-0.1-0.3c-0.1-0.2-0.2-0.3-0.5-0.3h-0.1
		c0.1,0.1,0.1,0.1,0.1,0.1c0,0,0,0,0.1,0c0.1,0,0.1,0,0.2,0.1c0.1,0.1,0.2,0.2,0.2,0.4c0,0,0,0.1,0,0.1c0,0.1,0,0.1-0.1,0.2
		c0,0-0.1,0.1-0.1,0.1C40.4,22.3,40.4,22.3,40.4,22.4z M40.4,22.1L40.4,22.1c0-0.1,0-0.1,0-0.1c0-0.1,0-0.2-0.1-0.2
		c0,0,0-0.1-0.1-0.1v0c0,0.1,0.1,0.2,0.1,0.3C40.4,22,40.4,22.1,40.4,22.1z M40.6,21C40.5,21,40.5,21,40.6,21
		C40.5,21,40.5,20.9,40.6,21c-0.1-0.1-0.1-0.1-0.1-0.1c0,0,0,0,0.1,0c0,0,0,0,0.1,0C40.6,20.9,40.6,20.9,40.6,21
		C40.6,21,40.6,21,40.6,21z M40.8,21.4c0,0,0.1,0,0.2,0c0.1,0,0.2,0,0.2,0c0,0,0-0.1,0-0.1c0-0.1,0-0.1,0-0.1c0,0-0.1,0-0.3,0.1
		c-0.2,0-0.3,0.1-0.4,0.1c0,0,0,0,0,0s0,0,0,0C40.6,21.3,40.7,21.3,40.8,21.4C40.7,21.4,40.8,21.4,40.8,21.4z M40.6,20.6l0.1,0
		c0.1,0,0.2,0,0.2,0c0,0,0,0-0.1-0.1c-0.1-0.1-0.1-0.1-0.2-0.1c0,0,0,0,0,0c0,0,0,0,0,0C40.6,20.3,40.6,20.4,40.6,20.6
		C40.6,20.5,40.6,20.6,40.6,20.6z M40.9,22C40.9,22,40.9,22,40.9,22c0.1-0.1,0.1-0.1,0.1-0.1c0,0,0,0,0,0l0,0c0,0,0-0.1,0.1-0.1
		c0,0,0,0,0,0c0,0,0-0.1,0.1-0.1c0,0,0,0,0,0c-0.1,0-0.1,0-0.3,0c0,0-0.1,0-0.1,0c0,0.1,0,0.2,0,0.3C40.9,22,40.9,22,40.9,22z
		 M41.1,21.3C41.1,21.3,41,21.3,41.1,21.3C41,21.3,41,21.3,41.1,21.3C41,21.3,41,21.2,41,21.2c0,0,0,0,0.1,0c0,0,0,0,0.1,0
		C41.1,21.2,41.1,21.2,41.1,21.3C41.1,21.3,41.1,21.3,41.1,21.3C41.1,21.3,41.1,21.3,41.1,21.3z M41.2,20.9
		C41.2,20.9,41.2,20.9,41.2,20.9C41.2,20.9,41.2,20.9,41.2,20.9C41.2,20.9,41.2,20.9,41.2,20.9c0-0.1,0-0.1,0-0.1c0,0,0,0,0,0v0
		C41.1,20.8,41.1,20.8,41.2,20.9C41.1,20.9,41.1,20.9,41.2,20.9z"/>
	<path class="st3" d="M42.4,22.6c-0.6,0-0.9,0-0.9,0c0,0,0,0,0,0v0c0,0,0-0.1,0.1-0.1c0,0,0,0,0.1,0c0.1,0,0.1,0,0.2,0
		c0-0.1,0-0.3,0-0.7l0-3.3c-0.1,0-0.2,0-0.2,0c0,0-0.1,0-0.1-0.1c0,0,0-0.1,0-0.1c0,0,0.4,0,1.2,0c0.2,0,0.9,0,2.1,0
		c0,0,0.1,0,0.1,0.1v0.6l0,0c0,0,0,0-0.1,0c0,0-0.1,0-0.1-0.1c0,0,0-0.2,0-0.5h-1.5c0,0.5,0,1.1,0,1.6c0,0.2,0,0.4,0,0.7l0.6,0
		c0.1,0,0.3,0,0.5,0c0-0.1,0-0.2,0-0.3c0,0,0-0.1,0-0.1c0,0,0,0,0,0c0,0,0,0,0.1,0c0,0,0,0,0,0.1c0,0,0,0.3,0,0.7c0,0.1,0,0.1,0,0.1
		c0,0,0,0.1-0.1,0.1c0,0-0.1,0-0.1-0.1c0,0,0-0.1,0-0.3c-0.7,0-1.1,0-1.1,0c0,0,0,0.5,0,1.6l1.6,0c0-0.2,0-0.4,0-0.4
		c0-0.1,0-0.1,0-0.1c0,0,0,0,0.1,0c0,0,0.1,0,0.1,0.1c0,0,0,0.1,0,0.3c0,0.2,0,0.3,0,0.3c0,0,0,0,0,0c0,0-0.3,0-0.8,0
		c-0.2,0-0.5,0-0.9,0L42.4,22.6z M42,19.7C42,19.7,42,19.6,42,19.7c0.3-0.2,0.4-0.4,0.4-0.6v0c0-0.2-0.1-0.4-0.2-0.5
		c0,0,0,0-0.1-0.1c0,0,0,0-0.1,0c0,0,0,0,0,0c0,0,0,0,0,0.1c0,0,0,0.1,0,0.1c0,0,0,0,0,0c0,0,0.1,0.1,0.1,0.1
		c0.1,0.1,0.1,0.2,0.1,0.3c0,0,0,0.1,0,0.1c0,0.1-0.1,0.2-0.2,0.3c0,0,0,0-0.1,0C42,19.5,41.9,19.5,42,19.7
		C41.9,19.6,42,19.7,42,19.7z M42,19.3L42,19.3c0-0.1,0.1-0.1,0.1-0.1c0-0.1,0-0.1,0-0.1c0-0.1,0-0.1-0.1-0.2V19.3z M42,21.1
		c0,0,0.1-0.1,0.1-0.1c0.1-0.1,0.1-0.2,0.2-0.3c0-0.1,0-0.2,0-0.2c0-0.1,0-0.3-0.1-0.4C42,19.9,42,19.9,42,19.9c0,0,0,0,0,0.1
		c0,0,0,0.1,0,0.1s0,0,0,0c0,0,0.1,0.1,0.1,0.2c0,0.1,0,0.1,0,0.2c0,0.1,0,0.2-0.1,0.3L42,20.8V21.1z M42,20.6
		C42,20.6,42,20.6,42,20.6c0-0.1,0-0.1,0-0.2c0,0,0-0.1,0-0.2c0,0,0,0,0,0c0,0,0,0.1,0,0.2C42,20.5,42,20.6,42,20.6z M42,22.4
		c0.1-0.1,0.2-0.1,0.2-0.3c0.1-0.1,0.1-0.2,0.1-0.4c0-0.2,0-0.3-0.1-0.4c-0.1-0.1-0.1-0.1-0.2-0.1c0,0,0,0,0,0.1c0,0,0,0,0,0.1
		c0,0,0,0,0,0c0.1,0.1,0.1,0.2,0.1,0.4c0,0.1,0,0.2,0,0.2c0,0.1-0.1,0.1-0.1,0.2L42,22.3V22.4z M42,22c0,0,0-0.1,0-0.2
		c0-0.1,0-0.1,0-0.1c0,0,0,0,0,0c0,0,0,0.1,0,0.2C42,21.9,42,22,42,22z M42.7,20.6c0,0,0.1-0.1,0.2-0.2l-0.7-0.7l-0.1,0.1l0.1,0.1
		c0.2,0.1,0.2,0.3,0.3,0.5l0,0.1C42.6,20.5,42.7,20.6,42.7,20.6z M42.7,22c0,0,0,0,0.1-0.1c0.1-0.1,0.1-0.1,0.1-0.1
		c0,0,0-0.1-0.1-0.2c-0.4-0.4-0.5-0.6-0.5-0.6c0,0,0,0,0,0c0,0,0,0,0,0c0,0,0,0,0,0.1c0.1,0.1,0.2,0.2,0.3,0.3c0,0,0,0.1,0.1,0.2
		c0,0.1,0,0.1,0,0.1v0C42.5,21.8,42.5,21.8,42.7,22C42.7,22,42.7,22,42.7,22z M42.7,19.2c0,0,0,0,0.1-0.1c0.1-0.1,0.1-0.1,0.1-0.1
		c0,0,0,0-0.1-0.1s-0.1-0.1-0.2-0.1c-0.1-0.1-0.2-0.2-0.4-0.4h-0.1l0.1,0.1c0.1,0.1,0.2,0.3,0.2,0.4l0,0.1
		C42.6,19.1,42.7,19.2,42.7,19.2z M42.7,22.4C42.8,22.4,42.8,22.4,42.7,22.4c0.1,0,0-0.1-0.1-0.2c-0.1-0.1-0.2-0.2-0.2-0.2
		c0,0,0,0,0,0.1c-0.1,0.1-0.1,0.2-0.2,0.3l0.3,0c0,0,0,0,0,0s0,0,0-0.1c0,0,0,0,0,0s0,0,0.1,0C42.6,22.3,42.6,22.4,42.7,22.4
		L42.7,22.4z M42.7,21.3c0.1-0.1,0.1-0.1,0.1-0.2c0,0,0.1-0.1,0.1-0.1c0,0-0.1-0.1-0.2-0.2c-0.2-0.2-0.2-0.2-0.2-0.2c0,0,0,0,0,0.1
		c0,0,0,0.1,0,0.1s0,0.1,0,0.1C42.3,20.9,42.5,21,42.7,21.3z M42.7,19.9L42.7,19.9C42.7,19.9,42.8,19.9,42.7,19.9
		c0.1-0.1,0.1-0.1,0.1-0.1c0,0,0,0,0.1,0c0,0,0,0,0,0c0,0-0.1-0.1-0.3-0.3c-0.1-0.1-0.2-0.2-0.2-0.2c0,0,0,0,0,0.1s0,0.1-0.1,0.2
		c0,0,0,0.1,0,0.1C42.3,19.5,42.4,19.7,42.7,19.9C42.7,19.9,42.7,19.9,42.7,19.9z M42.7,18.5c0.1-0.1,0.1-0.1,0.1-0.1
		c0,0-0.1,0-0.3,0L42.7,18.5z M42.6,20.3C42.6,20.3,42.6,20.3,42.6,20.3C42.5,20.3,42.5,20.3,42.6,20.3c-0.1-0.1-0.1-0.1,0-0.1
		c0,0,0,0,0,0C42.7,20.2,42.7,20.2,42.6,20.3C42.7,20.3,42.7,20.3,42.6,20.3z M42.6,19.7C42.6,19.7,42.6,19.6,42.6,19.7
		C42.6,19.6,42.5,19.6,42.6,19.7c-0.1-0.1-0.1-0.1-0.1-0.1c0,0,0,0,0.1,0c0,0,0,0,0.1,0C42.7,19.5,42.7,19.6,42.6,19.7
		C42.7,19.6,42.7,19.6,42.6,19.7C42.7,19.6,42.7,19.6,42.6,19.7C42.6,19.7,42.6,19.7,42.6,19.7z M42.6,21.1L42.6,21.1
		C42.6,21.1,42.6,21.1,42.6,21.1C42.6,21,42.5,21,42.6,21.1c-0.1-0.1-0.1-0.1-0.1-0.1c0,0,0,0,0,0h0c0,0,0,0,0.1,0
		C42.7,21,42.7,21,42.6,21.1C42.7,21,42.7,21,42.6,21.1C42.7,21,42.7,21,42.6,21.1C42.7,21.1,42.7,21.1,42.6,21.1z M42.6,19
		C42.6,19,42.6,19,42.6,19C42.6,19,42.6,18.9,42.6,19C42.6,18.9,42.6,18.9,42.6,19c-0.1-0.1-0.1-0.1,0-0.2c0,0,0,0,0,0c0,0,0,0,0,0
		S42.7,18.9,42.6,19C42.7,18.9,42.7,18.9,42.6,19C42.7,19,42.6,19,42.6,19z M42.6,21.7C42.6,21.7,42.6,21.7,42.6,21.7
		C42.6,21.7,42.6,21.7,42.6,21.7c-0.1-0.1-0.1-0.1,0-0.1c0,0,0,0,0,0c0,0,0,0,0,0C42.7,21.6,42.7,21.6,42.6,21.7
		C42.7,21.7,42.7,21.7,42.6,21.7C42.7,21.7,42.6,21.7,42.6,21.7z M43,20.9c0,0,0-0.1,0-0.1c0,0,0-0.1,0-0.1c0,0,0-0.1,0-0.2
		c-0.1,0.1-0.2,0.2-0.2,0.2c0.1,0,0.1,0.1,0.1,0.1C42.9,20.8,43,20.9,43,20.9z M43,22.3l0-0.3c0,0,0-0.1,0-0.1
		c-0.1,0.1-0.2,0.2-0.2,0.2C42.8,22.1,42.9,22.2,43,22.3z M43,19.5c0,0,0-0.1,0-0.4l-0.2,0.2C42.9,19.4,43,19.5,43,19.5z M43,21.6
		c0-0.1,0-0.2,0-0.4c-0.1,0.1-0.1,0.2-0.2,0.2L43,21.6z M43,20.2c0,0,0,0,0-0.1c0-0.1,0-0.1,0-0.1c0,0-0.1,0-0.2,0.1
		C42.9,20.1,43,20.2,43,20.2z M43,18.8c0,0,0-0.1,0-0.4l-0.1,0.1c0,0-0.1,0.1-0.1,0.1c0,0,0,0,0,0.1C43,18.8,43,18.8,43,18.8z"/>
	<path class="st3" d="M49.2,22.7c0,0-0.1,0-0.1,0c-0.4,0-0.7-0.1-1-0.3c-0.3-0.2-0.6-0.5-0.8-0.9c0,0,0-0.1,0-0.1c0,0,0,0,0-0.1
		c0,0-0.1-0.1-0.1-0.3c-0.1-0.2-0.1-0.4-0.1-0.6c0-0.1,0-0.3,0-0.4c0.1-0.6,0.4-1.1,0.9-1.4c0,0,0,0,0,0s0,0,0,0
		c0,0,0.1-0.1,0.2-0.1c0.1,0,0.1-0.1,0.1-0.1c0,0,0.1,0,0.2-0.1s0.2,0,0.3-0.1c0.1,0,0.2,0,0.4,0c0.1,0,0.1,0,0.2,0
		c0.4,0,0.7,0.2,1,0.4c0.3,0.2,0.5,0.5,0.7,0.8c0.1,0.2,0.2,0.5,0.2,0.7c0,0.1,0,0.2,0,0.4c0,0.5-0.2,1-0.5,1.4
		c-0.4,0.5-0.9,0.8-1.5,0.8C49.3,22.7,49.2,22.7,49.2,22.7z M47.2,20.2C47.2,20.2,47.2,20.2,47.2,20.2c0.3-0.1,0.4-0.3,0.5-0.5
		c0-0.1,0-0.1,0-0.1c0-0.1-0.1-0.3-0.1-0.4c0,0.1-0.1,0.1-0.1,0.1c0,0,0,0,0,0.1c0,0.1,0.1,0.2,0.1,0.2c0,0.1,0,0.2-0.1,0.3
		c-0.1,0.1-0.1,0.2-0.3,0.2c0,0,0,0,0,0C47.2,20.1,47.2,20.1,47.2,20.2C47.2,20.2,47.2,20.2,47.2,20.2z M47.3,21.1
		C47.3,21.1,47.3,21.1,47.3,21.1C47.3,21,47.3,21,47.3,21.1c0-0.1,0-0.2,0-0.2c0-0.1,0-0.1,0-0.2c0,0,0-0.1-0.1-0.2c0,0,0,0,0,0
		s0,0,0,0s0,0,0,0c0,0,0,0.1,0,0.2C47.3,20.9,47.3,21,47.3,21.1L47.3,21.1z M47.3,19.9C47.3,19.9,47.3,19.9,47.3,19.9
		c0.1-0.1,0.2-0.2,0.2-0.3c0,0,0-0.1,0-0.1c0,0,0,0,0,0c0,0,0,0.1-0.1,0.2C47.3,19.8,47.3,19.9,47.3,19.9
		C47.3,19.9,47.3,19.9,47.3,19.9z M47.6,21.3C47.6,21.3,47.7,21.3,47.6,21.3c0.1,0,0.1-0.1,0.2-0.1c0,0,0.1,0,0.1,0c0,0,0,0,0,0
		c0,0,0-0.1-0.1-0.1c0,0,0,0,0-0.1c0,0,0,0,0,0s0,0,0-0.1c0,0,0-0.1-0.1-0.1c0-0.1,0-0.1-0.1-0.1c0,0,0-0.1,0-0.1c0,0,0,0,0,0
		c0-0.1-0.1-0.2-0.1-0.2s0,0,0,0l0,0c0,0,0,0-0.1,0c0,0-0.1,0-0.1,0s0,0,0,0c0,0,0.1,0.1,0.1,0.2c0,0,0,0.1,0,0.1c0,0.2,0,0.3,0,0.4
		C47.6,21.2,47.6,21.3,47.6,21.3C47.6,21.3,47.6,21.3,47.6,21.3z M47.5,21.5C47.5,21.5,47.5,21.5,47.5,21.5
		C47.5,21.4,47.5,21.4,47.5,21.5c0-0.1,0-0.1,0-0.1c0-0.1,0-0.1-0.1-0.1c0,0,0,0,0,0S47.4,21.3,47.5,21.5
		C47.5,21.5,47.5,21.5,47.5,21.5z M47.6,21.1C47.6,21.1,47.6,21.1,47.6,21.1C47.6,21.1,47.5,21.1,47.6,21.1
		c-0.1-0.1-0.1-0.1-0.1-0.1c0,0,0,0,0.1,0c0,0,0,0,0,0C47.7,21,47.7,21.1,47.6,21.1C47.7,21.1,47.7,21.1,47.6,21.1
		C47.7,21.1,47.6,21.1,47.6,21.1z M47.8,20.7C47.8,20.7,47.8,20.7,47.8,20.7c0.1,0,0.1,0,0.1-0.1c0,0,0.1,0,0.1,0s0,0,0,0
		c0,0,0,0,0,0c0,0-0.1-0.2-0.2-0.4c0-0.1-0.1-0.1-0.1-0.1c0,0,0,0,0,0c0,0.1-0.1,0.1-0.2,0.2C47.7,20.5,47.8,20.7,47.8,20.7z
		 M47.8,21.8c0,0,0,0,0.1,0c0-0.1,0-0.2,0-0.2c0-0.1,0-0.1,0-0.1c0,0-0.1,0-0.1,0.1c0,0-0.1,0-0.1,0s0,0,0,0c0,0,0,0,0,0
		c0,0,0,0,0,0.1C47.7,21.6,47.8,21.7,47.8,21.8C47.8,21.8,47.8,21.8,47.8,21.8z M48,20l0.1-0.1c0.1,0,0.1-0.1,0.1-0.1
		c0,0,0-0.1-0.1-0.2c0-0.1-0.1-0.2-0.2-0.5c0,0,0-0.1,0-0.1c0,0,0,0-0.1,0s-0.1,0-0.1,0c0,0,0,0,0,0c0,0,0,0.1,0.1,0.2
		c0,0.1,0.1,0.2,0.1,0.3c0,0,0,0.1,0,0.2C47.9,19.9,47.9,20,48,20C47.9,20,48,20,48,20z M47.8,20.5C47.8,20.5,47.8,20.5,47.8,20.5
		L47.8,20.5c-0.1-0.1-0.1-0.1,0-0.1c0,0,0,0,0,0C47.9,20.3,47.9,20.3,47.8,20.5C47.9,20.4,47.9,20.4,47.8,20.5
		C47.9,20.5,47.8,20.5,47.8,20.5z M47.8,18.9C47.8,18.9,47.8,18.9,47.8,18.9c0.1-0.1,0.2-0.1,0.3-0.1c0.1-0.1,0.1-0.1,0.2-0.2
		c0,0,0,0,0,0c0,0-0.1,0-0.1,0.1C48,18.7,47.8,18.8,47.8,18.9L47.8,18.9z M48,22.1C48,22.1,48,22.1,48,22.1L48,22.1c0,0,0-0.1,0-0.1
		c0-0.1,0-0.1,0-0.1c0,0,0,0,0,0c0,0,0,0,0,0c0,0,0,0,0,0c0,0,0,0.1,0.1,0.1C48,22.1,48,22.1,48,22.1z M47.9,21C48,21,48,21,47.9,21
		c0-0.1,0-0.1,0-0.2c0,0,0,0,0,0c0,0,0,0,0,0c0,0,0,0-0.1,0c0,0-0.1,0-0.1,0c0,0,0,0,0,0.1C47.9,21,47.9,21,47.9,21z M48,19.8
		C48,19.8,48,19.8,48,19.8C48,19.8,47.9,19.8,48,19.8c-0.1-0.1-0.1-0.1-0.1-0.1c0,0,0,0,0.1,0c0,0,0,0,0,0
		C48.1,19.7,48.1,19.7,48,19.8C48.1,19.8,48.1,19.8,48,19.8C48.1,19.8,48.1,19.8,48,19.8C48,19.8,48,19.8,48,19.8z M48.2,19.4
		C48.2,19.4,48.3,19.4,48.2,19.4c0.1,0,0.1-0.1,0.2-0.1s0.1,0,0.1-0.1c0,0,0,0,0,0c0,0,0-0.1-0.1-0.2c0-0.1-0.1-0.1-0.1-0.2
		c0,0,0-0.1,0-0.1c0,0,0,0-0.1,0.1c-0.1,0.1-0.1,0.1-0.1,0.1c0,0-0.1,0.1-0.1,0.1c0,0,0,0.1,0.1,0.2S48.2,19.4,48.2,19.4z
		 M48.1,20.3C48.1,20.3,48.1,20.3,48.1,20.3c0-0.1,0-0.1,0-0.1c0,0,0,0,0,0c0,0,0,0,0,0C48.1,20.2,48.1,20.2,48.1,20.3
		C48.1,20.2,48.1,20.2,48.1,20.3C48.1,20.3,48.1,20.3,48.1,20.3z M48.5,22.3c0.2,0,0.5-0.2,0.7-0.5c0.3-0.4,0.6-1,0.8-1.6
		c0.1-0.3,0.1-0.6,0.1-0.9c0-0.4-0.1-0.6-0.2-0.8c-0.1-0.1-0.2-0.1-0.2-0.1c0,0-0.1,0-0.1,0c-0.2,0.1-0.5,0.3-0.7,0.6
		c-0.2,0.3-0.4,0.7-0.6,1.2c-0.1,0.4-0.2,0.8-0.2,1.2c0,0.4,0.1,0.6,0.2,0.8C48.4,22.3,48.4,22.3,48.5,22.3z M48.3,19.2
		C48.3,19.2,48.2,19.2,48.3,19.2C48.2,19.2,48.2,19.2,48.3,19.2c-0.1-0.1-0.1-0.1,0-0.1c0,0,0,0,0,0c0,0,0,0,0,0
		C48.3,19.1,48.3,19.1,48.3,19.2C48.3,19.2,48.3,19.2,48.3,19.2C48.3,19.2,48.3,19.2,48.3,19.2z M48.3,19.7
		C48.3,19.7,48.4,19.6,48.3,19.7c0.1-0.1,0.1-0.1,0.1-0.1h0c0,0,0,0-0.1,0C48.3,19.6,48.3,19.6,48.3,19.7
		C48.3,19.6,48.3,19.7,48.3,19.7z M48.5,18.8l0.3-0.2c-0.1-0.1-0.1-0.2-0.1-0.2c0,0,0-0.1-0.1-0.1c0,0,0,0-0.1,0c0,0-0.1,0-0.1,0
		c0,0,0,0,0,0c0,0.1,0,0.1,0,0.1c0,0,0,0,0,0c0,0,0,0.1,0,0.1C48.5,18.7,48.5,18.8,48.5,18.8C48.5,18.8,48.5,18.8,48.5,18.8
		C48.5,18.8,48.5,18.8,48.5,18.8z M48.6,18.6C48.6,18.6,48.6,18.6,48.6,18.6C48.5,18.6,48.5,18.6,48.6,18.6
		c-0.1-0.1-0.1-0.1-0.1-0.1c0,0,0,0,0.1,0c0,0,0,0,0.1,0C48.7,18.5,48.7,18.5,48.6,18.6C48.7,18.6,48.7,18.6,48.6,18.6
		C48.6,18.6,48.6,18.6,48.6,18.6z M48.7,19.1C48.7,19.1,48.7,19.1,48.7,19.1c0.1-0.2,0.2-0.2,0.2-0.2c0,0,0,0-0.1,0
		c-0.1,0-0.1,0.1-0.1,0.1C48.6,19,48.6,19,48.7,19.1C48.6,19.1,48.7,19.1,48.7,19.1z M48.8,22.5C48.8,22.5,48.8,22.5,48.8,22.5
		C48.8,22.5,48.8,22.4,48.8,22.5C48.8,22.4,48.7,22.4,48.8,22.5C48.7,22.5,48.7,22.5,48.8,22.5C48.8,22.5,48.8,22.5,48.8,22.5z
		 M48.9,18.4c0.1,0,0.1-0.1,0.1-0.1c0,0,0,0,0,0C48.9,18.3,48.9,18.3,48.9,18.4C48.9,18.4,48.9,18.4,48.9,18.4
		C48.9,18.4,48.9,18.4,48.9,18.4L48.9,18.4z M49.2,22.5l-0.1-0.1c0-0.1-0.1-0.1-0.1-0.1c0,0,0,0,0,0c0,0,0,0-0.1,0.1
		c0,0,0,0.1,0.1,0.1c0,0,0,0,0,0.1S49.1,22.5,49.2,22.5z M49,18.7C49,18.7,49.1,18.6,49,18.7c0.1-0.1,0.1-0.1,0.2-0.2
		c0.1,0,0.1-0.1,0.1-0.1c0,0,0,0,0,0c0,0-0.1,0-0.2,0.1c-0.1,0-0.2,0.1-0.2,0.1C49,18.5,49,18.6,49,18.7C49,18.6,49,18.6,49,18.7z
		 M49.4,22.5c0.1,0,0.2,0,0.3,0c0,0,0.1,0,0.1,0c0,0,0.1,0,0.1,0c0,0,0,0,0-0.1c0,0,0,0,0,0l-0.1,0c0,0-0.1,0-0.1,0s-0.1,0-0.1,0
		c0,0-0.1,0-0.1,0c0,0,0-0.1-0.1-0.1c0-0.1-0.1-0.1-0.1-0.1c0,0-0.1,0.1-0.1,0.1l0.1,0.2C49.3,22.4,49.4,22.5,49.4,22.5L49.4,22.5z
		 M50,22.3c0,0,0.1,0,0.2-0.1l0,0c0,0-0.1,0-0.1,0c0,0,0-0.1-0.1-0.1C50,22,50,22,49.9,22c0,0,0,0-0.1,0c-0.1,0-0.1,0-0.2,0
		c0,0,0,0-0.1,0c0,0,0,0-0.1-0.1c0,0,0-0.1-0.1-0.1c0,0.1-0.1,0.1-0.1,0.1c0,0,0,0,0,0c0,0,0,0,0,0.1c0,0,0,0.1,0.1,0.1c0,0,0,0,0,0
		c0,0,0.1,0,0.2,0c0,0,0.1,0,0.1,0c0,0,0.1,0,0.1,0C49.9,22.2,50,22.2,50,22.3C50,22.3,50,22.3,50,22.3z M50.2,22.1c0,0,0.1,0,0.2,0
		c0,0,0.1,0,0.1-0.1c0.1-0.1,0.1-0.1,0.1-0.1c0,0,0,0,0,0c0,0-0.1,0-0.1,0c-0.1,0-0.1,0-0.1,0c0,0,0,0-0.1,0c0,0,0,0-0.1-0.1
		c0,0-0.1-0.1-0.1-0.1c0,0,0,0,0,0c0,0-0.1,0-0.2,0c0,0,0,0,0,0s0,0,0,0c0,0,0,0,0,0c0,0-0.1,0-0.1-0.1c0,0,0-0.1-0.1-0.1
		c0,0.1-0.1,0.1-0.1,0.1c0,0,0,0.1,0.1,0.2c0,0,0.1,0,0.2,0c0.1,0,0.1,0,0.1,0c0,0,0,0,0.1,0C50.1,21.9,50.1,21.9,50.2,22.1
		C50.2,22,50.2,22.1,50.2,22.1C50.2,22.1,50.2,22.1,50.2,22.1z M50.4,21.8l0.1,0c0.2,0,0.3,0,0.3-0.1c0,0,0-0.1,0.1-0.2c0,0,0,0,0,0
		l0,0c0,0-0.1,0-0.1,0s-0.1,0-0.1,0c0,0,0,0,0,0c0,0,0,0-0.1,0c0,0-0.1-0.1-0.1-0.2c0-0.1-0.1-0.1-0.1-0.1c0,0-0.1,0-0.2,0
		c-0.1,0-0.1,0-0.2,0c0,0-0.1,0-0.1-0.1c0,0.1-0.1,0.1-0.1,0.1c0,0,0,0.1,0.1,0.1l0,0.1c0.2,0,0.3-0.1,0.3-0.1c0,0,0.1,0,0.1,0.1
		C50.3,21.6,50.3,21.7,50.4,21.8C50.3,21.7,50.4,21.8,50.4,21.8z M50.5,21.4l0.4-0.1c0-0.1,0-0.1,0-0.1l0,0c0,0-0.1,0-0.3,0.1
		c0,0-0.1,0-0.1,0c0,0-0.1-0.1-0.2-0.2L50.4,21c-0.2,0-0.2,0.1-0.3,0.1c0,0-0.1,0-0.1,0l0,0c0,0.1-0.1,0.2-0.1,0.2c0,0,0,0,0,0.1
		l0,0c0.2,0,0.3-0.1,0.3-0.1c0,0,0.1,0,0.1,0.1S50.5,21.4,50.5,21.4z M50.7,21.1c0,0,0.1,0,0.2,0C51,21,51,21,51.1,21c0,0,0,0,0,0
		c0,0,0,0,0-0.1c0,0,0,0,0,0c0,0,0,0-0.1,0c-0.1,0-0.2,0-0.2,0c0,0-0.1-0.1-0.2-0.2c0-0.1,0-0.1-0.1-0.1c0,0-0.1,0-0.2,0.1
		c-0.1,0-0.1,0-0.1,0c0,0-0.1,0-0.1,0c0,0,0,0,0,0c0,0,0,0-0.1,0.1l0,0.1c0,0,0,0,0.1,0c0.2,0,0.2-0.1,0.3-0.1c0,0,0.1,0,0.1,0.1
		C50.6,21,50.7,21.1,50.7,21.1z M50.2,20.5c0,0,0.1,0,0.1,0c0,0,0,0,0,0s0,0,0,0s0,0-0.1,0c0,0-0.1,0-0.1,0c0,0,0,0,0,0
		C50.2,20.4,50.2,20.4,50.2,20.5C50.2,20.5,50.2,20.5,50.2,20.5C50.2,20.5,50.2,20.5,50.2,20.5L50.2,20.5z M51.1,20.6
		C51.1,20.6,51.1,20.6,51.1,20.6c0-0.1,0-0.1,0-0.1c0,0-0.1,0-0.1-0.1c0,0-0.1,0-0.3-0.1c-0.2-0.1-0.4-0.2-0.4-0.2h0c0,0,0,0,0,0.1
		s0,0,0,0.1c0,0,0.1,0,0.3,0.1c0.1,0,0.1,0.1,0.2,0.1C51,20.5,51.1,20.6,51.1,20.6z M50.4,18.8C50.4,18.8,50.4,18.8,50.4,18.8
		C50.4,18.8,50.3,18.8,50.4,18.8c-0.1-0.1-0.1-0.1-0.1-0.1c0,0,0,0,0,0C50.2,18.7,50.3,18.7,50.4,18.8
		C50.3,18.8,50.3,18.8,50.4,18.8z M51.1,20.3C51.1,20.3,51.1,20.3,51.1,20.3c0-0.1,0-0.1,0-0.1c0,0,0,0-0.1,0c0,0-0.1-0.1-0.3-0.1
		c-0.1,0-0.1,0-0.1-0.1c0,0-0.1,0-0.2-0.1c0,0-0.1,0-0.1,0c0,0,0,0,0,0s0,0,0,0.1c0,0,0,0,0,0c0.2,0.1,0.4,0.1,0.6,0.2
		C51,20.2,51.1,20.3,51.1,20.3C51.1,20.3,51.1,20.3,51.1,20.3z M50.8,19.2C50.8,19.2,50.8,19.2,50.8,19.2c0,0,0-0.1-0.1-0.2
		c-0.2-0.1-0.3-0.1-0.3-0.1v0c0,0,0,0,0,0.1s0,0.1,0,0.1c0,0,0.1,0,0.2,0.1C50.7,19.2,50.7,19.2,50.8,19.2z M51.1,20
		C51.1,20,51.1,20,51.1,20C51.1,19.9,51.1,19.9,51.1,20c0-0.1,0-0.1,0-0.1c0,0,0,0-0.1,0c0,0-0.1,0-0.2-0.1
		c-0.3-0.1-0.4-0.2-0.4-0.2c0,0,0,0,0,0c0,0,0,0,0,0.1c0.3,0.1,0.5,0.2,0.5,0.2C50.9,19.9,51,19.9,51.1,20C51,20,51.1,20,51.1,20z
		 M50.9,19.6C50.9,19.6,50.9,19.6,50.9,19.6c0,0,0-0.1,0-0.1c0,0,0,0,0,0s0,0-0.1,0c-0.1,0-0.1-0.1-0.3-0.1c-0.1,0-0.2-0.1-0.2-0.1
		s0,0,0,0c0,0,0,0.1,0,0.1s0.1,0,0.1,0.1c0.1,0,0.2,0.1,0.3,0.1C50.9,19.6,50.9,19.6,50.9,19.6z M50.8,20.7
		C50.8,20.7,50.8,20.7,50.8,20.7c0.1,0,0.1,0,0.2,0c0,0-0.1-0.1-0.3-0.1C50.7,20.6,50.7,20.6,50.8,20.7
		C50.8,20.7,50.8,20.7,50.8,20.7z"/>
	<path class="st3" d="M52.3,22.6c-0.5,0-0.8,0-0.8,0c0,0,0,0,0-0.1c0,0,0-0.1,0.1-0.1c0,0,0,0,0.1,0c0.1,0,0.1,0,0.2,0
		c0-0.1,0-0.3,0-0.7l0-3.3c-0.1,0-0.2,0-0.2,0c0,0-0.1,0-0.1-0.1c0,0,0,0,0,0c0,0,0-0.1,0-0.1c0,0,0.4,0,1.2,0c0.2,0,0.9,0,2.1,0
		c0,0,0.1,0,0.1,0.1v0.6c0,0-0.1,0-0.1,0c0,0-0.1,0-0.1-0.1c0,0,0-0.2,0-0.5h-1.5c0,0.7,0,1.2,0,1.6c0,0.2,0,0.5,0,0.7l0.6,0
		c0.1,0,0.3,0,0.5,0l0-0.2c0-0.1,0-0.1,0.1-0.1c0,0,0,0,0.1,0c0,0,0,0.3,0,0.8c0,0.1,0,0.1,0,0.1c0,0,0,0-0.1,0.1c0,0-0.1,0-0.1,0
		c0,0,0,0,0-0.1s0-0.1,0-0.3c-0.7,0-1.1,0-1.1,0c0,0,0,0.6,0,1.6l0.3,0c0.1,0,0.1,0,0.1,0.1c0,0,0,0.1,0,0.1
		C53.4,22.6,53,22.6,52.3,22.6z M51.9,19.7C51.9,19.7,51.9,19.7,51.9,19.7c0.3-0.2,0.3-0.4,0.3-0.6v0c0-0.2-0.1-0.4-0.2-0.5
		c0,0,0,0-0.1-0.1s0,0-0.1,0s0,0,0,0c0,0,0,0,0,0.1c0,0,0,0.1,0,0.1c0,0,0,0,0,0c0,0,0.1,0.1,0.1,0.1c0.1,0.1,0.1,0.2,0.1,0.3
		c0,0,0,0.1,0,0.1c0,0.1-0.1,0.2-0.1,0.3c0,0-0.1,0-0.1,0C51.9,19.5,51.9,19.5,51.9,19.7C51.9,19.6,51.9,19.7,51.9,19.7z M51.9,19.3
		L51.9,19.3c0-0.1,0.1-0.1,0.1-0.1c0-0.1,0-0.1,0-0.1c0-0.1,0-0.1-0.1-0.2V19.3z M51.9,21.1C52,21,52,21,52,21
		c0.1-0.1,0.1-0.2,0.2-0.3c0-0.1,0-0.2,0-0.2c0-0.1,0-0.2-0.1-0.3c0,0,0-0.1-0.1-0.1c0,0-0.1-0.1-0.1-0.1c0,0-0.1-0.1-0.1-0.1
		c0,0,0,0,0,0.1c0,0,0,0.1,0,0.1c0,0,0,0,0,0c0,0,0.1,0.1,0.1,0.2c0,0.1,0.1,0.1,0.1,0.2c0,0.1,0,0.2-0.1,0.3l-0.1,0.1V21.1z
		 M51.9,20.6C51.9,20.6,51.9,20.6,51.9,20.6c0-0.1,0-0.1,0-0.2c0,0,0-0.1,0-0.2c0,0,0,0,0,0c0,0,0,0.1,0,0.2
		C51.9,20.6,51.9,20.6,51.9,20.6z M51.9,22.4C51.9,22.4,52,22.4,51.9,22.4c0.1-0.1,0.2-0.2,0.2-0.3c0.1-0.1,0.1-0.2,0.1-0.3
		c0-0.2,0-0.3-0.1-0.4c-0.1-0.1-0.1-0.1-0.2-0.1c0,0,0,0,0,0.1c0,0,0,0,0,0.1c0,0,0,0,0,0c0.1,0.1,0.1,0.2,0.1,0.4
		c0,0.1,0,0.2,0,0.2c0,0.1-0.1,0.1-0.1,0.2l-0.1,0.1V22.4z M51.9,22c0,0,0-0.1,0-0.2c0-0.1,0-0.2,0-0.2c0,0,0,0.1,0,0.2
		C51.9,22,51.9,22,51.9,22z M52.6,20.6c0,0,0.1-0.1,0.2-0.2l-0.7-0.7L52,19.8l0.1,0.1c0.2,0.1,0.2,0.3,0.3,0.5l0,0.1
		C52.5,20.5,52.6,20.6,52.6,20.6z M52.6,22c0,0,0,0,0.1-0.1c0.1-0.1,0.1-0.1,0.1-0.1c0,0-0.2-0.2-0.6-0.6c-0.1-0.1-0.1-0.1-0.1-0.1
		c0,0,0,0-0.1,0.1c0.1,0.1,0.2,0.2,0.3,0.3c0,0,0,0.1,0.1,0.2s0,0.1,0,0.2C52.4,21.8,52.5,21.9,52.6,22C52.6,22,52.6,22,52.6,22z
		 M52.6,19.2c0,0,0,0,0.1-0.1c0.1-0.1,0.1-0.1,0.1-0.1s0,0-0.1-0.1c0,0-0.1-0.1-0.2-0.1c-0.1-0.1-0.2-0.2-0.4-0.4h-0.1l0.1,0.1
		c0.1,0.1,0.2,0.3,0.2,0.4l0,0.1C52.6,19.2,52.6,19.2,52.6,19.2z M52.7,22.4C52.7,22.4,52.8,22.4,52.7,22.4c0.1,0,0-0.1-0.1-0.2
		S52.4,22,52.4,22c0,0,0,0,0,0.1c0,0.1-0.1,0.2-0.2,0.3l0.3,0c0,0,0,0,0,0c0,0,0,0,0-0.1c0,0,0,0,0,0c0,0,0,0,0.1,0c0,0,0,0,0,0.1
		L52.7,22.4L52.7,22.4z M52.6,21.3c0.1-0.1,0.1-0.1,0.1-0.2c0,0,0.1-0.1,0.1-0.1s-0.1-0.1-0.2-0.2c-0.2-0.2-0.2-0.2-0.2-0.2
		s0,0,0,0.1s0,0.1,0,0.1c0,0,0,0.1,0,0.1C52.3,20.9,52.4,21,52.6,21.3z M52.6,19.9C52.6,19.9,52.7,19.9,52.6,19.9
		C52.7,19.9,52.7,19.9,52.6,19.9c0.1-0.1,0.1-0.1,0.1-0.1c0,0,0,0,0.1,0c0,0,0,0,0,0c-0.1-0.1-0.2-0.2-0.4-0.4c0,0-0.1-0.1-0.1-0.1
		c0,0,0,0,0,0c0,0,0,0,0,0c0,0,0,0,0,0.1c0,0,0,0.1,0,0.1c0,0,0,0.1,0,0.1C52.3,19.6,52.4,19.7,52.6,19.9
		C52.6,19.9,52.6,19.9,52.6,19.9z M52.6,18.6c0.1-0.1,0.1-0.1,0.1-0.2c0,0-0.1,0-0.3,0L52.6,18.6z M52.5,20.4
		C52.5,20.4,52.5,20.4,52.5,20.4C52.5,20.3,52.5,20.3,52.5,20.4c-0.1-0.1-0.1-0.1,0-0.1c0,0,0,0,0.1,0c0,0,0,0,0,0
		C52.6,20.2,52.6,20.3,52.5,20.4C52.6,20.3,52.6,20.4,52.5,20.4z M52.6,19.7C52.5,19.7,52.5,19.7,52.6,19.7
		C52.5,19.6,52.5,19.6,52.6,19.7c-0.1-0.1-0.1-0.1-0.1-0.1c0,0,0,0,0.1,0c0,0,0,0,0.1,0S52.6,19.6,52.6,19.7
		C52.6,19.6,52.6,19.6,52.6,19.7C52.6,19.6,52.6,19.7,52.6,19.7C52.6,19.7,52.6,19.7,52.6,19.7z M52.6,21.1L52.6,21.1
		C52.6,21.1,52.5,21.1,52.6,21.1C52.5,21.1,52.5,21,52.6,21.1C52.5,21,52.5,21,52.5,21c0,0,0,0,0,0h0c0,0,0,0,0.1,0
		C52.6,21,52.6,21,52.6,21.1C52.6,21,52.6,21,52.6,21.1C52.6,21.1,52.6,21.1,52.6,21.1z M52.6,19C52.6,19,52.6,19,52.6,19
		C52.5,19,52.5,19,52.6,19C52.5,18.9,52.5,18.9,52.6,19c-0.1-0.1-0.1-0.1,0-0.1c0,0,0,0,0,0c0,0,0,0,0,0
		C52.6,18.9,52.6,18.9,52.6,19C52.6,19,52.6,19,52.6,19C52.6,19,52.6,19,52.6,19z M52.6,21.8C52.5,21.8,52.5,21.8,52.6,21.8
		C52.5,21.7,52.5,21.7,52.6,21.8c-0.1-0.1-0.1-0.1,0-0.1c0,0,0,0,0,0c0,0,0,0,0,0C52.6,21.6,52.6,21.7,52.6,21.8
		C52.6,21.7,52.6,21.7,52.6,21.8C52.6,21.8,52.6,21.8,52.6,21.8z M52.9,20.9l0-0.2c0-0.1,0-0.1,0-0.2s0-0.1,0-0.1
		c-0.1,0.1-0.2,0.2-0.2,0.2c0,0,0.1,0.1,0.1,0.1C52.9,20.8,52.9,20.9,52.9,20.9z M52.9,22.3l0-0.3c0,0,0-0.1,0-0.1
		c-0.1,0.1-0.1,0.1-0.2,0.2C52.7,22.1,52.8,22.2,52.9,22.3z M52.9,19.5c0,0,0-0.1,0-0.4l-0.2,0.2C52.9,19.5,52.9,19.5,52.9,19.5z
		 M52.9,21.6c0-0.1,0-0.2,0-0.4c-0.1,0.1-0.2,0.2-0.2,0.2L52.9,21.6z M52.9,20.2c0,0,0-0.1,0-0.1c0-0.1,0-0.1,0-0.1s-0.1,0-0.2,0.1
		C52.9,20.2,52.9,20.2,52.9,20.2z M52.9,18.8c0,0,0-0.1,0-0.4l-0.1,0.1c0,0-0.1,0.1-0.1,0.1C52.8,18.7,52.8,18.7,52.9,18.8
		C52.9,18.8,52.9,18.8,52.9,18.8z"/>
	<path class="st3" d="M9.4,25.7l0,0.6c0,1.5,0,2.7,0,3.6c0,0.5,0,1.1,0,1.6l1.3,0c0.3,0,0.7,0,1.2,0l0-0.5c0-0.2,0-0.3,0.1-0.3
		c0.1,0,0.1,0,0.1,0c0.1,0,0.1,0.6,0.1,1.7c0,0.1,0,0.2,0,0.2c0,0.1-0.1,0.1-0.1,0.1c-0.1,0-0.1,0-0.2,0c0,0,0-0.1-0.1-0.2
		c0-0.1,0-0.3,0-0.6c-1.6,0-2.4,0-2.4,0c0,0.1,0,1.3,0,3.6l0.7,0c0.2,0,0.3,0.1,0.3,0.2c0,0.1,0,0.1-0.1,0.2c-0.1,0-1,0-2.7,0
		c-1.2,0-1.8,0-1.9,0c-0.1,0-0.1-0.1-0.1-0.2c0-0.1,0.1-0.2,0.2-0.2c0,0,0.1,0,0.1,0c0.2,0,0.3,0,0.4,0c0-0.2,0-0.8,0-1.6l0-7.4
		c-0.2-0.1-0.4-0.1-0.5-0.3c-0.3-0.2-0.4-0.4-0.5-0.6c0-0.2-0.1-0.4-0.1-0.5c0-0.2,0-0.4,0.1-0.6c0.2-0.5,0.6-0.7,1-0.7
		c0.3,0,0.6,0.1,0.8,0.3c0.1,0.1,0.2,0.3,0.2,0.5l0,0.1c0,0.1-0.1,0.1-0.2,0.1c0,0-0.1,0-0.1-0.1c0,0-0.1-0.1-0.1-0.2l0-0.1
		c0-0.1,0-0.1-0.1-0.2c-0.1-0.1-0.2-0.2-0.4-0.2c-0.1,0-0.1,0-0.1,0c-0.3,0-0.6,0.2-0.7,0.5c-0.1,0.1-0.1,0.3-0.1,0.4
		c0,0.3,0.1,0.6,0.4,0.8c0.2,0.2,0.4,0.3,0.6,0.3c0.2,0,0.3,0,0.4,0c0.4,0,0.8-0.1,1.4-0.3c0.7-0.3,1.4-0.6,2.1-0.9
		c0.6-0.3,1.2-0.6,1.8-0.8c0.6-0.3,1.4-0.6,2.1-0.8c0.7-0.2,1.3-0.3,1.8-0.3c0.1,0,0.3,0,0.4,0c0.5,0.1,0.9,0.3,1.2,0.6
		c0.2,0.3,0.3,0.6,0.3,0.9c0,0.4-0.1,0.7-0.4,0.9c0,0-0.1,0-0.1,0c0,0-0.1,0-0.1-0.1s-0.1-0.1-0.1-0.1c0-0.1,0-0.1,0.1-0.1
		c0.1-0.1,0.2-0.2,0.2-0.4c0-0.1,0-0.2,0-0.2c0-0.2-0.1-0.4-0.2-0.6c-0.2-0.2-0.4-0.4-0.7-0.4c-0.3,0-0.5-0.1-0.6-0.1
		c-0.8,0-2,0.4-3.8,1.1c-0.6,0.3-1.2,0.6-1.8,0.8C10.2,25.3,9.8,25.5,9.4,25.7z M6.7,29.2c0,0,0.1-0.1,0.2-0.2
		c0.4-0.3,0.6-0.7,0.6-1.2v-0.1c0-0.5-0.1-0.8-0.4-1c0,0-0.1-0.1-0.1-0.1c-0.1,0-0.1-0.1-0.2-0.1s-0.1,0-0.1,0c0,0,0,0.1,0,0.2
		c0,0.1,0,0.2,0,0.2c0,0,0,0,0.1,0c0.1,0,0.2,0.1,0.3,0.3c0.1,0.2,0.2,0.4,0.2,0.6c0,0.1,0,0.2,0,0.3c-0.1,0.3-0.2,0.5-0.3,0.6
		c-0.1,0.1-0.1,0.1-0.1,0.1c0,0,0,0.1,0,0.2C6.7,29.1,6.7,29.2,6.7,29.2z M6.7,28.4L6.7,28.4c0.1-0.1,0.1-0.2,0.2-0.3
		c0-0.1,0-0.2,0-0.3c0-0.2-0.1-0.3-0.2-0.5V28.4z M6.7,32.4c0.1-0.1,0.2-0.2,0.3-0.3c0.2-0.3,0.3-0.5,0.4-0.7c0-0.2,0.1-0.4,0.1-0.5
		c0-0.2,0-0.4-0.1-0.6c0-0.1-0.1-0.2-0.2-0.3C7,30,7,29.9,6.9,29.8c-0.1-0.1-0.1-0.1-0.2-0.1c0,0,0,0.1,0,0.2c0,0.1,0,0.2,0,0.2
		c0,0,0,0,0.1,0c0.1,0.1,0.2,0.2,0.3,0.4c0.1,0.2,0.1,0.3,0.1,0.5c0,0.3-0.1,0.5-0.3,0.7l-0.1,0.2V32.4z M6.7,31.3c0,0,0,0,0.1-0.1
		c0-0.1,0-0.2,0-0.2c0-0.1,0-0.2-0.1-0.3c0,0,0-0.1,0-0.1c0,0,0,0.1,0,0.4C6.7,31.2,6.7,31.3,6.7,31.3z M6.7,35.4
		c0.1,0,0.1-0.1,0.2-0.1C7,35.2,7.1,35,7.3,34.8c0.2-0.3,0.2-0.5,0.2-0.8c0-0.4-0.1-0.7-0.3-0.9c-0.2-0.2-0.3-0.3-0.4-0.3
		c0,0,0,0,0,0.1c0,0.1,0,0.1,0,0.1c0,0,0,0.1,0.1,0.1c0.2,0.2,0.3,0.5,0.3,0.9c0,0.2,0,0.4-0.1,0.5c0,0.1-0.1,0.2-0.2,0.3L6.7,35
		V35.4z M6.7,34.5c0,0,0.1-0.2,0.1-0.4c0-0.2,0-0.3-0.1-0.4c0,0,0,0.1,0,0.4C6.7,34.4,6.7,34.5,6.7,34.5z M8.3,31.3
		c0,0,0.2-0.2,0.5-0.5l-1.5-1.6L7,29.4l0.1,0.1c0.3,0.3,0.6,0.7,0.6,1.1l0,0.2C8.1,31.2,8.3,31.3,8.3,31.3z M8.4,34.4
		c0,0,0.1-0.1,0.3-0.3C8.8,34,8.8,34,8.8,33.9c0,0-0.4-0.5-1.3-1.4c-0.1-0.1-0.2-0.2-0.2-0.2c0,0-0.1,0.1-0.2,0.2
		c0.3,0.2,0.5,0.4,0.6,0.6c0,0.1,0.1,0.2,0.1,0.3c0,0.1,0.1,0.2,0.1,0.3C7.9,33.9,8,34.1,8.4,34.4C8.3,34.4,8.3,34.4,8.4,34.4z
		 M8.5,35.4c0.1,0,0.2,0,0.2,0c0,0-0.1-0.2-0.4-0.5c-0.3-0.3-0.4-0.5-0.4-0.5c0,0,0,0.1-0.1,0.2c-0.1,0.3-0.3,0.5-0.5,0.8l0.6,0
		c0,0,0,0,0-0.1s0-0.1,0.1-0.1c0,0,0.1-0.1,0.1-0.1s0.1,0,0.1,0.1s0.1,0.1,0.1,0.1l0,0.1H8.5z M7.3,26.4L7.3,26.4
		c0.3,0.3,0.5,0.6,0.5,1l0,0.2c0.3,0.3,0.5,0.5,0.5,0.5c0,0,0.1-0.1,0.3-0.3c0.2-0.2,0.3-0.3,0.3-0.3s0-0.1-0.1-0.1
		c-0.1-0.1-0.2-0.2-0.3-0.3c-0.1-0.1-0.4-0.4-0.9-0.8C7.5,26.4,7.4,26.4,7.3,26.4z M8.4,32.9c0.1-0.2,0.2-0.3,0.3-0.4
		c0.1-0.1,0.1-0.1,0.1-0.2s-0.2-0.2-0.5-0.5c-0.4-0.3-0.5-0.5-0.6-0.5c0,0,0,0,0,0.1c0,0.1-0.1,0.2-0.1,0.3c0,0.1-0.1,0.2-0.1,0.2
		C7.5,32,7.8,32.3,8.4,32.9z M8.4,29.8C8.4,29.8,8.4,29.8,8.4,29.8c0.1-0.1,0.1-0.1,0.2-0.2c0,0,0.1-0.1,0.2-0.1s0.1-0.1,0.1-0.1
		c0,0,0.1-0.1,0.1-0.1c-0.1-0.2-0.4-0.5-0.9-1c-0.1-0.1-0.1-0.1-0.1-0.1c0,0,0,0,0,0.1c0,0,0,0.1,0,0.1c0,0,0,0.1-0.1,0.2
		s-0.1,0.2-0.1,0.2c0,0.1-0.1,0.1-0.1,0.1c0,0,0.2,0.3,0.7,0.8C8.4,29.8,8.4,29.8,8.4,29.8z M8,26.3l0.4,0.4
		c0.3-0.3,0.5-0.5,0.5-0.5c0,0,0-0.1-0.1-0.2c-0.1,0-0.1,0.1-0.2,0.1c0,0,0,0-0.1,0c0,0.1,0,0.1-0.1,0.1s-0.1,0-0.1,0c0,0,0,0-0.1,0
		c0,0-0.1,0-0.1-0.1C8.1,26.3,8.1,26.3,8,26.3z M8.2,30.7c0,0-0.1,0-0.1,0c0,0,0-0.1,0-0.1c0,0,0-0.1,0.1-0.1c0,0,0.1-0.1,0.1-0.1
		c0,0,0,0,0.1,0c0.1,0,0.1,0.1,0.1,0.2C8.3,30.7,8.3,30.7,8.2,30.7z M8.2,29.2c0,0-0.1,0-0.1-0.1c0,0-0.1-0.1-0.1-0.1c0,0,0,0,0-0.1
		c0-0.1,0.1-0.1,0.1-0.1c0,0,0.1,0,0.1,0.1S8.4,29,8.4,29c0,0,0,0,0,0.1C8.3,29.1,8.3,29.2,8.2,29.2C8.3,29.2,8.2,29.2,8.2,29.2z
		 M8.2,32.4L8.2,32.4C8.2,32.4,8.2,32.4,8.2,32.4C8.1,32.3,8,32.3,8,32.2c0,0,0-0.1,0-0.1c0,0,0.1-0.1,0.1-0.1h0
		c0.1,0,0.1,0,0.1,0.1c0,0,0,0.1,0,0.1C8.4,32.2,8.4,32.3,8.2,32.4C8.3,32.3,8.3,32.4,8.2,32.4z M8.2,27.7
		C8.2,27.7,8.2,27.7,8.2,27.7c-0.1,0-0.2-0.1-0.2-0.1c0,0,0-0.1,0-0.1c0-0.1,0-0.1,0.1-0.2c0,0,0,0,0.1,0c0,0,0.1,0,0.1,0.1
		c0,0,0.1,0.1,0.1,0.1c0,0.1,0,0.1-0.1,0.1C8.3,27.7,8.3,27.7,8.2,27.7z M8.2,33.9c0,0-0.1,0-0.1,0c0,0,0-0.1,0-0.1c0,0,0-0.1,0-0.1
		c0,0,0.1,0,0.1,0c0,0,0,0,0.1,0c0.1,0,0.1,0.1,0.1,0.1c0,0,0,0.1,0,0.1C8.3,33.9,8.3,33.9,8.2,33.9z M9.1,32.1l0-0.4
		c0-0.2,0-0.3,0-0.4c0-0.1,0-0.2,0-0.2c-0.2,0.2-0.4,0.4-0.5,0.5c0.1,0.1,0.2,0.2,0.3,0.2C8.9,31.8,9,31.9,9.1,32.1z M9,35.2l0-0.6
		c0-0.1,0-0.2,0-0.3c-0.2,0.2-0.3,0.3-0.4,0.5C8.6,34.7,8.8,34.9,9,35.2z M9.1,28.9c0,0,0-0.3,0-0.8l-0.4,0.4
		C8.9,28.7,9,28.9,9.1,28.9z M9,33.6c0-0.1,0-0.5,0-0.9c-0.2,0.2-0.3,0.4-0.4,0.5L9,33.6z M9,30.4c0,0,0-0.1,0-0.3
		c0-0.2,0-0.3,0-0.3c0,0-0.1,0.1-0.4,0.3C8.9,30.3,9,30.4,9,30.4z M9,27.3c0,0,0-0.3,0-0.8l-0.2,0.2c-0.1,0.1-0.2,0.2-0.2,0.2
		C8.7,26.9,8.8,27.1,9,27.3C9,27.3,9,27.3,9,27.3z"/>
	<path class="st3" d="M13.8,35.8h-0.9c-0.3,0-0.4,0-0.5,0c0,0-0.1-0.1-0.1-0.1c0-0.1,0-0.1,0.1-0.2c0,0,0.1,0,0.3,0l3.1-9
		c0,0,0,0-0.1,0c-0.2,0-0.3,0-0.3,0c-0.1,0-0.1-0.1-0.1-0.2c0,0,0-0.1,0.1-0.1c0,0,0,0,0,0c0,0,0,0,0.1,0c0,0,0.1,0,0.1,0
		c0.1,0,0.1,0,0.2,0s0.2,0,0.4,0c0.1,0,0.3,0,0.5,0c0.2,0,0.4,0,0.7,0l2,0c0.1,0.1,0.1,0.1,0.1,0.2v0c0,0.1,0,0.1-0.1,0.1
		c0,0-0.1,0-0.1,0c-0.1,0-0.2,0-0.2,0c0,0,0.5,1.6,1.6,4.6l1.6,4.5c0.2,0,0.3,0,0.3,0s0,0,0.1,0c0,0,0,0.1,0,0.1c0,0,0,0.1,0,0.1
		c0,0-0.5,0.1-1.3,0.1l-2.7,0c-0.1-0.1-0.1-0.1-0.1-0.2c0-0.1,0-0.1,0.1-0.2c0,0,0.1,0,0.2,0c0.1,0,0.2,0,0.2,0c0,0-0.1-0.2-0.2-0.6
		s-0.2-0.6-0.2-0.6c-0.4,0-1.2,0-2.5,0c-1.6,0-2.5,0.1-2.5,0.1c0,0-0.1,0.4-0.4,1.1c0,0,0.2,0,0.5,0c0.3,0,0.4,0,0.5,0
		c0.1,0,0.1,0,0.1,0.1c0,0,0.1,0.1,0.1,0.1c0,0,0,0.1-0.1,0.1C14.3,35.7,14.1,35.8,13.8,35.8z M13.7,33.9l3.9-0.1
		c0.6,0,0.9,0,0.9-0.1c0,0-0.4-1.2-1.2-3.5c-0.8-2.3-1.2-3.5-1.2-3.5c0,0-0.4,1.2-1.2,3.5S13.7,33.8,13.7,33.9z M17.4,29.4
		c0,0,0.1-0.1,0.1-0.2c0.1-0.2,0.2-0.5,0.2-0.8c0-0.3,0-0.6-0.1-0.8c-0.1-0.2-0.3-0.5-0.7-0.7c-0.2-0.1-0.4-0.2-0.4-0.2l0,0
		c0,0.1,0,0.2,0.1,0.4l0.2,0c0.2,0,0.3,0.1,0.5,0.2c0.2,0.2,0.3,0.4,0.3,0.7c0,0.2-0.1,0.5-0.2,0.7l-0.1,0.2
		c0.1,0.2,0.1,0.3,0.1,0.3C17.4,29.3,17.4,29.4,17.4,29.4z M17.1,28.4c0,0,0-0.1,0.1-0.1c0-0.1,0-0.1,0-0.2c0-0.1,0-0.3-0.1-0.3
		c0-0.1-0.1-0.1-0.2-0.2c-0.1-0.1-0.1-0.1-0.1-0.1c0,0,0,0,0,0c0,0,0.1,0.2,0.2,0.5C17,28.2,17.1,28.4,17.1,28.4z M18.7,28.2
		l0.2-0.3c0.1-0.1,0.1-0.2,0.1-0.2c0,0-0.1-0.1-0.3-0.3c-0.1-0.1-0.4-0.3-0.7-0.4c-0.5-0.3-0.7-0.4-0.9-0.5c-0.1,0-0.1-0.1-0.1-0.1
		c0,0,0,0,0,0c0,0-0.1,0-0.1,0h-0.1l0.1,0.1c0.6,0.3,1,0.7,1.1,1.2l0,0.2c0.1,0.1,0.3,0.1,0.3,0.2C18.4,28,18.6,28.1,18.7,28.2z
		 M18.4,32.3c0.1-0.1,0.1-0.1,0.1-0.1c0.1-0.2,0.2-0.4,0.2-0.8c0-0.2,0-0.5-0.1-0.6c0-0.2-0.2-0.4-0.4-0.5c-0.2-0.1-0.4-0.2-0.5-0.3
		l-0.1,0c0.1,0.2,0.1,0.3,0.1,0.3c0,0,0,0,0.1,0c0.1,0,0.3,0.1,0.4,0.2c0.2,0.2,0.3,0.4,0.3,0.6c0,0.1,0,0.3-0.1,0.6
		c0,0.1,0,0.1,0,0.1c0,0,0,0,0,0.1C18.2,31.8,18.3,32,18.4,32.3z M18.2,26.7c0,0,0.1-0.1,0.2-0.3c0,0,0,0-0.1,0
		c-0.1,0-0.1,0-0.2,0.1c0,0-0.1,0.1-0.1,0.1c0,0-0.1,0-0.1-0.1c0,0-0.1-0.1-0.1-0.1c0,0-0.1,0-0.1,0s0.1,0.1,0.2,0.2
		C18.1,26.6,18.2,26.6,18.2,26.7z M19.7,31.3l0.3-0.5c-0.5-0.4-0.9-0.7-1.2-0.9c-0.6-0.4-0.9-0.6-0.9-0.6c0,0,0,0,0,0
		c0,0,0,0.1-0.1,0.1c0,0,0,0.1-0.1,0.1l0.1,0c0.2,0,0.4,0.1,0.6,0.3c0.3,0.3,0.5,0.5,0.5,0.8c0,0.1,0,0.1,0,0.1c0,0,0.1,0.1,0.1,0.1
		c0.1,0,0.2,0.1,0.4,0.3C19.6,31.3,19.7,31.3,19.7,31.3z M18,31.3C18,31.3,18,31.2,18,31.3C18,31.2,18.1,31.2,18,31.3
		c0-0.1,0-0.1,0-0.2c0-0.1-0.1-0.2-0.2-0.3l-0.1-0.1C17.9,31,18,31.3,18,31.3z M19.3,29.7c0,0,0.1-0.1,0.2-0.2
		c0.1-0.1,0.1-0.2,0.1-0.2c0,0-0.1-0.1-0.3-0.3c-0.1-0.1-0.3-0.3-0.5-0.4c-0.3-0.2-0.5-0.4-0.7-0.5l0,0.7c0,0,0,0,0,0.1
		s0.1,0.1,0.2,0.2C18.9,29.5,19.3,29.7,19.3,29.7z M18.3,27.7c-0.1,0-0.1,0-0.1-0.1c0,0,0-0.1,0-0.1c0,0,0-0.1,0-0.1
		c0,0,0.1-0.1,0.1-0.1h0c0,0,0.1,0,0.1,0.1c0,0,0,0.1,0,0.1c0,0,0,0.1,0,0.1C18.4,27.7,18.4,27.7,18.3,27.7z M19.3,35.2
		c0.1-0.1,0.2-0.2,0.2-0.3c0.1-0.2,0.2-0.4,0.2-0.5c0-0.1,0-0.2,0-0.2c0-0.1,0-0.3-0.1-0.4c-0.2-0.5-0.5-0.9-0.9-1
		c-0.1,0-0.1,0-0.2,0c0,0,0,0,0,0c0,0,0,0.1,0,0.1c0,0.1,0.1,0.1,0.1,0.2c0,0,0,0,0.1,0c0.1,0,0.2,0.1,0.3,0.1
		c0.3,0.2,0.4,0.4,0.5,0.6c0,0.1,0,0.2,0,0.3c0,0.1,0,0.2,0,0.3c0,0.1-0.1,0.2-0.1,0.4c0,0,0,0.1-0.1,0.1c0,0,0,0,0,0.1
		C19.2,35,19.3,35.1,19.3,35.2z M18.9,27.1c0,0,0-0.1-0.1-0.3s-0.1-0.3-0.1-0.3c0,0-0.1,0.1-0.2,0.3L18.9,27.1z M18.8,29.2
		c0,0-0.1,0-0.1-0.1c0,0,0-0.1,0-0.1c0,0,0-0.1,0-0.1c0,0,0.1-0.1,0.1-0.1s0.1,0,0.1,0.1c0,0,0,0.1,0,0.1c0,0,0,0.1,0,0.1
		C18.9,29.2,18.9,29.2,18.8,29.2z M20.7,34.3c0,0,0.1-0.2,0.3-0.5c-0.3-0.2-0.9-0.6-1.9-1.3c-0.2-0.1-0.3-0.2-0.3-0.2c0,0,0,0,0,0
		c0,0,0,0,0,0.1s0,0,0,0.1c0,0,0,0,0.1,0.1s0.2,0.1,0.3,0.1c0.4,0.2,0.7,0.6,0.9,1.2c0,0.1,0.1,0.1,0.1,0.2
		C20.3,34,20.5,34.2,20.7,34.3z M19.1,34.5c0-0.1,0.1-0.2,0.1-0.3c0-0.2-0.1-0.4-0.3-0.5c0,0,0,0-0.1,0l0,0c0,0,0,0.2,0.1,0.4
		L19.1,34.5z M20.3,32.8c0,0,0.1-0.1,0.2-0.4c-0.2-0.2-0.5-0.4-0.9-0.7c-0.1-0.1-0.3-0.2-0.7-0.5c0,0.3,0,0.5,0,0.7
		C19.8,32.5,20.3,32.8,20.3,32.8z M19.6,28.8c0,0-0.1-0.2-0.2-0.7l0-0.1c0,0,0,0.1-0.1,0.2s-0.1,0.2-0.1,0.2c0,0,0,0,0.1,0.1
		c0,0,0.1,0.1,0.2,0.1C19.4,28.7,19.4,28.7,19.6,28.8C19.5,28.8,19.5,28.8,19.6,28.8z M19.3,30.7C19.2,30.7,19.2,30.7,19.3,30.7
		c-0.1-0.1-0.1-0.1-0.1-0.1c0,0,0,0,0-0.1c0-0.1,0.1-0.1,0.1-0.1c0,0,0.1,0,0.1,0.1c0,0,0.1,0.1,0.1,0.1c0,0,0,0.1-0.1,0.1
		C19.4,30.7,19.3,30.7,19.3,30.7z M19.7,32.3c-0.1,0-0.2-0.1-0.2-0.2c0,0,0,0,0-0.1c0-0.1,0.1-0.1,0.1-0.1c0.1,0,0.2,0.1,0.2,0.2
		C19.9,32.3,19.8,32.3,19.7,32.3z M20.1,30.4c0,0,0-0.2-0.1-0.3c-0.1-0.2-0.1-0.3-0.1-0.4c0,0-0.1,0.1-0.3,0.3
		C19.9,30.2,20.1,30.3,20.1,30.4z M20.2,35.4c0.4,0,0.8,0,1.2,0l-0.4-0.3c-0.1-0.1-0.4-0.3-1-0.7c-0.1,0.4-0.2,0.7-0.4,1H20.2z
		 M20.7,32.1c0,0,0-0.1-0.1-0.2c0-0.1-0.1-0.2-0.1-0.4c-0.1-0.1-0.1-0.3-0.1-0.4c0-0.1-0.1-0.1-0.1-0.1c0,0-0.1,0.2-0.3,0.5
		c0.3,0.2,0.5,0.3,0.6,0.4C20.6,32,20.6,32,20.7,32.1C20.7,32.1,20.7,32.1,20.7,32.1z M20.3,33.8c0,0-0.1,0-0.1,0c0,0,0-0.1,0-0.1
		c0,0,0,0,0-0.1c0-0.1,0.1-0.1,0.1-0.1c0,0,0.1,0,0.1,0.1s0.1,0.1,0.1,0.1c0,0,0,0,0,0.1C20.4,33.8,20.4,33.8,20.3,33.8
		C20.4,33.8,20.3,33.8,20.3,33.8z M20.5,35.3C20.5,35.3,20.5,35.2,20.5,35.3c-0.1-0.1-0.1-0.1-0.1-0.2c0,0,0,0,0-0.1
		c0-0.1,0.1-0.1,0.1-0.1c0,0,0.1,0,0.1,0.1c0,0,0.1,0.1,0.1,0.1c0,0,0,0,0,0.1C20.7,35.2,20.6,35.2,20.5,35.3
		C20.6,35.2,20.6,35.3,20.5,35.3z M21.2,33.5c0,0,0-0.1-0.1-0.2c-0.1-0.4-0.2-0.6-0.2-0.6c0,0-0.1,0.1-0.1,0.2
		C20.7,33,20.7,33,20.7,33c0,0,0.1,0.1,0.3,0.2C21.1,33.4,21.2,33.5,21.2,33.5z M21.8,35.1c0,0-0.1-0.2-0.2-0.6S21.4,34,21.4,34
		c0,0-0.1,0.1-0.2,0.3c-0.1,0.2-0.1,0.2-0.1,0.3c0,0,0,0,0,0c0,0,0,0,0.1,0.1c0,0,0.1,0.1,0.1,0.1c0.1,0,0.2,0.1,0.3,0.3
		C21.7,35.1,21.8,35.1,21.8,35.1z"/>
	<path class="st3" d="M29.2,35.8c-0.2,0-0.3,0-0.4,0s-0.1,0-0.1,0c0,0-0.1-0.1-0.1-0.1c0-0.1,0-0.1,0-0.2c0,0,0.1,0,0.2-0.1l0.7,0
		c-1.8-2.1-2.7-3.2-2.8-3.2c0,0,0,1.1,0,3.1c0.2,0,0.4,0,0.5,0c0.1,0,0.2,0.1,0.2,0.1v0.1c0,0.1,0,0.1-0.1,0.1
		c-0.1,0-1.3,0.1-3.6,0.1c-0.4,0-0.7,0-0.7,0c-0.1,0-0.1-0.1-0.1-0.2c0-0.1,0-0.1,0.1-0.2c0,0,0.1,0,0.2,0c0.1,0,0.3,0,0.4,0
		c0-0.2,0-0.7,0-1.6l0-7.5c-0.3,0-0.5,0-0.5,0c-0.1,0-0.1,0-0.2-0.1c0,0,0,0,0,0c0-0.1,0-0.1,0.1-0.2c0.1,0,0.6,0,1.7-0.1
		c0.4,0,0.9,0,1.4,0c0.8,0,1.4,0,1.8,0.1s0.8,0.2,1.1,0.4c0.7,0.4,1.1,0.8,1.4,1.3c0.2,0.5,0.3,0.9,0.3,1.3c0,0.2,0,0.5-0.1,0.7
		c-0.2,0.6-0.5,1-1,1.4c-0.6,0.5-1.3,0.8-2.1,0.9c-0.2,0-0.4,0-0.6,0l3,3.4l0.5,0c0.1,0,0.2,0,0.2,0c0.1,0,0.1,0.1,0.1,0.2
		c0,0.1,0,0.1-0.1,0.2C30.7,35.8,30.2,35.8,29.2,35.8z M24.1,29.2c0,0,0.1-0.1,0.2-0.2c0.4-0.3,0.6-0.7,0.6-1.2v-0.1
		c0-0.5-0.1-0.8-0.4-1c0,0-0.1-0.1-0.1-0.1c-0.1,0-0.1-0.1-0.2-0.1s-0.1,0-0.1,0c0,0,0,0.1,0,0.2c0,0.1,0,0.2,0,0.2c0,0,0,0,0.1,0
		c0.1,0,0.2,0.1,0.3,0.3c0.1,0.2,0.2,0.4,0.2,0.6c0,0.1,0,0.2,0,0.3c-0.1,0.3-0.2,0.5-0.3,0.6c-0.1,0.1-0.1,0.1-0.2,0.1
		c0,0,0,0.1,0,0.2C24.1,29.1,24.1,29.2,24.1,29.2z M24.1,28.3L24.1,28.3c0.1-0.1,0.1-0.2,0.2-0.3c0-0.1,0.1-0.2,0.1-0.3
		c0-0.2-0.1-0.3-0.2-0.5V28.3z M24.1,32.3c0.1-0.1,0.2-0.2,0.3-0.3c0.2-0.3,0.3-0.5,0.4-0.7c0-0.2,0.1-0.4,0.1-0.5
		c0-0.2,0-0.4-0.1-0.6c0-0.1-0.1-0.2-0.2-0.3c-0.1-0.1-0.2-0.2-0.2-0.3c-0.1-0.1-0.1-0.1-0.2-0.1c0,0,0,0.1,0,0.2c0,0.1,0,0.2,0,0.2
		c0,0,0,0,0,0c0.1,0.1,0.2,0.2,0.3,0.4c0.1,0.2,0.1,0.3,0.1,0.5c0,0.3-0.1,0.5-0.3,0.7l-0.1,0.2V32.3z M24.1,31.3c0,0,0,0,0.1-0.1
		c0-0.1,0-0.2,0-0.3c0-0.1,0-0.2-0.1-0.3c0,0,0-0.1,0-0.1c0,0,0,0.1,0,0.4C24.1,31.1,24.1,31.3,24.1,31.3z M24.1,35.3
		c0.1-0.1,0.1-0.1,0.2-0.1c0.1-0.1,0.3-0.3,0.4-0.5c0.1-0.2,0.1-0.3,0.2-0.5c0-0.1,0-0.2,0-0.3c0-0.4-0.1-0.7-0.3-0.9
		c-0.2-0.2-0.3-0.3-0.4-0.3c0,0,0,0,0,0.1c0,0.1,0,0.1,0,0.1s0,0.1,0.1,0.1c0.2,0.2,0.3,0.5,0.3,1c0,0.2,0,0.3-0.1,0.4
		c0,0.1-0.1,0.2-0.2,0.3L24.1,35V35.3z M24.1,34.4c0,0,0.1-0.2,0.1-0.4c0-0.3,0-0.4-0.1-0.4c0,0,0,0.1,0,0.4
		C24.1,34.3,24.1,34.4,24.1,34.4z M25.7,31.3c0,0,0.2-0.2,0.5-0.5l-1.5-1.5l-0.3,0.2l0.1,0.1c0.3,0.3,0.6,0.7,0.6,1.1l0,0.2
		C25.5,31.1,25.7,31.3,25.7,31.3z M25.7,34.4c0,0,0.1-0.1,0.3-0.3c0.1-0.1,0.2-0.2,0.2-0.3c0,0-0.4-0.5-1.3-1.4
		c-0.1-0.1-0.2-0.2-0.2-0.2c0,0-0.1,0.1-0.2,0.2c0.3,0.2,0.5,0.4,0.6,0.6c0,0.1,0.1,0.2,0.1,0.3c0,0.1,0.1,0.2,0.1,0.3
		c0,0.1,0,0.1,0.1,0.2C25.4,34.1,25.5,34.2,25.7,34.4C25.7,34.4,25.7,34.4,25.7,34.4z M25.8,28.1c0,0,0.1-0.1,0.3-0.3
		c0.2-0.2,0.3-0.3,0.3-0.3s0-0.1-0.1-0.1c-0.1-0.1-0.2-0.2-0.4-0.3s-0.5-0.4-1-0.9h-0.3l0.2,0.2c0.3,0.3,0.4,0.6,0.5,1l0,0.2
		C25.6,28,25.7,28.1,25.8,28.1z M25.9,35.4c0.1,0,0.2,0,0.2,0c0,0-0.1-0.2-0.4-0.5c-0.3-0.3-0.4-0.5-0.4-0.5c0,0,0,0.1-0.1,0.2
		c-0.1,0.3-0.2,0.5-0.5,0.8c0.1,0,0.2,0,0.2,0c0.1,0,0.1,0,0.2,0c0.1,0,0.1,0,0.1,0c0,0,0,0,0,0c0,0,0,0,0-0.1s0-0.1,0.1-0.1
		c0,0,0.1-0.1,0.1-0.1c0,0,0.1,0,0.1,0.1s0.1,0.1,0.1,0.1l0,0.1H25.9z M25.8,32.8c0.1-0.2,0.2-0.3,0.3-0.4c0.1-0.1,0.1-0.1,0.1-0.2
		c0,0-0.2-0.2-0.5-0.5c-0.4-0.3-0.5-0.5-0.5-0.5s0,0,0,0.1c0,0.1-0.1,0.2-0.1,0.3s-0.1,0.2-0.1,0.2C24.9,31.9,25.2,32.2,25.8,32.8z
		 M25.8,29.8C25.8,29.8,25.8,29.7,25.8,29.8c0.3-0.2,0.5-0.4,0.5-0.5c-0.2-0.2-0.5-0.5-0.9-1c-0.1-0.1-0.1-0.1-0.1-0.1
		c0,0,0,0.1-0.1,0.2s-0.1,0.2-0.2,0.4c0,0.1-0.1,0.1-0.1,0.1c0,0,0.2,0.3,0.7,0.8C25.7,29.7,25.8,29.8,25.8,29.8z M25.8,26.6
		c0.2-0.2,0.3-0.3,0.3-0.3c0,0-0.2,0-0.7,0C25.5,26.4,25.6,26.5,25.8,26.6z M25.6,30.7c0,0-0.1,0-0.1,0s-0.1-0.1-0.1-0.1
		s0-0.1,0.1-0.1c0,0,0.1-0.1,0.1-0.1c0,0,0,0,0.1,0c0.1,0,0.1,0.1,0.1,0.2C25.7,30.7,25.7,30.7,25.6,30.7z M25.6,29.2
		c0,0-0.1,0-0.1-0.1c0,0-0.1-0.1-0.1-0.1c0-0.1,0.1-0.2,0.2-0.2c0,0,0.1,0,0.1,0.1s0.1,0.1,0.1,0.1c0,0,0,0,0,0.1
		C25.7,29.1,25.7,29.1,25.6,29.2C25.6,29.2,25.6,29.2,25.6,29.2z M25.6,32.3C25.6,32.3,25.6,32.3,25.6,32.3
		C25.6,32.3,25.5,32.3,25.6,32.3c-0.1,0-0.1,0-0.1-0.1c0,0,0,0,0-0.1c0,0,0,0,0-0.1c0,0,0-0.1,0-0.1c0,0,0.1-0.1,0.1-0.1h0.1
		c0.1,0,0.1,0,0.1,0.1c0,0,0,0.1,0,0.1C25.8,32.2,25.7,32.3,25.6,32.3z M25.6,27.6C25.6,27.6,25.6,27.6,25.6,27.6
		c-0.1,0-0.2-0.1-0.2-0.1c0,0,0-0.1,0-0.1c0-0.1,0-0.1,0.1-0.2c0,0,0,0,0.1,0c0,0,0.1,0,0.1,0.1c0,0,0.1,0.1,0.1,0.1
		c0,0.1,0,0.1-0.1,0.1S25.6,27.6,25.6,27.6z M25.6,33.8c0,0-0.1,0-0.1,0c0,0,0-0.1,0-0.1c0,0,0-0.1,0-0.1c0,0,0.1,0,0.1,0
		c0,0,0,0,0.1,0c0.1,0,0.1,0.1,0.1,0.1c0,0,0,0.1,0,0.1C25.7,33.8,25.6,33.8,25.6,33.8z M26.4,32l0-0.4c0-0.2,0-0.4,0-0.6
		c-0.2,0.2-0.4,0.4-0.5,0.5c0.1,0.1,0.2,0.2,0.3,0.2C26.2,31.8,26.3,31.8,26.4,32z M26.4,35.2l0-0.6c0-0.1,0-0.2,0-0.3
		c-0.1,0.1-0.1,0.1-0.2,0.2c-0.1,0.1-0.1,0.1-0.2,0.2c0,0-0.1,0.1-0.1,0.1C26,34.7,26.1,34.8,26.4,35.2z M26.4,28.8c0,0,0-0.3,0-0.8
		L26,28.4C26.3,28.7,26.4,28.8,26.4,28.8z M26.4,33.5c0-0.1,0-0.5,0-0.9c-0.2,0.2-0.3,0.4-0.4,0.5L26.4,33.5z M26.4,30.4
		c0,0,0-0.1,0-0.3c0-0.2,0-0.3,0-0.3S26.3,29.8,26,30C26.3,30.2,26.4,30.4,26.4,30.4z M26.4,27.2c0,0,0-0.3,0-0.8l-0.2,0.2
		c-0.1,0.1-0.2,0.2-0.2,0.2C26.1,26.9,26.2,27,26.4,27.2C26.4,27.2,26.4,27.2,26.4,27.2z M26.8,31.7l0.4,0c0.3,0,0.5,0,0.7-0.1
		c0.7-0.2,1.3-0.5,1.8-0.9c0.5-0.5,0.8-1.1,0.8-1.7c0-0.2,0-0.3,0-0.4c-0.2-0.8-0.7-1.4-1.5-1.8c-0.5-0.3-1-0.4-1.5-0.4l-0.7,0
		l0,0.9c0,0.8,0,1.4,0,1.9c0,0.3,0,0.6,0,0.9C26.8,30.3,26.8,30.9,26.8,31.7z"/>
	<path class="st3" d="M32.6,35.8h-0.9c-0.3,0-0.4,0-0.5,0c0,0-0.1-0.1-0.1-0.1c0-0.1,0-0.1,0.1-0.2c0,0,0.1,0,0.3,0l3.1-9
		c0,0,0,0-0.1,0c-0.2,0-0.3,0-0.3,0c-0.1,0-0.1-0.1-0.1-0.2c0,0,0-0.1,0.1-0.1c0,0,0,0,0,0c0,0,0,0,0.1,0c0,0,0.1,0,0.1,0
		c0.1,0,0.1,0,0.2,0c0.1,0,0.2,0,0.4,0c0.1,0,0.3,0,0.5,0c0.2,0,0.4,0,0.7,0l2,0c0.1,0.1,0.1,0.1,0.1,0.2v0c0,0.1,0,0.1-0.1,0.1
		c0,0-0.1,0-0.1,0c-0.1,0-0.2,0-0.2,0c0,0,0.5,1.6,1.6,4.6l1.6,4.5c0.2,0,0.3,0,0.3,0s0,0,0.1,0c0,0,0,0.1,0,0.1c0,0,0,0.1,0,0.1
		c0,0-0.5,0.1-1.3,0.1l-2.7,0c-0.1-0.1-0.1-0.1-0.1-0.2c0-0.1,0-0.1,0.1-0.2c0,0,0.1,0,0.2,0c0.1,0,0.2,0,0.2,0c0,0-0.1-0.2-0.2-0.6
		s-0.2-0.6-0.2-0.6c-0.4,0-1.2,0-2.5,0c-1.6,0-2.5,0.1-2.5,0.1c0,0-0.1,0.4-0.4,1.1c0,0,0.2,0,0.5,0c0.3,0,0.4,0,0.5,0
		c0.1,0,0.1,0,0.1,0.1c0,0,0.1,0.1,0.1,0.1c0,0,0,0.1-0.1,0.1C33.1,35.7,32.9,35.8,32.6,35.8z M32.5,33.9l3.9-0.1
		c0.6,0,0.9,0,0.9-0.1c0,0-0.4-1.2-1.2-3.5c-0.8-2.3-1.2-3.5-1.2-3.5c0,0-0.4,1.2-1.2,3.5S32.5,33.8,32.5,33.9z M36.2,29.4
		c0,0,0.1-0.1,0.1-0.2c0.1-0.2,0.2-0.5,0.2-0.8c0-0.3,0-0.6-0.1-0.8c-0.1-0.2-0.3-0.5-0.7-0.7c-0.2-0.1-0.4-0.2-0.4-0.2l0,0
		c0,0.1,0,0.2,0.1,0.4l0.2,0c0.2,0,0.3,0.1,0.5,0.2c0.2,0.2,0.3,0.4,0.3,0.7c0,0.2-0.1,0.5-0.2,0.7l-0.1,0.2
		c0.1,0.2,0.1,0.3,0.1,0.3C36.2,29.3,36.2,29.4,36.2,29.4z M35.9,28.4c0,0,0-0.1,0.1-0.1c0-0.1,0-0.1,0-0.2c0-0.1,0-0.3-0.1-0.3
		c0-0.1-0.1-0.1-0.2-0.2c-0.1-0.1-0.1-0.1-0.1-0.1c0,0,0,0,0,0c0,0,0.1,0.2,0.2,0.5S35.9,28.4,35.9,28.4z M37.6,28.2l0.2-0.3
		c0.1-0.1,0.1-0.2,0.1-0.2c0,0-0.1-0.1-0.3-0.3c-0.1-0.1-0.4-0.3-0.7-0.4c-0.5-0.3-0.7-0.4-0.9-0.5c-0.1,0-0.1-0.1-0.1-0.1
		c0,0,0,0,0,0c0,0-0.1,0-0.1,0h-0.1l0.1,0.1c0.6,0.3,1,0.7,1.1,1.2l0,0.2c0.1,0.1,0.3,0.1,0.3,0.2C37.3,28,37.4,28.1,37.6,28.2z
		 M37.2,32.3c0.1-0.1,0.1-0.1,0.1-0.1c0.1-0.2,0.2-0.4,0.2-0.8c0-0.2,0-0.5-0.1-0.6c0-0.2-0.2-0.4-0.4-0.5c-0.2-0.1-0.4-0.2-0.5-0.3
		l-0.1,0c0.1,0.2,0.1,0.3,0.1,0.3c0,0,0,0,0.1,0c0.1,0,0.3,0.1,0.4,0.2c0.2,0.2,0.3,0.4,0.3,0.6c0,0.1,0,0.3-0.1,0.6
		c0,0.1,0,0.1,0,0.1c0,0,0,0,0,0.1C37,31.8,37.1,32,37.2,32.3z M37.1,26.7c0,0,0.1-0.1,0.2-0.3c0,0,0,0-0.1,0c-0.1,0-0.1,0-0.2,0.1
		c0,0-0.1,0.1-0.1,0.1c0,0-0.1,0-0.1-0.1c0,0-0.1-0.1-0.1-0.1c0,0-0.1,0-0.1,0s0.1,0.1,0.2,0.2C36.9,26.6,37,26.6,37.1,26.7z
		 M38.5,31.3l0.3-0.5c-0.5-0.4-0.9-0.7-1.2-0.9c-0.6-0.4-0.9-0.6-0.9-0.6c0,0,0,0,0,0c0,0,0,0.1-0.1,0.1c0,0,0,0.1-0.1,0.1l0.1,0
		c0.2,0,0.4,0.1,0.6,0.3c0.3,0.3,0.5,0.5,0.5,0.8c0,0.1,0,0.1,0,0.1c0,0,0.1,0.1,0.1,0.1c0.1,0,0.2,0.1,0.4,0.3
		C38.4,31.3,38.5,31.3,38.5,31.3z M36.9,31.3C36.9,31.3,36.9,31.2,36.9,31.3C36.9,31.2,36.9,31.2,36.9,31.3c0-0.1,0-0.1,0-0.2
		c0-0.1-0.1-0.2-0.2-0.3l-0.1-0.1C36.8,31,36.9,31.3,36.9,31.3z M38.1,29.7c0,0,0.1-0.1,0.2-0.2s0.1-0.2,0.1-0.2
		c0,0-0.1-0.1-0.3-0.3c-0.1-0.1-0.3-0.3-0.5-0.4c-0.3-0.2-0.5-0.4-0.7-0.5l0,0.7c0,0,0,0,0,0.1s0.1,0.1,0.2,0.2
		C37.8,29.5,38.1,29.7,38.1,29.7z M37.2,27.7c-0.1,0-0.1,0-0.1-0.1c0,0,0-0.1,0-0.1c0,0,0-0.1,0-0.1c0,0,0.1-0.1,0.1-0.1h0
		c0,0,0.1,0,0.1,0.1c0,0,0,0.1,0,0.1c0,0,0,0.1,0,0.1C37.2,27.7,37.2,27.7,37.2,27.7z M38.2,35.2c0.1-0.1,0.2-0.2,0.2-0.3
		c0.1-0.2,0.2-0.4,0.2-0.5c0-0.1,0-0.2,0-0.2c0-0.1,0-0.3-0.1-0.4c-0.2-0.5-0.5-0.9-0.9-1c-0.1,0-0.1,0-0.2,0c0,0,0,0,0,0
		c0,0,0,0.1,0,0.1c0,0.1,0.1,0.1,0.1,0.2c0,0,0,0,0.1,0c0.1,0,0.2,0.1,0.3,0.1c0.3,0.2,0.4,0.4,0.5,0.6c0,0.1,0,0.2,0,0.3
		c0,0.1,0,0.2,0,0.3c0,0.1-0.1,0.2-0.1,0.4c0,0,0,0.1-0.1,0.1s0,0,0,0.1C38.1,35,38.1,35.1,38.2,35.2z M37.8,27.1c0,0,0-0.1-0.1-0.3
		c-0.1-0.2-0.1-0.3-0.1-0.3c0,0-0.1,0.1-0.2,0.3L37.8,27.1z M37.6,29.2c0,0-0.1,0-0.1-0.1c0,0,0-0.1,0-0.1c0,0,0-0.1,0-0.1
		c0,0,0.1-0.1,0.1-0.1c0.1,0,0.1,0,0.1,0.1c0,0,0,0.1,0,0.1c0,0,0,0.1,0,0.1S37.7,29.2,37.6,29.2z M39.5,34.3c0,0,0.1-0.2,0.3-0.5
		c-0.3-0.2-0.9-0.6-1.9-1.3c-0.2-0.1-0.3-0.2-0.3-0.2c0,0,0,0,0,0c0,0,0,0,0,0.1s0,0,0,0.1c0,0,0,0,0.1,0.1c0.1,0,0.2,0.1,0.3,0.1
		c0.4,0.2,0.7,0.6,0.9,1.2c0,0.1,0.1,0.1,0.1,0.2C39.1,34,39.3,34.2,39.5,34.3z M37.9,34.5c0-0.1,0.1-0.2,0.1-0.3
		c0-0.2-0.1-0.4-0.3-0.5c0,0,0,0-0.1,0l0,0c0,0,0,0.2,0.1,0.4L37.9,34.5z M39.2,32.8c0,0,0.1-0.1,0.2-0.4c-0.2-0.2-0.5-0.4-0.9-0.7
		c-0.1-0.1-0.3-0.2-0.7-0.5c0,0.3,0,0.5,0,0.7C38.7,32.5,39.1,32.8,39.2,32.8z M38.4,28.8c0,0-0.1-0.2-0.2-0.7l0-0.1
		c0,0,0,0.1-0.1,0.2s-0.1,0.2-0.1,0.2c0,0,0,0,0.1,0.1c0,0,0.1,0.1,0.2,0.1C38.2,28.7,38.3,28.7,38.4,28.8
		C38.4,28.8,38.4,28.8,38.4,28.8z M38.1,30.7C38.1,30.7,38,30.7,38.1,30.7C38,30.7,38,30.6,38,30.6c0,0,0,0,0-0.1
		c0-0.1,0.1-0.1,0.1-0.1c0,0,0.1,0,0.1,0.1c0,0,0.1,0.1,0.1,0.1c0,0,0,0.1-0.1,0.1C38.2,30.7,38.1,30.7,38.1,30.7z M38.5,32.3
		c-0.1,0-0.2-0.1-0.2-0.2c0,0,0,0,0-0.1c0-0.1,0.1-0.1,0.1-0.1c0.1,0,0.2,0.1,0.2,0.2C38.7,32.3,38.7,32.3,38.5,32.3z M38.9,30.4
		c0,0,0-0.2-0.1-0.3s-0.1-0.3-0.1-0.4c0,0-0.1,0.1-0.3,0.3C38.7,30.2,38.9,30.3,38.9,30.4z M39.1,35.4c0.4,0,0.8,0,1.2,0l-0.4-0.3
		c-0.1-0.1-0.4-0.3-1-0.7c-0.1,0.4-0.2,0.7-0.4,1H39.1z M39.5,32.1c0,0,0-0.1-0.1-0.2c0-0.1-0.1-0.2-0.1-0.4
		c-0.1-0.1-0.1-0.3-0.1-0.4S39.2,31,39.1,31c0,0-0.1,0.2-0.3,0.5c0.3,0.2,0.5,0.3,0.6,0.4C39.4,32,39.5,32,39.5,32.1
		C39.5,32.1,39.5,32.1,39.5,32.1z M39.2,33.8c0,0-0.1,0-0.1,0c0,0,0-0.1,0-0.1c0,0,0,0,0-0.1c0-0.1,0.1-0.1,0.1-0.1
		c0,0,0.1,0,0.1,0.1s0.1,0.1,0.1,0.1c0,0,0,0,0,0.1C39.3,33.8,39.2,33.8,39.2,33.8C39.2,33.8,39.2,33.8,39.2,33.8z M39.4,35.3
		C39.3,35.3,39.3,35.2,39.4,35.3c-0.1-0.1-0.1-0.1-0.1-0.2c0,0,0,0,0-0.1c0-0.1,0.1-0.1,0.1-0.1c0,0,0.1,0,0.1,0.1
		c0,0,0.1,0.1,0.1,0.1c0,0,0,0,0,0.1C39.5,35.2,39.5,35.2,39.4,35.3C39.4,35.2,39.4,35.3,39.4,35.3z M40,33.5c0,0,0-0.1-0.1-0.2
		c-0.1-0.4-0.2-0.6-0.2-0.6c0,0-0.1,0.1-0.1,0.2C39.5,33,39.5,33,39.5,33c0,0,0.1,0.1,0.3,0.2C39.9,33.4,40,33.5,40,33.5z
		 M40.6,35.1c0,0-0.1-0.2-0.2-0.6c-0.1-0.4-0.2-0.6-0.2-0.6c0,0-0.1,0.1-0.2,0.3c-0.1,0.2-0.1,0.2-0.1,0.3c0,0,0,0,0,0
		c0,0,0,0,0.1,0.1c0,0,0.1,0.1,0.1,0.1s0.2,0.1,0.3,0.3C40.5,35.1,40.6,35.1,40.6,35.1z"/>
	<path class="st3" d="M48.7,36.1c0,0-0.1,0-0.1-0.1s-0.1-0.1-0.1-0.2v-0.1l-5.2,0c-0.9,0-1.4,0-1.4,0c-0.1,0-0.1-0.1-0.1-0.1
		c0,0,0-0.1,0-0.1c0-0.1,0.1-0.2,0.2-0.2c0,0,0.1,0,0.1,0c0.1,0,0.3,0,0.4,0c0-0.2,0-0.7,0-1.6c0-1.4,0-3.9,0-7.5
		c-0.3,0-0.4,0-0.5,0c-0.1,0-0.2-0.1-0.2-0.2c0,0,0-0.1,0-0.1c0,0,0.3-0.1,0.9-0.1c0.2,0,0.6,0,1.1,0c0.3,0,0.6,0,0.9,0
		c0.2,0,0.5,0,0.8,0c0.3,0,0.5,0,0.6,0c0.1,0,0.1,0.1,0.1,0.2c0,0.1,0,0.1-0.1,0.2c0,0-0.2,0-0.6,0l0,1.3c0,0.5,0,1,0,1.5
		c0,0.3,0,0.7,0,0.9c0,0.3,0,0.5,0,0.7c0,0.2,0,0.5,0,0.8c0,0.4,0,0.7,0,1l0,3h2.9c0-0.8,0-1.2,0-1.2c0,0,0,0,0-0.1c0,0,0.1,0,0.1,0
		c0,0,0.1,0,0.1,0.1c0,0,0,0.1,0,0.1c0,0.1,0,0.2,0,0.4c0,0.8,0,1.2,0,1.3C48.8,36,48.8,36,48.7,36.1C48.8,36.1,48.7,36.1,48.7,36.1
		z M42.9,29.2c0,0,0.1-0.1,0.2-0.2c0.4-0.3,0.6-0.7,0.6-1.2v-0.1c0-0.5-0.1-0.8-0.4-1c0,0-0.1-0.1-0.1-0.1s-0.1-0.1-0.2-0.1
		s-0.1,0-0.1,0c0,0,0,0.1,0,0.2c0,0.1,0,0.2,0,0.2c0,0,0,0,0.1,0c0.1,0,0.2,0.1,0.3,0.3c0.1,0.2,0.2,0.4,0.2,0.6c0,0.1,0,0.2,0,0.3
		c-0.1,0.3-0.2,0.5-0.3,0.6c-0.1,0.1-0.1,0.1-0.1,0.1c0,0,0,0.1,0,0.2C42.9,29.1,42.9,29.2,42.9,29.2z M42.9,28.3L42.9,28.3
		c0.1-0.1,0.1-0.2,0.2-0.3c0-0.1,0-0.2,0-0.3c0-0.2-0.1-0.3-0.2-0.5V28.3z M43,32.3c0.1-0.1,0.1-0.1,0.2-0.1
		c0.3-0.3,0.4-0.6,0.5-0.8c0-0.2,0.1-0.4,0.1-0.5c0-0.2,0-0.4-0.1-0.6c0-0.1-0.1-0.2-0.2-0.3c-0.1-0.1-0.2-0.2-0.2-0.3
		s-0.1-0.1-0.2-0.1c0,0,0,0.1,0,0.2c0,0.1,0,0.1,0,0.2c0,0,0,0,0.1,0c0.1,0.1,0.2,0.2,0.3,0.4c0.1,0.2,0.1,0.3,0.1,0.5
		c0,0.3-0.1,0.5-0.3,0.7L43,31.8V32.3z M43,31.3c0,0,0,0,0.1-0.1c0-0.1,0-0.2,0-0.2c0-0.1,0-0.2-0.1-0.3c0,0,0-0.1,0-0.1
		c0,0,0,0.1,0,0.4C42.9,31.1,42.9,31.3,43,31.3z M42.9,35.3c0.2-0.1,0.4-0.3,0.6-0.6c0.2-0.3,0.2-0.5,0.2-0.8c0-0.4-0.1-0.7-0.3-0.9
		c-0.2-0.2-0.3-0.3-0.4-0.3c0,0,0,0.1,0,0.2c0,0,0,0.1,0,0.1c0,0,0,0.1,0.1,0.1c0.2,0.2,0.3,0.5,0.3,0.9c0,0.2,0,0.4-0.1,0.5
		s-0.1,0.2-0.2,0.3L42.9,35V35.3z M42.9,34.4c0,0,0.1-0.2,0.1-0.4c0-0.3,0-0.4-0.1-0.4c0,0,0,0.1,0,0.4
		C42.9,34.3,42.9,34.4,42.9,34.4z M44.5,31.3c0,0,0.2-0.2,0.5-0.5l-1.5-1.6l-0.3,0.2l0.1,0.1c0.3,0.3,0.6,0.7,0.6,1.1l0,0.2
		C44.3,31.1,44.5,31.3,44.5,31.3z M44.6,34.4c0,0,0.1-0.1,0.3-0.3C45,34,45,33.9,45,33.9c0,0-0.1-0.1-0.3-0.3
		c-0.8-0.9-1.2-1.3-1.2-1.3c-0.1,0.1-0.2,0.2-0.2,0.2c0.2,0.1,0.3,0.2,0.4,0.3c0.2,0.2,0.3,0.4,0.3,0.6c0,0.1,0.1,0.2,0.1,0.3
		c0,0,0,0.1,0,0.1c0,0,0,0.1,0.1,0.1c0,0,0.1,0.1,0.2,0.2C44.4,34.2,44.4,34.3,44.6,34.4C44.5,34.4,44.5,34.4,44.6,34.4z M44.6,28.1
		c0,0,0.1-0.1,0.3-0.3c0.2-0.2,0.3-0.3,0.3-0.3s0-0.1-0.1-0.1c-0.1-0.1-0.2-0.2-0.4-0.3c-0.1-0.1-0.5-0.4-1-0.9h-0.3l0.2,0.2
		c0.3,0.3,0.4,0.6,0.5,1l0,0.2C44.4,28,44.6,28.1,44.6,28.1z M44.7,35.4c0.1,0,0.2,0,0.2,0c0,0-0.1-0.2-0.4-0.5
		c-0.3-0.3-0.4-0.5-0.4-0.5c0,0,0,0.1-0.1,0.2c-0.1,0.3-0.3,0.5-0.5,0.8l0.6,0c0,0,0,0,0-0.1s0-0.1,0.1-0.1c0,0,0.1-0.1,0.1-0.1
		c0,0,0.1,0,0.1,0.1s0.1,0.1,0.1,0.1l0,0.1H44.7z M44.6,29.8L44.6,29.8c0.1-0.1,0.1-0.1,0.2-0.2s0.1-0.1,0.1-0.1
		c0,0,0.1-0.1,0.1-0.1c0,0,0.1-0.1,0.1-0.1c-0.1-0.1-0.3-0.3-0.6-0.7c-0.3-0.3-0.5-0.5-0.5-0.5c0,0,0,0.1,0,0.1
		c0,0.1-0.1,0.2-0.2,0.4c0,0.1-0.1,0.1-0.1,0.1c0,0,0.2,0.3,0.7,0.8C44.6,29.7,44.6,29.8,44.6,29.8z M44.6,32.8
		c0.1-0.2,0.2-0.3,0.3-0.4c0.1-0.1,0.1-0.1,0.1-0.2s-0.2-0.2-0.5-0.5c-0.4-0.3-0.5-0.5-0.6-0.5c0,0,0,0,0,0.1s-0.1,0.2-0.1,0.3
		c0,0.1-0.1,0.2-0.1,0.2C43.8,31.9,44,32.2,44.6,32.8z M44.6,26.6c0.2-0.2,0.3-0.3,0.3-0.3s-0.1,0-0.3,0l-0.3,0L44.6,26.6z
		 M44.4,30.7c0,0-0.1,0-0.1,0s-0.1-0.1-0.1-0.1s0-0.1,0.1-0.1c0,0,0.1-0.1,0.1-0.1c0,0,0,0,0.1,0c0.1,0,0.1,0.1,0.1,0.2
		C44.5,30.6,44.5,30.7,44.4,30.7z M44.4,29.2c0,0-0.1,0-0.1-0.1c0,0-0.1-0.1-0.1-0.1c0-0.1,0.1-0.1,0.2-0.1c0,0,0.1,0,0.1,0.1
		c0,0,0.1,0.1,0.1,0.1c0,0,0,0,0,0.1C44.5,29.1,44.5,29.1,44.4,29.2C44.5,29.2,44.4,29.2,44.4,29.2z M44.4,32.3L44.4,32.3
		c-0.1,0-0.1,0-0.1-0.1c0,0,0-0.1,0-0.1c0,0,0-0.1,0-0.1c0,0,0.1-0.1,0.1-0.1c0.1,0,0.1,0,0.1,0.1c0,0,0,0.1,0,0.1c0,0,0,0,0,0.1
		c0,0,0,0,0,0.1C44.5,32.3,44.5,32.3,44.4,32.3z M44.4,27.6C44.4,27.6,44.4,27.6,44.4,27.6c-0.1,0-0.2-0.1-0.2-0.1c0,0,0-0.1,0-0.1
		c0-0.1,0-0.1,0.1-0.2c0,0,0,0,0.1,0c0,0,0.1,0,0.1,0.1c0,0,0.1,0.1,0.1,0.1c0,0.1,0,0.1-0.1,0.1C44.5,27.6,44.5,27.6,44.4,27.6z
		 M44.4,33.8c0,0-0.1,0-0.1,0c0,0,0-0.1,0-0.1c0-0.1,0-0.1,0.1-0.1c0,0,0.1,0,0.1,0c0.1,0,0.1,0.1,0.1,0.1c0,0,0,0.1,0,0.1
		C44.5,33.8,44.5,33.8,44.4,33.8z M45.3,32l0-0.4c0-0.2,0-0.4,0-0.6c-0.2,0.2-0.4,0.4-0.5,0.5c0.1,0.1,0.2,0.2,0.3,0.2
		C45.1,31.8,45.2,31.9,45.3,32z M45.3,35.1c0-0.3,0-0.5,0-0.6c0-0.1,0-0.2,0-0.3c-0.3,0.3-0.4,0.4-0.4,0.5
		C44.8,34.7,45,34.8,45.3,35.1z M45.3,28.8c0,0,0-0.3,0-0.8l-0.4,0.4C45.1,28.7,45.3,28.8,45.3,28.8z M45.3,33.5c0-0.1,0-0.5,0-0.9
		c-0.2,0.2-0.3,0.4-0.4,0.5L45.3,33.5z M45.2,30.4c0,0,0-0.1,0-0.3c0-0.2,0-0.3,0-0.3c0,0-0.1,0.1-0.4,0.3
		C45.1,30.2,45.2,30.4,45.2,30.4z M45.3,27.2c0,0,0-0.1,0-0.4l0-0.4l-0.2,0.2c-0.1,0.1-0.1,0.2-0.1,0.2c0,0,0.1,0.1,0.2,0.2
		C45.2,27.2,45.3,27.2,45.3,27.2z"/>
	<path class="st3" d="M50.2,35.8c-0.6,0-0.9,0-0.9,0c-0.1,0-0.1-0.1-0.1-0.1v-0.1c0-0.1,0.1-0.2,0.2-0.2c0,0,0.1,0,0.1,0
		c0.1,0,0.3,0,0.4,0c0-0.2,0-0.7,0-1.6c0-1.4,0-3.9,0-7.5c-0.3,0-0.4,0-0.5,0c-0.1,0-0.1,0-0.1,0c0,0,0-0.1,0-0.1s0-0.1,0-0.1
		c0,0,0.2-0.1,0.6-0.1l0.3,0c2.2,0,3.3,0,3.3,0c0.1,0,0.2,0.1,0.2,0.2c0,0.1,0,0.1-0.1,0.2c0,0-0.2,0-0.6,0l0,1.3c0,0.5,0,1,0,1.5
		c0,0.3,0,0.6,0,0.9c0,0.3,0,0.5,0,0.7c0,0.3,0,1.2,0,2.7l0,2.1l0.5,0c0.1,0,0.2,0.1,0.2,0.2l0,0.1c0,0,0,0.1-0.1,0.1
		c-0.1,0-0.2,0-0.5,0C52.9,35.8,52,35.8,50.2,35.8z M50.3,29.2c0,0,0.1-0.1,0.2-0.2c0.4-0.3,0.6-0.7,0.6-1.2v-0.1
		c0-0.4-0.1-0.8-0.4-1c0,0-0.1-0.1-0.1-0.1c-0.1,0-0.1-0.1-0.2-0.1s-0.1,0-0.1,0c0,0,0,0.1,0,0.2c0,0.1,0,0.2,0,0.2c0,0,0,0,0.1,0
		c0.1,0,0.2,0.1,0.3,0.3c0.1,0.2,0.2,0.4,0.2,0.6c0,0.1,0,0.2,0,0.3c-0.1,0.3-0.2,0.5-0.3,0.6c-0.1,0.1-0.1,0.1-0.2,0.1
		c0,0,0,0.1,0,0.2C50.3,29.1,50.3,29.2,50.3,29.2z M50.3,28.3L50.3,28.3c0.1-0.1,0.1-0.2,0.2-0.3s0.1-0.2,0.1-0.3
		c0-0.2-0.1-0.3-0.2-0.5V28.3z M50.3,32.3c0.1-0.1,0.2-0.2,0.3-0.3c0.2-0.3,0.3-0.5,0.4-0.7c0-0.2,0.1-0.4,0.1-0.5
		c0-0.2,0-0.4-0.1-0.6c0-0.1-0.1-0.2-0.2-0.3c-0.1-0.1-0.2-0.2-0.2-0.3c-0.1-0.1-0.1-0.1-0.2-0.1c0,0,0,0.1,0,0.2c0,0.1,0,0.2,0,0.2
		c0,0,0,0,0.1,0c0.1,0.1,0.2,0.2,0.3,0.4c0.1,0.2,0.1,0.3,0.1,0.5c0,0.3-0.1,0.5-0.3,0.7l-0.1,0.2V32.3z M50.3,31.3c0,0,0,0,0.1-0.1
		c0-0.1,0-0.2,0-0.2c0-0.1,0-0.1,0-0.2c0-0.1-0.1-0.2-0.1-0.2c0,0,0,0.1,0,0.4C50.3,31.1,50.3,31.3,50.3,31.3z M50.3,35.3
		c0.2-0.1,0.4-0.3,0.6-0.6c0.1-0.2,0.1-0.3,0.2-0.5c0-0.1,0-0.2,0-0.3c0-0.4-0.1-0.7-0.3-0.9c-0.2-0.2-0.3-0.3-0.4-0.3
		c0,0,0,0.1,0,0.2c0,0,0,0.1,0,0.1c0,0,0,0.1,0.1,0.1c0.2,0.2,0.3,0.5,0.3,1c0,0.2,0,0.3-0.1,0.4c0,0.1-0.1,0.2-0.2,0.3L50.3,35
		V35.3z M50.3,34.4c0,0,0.1-0.2,0.1-0.4c0-0.3,0-0.4-0.1-0.4c0,0,0,0.1,0,0.4C50.3,34.3,50.3,34.4,50.3,34.4z M51.9,31.3
		c0,0,0.2-0.2,0.5-0.5l-1.5-1.6l-0.3,0.2l0.1,0.1c0.3,0.3,0.6,0.7,0.6,1.1l0,0.2C51.6,31,51.7,31.1,51.9,31.3
		C51.9,31.2,51.9,31.3,51.9,31.3z M51.9,34.4c0,0,0.1-0.1,0.3-0.3c0.1-0.1,0.2-0.2,0.2-0.3c0,0-0.1-0.1-0.3-0.3
		c-0.8-0.8-1.2-1.3-1.2-1.3c0,0,0,0,0,0s-0.1,0.1-0.2,0.2c0.2,0.1,0.3,0.2,0.4,0.3c0.2,0.2,0.3,0.4,0.3,0.6c0,0.1,0.1,0.2,0.1,0.3
		c0,0.1,0,0.1,0.1,0.2C51.6,34.1,51.7,34.2,51.9,34.4C51.9,34.4,51.9,34.4,51.9,34.4z M52,28.1c0,0,0.1-0.1,0.3-0.3s0.3-0.3,0.3-0.3
		s0-0.1-0.1-0.1c-0.1-0.1-0.2-0.2-0.4-0.3c-0.1-0.1-0.5-0.4-1-0.9l-0.3,0l0.2,0.2c0.3,0.3,0.4,0.6,0.5,1l0,0.2
		C51.8,28,52,28.1,52,28.1z M52.1,35.4c0.1,0,0.2,0,0.2,0c0,0,0-0.1-0.1-0.1S52,35,51.9,34.9s-0.2-0.2-0.3-0.3s-0.1-0.1-0.1-0.2
		c0,0,0,0.1-0.1,0.2c-0.1,0.3-0.3,0.5-0.5,0.8l0.6,0c0,0,0,0,0-0.1s0-0.1,0.1-0.1c0,0,0.1-0.1,0.1-0.1c0,0,0.1,0,0.1,0.1
		s0.1,0.1,0.1,0.1l0,0.1H52.1z M52,29.8c0,0,0.2-0.2,0.5-0.5c-0.1-0.2-0.4-0.5-0.9-1c-0.1-0.1-0.1-0.1-0.1-0.1c0,0,0,0,0,0
		s0,0.1,0,0.1c0,0,0,0.1-0.1,0.2s-0.1,0.2-0.1,0.2s-0.1,0.1-0.1,0.1C51.1,28.9,51.4,29.2,52,29.8z M52,32.8c0.1-0.2,0.2-0.3,0.3-0.4
		c0.1-0.1,0.1-0.1,0.1-0.2s-0.2-0.2-0.5-0.5c-0.4-0.3-0.5-0.5-0.6-0.5c0,0,0,0,0,0.1c0,0.1-0.1,0.2-0.1,0.3s-0.1,0.2-0.1,0.2
		C51.1,31.9,51.4,32.2,52,32.8z M52,26.6c0.2-0.2,0.3-0.3,0.3-0.3s-0.1,0-0.3,0l-0.3,0L52,26.6z M51.8,30.7c0,0-0.1,0-0.1,0
		s-0.1-0.1-0.1-0.1c0,0,0-0.1,0.1-0.1c0,0,0.1-0.1,0.1-0.1c0,0,0,0,0.1,0c0.1,0,0.1,0.1,0.1,0.2C51.9,30.7,51.9,30.7,51.8,30.7z
		 M51.8,29.2c0,0-0.1,0-0.1-0.1c0,0-0.1-0.1-0.1-0.1c0-0.1,0.1-0.2,0.2-0.2c0,0,0.1,0,0.1,0.1c0,0,0.1,0.1,0.1,0.1c0,0,0,0,0,0.1
		C51.9,29.1,51.9,29.1,51.8,29.2C51.8,29.2,51.8,29.2,51.8,29.2z M51.8,32.3L51.8,32.3c0,0-0.1,0-0.1,0c-0.1,0-0.1-0.1-0.1-0.2
		c0,0,0-0.1,0-0.1c0,0,0.1-0.1,0.1-0.1c0.1,0,0.1,0,0.1,0.1c0,0,0,0.1,0,0.1c0,0,0,0.1-0.1,0.1C51.9,32.3,51.9,32.3,51.8,32.3z
		 M51.8,27.6C51.8,27.6,51.8,27.6,51.8,27.6c-0.1,0-0.2-0.1-0.2-0.1c0,0,0-0.1,0-0.1c0-0.1,0-0.1,0.1-0.2c0,0,0,0,0.1,0
		c0,0,0.1,0,0.1,0.1c0,0,0.1,0.1,0.1,0.1c0,0.1,0,0.1-0.1,0.1S51.9,27.6,51.8,27.6z M51.8,33.8c0,0-0.1,0-0.1,0c0,0,0-0.1,0-0.1
		c0-0.1,0-0.1,0.1-0.1c0,0,0,0,0.1,0c0.1,0,0.1,0.1,0.1,0.1c0,0,0,0.1,0,0.1C51.9,33.8,51.9,33.8,51.8,33.8z M52.7,32
		c0-0.1,0-0.2,0-0.3c0-0.1,0-0.2,0-0.3c0-0.1,0-0.3,0-0.5c-0.2,0.2-0.4,0.4-0.5,0.5c0.1,0.1,0.2,0.2,0.3,0.2
		C52.5,31.8,52.6,31.9,52.7,32z M52.6,35.2c0-0.3,0-0.5,0-0.6c0-0.1,0-0.2,0-0.3c-0.3,0.3-0.4,0.4-0.4,0.5
		C52.2,34.7,52.4,34.8,52.6,35.2z M52.6,28.8c0,0,0-0.3,0-0.8l-0.4,0.4C52.5,28.7,52.6,28.8,52.6,28.8z M52.6,33.5
		c0-0.1,0-0.5,0-0.9c-0.2,0.2-0.3,0.4-0.4,0.5L52.6,33.5z M52.6,30.4c0,0,0-0.1,0-0.3c0-0.2,0-0.3,0-0.3s-0.1,0.1-0.4,0.3
		C52.5,30.2,52.6,30.4,52.6,30.4z M52.6,27.2c0,0,0-0.3,0-0.8l-0.2,0.2c-0.1,0.1-0.2,0.2-0.2,0.2s0.1,0.1,0.2,0.2
		C52.6,27.2,52.6,27.2,52.6,27.2z"/>
</g>
</svg>
