<?xml version="1.0" encoding="utf-8"?>
<!-- Generator: Adobe Illustrator 28.2.0, SVG Export Plug-In . SVG Version: 6.00 Build 0)  -->
<svg version="1.1" id="Layer_1" xmlns="http://www.w3.org/2000/svg" xmlns:xlink="http://www.w3.org/1999/xlink" x="0px" y="0px"
	 viewBox="0 0 76 45.6" style="enable-background:new 0 0 76 45.6;" xml:space="preserve">
<style type="text/css">
	.st0{fill:#571246;stroke:#571246;stroke-width:0.15;stroke-miterlimit:10;}
</style>
<g>
	<path class="st0" d="M37.4,18.2c-0.1,0-0.1,0-0.2,0c0,0-0.1,0-0.1-0.1c0,0,0,0,0-0.1c0,0,0,0,0-0.1c0-0.1,0.1-0.1,0.1-0.1
		c0.1,0,0.1,0,0.2,0h0.2v-1.5h-1.4V18c0.2,0,0.3,0,0.3,0c0.1,0,0.1,0.1,0.1,0.1c0,0.1,0,0.1,0,0.1s-0.1,0-0.2,0.1
		c-0.1,0-0.7,0-1.9,0c-0.3,0-0.5,0-0.5,0c-0.1,0-0.1-0.1-0.1-0.1v-0.1c0-0.1,0.1-0.1,0.1-0.1c0.2,0,0.3,0,0.3,0c0-0.1,0-0.5,0-1.5
		c-0.2,0-0.3,0-0.5,0c0,0-0.1,0-0.1-0.1s0-0.1,0-0.1c0-0.1,0-0.1,0-0.1s0.1-0.1,0.3-0.1h0.2c0-0.6,0-1,0-1.3l-0.2-0.1
		c-0.3-0.2-0.7-0.2-1-0.2c-0.3,0-0.6,0.1-0.7,0.1c-0.1,0.1-0.2,0.1-0.2,0.2c-0.2,0.2-0.2,0.4-0.2,0.6c0,0.2,0.1,0.3,0.2,0.5
		c0.1,0,0.1,0.1,0.2,0.1c0.1,0,0.1,0,0.1,0c0.1-0.1,0.1-0.1,0.1-0.1s0-0.1-0.1-0.1c0-0.1,0-0.1,0-0.1v-0.1c0-0.1,0.1-0.1,0.1-0.1
		c0.1,0,0.2,0.1,0.2,0.2V16c0,0.1-0.1,0.2-0.2,0.3c-0.1,0-0.1,0-0.2,0c-0.2,0-0.3-0.1-0.4-0.2c-0.2-0.1-0.2-0.3-0.2-0.6
		c0-0.2,0.1-0.3,0.1-0.5c0.2-0.4,0.7-0.6,1.3-0.6c0.3,0,0.6,0.1,1,0.2c0.1,0.1,0.2,0.1,0.2,0.1s0-0.2,0-0.5v-1.7c-0.2,0-0.3,0-0.3,0
		c-0.1,0-0.1-0.1-0.1-0.1c0-0.1,0-0.1,0-0.1c0-0.1,0.2-0.1,0.6-0.1c0.2,0,0.4,0,0.7,0c0.2,0,0.3,0,0.5,0c0.5,0,0.8,0,0.9,0.1v0.1
		c0,0.1,0,0.1-0.1,0.1c0,0-0.1,0-0.3,0V13c0,0.2,0,0.3,0,0.5c0,0.2,0,0.4,0,0.6s0,0.3,0,0.5c0,0.5,0,0.9,0.1,1l0.2,0.1
		c0.4,0.2,0.8,0.3,1.1,0.4h0.1c0-1.8,0-3,0-3.6c-0.2,0-0.3,0-0.4,0c-0.1,0-0.1-0.1-0.1-0.1s0.1-0.1,0.2-0.1c0.2,0,1,0,2.5,0l0.1,0.1
		l0.1,0.1v0.1l-0.1,0.1c0,0-0.1,0-0.2,0c0,2.4,0,4.2,0,5.4c0,0,0.1,0,0.1,0c0.1,0,0.2,0.1,0.2,0.1v0.1c0,0-0.1,0.1-0.2,0.1
		c-0.1,0-0.3,0-0.5,0C38.1,18.2,37.5,18.2,37.4,18.2z M34.5,14.3c0,0,0.1-0.1,0.1-0.1c0.2-0.2,0.3-0.5,0.3-0.7v-0.1
		c0-0.3-0.1-0.5-0.2-0.6c0,0-0.1-0.1-0.1-0.1c0,0-0.1,0-0.1-0.1c-0.1,0-0.1,0-0.1,0s0,0.1,0,0.1c0,0.1,0,0.1,0,0.1s0,0,0.1,0
		c0.1,0,0.1,0.1,0.2,0.2c0.1,0.1,0.1,0.2,0.1,0.3c0,0.1,0,0.1,0,0.2c-0.1,0.2-0.2,0.3-0.2,0.4c-0.1,0-0.1,0.1-0.1,0.1s0,0.1,0,0.1
		S34.5,14.3,34.5,14.3z M34.5,13.8L34.5,13.8c0.1-0.1,0.1-0.1,0.1-0.2c0.1-0.1,0.1-0.1,0.1-0.2c0-0.1-0.1-0.2-0.1-0.3L34.5,13.8
		L34.5,13.8z M34.5,16.2c0.1-0.1,0.1-0.1,0.2-0.2c0.1-0.2,0.2-0.3,0.2-0.5c0-0.1,0.1-0.2,0.1-0.3c0-0.1,0-0.2-0.1-0.3
		c0-0.1-0.1-0.1-0.1-0.2c-0.1,0-0.2-0.1-0.2-0.1c-0.1-0.1-0.1-0.1-0.1-0.1s0,0.1,0,0.1c0,0.1,0,0.1,0,0.1s0,0,0.1,0
		c0.1,0,0.1,0.1,0.2,0.2c0.1,0.1,0.1,0.2,0.1,0.3c0,0.2-0.1,0.3-0.2,0.5l-0.1,0.1V16.2z M34.5,15.5C34.5,15.5,34.5,15.5,34.5,15.5
		c0.1-0.1,0.1-0.2,0.1-0.2s0-0.1-0.1-0.2V15c0,0,0,0.1,0,0.2S34.5,15.5,34.5,15.5z M34.5,17.9c0.1-0.1,0.1-0.1,0.1-0.1
		c0.1-0.1,0.2-0.2,0.2-0.3c0.1-0.2,0.1-0.3,0.1-0.5c0-0.2-0.1-0.4-0.2-0.5s-0.2-0.2-0.3-0.2c0,0,0,0.1,0,0.1s0,0.1,0,0.1
		s0,0.1,0.1,0.1c0.1,0.1,0.2,0.3,0.2,0.6c0,0.1,0,0.2-0.1,0.3c0,0.1-0.1,0.1-0.1,0.2l-0.1,0.1V17.9z M34.5,17.4c0,0,0.1-0.1,0.1-0.2
		c0-0.1,0-0.2-0.1-0.2c0,0,0,0.1,0,0.2C34.5,17.3,34.5,17.4,34.5,17.4z M35.4,15.5c0,0,0.1-0.1,0.3-0.3l-0.9-0.9l-0.2,0.1l0.1,0.1
		c0.2,0.2,0.3,0.5,0.3,0.7v0.1C35.4,15.4,35.4,15.5,35.4,15.5z M35.5,17.4l0.2-0.2c0.1-0.1,0.1-0.1,0.1-0.2c0,0-0.2-0.3-0.7-0.9
		c-0.1,0-0.2-0.1-0.2-0.1l0,0l-0.1,0.1l-0.1,0.1c0.2,0.2,0.3,0.3,0.3,0.4c0.1,0.1,0.1,0.1,0.1,0.2s0.1,0.2,0.1,0.2
		c0,0.1,0,0.1,0.1,0.1C35.3,17.2,35.4,17.2,35.5,17.4L35.5,17.4z M35.5,13.7c0,0,0.1-0.1,0.2-0.2c0.1-0.1,0.2-0.2,0.2-0.2
		s0-0.1-0.1-0.1c-0.1-0.1-0.2-0.1-0.2-0.2c-0.1-0.1-0.3-0.3-0.6-0.6h-0.2l0.1,0.1c0.2,0.2,0.3,0.3,0.3,0.6v0.1
		C35.4,13.5,35.5,13.7,35.5,13.7z M35.6,17.9c0.1,0,0.1,0,0.1,0s-0.1-0.1-0.2-0.3s-0.2-0.3-0.3-0.3c0,0,0,0.1-0.1,0.1
		c-0.1,0.2-0.1,0.3-0.2,0.5h0.3c0,0,0,0,0-0.1c0,0,0-0.1,0.1-0.1l0.1-0.1c0,0,0.1,0,0.1,0.1s0.1,0.1,0.1,0.1v0.1H35.6z M35.5,16.5
		c0.1-0.1,0.1-0.2,0.2-0.2c0.1-0.1,0.1-0.1,0.1-0.1s-0.1-0.1-0.2-0.3c-0.2-0.2-0.3-0.3-0.3-0.3s0,0,0,0.1c0,0.1-0.1,0.1-0.1,0.2
		c-0.1,0.1,0,0.1-0.1,0.1C35,15.9,35.2,16.1,35.5,16.5z M35.5,14.6C35.5,14.6,35.6,14.6,35.5,14.6c0.1-0.1,0.1-0.1,0.1-0.1
		c0.1,0,0.1-0.1,0.1-0.1s0.1-0.1,0.1-0.1c0-0.1,0.1-0.1,0.1-0.1c-0.1-0.1-0.3-0.3-0.6-0.6c-0.1-0.1-0.1-0.1-0.1-0.1l0,0v0.1
		c0,0,0,0.1-0.1,0.1c0,0.1-0.1,0.1-0.1,0.1C35.1,14,35,14,35,14s0.2,0.2,0.5,0.5C35.5,14.6,35.5,14.6,35.5,14.6z M35.5,12.7
		c0.1-0.1,0.2-0.2,0.2-0.2c0-0.1-0.1,0-0.2,0h-0.2L35.5,12.7z M35.4,15.2L35.4,15.2l-0.1-0.1c0,0,0-0.1,0.1-0.1s0.1-0.1,0.1-0.1
		s0,0,0.1,0c0.1,0,0.1,0.1,0.1,0.1C35.5,15.1,35.4,15.2,35.4,15.2z M35.4,14.3C35.4,14.3,35.3,14.3,35.4,14.3l-0.1-0.1
		c0,0,0,0,0-0.1s0.1-0.1,0.1-0.1c0,0,0.1,0,0.1,0.1s0.1,0.1,0.1,0.1s0,0,0,0.1C35.5,14.2,35.4,14.2,35.4,14.3
		C35.4,14.2,35.4,14.3,35.4,14.3z M35.4,16.2L35.4,16.2L35.4,16.2c-0.1-0.1-0.1-0.1-0.1-0.1V16c0,0,0.1-0.1,0.1-0.1
		c0.1,0,0.1,0,0.1,0.1v0.1C35.6,16.1,35.6,16.1,35.4,16.2C35.5,16.1,35.4,16.2,35.4,16.2z M35.4,13.4C35.4,13.4,35.4,13.4,35.4,13.4
		c-0.1,0-0.1-0.1-0.1-0.1v-0.1c0-0.1,0-0.1,0.1-0.1c0,0,0,0,0.1,0c0,0,0.1,0,0.1,0.1l0.1,0.1C35.6,13.3,35.6,13.3,35.4,13.4
		C35.4,13.3,35.4,13.4,35.4,13.4z M35.4,17.1C35.4,17.1,35.4,17.1,35.4,17.1L35.4,17v-0.1h0.1h0.1c0.1,0,0.1,0.1,0.1,0.1
		S35.6,17,35.4,17.1C35.4,17,35.4,17.1,35.4,17.1z M36,15.9v-0.2c0-0.1,0-0.2,0-0.2s0-0.1,0-0.1c-0.2,0.1-0.2,0.2-0.3,0.3
		c0.1,0.1,0.1,0.1,0.2,0.1C35.8,15.8,35.8,15.9,36,15.9z M35.9,17.8v-0.4c0-0.1,0-0.1,0-0.2c-0.2,0.2-0.2,0.3-0.2,0.3
		s0.1,0.1,0.1,0.2L35.9,17.8z M35.9,14.1c0,0,0-0.2,0-0.5l-0.2,0.3C35.8,14,35.9,14.1,35.9,14.1z M35.9,16.9c0-0.1,0-0.3,0-0.6
		c-0.1,0.2-0.2,0.2-0.2,0.3L35.9,16.9z M35.9,15c0,0,0-0.1,0-0.2c0-0.1,0-0.2,0-0.2s-0.1,0.1-0.2,0.2C35.8,14.9,35.9,15,35.9,15z
		 M35.9,13.1c0,0,0-0.2,0-0.5l-0.1,0.2c-0.1,0.1-0.1,0.1-0.1,0.1s0,0.1,0.1,0.1C35.8,13.1,35.9,13.1,35.9,13.1z M36.6,16.2l-0.2-0.1
		c-0.1,0-0.2-0.1-0.3-0.2c0,0.1,0,0.2,0,0.2L36.6,16.2L36.6,16.2z M39.3,13.4v-0.2c-0.6,0-1-0.1-1.4-0.1v0.2L39.3,13.4L39.3,13.4z
		 M39.3,13.8v-0.1c0-0.1,0-0.1,0-0.1s-0.2,0-0.6,0s-0.6,0-0.8,0c0,0.1,0,0.2,0,0.2s0,0.1,0.1,0.1s0.3,0,0.7,0
		C38.9,13.8,39.1,13.8,39.3,13.8z M38.2,14.2c0.1,0,0.5,0,1,0c0-0.1,0-0.1,0-0.1l0,0c-0.1,0-0.5,0-1.4,0v0.2
		C38,14.2,38.1,14.2,38.2,14.2z M39.3,14.6v-0.2h-1.4c0,0.1,0,0.1,0,0.1c0.1,0,0.4,0,1,0L39.3,14.6L39.3,14.6z M39.3,14.9v-0.2
		c-0.7,0-1.2,0-1.4,0c0,0.1,0,0.1,0,0.2C37.9,14.9,38.3,14.9,39.3,14.9z M38.1,15.8c0,0,0.1-0.1,0.2-0.1s0.2-0.1,0.2-0.1
		c0.1,0,0.1,0.1,0.2,0.1c0.1,0.1,0.1,0.1,0.1,0.1s0,0,0.1,0c0,0,0.1-0.1,0.1-0.1c0.1,0,0.1-0.1,0.1-0.1c0.1,0,0.1-0.1,0.1-0.1
		s0.1-0.1,0.1-0.1c0-0.2,0-0.2,0-0.2s-0.1,0.1-0.2,0.1c-0.2,0.1-0.2,0.1-0.2,0.1h-0.1c-0.1-0.1-0.1-0.1-0.2-0.2
		c-0.1-0.1-0.1-0.1-0.1-0.1l0,0c0,0,0,0-0.1,0.1c-0.2,0.1-0.3,0.2-0.3,0.2c-0.1,0-0.1-0.1-0.2-0.1c-0.2-0.2-0.2-0.2-0.2-0.2
		s0,0.1,0,0.1c0,0.1,0,0.1,0,0.1s0.1,0.1,0.2,0.1C38.1,15.7,38.1,15.8,38.1,15.8z M38.9,16.3c0,0,0.1-0.1,0.1-0.1s0.2-0.1,0.3-0.2
		v-0.2c-0.2,0.1-0.3,0.2-0.3,0.2C38.9,16,38.9,16,38.9,16s-0.1-0.1-0.2-0.1c-0.1-0.1-0.1-0.1-0.1-0.1s0,0-0.1,0.1
		c-0.2,0.1-0.3,0.2-0.3,0.2h-0.1c-0.1,0-0.1-0.1-0.2-0.2l-0.1-0.1c0,0,0,0.1,0,0.3l0.2,0.2l0.1-0.1c0.2-0.2,0.3-0.2,0.3-0.2
		c0,0,0.1,0,0.1,0.1c0.1,0,0.1,0.1,0.2,0.2S38.9,16.3,38.9,16.3z M38.9,16.7c0.2-0.2,0.4-0.3,0.4-0.3v-0.1v-0.1
		c-0.2,0.1-0.3,0.2-0.3,0.2l-0.1,0.1c-0.1,0-0.1-0.1-0.2-0.2c-0.1-0.1-0.1-0.1-0.1-0.1s-0.1,0-0.1-0.1l-0.2,0.2
		c-0.1,0.1-0.1,0.1-0.2,0.1c0,0-0.1-0.1-0.2-0.2c0,0.1,0,0.2,0,0.2l0,0c0,0,0.1,0.1,0.3,0.2c0.1-0.1,0.2-0.2,0.2-0.2
		c0.1,0,0.2,0.1,0.3,0.2L38.9,16.7z M38.1,17.3c0.1-0.1,0.2-0.2,0.2-0.2c0.1-0.1,0.1-0.1,0.1-0.1c0.1,0,0.1,0.1,0.2,0.1
		c0.1,0.1,0.2,0.1,0.2,0.1s0.1-0.1,0.2-0.1c0.2-0.1,0.2-0.2,0.2-0.2c0,0,0-0.1,0-0.2c-0.1,0.1-0.2,0.1-0.2,0.2
		C39,17,38.9,17,38.9,17c-0.1,0-0.1-0.1-0.2-0.1c-0.1-0.1-0.2-0.1-0.2-0.1s-0.1,0-0.1,0.1c-0.1,0.1-0.2,0.2-0.2,0.2
		c-0.1,0-0.1,0-0.2-0.1c0-0.1-0.1-0.1-0.1-0.1s0,0.1,0,0.2L38.1,17.3z M38.1,17.8c0.1-0.1,0.1-0.1,0.2-0.2c0.1-0.1,0.2-0.1,0.2-0.1
		h0.1c0,0,0.1,0.1,0.2,0.2c0.1-0.1,0.1-0.1,0.1-0.1c0.1-0.1,0.1-0.1,0.1-0.1c0.1-0.1,0.1-0.1,0.1-0.1c0.1-0.1,0.1-0.1,0.1-0.1
		s0-0.1,0.1-0.1v-0.1c0-0.1,0-0.1,0-0.1s0,0-0.1,0.1c-0.1,0.1-0.2,0.2-0.2,0.2c-0.1,0.1-0.1,0.1-0.1,0.1s-0.2-0.1-0.3-0.2
		c-0.2,0.2-0.3,0.2-0.3,0.2h-0.1c-0.1,0-0.2-0.1-0.3-0.2v0.2L38.1,17.8z M37.8,18c0.1,0,0.3,0,0.9,0c-0.1-0.1-0.1-0.1-0.2-0.2
		s-0.1-0.1-0.1-0.1s-0.1,0-0.1,0.1c-0.1,0.1-0.1,0.1-0.1,0.1c-0.1,0-0.1,0.1-0.1,0.1h-0.1c-0.1,0-0.1,0-0.2-0.1
		c-0.1-0.1-0.1-0.1-0.1-0.1c0-0.1,0,0,0,0S37.9,17.9,37.8,18C37.8,17.9,37.8,18,37.8,18L37.8,18z M39.3,13v-0.2c-0.1,0-0.2,0-0.4,0
		c-0.6,0-1,0-1,0s0,0,0,0.1V13c0.7,0,1,0,1.1,0.1C38.9,13,39,13,39.3,13z M37.8,12.6c0.2,0,0.6,0,1.4,0v-0.1c-0.9,0-1.3,0-1.4,0
		V12.6z M38.2,15.3L38.2,15.3c0.1-0.1,0.1-0.1,0.1-0.1c0.1,0,0.1-0.1,0.1-0.1c-0.2,0-0.3,0-0.4,0c0,0,0,0,0.1,0.1
		C38.1,15.2,38.1,15.2,38.2,15.3z M38.9,15.3l0.2-0.2h-0.3C38.9,15.3,38.9,15.3,38.9,15.3L38.9,15.3z M38.9,18c0.1,0,0.1,0,0.2,0
		c0.1,0,0.1,0,0.2,0c0-0.2,0-0.3,0-0.3S39.1,17.8,38.9,18C38.9,18,38.9,18,38.9,18z"/>
	<path class="st0" d="M43.1,18.3c-0.1,0-0.1,0-0.2,0c-0.5-0.1-0.9-0.2-1.4-0.5s-0.8-0.7-1-1.1c0-0.1-0.1-0.1-0.1-0.1l-0.1-0.1
		c-0.1-0.1-0.1-0.2-0.1-0.4c-0.1-0.3-0.1-0.6-0.1-0.9c0-0.2,0-0.4,0.1-0.6c0.2-0.8,0.6-1.4,1.2-1.9c0.1,0,0.1-0.1,0.1-0.1l0,0
		c0.1-0.1,0.2-0.1,0.3-0.2c0.1-0.1,0.2-0.1,0.2-0.1c0.1,0,0.2-0.1,0.3-0.1s0.2-0.1,0.3-0.1c0.1,0,0.3,0,0.5,0c0.1,0,0.2,0,0.2,0
		c0.5,0.1,0.9,0.2,1.3,0.5c0.4,0.3,0.7,0.7,0.9,1.1c0.2,0.3,0.2,0.6,0.3,1c0,0.1,0,0.3,0,0.5c0.1,0.7-0.1,1.3-0.5,1.9
		c-0.5,0.7-1.2,1-1.9,1.1C43.2,18.3,43.1,18.3,43.1,18.3z M40.4,15c0,0,0.1,0,0.1-0.1c0.3-0.1,0.5-0.3,0.6-0.7c0-0.1,0-0.1,0-0.2
		c0-0.2-0.1-0.3-0.2-0.6c-0.1,0.1-0.1,0.1-0.1,0.2c0,0,0,0.1,0.1,0.1C41,13.9,41,14,41,14.1c0,0.1-0.1,0.3-0.1,0.3
		c-0.1,0.1-0.2,0.2-0.3,0.3h-0.1C40.4,14.8,40.4,14.9,40.4,15L40.4,15z M40.5,16.2C40.5,16.2,40.5,16.1,40.5,16.2
		c0-0.1,0.1-0.1,0.1-0.1c0-0.1,0-0.1,0-0.1c0-0.1,0-0.2,0-0.2c0-0.1-0.1-0.1-0.1-0.2c0,0,0-0.1-0.1-0.1l0,0l0,0c0,0.1,0,0.2,0.1,0.3
		C40.5,15.9,40.5,16.1,40.5,16.2L40.5,16.2z M40.5,14.6C40.5,14.6,40.5,14.6,40.5,14.6c0.2-0.2,0.2-0.3,0.2-0.5c0-0.1,0-0.1,0-0.2
		l0,0c0,0-0.1,0.1-0.1,0.2C40.5,14.4,40.5,14.5,40.5,14.6L40.5,14.6z M41,16.5c0,0,0.1,0,0.1-0.1c0.1,0,0.1-0.1,0.1-0.1
		c0.1,0,0.1,0,0.1-0.1l0,0c0,0-0.1-0.1-0.1-0.2c0-0.1-0.1-0.1-0.1-0.1c0-0.1,0-0.1,0-0.1s0-0.1-0.1-0.1c0-0.1-0.1-0.1-0.1-0.2
		c-0.1-0.1-0.1-0.1-0.1-0.2c0-0.1-0.1-0.1-0.1-0.1s0,0,0-0.1c-0.1-0.2-0.1-0.2-0.1-0.2s0,0-0.1-0.1l0,0c0,0-0.1,0-0.1,0.1
		c-0.1,0-0.1,0-0.1,0.1c0,0.1,0,0,0.1,0.1c0.1,0.1,0.1,0.2,0.2,0.3c0,0.1,0.1,0.1,0.1,0.2c0,0.3,0,0.5,0,0.5
		C40.9,16.3,40.9,16.5,41,16.5C40.9,16.5,40.9,16.5,41,16.5z M40.7,16.7L40.7,16.7c0-0.1,0-0.1-0.1-0.1c-0.1-0.1,0-0.1-0.1-0.1
		c-0.1-0.1-0.1-0.1-0.1-0.1l0,0c0,0,0,0.1,0.1,0.2C40.7,16.7,40.7,16.7,40.7,16.7z M41,16.2C41,16.2,40.9,16.2,41,16.2l-0.1-0.1
		c0,0,0-0.1,0.1-0.1L41,16c0,0,0.1,0,0.1,0.1l0.1,0.1C41.1,16.1,41.1,16.2,41,16.2C41,16.2,41,16.2,41,16.2z M41.2,15.7
		C41.2,15.7,41.2,15.6,41.2,15.7c0.1-0.1,0.1-0.1,0.2-0.1c0.1,0,0.1-0.1,0.1-0.1c0-0.1,0-0.1,0-0.1l0,0c0-0.1-0.1-0.2-0.2-0.5
		c-0.1-0.1-0.1-0.2-0.1-0.2l0,0c-0.1,0.1-0.1,0.2-0.2,0.3C41.1,15.4,41.2,15.7,41.2,15.7z M41.2,17.1c0,0,0.1,0,0.2-0.1
		c0-0.1,0-0.2,0-0.3s0-0.1,0-0.1s-0.1,0-0.2,0.1c-0.1,0-0.1,0.1-0.1,0.1c0,0,0,0-0.1,0l0,0v0.1C41.1,16.9,41.1,17,41.2,17.1
		L41.2,17.1z M41.4,14.7l0.2-0.1c0.2-0.1,0.2-0.1,0.2-0.1c0-0.1-0.1-0.2-0.2-0.3c-0.1-0.1-0.2-0.3-0.3-0.7c-0.1-0.1-0.1-0.1-0.1-0.1
		s-0.1,0-0.1,0c-0.1,0-0.1,0-0.1,0v0.1c0,0.1,0.1,0.1,0.1,0.2c0.1,0.2,0.1,0.3,0.1,0.5c0,0.1,0,0.2-0.1,0.3c0.1,0.2,0.1,0.2,0.1,0.2
		C41.4,14.7,41.4,14.7,41.4,14.7z M41.2,15.3c-0.1,0-0.1,0-0.1-0.1v-0.1c0,0,0-0.1,0.1-0.1h0.1c0.1,0,0.1,0.1,0.1,0.1v0.1
		C41.3,15.3,41.3,15.3,41.2,15.3z M41.1,13.3c0,0,0.1,0,0.1-0.1c0.1-0.1,0.2-0.1,0.2-0.2c0.1-0.1,0.2-0.2,0.2-0.3c0,0,0,0,0-0.1
		c0,0-0.1,0.1-0.2,0.1C41.4,13,41.3,13.1,41.1,13.3L41.1,13.3z M41.5,17.5L41.5,17.5L41.5,17.5c0-0.1,0-0.1-0.1-0.2
		c0-0.1-0.1-0.1-0.1-0.1l0,0c0,0,0,0-0.1,0h-0.1c0,0.1,0.1,0.1,0.1,0.1C41.4,17.5,41.4,17.5,41.5,17.5z M41.4,16.1c0,0,0-0.1,0-0.1
		c0-0.1,0-0.1,0-0.2c0-0.1,0-0.1,0-0.1l0,0c0,0-0.1,0-0.1,0.1c-0.1,0-0.1,0.1-0.1,0.1s0,0.1,0.1,0.1C41.4,16,41.4,16.1,41.4,16.1z
		 M41.5,14.5L41.5,14.5l-0.1-0.1v-0.1l0.1-0.1c0,0,0.1,0,0.1,0.1V14.5C41.5,14.4,41.5,14.4,41.5,14.5C41.5,14.4,41.5,14.4,41.5,14.5
		L41.5,14.5z M41.8,13.9C41.8,13.9,41.8,13.9,41.8,13.9c0.1-0.1,0.2-0.1,0.2-0.1c0.1,0,0.1-0.1,0.2-0.1s0.1-0.1,0.1-0.1
		s-0.1-0.1-0.1-0.3c-0.1-0.1-0.1-0.2-0.1-0.3c0-0.1-0.1-0.1-0.1-0.1s-0.1,0.1-0.1,0.1c-0.1,0.1-0.1,0.1-0.2,0.2
		c-0.1,0.1-0.1,0.1-0.1,0.1s0.1,0.1,0.1,0.3C41.7,13.8,41.8,13.9,41.8,13.9z M41.6,15.1c0,0,0-0.1,0.1-0.1c0.1-0.1,0-0.1,0-0.1l0,0
		h-0.1c-0.1,0-0.1,0.1-0.1,0.1s0,0.1,0.1,0.1C41.6,15.1,41.6,15.1,41.6,15.1z M42.2,17.8c0.3,0,0.6-0.2,1-0.7
		c0.5-0.6,0.8-1.3,1.1-2.2c0.1-0.5,0.2-0.9,0.2-1.2c0-0.5-0.1-0.9-0.3-1c-0.1-0.1-0.2-0.1-0.3-0.1c-0.1,0-0.1,0-0.2,0
		c-0.3,0.1-0.6,0.4-1,0.8c-0.3,0.5-0.6,1-0.8,1.6c-0.2,0.6-0.3,1.1-0.3,1.6c0,0.5,0.1,0.9,0.3,1.1C41.9,17.8,42.1,17.8,42.2,17.8z
		 M41.8,13.7C41.8,13.7,41.8,13.7,41.8,13.7l-0.1-0.1c0,0,0-0.1,0.1-0.1l0.1-0.1c0,0,0.1,0,0.1,0.1l0.1,0.1
		C41.9,13.5,41.9,13.6,41.8,13.7C41.9,13.7,41.8,13.7,41.8,13.7z M41.9,14.3c0,0,0-0.1,0.1-0.1c0-0.1,0.1-0.1,0.1-0.1l0,0
		c0,0-0.1,0-0.1,0.1c-0.1,0-0.1,0.1-0.1,0.1C41.9,14.2,41.9,14.3,41.9,14.3z M42.2,13.1l0.4-0.2c-0.1-0.2-0.1-0.2-0.2-0.3
		c-0.1-0.1,0-0.1-0.1-0.1c0,0-0.1,0-0.1,0.1c-0.1,0-0.1,0.1-0.1,0.1l-0.1,0.1C42,12.7,42,12.8,42,12.8s0,0,0,0.1
		c0,0.1,0.1,0.1,0.1,0.1S42.1,13.1,42.2,13.1C42.2,13.1,42.2,13.1,42.2,13.1L42.2,13.1z M42.2,12.9C42.2,12.9,42.2,12.9,42.2,12.9
		l-0.1-0.1c0,0,0,0,0-0.1c0-0.1,0.1-0.1,0.1-0.1c0.1,0,0.1,0,0.1,0.1l0.1,0.1C42.3,12.8,42.3,12.8,42.2,12.9
		C42.3,12.9,42.3,12.9,42.2,12.9z M42.3,13.5c0,0,0.1-0.1,0.1-0.1c0.1-0.1,0.2-0.2,0.2-0.2s-0.1,0-0.2,0.1c-0.1,0.1-0.2,0.1-0.2,0.1
		C42.2,13.4,42.2,13.4,42.3,13.5C42.3,13.5,42.3,13.5,42.3,13.5z M42.5,18C42.6,18,42.6,18,42.5,18C42.6,18,42.5,18,42.5,18
		C42.5,18,42.5,18,42.5,18C42.5,18,42.5,18,42.5,18L42.5,18z M42.7,12.5c0.1-0.1,0.2-0.1,0.2-0.1l0,0C42.7,12.5,42.6,12.5,42.7,12.5
		C42.6,12.5,42.6,12.5,42.7,12.5C42.6,12.5,42.6,12.5,42.7,12.5L42.7,12.5z M43,18.1L43,17.9c-0.1-0.1-0.1-0.2-0.1-0.2l0,0
		c0,0-0.1,0.1-0.1,0.1c0.1,0.1,0.1,0.1,0.1,0.1l0.1,0.1C42.9,18.1,42.9,18.1,43,18.1z M42.9,12.9c0,0,0.1,0,0.1-0.1
		c0-0.1,0.1-0.1,0.2-0.2c0.1-0.1,0.1-0.1,0.1-0.1l0,0c0,0-0.1,0.1-0.2,0.1c-0.2,0.1-0.2,0.1-0.2,0.1S42.8,12.8,42.9,12.9
		C42.8,12.9,42.9,12.9,42.9,12.9z M43.3,18c0.2-0.1,0.3-0.1,0.3-0.1c0.1,0,0.1,0,0.2-0.1c0.1,0,0.1,0,0.1-0.1v-0.1
		c0-0.1-0.1-0.1-0.1-0.1h-0.1c-0.1,0-0.1,0-0.2,0.1c-0.1,0-0.1,0-0.1,0c-0.1,0-0.1,0-0.1,0c0-0.1-0.1-0.1-0.1-0.1
		c-0.1-0.1-0.1-0.2-0.1-0.2c-0.1,0.1-0.1,0.1-0.1,0.1l0.1,0.3C43.3,18,43.3,18,43.3,18L43.3,18z M44.2,17.8c0,0,0.1-0.1,0.2-0.1
		h-0.1c-0.1,0-0.1,0-0.1-0.1c-0.1-0.1-0.1-0.1-0.1-0.2c0-0.1,0-0.1-0.1-0.1c0,0-0.1,0-0.1,0.1c-0.1,0.1-0.2,0.1-0.2,0.1
		c-0.1,0-0.1,0-0.1,0s-0.1-0.1-0.1-0.1s-0.1-0.1-0.1-0.2c-0.1,0.1-0.1,0.1-0.1,0.1c-0.1,0,0,0,0,0.1c0,0,0,0.1,0.1,0.1
		c0.1,0.1,0.1,0.1,0.1,0.1s0,0.1,0.1,0.1c0.1,0,0.1,0,0.3-0.1c0.1,0,0.1,0,0.1,0c0.1,0,0.1,0,0.1,0.1C44,17.6,44.1,17.7,44.2,17.8
		C44.1,17.8,44.2,17.8,44.2,17.8z M44.4,17.5c0.1,0,0.1,0,0.2,0c0.1,0,0.1-0.1,0.2-0.1c0.1-0.1,0.1-0.1,0.1-0.1l0,0c0,0-0.1,0-0.2,0
		c-0.1,0-0.1,0-0.2,0c-0.1,0-0.1,0-0.1,0s-0.1-0.1-0.1-0.1c-0.1-0.1-0.1-0.1-0.1-0.2c0-0.1-0.1-0.1-0.1-0.1s-0.1,0-0.2,0.1H44h-0.1
		h-0.1c-0.1,0-0.1-0.1-0.1-0.1c0,0-0.1-0.1-0.1-0.2c-0.1,0.1-0.1,0.2-0.1,0.2s0.1,0.1,0.1,0.2c0,0,0.1,0,0.2-0.1C44,17,44,17,44,17
		c0.1,0,0.1,0,0.1,0.1c0,0,0.1,0.1,0.1,0.2v0.1C44.4,17.5,44.4,17.5,44.4,17.5z M44.6,17.1h0.2C45,17,45.1,17,45.1,17
		c0-0.1,0.1-0.1,0.1-0.2l0,0h-0.1c-0.1,0-0.1,0-0.2,0.1c-0.1,0-0.1,0-0.2,0.1h-0.1h-0.1c-0.1-0.1-0.1-0.1-0.2-0.2
		c-0.1-0.1-0.1-0.1-0.1-0.1s-0.1,0-0.2,0.1c-0.1,0.1-0.2,0.1-0.2,0.1c0,0-0.1-0.1-0.2-0.1c-0.1,0.1-0.1,0.2-0.1,0.2s0.1,0.1,0.1,0.1
		l0.1,0.1c0.2-0.1,0.3-0.1,0.4-0.1c0.1,0,0.1,0.1,0.2,0.2C44.6,17,44.6,17,44.6,17.1C44.6,17.1,44.6,17.1,44.6,17.1z M44.8,16.6
		l0.6-0.1c0.1-0.1,0.1-0.2,0.1-0.2l0,0c0,0-0.2,0.1-0.3,0.1c-0.1,0-0.1,0-0.1,0c-0.1,0-0.1-0.1-0.2-0.2L44.7,16
		c-0.2,0.1-0.3,0.1-0.3,0.1c-0.1,0-0.1,0-0.1-0.1h-0.1C44,16.1,44,16.2,44,16.2s0,0.1,0.1,0.1h0.1c0.2-0.1,0.4-0.1,0.4-0.1
		c0.1,0,0.1,0.1,0.2,0.2C44.7,16.5,44.8,16.6,44.8,16.6z M45,16.2c0,0,0.1,0,0.3-0.1c0.2-0.1,0.2-0.1,0.3-0.1v-0.1
		c0-0.1,0-0.1,0-0.1v-0.1c0,0-0.1,0-0.1,0c-0.1,0.1-0.2,0.1-0.3,0.1c-0.1,0-0.1-0.1-0.2-0.3c-0.1-0.1-0.1-0.1-0.1-0.1
		c-0.1,0-0.1,0.1-0.2,0.1c-0.1,0.1-0.1,0.1-0.1,0.1c-0.1,0-0.1,0-0.1-0.1l-0.1-0.1c0,0-0.1,0.1-0.1,0.2l0.1,0.1
		c0.1,0.1,0.1,0.1,0.1,0.1c0.2,0,0.3,0,0.3,0c0.1,0,0.1,0,0.1,0.1C45,16.1,45,16.2,45,16.2z M44.5,15.4c0.1,0,0.1,0,0.2-0.1l0,0
		c0,0,0,0-0.1,0c0,0-0.1,0-0.1-0.1c-0.1,0-0.1-0.1-0.1-0.1l0,0v0.1C44.4,15.4,44.4,15.4,44.5,15.4C44.4,15.4,44.4,15.4,44.5,15.4
		L44.5,15.4z M45.6,15.5c0,0,0-0.1,0-0.1c0-0.1,0-0.1-0.1-0.1c-0.1-0.1-0.1-0.1-0.2-0.1c0,0-0.1-0.1-0.4-0.2
		c-0.3-0.1-0.5-0.2-0.6-0.2l0,0v0.1v0.1c0,0,0.1,0.1,0.3,0.2c0.1,0.1,0.2,0.1,0.3,0.1C45.5,15.4,45.6,15.5,45.6,15.5z M44.6,13
		L44.6,13L44.6,13c-0.1-0.1-0.1-0.1-0.2-0.1l0,0c0,0,0,0.1,0.1,0.1C44.6,13,44.6,13,44.6,13z M45.6,15.1
		C45.6,15.1,45.6,15,45.6,15.1c0-0.1,0-0.1,0-0.2c0,0-0.1-0.1-0.1-0.1c-0.1,0-0.2-0.1-0.5-0.2c-0.1-0.1-0.1-0.1-0.2-0.1
		c-0.1,0-0.2-0.1-0.3-0.1c-0.1,0-0.1,0-0.1,0l0,0c0,0,0,0.1,0,0.1c0,0,0,0,0,0.1c0.2,0.1,0.5,0.2,0.8,0.3C45.5,15,45.6,15,45.6,15.1
		L45.6,15.1z M45.2,13.7L45.2,13.7c0,0-0.1-0.1-0.1-0.2c-0.3-0.1-0.5-0.2-0.5-0.2l0,0v0.1c0,0.1,0.1,0.1,0.1,0.1
		c0,0,0.1,0.1,0.2,0.1C45.1,13.6,45.1,13.7,45.2,13.7z M45.6,14.6L45.6,14.6c0,0,0-0.1,0-0.1c0-0.1,0-0.1-0.1-0.1
		c0,0-0.1-0.1-0.1-0.1c-0.1,0-0.1-0.1-0.2-0.1c-0.4-0.2-0.6-0.2-0.6-0.2l0,0c0,0,0,0.1,0,0.2c0.4,0.2,0.7,0.3,0.7,0.3
		c0.1,0.1,0.1,0.1,0.2,0.1C45.5,14.6,45.6,14.6,45.6,14.6z M45.4,14.1L45.4,14.1c0-0.1,0-0.1-0.1-0.2v-0.1c0,0-0.1,0-0.1-0.1
		c-0.1,0-0.2-0.1-0.3-0.1c-0.2-0.1-0.2-0.1-0.2-0.1s0,0,0,0.1c0,0.1,0,0.1,0,0.1s0.1,0.1,0.2,0.1c0.2,0.1,0.3,0.1,0.4,0.2
		C45.4,14.1,45.4,14.1,45.4,14.1z M45.2,15.7c0,0,0.1,0,0.1,0c0.1,0,0.1,0,0.1-0.1c0,0-0.1-0.1-0.3-0.2
		C45.1,15.5,45.2,15.5,45.2,15.7C45.2,15.7,45.2,15.7,45.2,15.7z"/>
	<path class="st0" d="M48.5,18.3c-0.2,0-0.3,0-0.4,0c-0.6-0.1-1-0.4-1.3-0.9c-0.1-0.2-0.2-0.5-0.2-0.7c0-0.1,0-1.5-0.1-4.2
		c-0.2,0-0.3,0-0.3,0c-0.1,0-0.1-0.1-0.1-0.1s0-0.1,0-0.1c0-0.1,0.2-0.1,0.6-0.1c0.1,0,0.3,0,0.7,0c0.2,0,0.3,0,0.5,0
		c0.6,0,0.9,0,0.9,0.1l0.1,0.1c0,0.1,0,0.1-0.1,0.1c0,0-0.1,0-0.3,0V13c0,0.1,0,0.2,0,0.2c0,0.2,0,0.5,0,0.9c0,0.2,0,0.4,0,0.6
		s0,0.3,0,0.4s0,0.3,0,0.6c0,0.3,0,0.7,0,1.1v1.4h0.1c0.5-0.1,0.8-0.2,1.1-0.5c0.1-0.1,0.2-0.2,0.3-0.4c0.1-0.1,0.1-0.1,0.1-0.2
		c0.1-0.1,0.1-0.2,0.1-0.2c0-0.2,0.1-1.6,0.1-4.3c-0.3,0-0.5,0-0.5,0c-0.1,0-0.1-0.1-0.1-0.1c0-0.1,0-0.1,0-0.1c0,0,0.1-0.1,0.3-0.1
		c0.1,0,0.3,0,0.8,0v0.1l0.1,0.1c0,0,0,0.1-0.1,0.1l-0.1,0.1c0,0-0.1,0-0.2,0h-0.1c0,0,0,1.4-0.1,4.2l-0.1,0.2
		c-0.1,0.2-0.1,0.4-0.2,0.5c-0.3,0.5-0.7,0.8-1.3,0.9C48.7,18.3,48.6,18.3,48.5,18.3z M46.8,14.2c0,0,0.1-0.1,0.1-0.1
		c0.2-0.2,0.3-0.5,0.3-0.7l0,0c0-0.3-0.1-0.5-0.2-0.6L47,12.7c-0.1,0-0.1-0.1-0.1-0.1s-0.1,0-0.1,0s0,0.1,0,0.1c0,0.1,0,0.1,0,0.1
		s0,0,0.1,0S47,12.9,47,13c0.1,0.1,0.1,0.2,0.1,0.3c0,0.1,0,0.1,0,0.2c-0.1,0.2-0.1,0.3-0.2,0.3c-0.1,0.1-0.1,0.1-0.1,0.1
		c0,0,0,0,0,0.1v0.1C46.8,14.2,46.8,14.2,46.8,14.2z M46.8,13.8L46.8,13.8c0.1-0.1,0.1-0.1,0.1-0.2c0.1-0.1,0.1-0.1,0.1-0.2
		c0-0.1-0.1-0.2-0.1-0.3L46.8,13.8L46.8,13.8z M46.8,16.1L46.8,16.1C47,16.1,47,16,47,16c0.1-0.2,0.2-0.3,0.2-0.5
		c0-0.1,0.1-0.2,0.1-0.3c0-0.1,0-0.2-0.1-0.3c0-0.1-0.1-0.1-0.1-0.2C47,14.7,47,14.6,47,14.6c-0.1-0.1-0.1-0.1-0.1-0.1
		c0,0,0,0.1,0,0.1c0,0.1,0,0.1,0,0.1s0,0,0.1,0c0.1,0.1,0.1,0.1,0.2,0.2c0.1,0.1,0.1,0.2,0.1,0.3c0,0.2-0.1,0.3-0.2,0.5l-0.1,0.1
		C46.8,15.8,46.8,16.1,46.8,16.1z M46.8,15.5C46.8,15.5,46.8,15.5,46.8,15.5c0.1-0.1,0.1-0.2,0.1-0.2s0-0.1,0-0.1
		c0-0.1-0.1-0.1-0.1-0.1s0,0.1,0,0.2C46.8,15.4,46.8,15.5,46.8,15.5z M47.1,17.5l0.1-0.2c0.1-0.1,0.1-0.2,0.1-0.3
		c0-0.3-0.1-0.5-0.3-0.7c-0.1-0.1-0.1-0.1-0.1-0.1c0,0,0,0.1,0,0.1c0,0.1,0,0.1,0,0.1s0,0.1,0.1,0.1c0.1,0.1,0.2,0.3,0.2,0.6
		c0,0.1,0,0.1,0,0.2C47.1,17.5,47.1,17.5,47.1,17.5z M47.8,15.5c0,0,0.1-0.1,0.3-0.3l-0.9-0.9L47,14.4l0.1,0.1
		c0.2,0.2,0.3,0.4,0.3,0.6v0.1C47.6,15.4,47.8,15.5,47.8,15.5z M47.8,17.4c0,0,0.1-0.1,0.2-0.2c0.1-0.1,0.1-0.1,0.1-0.1
		S48,17,47.8,16.7c-0.3-0.4-0.6-0.6-0.6-0.6s-0.1,0.1-0.1,0.2c0.2,0.1,0.3,0.2,0.3,0.4c0.1,0.1,0.1,0.1,0.1,0.2
		c0,0.1,0.1,0.2,0.1,0.2C47.5,17.2,47.6,17.2,47.8,17.4C47.8,17.4,47.8,17.4,47.8,17.4z M47.8,13.7c0,0,0.1-0.1,0.2-0.2
		c0.1-0.1,0.1-0.2,0.1-0.2s0-0.1-0.1-0.1c-0.1-0.1-0.1-0.1-0.2-0.2c-0.1-0.1-0.3-0.3-0.6-0.5h-0.2l0.1,0.1c0.2,0.2,0.3,0.3,0.3,0.6
		v0.1C47.7,13.5,47.8,13.7,47.8,13.7z M47.8,14.6c0,0,0.1-0.1,0.1-0.1c0.1-0.1,0.2-0.2,0.2-0.2c-0.1-0.1-0.3-0.3-0.6-0.6
		c-0.1-0.1-0.1-0.1-0.1-0.1c0,0,0,0,0,0.1v0.1c0,0,0,0.1-0.1,0.1c0,0.1-0.1,0.1-0.1,0.1c0,0.1-0.1,0.1-0.1,0.1S47.5,14.3,47.8,14.6z
		 M47.8,16.5c0.1-0.1,0.1-0.2,0.2-0.2c0.1-0.1,0.1-0.1,0.1-0.1c0,0-0.1-0.1-0.3-0.3c-0.2-0.2-0.3-0.3-0.3-0.3s0,0,0,0.1
		c0,0.1-0.1,0.1-0.1,0.2c0,0.1-0.1,0.1-0.1,0.1C47.3,15.9,47.5,16.1,47.8,16.5z M48.2,18.1L48.2,18.1c0,0-0.1-0.1-0.3-0.4
		c-0.2-0.2-0.3-0.3-0.3-0.3s0,0,0,0.1s-0.1,0.1-0.1,0.3c0.1,0.1,0.1,0.1,0.2,0.2l0.1-0.1h0.1c0,0,0.1,0,0.1,0.1
		c0,0.1,0.1,0.1,0.1,0.1l0,0c0,0.1,0,0.1,0.1,0.1C47.8,18,47.9,18,48.2,18.1C48.1,18.1,48.2,18.1,48.2,18.1z M47.8,12.7
		c0.1-0.1,0.2-0.2,0.2-0.2c0-0.1-0.1,0-0.4,0L47.8,12.7z M47.7,15.1L47.7,15.1l-0.1-0.1c0,0,0-0.1,0.1-0.1l0.1-0.1c0,0,0,0,0.1,0
		c0.1,0,0.1,0.1,0.1,0.1C47.8,15.1,47.8,15.1,47.7,15.1z M47.7,14.2C47.7,14.2,47.6,14.2,47.7,14.2l-0.1-0.1c0-0.1,0.1-0.1,0.1-0.1
		c0,0,0.1,0,0.1,0.1l0.1,0.1c0,0,0,0,0,0.1C47.8,14.2,47.8,14.2,47.7,14.2L47.7,14.2z M47.7,16.2C47.7,16.2,47.7,16.1,47.7,16.2
		c-0.1-0.1-0.1-0.1-0.1-0.1V16c0-0.1,0.1-0.1,0.1-0.1s0.1,0,0.1,0.1v0.1C47.8,16.1,47.8,16.1,47.7,16.2
		C47.8,16.1,47.8,16.2,47.7,16.2z M47.7,13.3L47.7,13.3c-0.1,0-0.1-0.1-0.1-0.1v-0.1c0-0.1,0-0.1,0.1-0.1c0,0,0,0,0.1,0
		c0,0,0.1,0,0.1,0.1l0.1,0.1C47.8,13.3,47.8,13.3,47.7,13.3C47.8,13.3,47.8,13.3,47.7,13.3z M47.7,17C47.7,17,47.6,17,47.7,17
		l-0.1-0.1v-0.1h0.1h0.1C47.8,16.9,47.8,16.9,47.7,17C47.8,17,47.8,17,47.7,17C47.8,17,47.8,17,47.7,17z M48.2,15.9
		c0-0.1,0-0.1,0-0.2c0-0.1,0-0.1,0-0.2c0-0.1,0-0.2,0-0.3c-0.1,0.2-0.2,0.3-0.3,0.3c0.1,0.1,0.1,0.1,0.2,0.1
		C48.1,15.8,48.2,15.9,48.2,15.9z M48.2,17.8c0-0.2,0-0.3,0-0.4c0-0.1,0-0.1,0-0.2C48,17.4,48,17.5,48,17.5
		C47.9,17.5,48,17.6,48.2,17.8z M48.2,14.1c0,0,0-0.2,0-0.5L48,13.8C48.1,13.9,48.2,14.1,48.2,14.1z M48.2,16.9c0-0.1,0-0.3,0-0.6
		c-0.1,0.2-0.2,0.2-0.2,0.3L48.2,16.9z M48.2,15c0,0,0-0.1,0-0.2c0-0.1,0-0.2,0-0.2s-0.1,0-0.2,0.1C48.1,14.9,48.2,15,48.2,15z
		 M48.2,13.1c0,0,0-0.2,0-0.5l-0.1,0.2C48,12.8,48,12.9,48,12.9s0,0.1,0.1,0.1C48.2,13,48.2,13.1,48.2,13.1z"/>
	<path class="st0" d="M53.4,18.4c-0.5,0-1-0.1-1.4-0.3c-0.3-0.2-0.6-0.5-0.7-0.8c0-0.1-0.1-0.1-0.1-0.2c-0.1,0-0.2,0-0.2,0
		S51,17.1,51,17L50.9,17c0,0,0-0.1,0.1-0.1l0.1-0.1c0.3,0,0.5,0,0.7,0c0.1,0,0.2,0,0.2,0H52l0.1,0.1V17c0,0.1-0.2,0.1-0.5,0.1
		c-0.1,0-0.1,0-0.1,0.1c0,0,0,0.1,0.1,0.1c0.2,0.4,0.6,0.7,1.1,0.9c0.3,0.1,0.6,0.1,0.9,0.1c0.2,0,0.3,0,0.5-0.1
		c0.1,0,0.2-0.1,0.2-0.1h0.1c0,0,0.1-0.1,0.2-0.1c0.2-0.1,0.2-0.3,0.2-0.6c0-0.2-0.1-0.5-0.3-0.6c-0.1-0.1-0.2-0.2-0.3-0.3
		c-0.2-0.1-0.4-0.2-0.7-0.3c-0.4-0.2-0.7-0.3-0.9-0.3c-0.2-0.1-0.3-0.2-0.4-0.2c-0.6-0.3-0.8-0.9-0.8-1.4c0-0.2,0.1-0.3,0.1-0.5
		c0.2-0.5,0.5-0.9,1-1.2c0.5-0.2,1-0.4,1.5-0.4c0.6,0,1,0.1,1.4,0.4c0.3,0.2,0.5,0.4,0.5,0.6v0.1c0.1,0,0.2,0,0.2,0
		c0.1,0,0.1,0.1,0.1,0.1v0.1c0,0.1,0,0.1-0.1,0.1c0,0-0.1,0-0.1,0c-0.2,0-0.4,0-0.6,0c-0.1,0-0.1-0.1-0.1-0.1s0-0.1,0.1-0.1
		c0,0,0.1,0,0.3,0l-0.1-0.1c-0.1-0.1-0.1-0.2-0.2-0.3c-0.4-0.3-0.9-0.5-1.5-0.5c-0.4,0-0.7,0.1-1.1,0.2c-0.1,0-0.1,0-0.1,0.1
		c0,0-0.1,0-0.1,0.1c0,0,0,0,0,0.1c-0.1,0.1-0.1,0.2-0.1,0.3c0,0.1,0.1,0.2,0.1,0.3c0.1,0.2,0.2,0.3,0.5,0.5
		c0.2,0.2,0.5,0.3,0.9,0.5c0.5,0.2,0.8,0.3,1,0.5c0.2,0.1,0.4,0.2,0.6,0.3c0.3,0.3,0.6,0.6,0.7,1c0,0.1,0,0.2,0,0.2
		c0,0.2,0,0.4-0.1,0.6c-0.1,0.1-0.1,0.3-0.2,0.5c-0.1,0.1-0.2,0.2-0.2,0.3c-0.1,0.1-0.2,0.2-0.3,0.2C54.7,18.2,54,18.4,53.4,18.4z
		 M51.7,14.3c0,0,0.1,0,0.3-0.1c0.2-0.1,0.3-0.1,0.3-0.1s0-0.1,0-0.2c-0.1-0.2-0.1-0.2-0.1-0.2c0,0-0.1,0-0.1,0
		c-0.1,0-0.1,0-0.2,0.1l-0.6,0.1c0,0.1,0,0.1,0,0.2c0,0.1,0,0.1,0,0.1s0.1,0,0.1,0.1c0.1,0,0.1,0.1,0.2,0.1
		C51.7,14.2,51.7,14.3,51.7,14.3z M52.1,15.4c0,0,0-0.1,0-0.1c0-0.2-0.1-0.4-0.2-0.6c-0.1-0.1-0.1-0.1-0.2-0.2
		c-0.1-0.1-0.1-0.1-0.2-0.2c-0.1,0-0.1-0.1-0.1-0.1c-0.1,0-0.1,0-0.1,0l0,0c0,0.1,0.1,0.1,0.1,0.1c0.1,0.1,0.2,0.1,0.3,0.2
		c0.1,0.1,0.2,0.3,0.2,0.5c0,0.1,0,0.1,0,0.1v0.1c0,0,0,0,0.1,0.1C52,15.4,52.1,15.4,52.1,15.4z M51.5,13.7c0.1,0,0.1,0,0.1,0
		c0.1,0,0.1,0,0.1,0s0,0,0,0c0-0.2-0.1-0.2-0.1-0.2S51.6,13.5,51.5,13.7C51.5,13.6,51.4,13.6,51.5,13.7
		C51.4,13.7,51.5,13.7,51.5,13.7z M51.7,15.1L51.7,15.1c0-0.1-0.1-0.2-0.1-0.3c-0.1-0.1-0.1-0.1-0.1-0.1l0,0c0,0,0.1,0.1,0.1,0.2
		C51.6,15,51.6,15.1,51.7,15.1z M51.9,13.5L51.9,13.5c0.1,0,0.1,0,0.1,0c0.1,0,0.1,0,0.1,0l0.2-0.1l-0.1-0.1
		c-0.1-0.1-0.1-0.2-0.1-0.4v-0.2h-0.1c-0.1,0-0.1,0.1-0.2,0.1l-0.1,0.1c0.1,0.2,0.1,0.3,0.1,0.3C51.9,13.5,51.9,13.5,51.9,13.5z
		 M51.9,14.1c-0.1,0-0.1-0.1-0.1-0.1c0-0.1,0.1-0.1,0.1-0.1c0.1,0,0.1,0.1,0.1,0.1S52,14.1,51.9,14.1L51.9,14.1z M52.2,14.8
		c0.1,0,0.1,0,0.2-0.1c0.1-0.1,0.3-0.1,0.7-0.1c0-0.1,0-0.1,0-0.1c-0.1-0.2-0.1-0.2-0.1-0.2c-0.1,0-0.2,0.1-0.3,0.1
		c-0.5,0.1-0.7,0.1-0.7,0.2c0,0,0,0,0.1,0.1C52,14.5,52.1,14.6,52.2,14.8z M52.3,15.4l0.1-0.1c0.2-0.1,0.3-0.1,0.5-0.1
		c0.1,0,0.2,0,0.5-0.1c0.3-0.1,0.4-0.1,0.5-0.1l0,0c0-0.1,0-0.1,0-0.2s-0.1-0.1-0.1-0.2s0,0-0.1,0c0,0-0.1,0-0.1,0c0,0-0.1,0-0.1,0
		c-0.9,0.2-1.3,0.2-1.3,0.2s0,0.1,0,0.1C52.3,15.3,52.3,15.4,52.3,15.4z M54,16.2L54,16.2c0-0.1,0-0.1-0.1-0.2
		c-0.1-0.1-0.1-0.2-0.1-0.2c-0.1-0.1-0.2-0.2-0.4-0.3c-0.1,0-0.1,0-0.2-0.1c-0.1-0.1-0.2,0-0.2,0c-0.2,0-0.3,0.1-0.4,0.1
		c-0.1,0.1-0.1,0.1-0.1,0.1s0.1,0.1,0.1,0.1l0.1,0.1c0.2-0.1,0.3-0.1,0.4-0.1c0.1,0,0.2,0,0.2,0.1c0.2,0.1,0.3,0.2,0.4,0.5v0.1
		c0,0,0,0,0.1,0.1c0,0,0.1,0,0.1,0.1C53.9,16.2,53.9,16.2,54,16.2C53.9,16.2,54,16.2,54,16.2z M52.6,14.6
		C52.5,14.6,52.5,14.6,52.6,14.6c-0.1-0.1-0.1-0.1-0.1-0.1c0-0.1,0.1-0.1,0.1-0.1h0.1c-0.1,0-0.1,0-0.1,0.1
		C52.7,14.6,52.7,14.6,52.6,14.6L52.6,14.6z M52.6,14.1C52.6,14.1,52.6,14.1,52.6,14.1c0.1,0,0.1,0,0.1,0h0.1l0,0
		c0,0-0.1-0.1-0.2-0.2C52.5,13.9,52.5,14,52.6,14.1C52.5,14.1,52.6,14.1,52.6,14.1z M53.4,16L53.4,16L53.4,16
		c-0.1-0.1-0.1-0.1-0.2-0.2c-0.1,0-0.1-0.1-0.2-0.1h-0.1c0.1,0.1,0.2,0.1,0.3,0.1C53.3,16,53.4,16,53.4,16z M53.3,15.1
		C53.3,15.1,53.2,15.1,53.3,15.1L53.2,15c0,0,0,0,0-0.1c-0.1,0,0,0,0.1,0c0,0,0.1,0,0.1,0.1l0.1,0.1C53.4,15,53.4,15.1,53.3,15.1
		C53.3,15.1,53.3,15.1,53.3,15.1z M53.3,14.6h0.2c0.1,0,0.2-0.1,0.2-0.1l0,0h-0.1c-0.1,0-0.1-0.1-0.2-0.1s-0.1-0.1-0.1-0.1
		c-0.1-0.1-0.1-0.1-0.1-0.1l0,0C53.3,14.5,53.3,14.6,53.3,14.6z M53.9,15.7c0,0,0.1,0,0.3-0.1c0.2-0.1,0.4-0.1,0.5-0.1
		c0-0.2-0.1-0.3-0.1-0.3c0-0.1,0-0.1-0.1-0.1c0,0-0.1,0-0.2,0.1c-0.6,0.1-1,0.2-1,0.2s0.1,0.1,0.1,0.1c0.1,0.1,0.2,0.1,0.2,0.1
		C53.9,15.6,53.9,15.6,53.9,15.7L53.9,15.7z M54.1,15c0,0,0.1,0,0.2-0.1c0.2-0.1,0.2-0.1,0.3-0.1c0,0-0.1-0.1-0.3-0.2
		c-0.2-0.1-0.3-0.1-0.3-0.1C54,14.6,54,14.7,54.1,15C54.1,15,54.1,15,54.1,15z M54.3,16.2c0.1,0,0.1,0,0.1,0c0,0,0.2-0.1,0.6-0.1
		c0.3-0.1,0.5-0.1,0.6-0.1l0,0c0,0,0-0.1-0.1-0.2c-0.1-0.1-0.1-0.2-0.1-0.2s0,0-0.1,0s-0.1,0-0.1,0c-0.1,0-0.1,0-0.2,0.1
		c-0.1,0-0.2,0.1-0.3,0.1s-0.3,0.1-0.4,0.2c-0.1,0-0.1,0-0.2,0.1H54c0.1,0.1,0.1,0.2,0.1,0.3C54.2,16.2,54.2,16.2,54.3,16.2
		C54.2,16.2,54.2,16.2,54.3,16.2z M54.3,15.5C54.3,15.5,54.3,15.5,54.3,15.5c-0.1-0.1-0.1-0.1-0.1-0.1c0,0,0,0,0-0.1
		s0.1-0.1,0.1-0.1c0.1,0,0.1,0.1,0.1,0.1C54.4,15.4,54.4,15.4,54.3,15.5C54.4,15.5,54.3,15.5,54.3,15.5z M54.7,17.9
		c0,0,0.1,0,0.1-0.1c0.2-0.1,0.3-0.2,0.3-0.2c0.1-0.1,0.1-0.2,0.1-0.4c0-0.2-0.1-0.3-0.1-0.4c-0.1-0.2-0.3-0.3-0.6-0.3h-0.1
		c0.1,0.1,0.1,0.1,0.1,0.1h0.1c0.1,0,0.2,0.1,0.2,0.1c0.2,0.1,0.3,0.3,0.3,0.6c0,0.1,0,0.1,0,0.1c0,0.1-0.1,0.2-0.2,0.2
		c-0.1,0.1-0.1,0.1-0.2,0.1C54.7,17.8,54.7,17.8,54.7,17.9z M54.8,17.5L54.8,17.5c0.1-0.1,0.1-0.2,0.1-0.2c0-0.1-0.1-0.2-0.1-0.3
		s-0.1-0.1-0.1-0.1l0,0c0.1,0.2,0.1,0.3,0.1,0.4C54.8,17.4,54.8,17.5,54.8,17.5z M54.9,16.1L54.9,16.1L54.9,16.1l-0.1-0.1
		c0-0.1,0.1-0.1,0.1-0.1c0,0,0.1,0,0.1,0.1c0,0.1,0.1,0.1,0.1,0.1C55,16,55,16.1,54.9,16.1z M55.2,16.6c0,0,0.1,0,0.3-0.1
		c0.2-0.1,0.3-0.1,0.3-0.1s0-0.1,0-0.2c0-0.1,0-0.2,0-0.2c-0.1,0-0.2,0-0.5,0.1c-0.3,0.1-0.5,0.1-0.5,0.1l0,0c0,0,0.1,0,0.1,0.1
		c0.1,0.1,0.1,0.1,0.2,0.2C55.2,16.6,55.2,16.6,55.2,16.6z M55,15.4l0.2-0.1c0.1,0,0.2-0.1,0.2-0.1s-0.1-0.1-0.1-0.1
		c-0.1-0.1-0.2-0.1-0.3-0.2c-0.1,0-0.1-0.1-0.1-0.1l0,0c0,0.1,0,0.2,0.1,0.3C55,15.4,55,15.4,55,15.4z M55.4,17.4L55.4,17.4
		c0.1-0.1,0.1-0.2,0.1-0.2v-0.1v-0.1c0-0.1,0.1-0.1,0.1-0.1c0.1,0,0.1,0,0.1-0.1s0.1-0.1,0.1-0.2l0,0c-0.1,0-0.2,0-0.4,0.1
		c-0.1,0-0.1,0-0.1,0.1c0.1,0.1,0.1,0.2,0.1,0.4C55.4,17.4,55.4,17.4,55.4,17.4z M55.6,16.5C55.6,16.5,55.6,16.5,55.6,16.5
		c-0.1-0.1-0.1-0.1-0.1-0.1v-0.1c0-0.1,0.1-0.1,0.1-0.1c0,0,0.1,0,0.1,0.1l0.1,0.1C55.7,16.5,55.7,16.5,55.6,16.5L55.6,16.5z
		 M55.7,16C55.7,16,55.7,15.9,55.7,16C55.7,15.9,55.7,15.9,55.7,16c0-0.1,0-0.1,0-0.1s0-0.1-0.1-0.1v-0.1l0,0c0,0,0,0.1,0,0.1
		S55.7,16,55.7,16z"/>
	<path class="st0" d="M57.4,18.2c-0.7,0-1.1,0-1.1,0c-0.1,0-0.1-0.1-0.1-0.1V18c0-0.1,0.1-0.1,0.1-0.1c0,0,0.1,0,0.1,0
		c0.1,0,0.2,0,0.2,0c0-0.1,0-0.5,0-1v-4.4c-0.2,0-0.3,0-0.3,0c-0.1,0-0.1-0.1-0.1-0.1s0-0.1,0.1-0.1c0.1,0,0.6-0.1,1.6-0.1
		c0.3,0,1.2,0,2.8,0c0.1,0,0.1,0.1,0.1,0.1v0.9l-0.1,0.1l-0.1,0.1c-0.1,0-0.1,0-0.1-0.1c0-0.1,0-0.3,0-0.7h-2.1c0,0.7,0,1.4,0,2.1
		c0,0.3,0,0.6,0,1h0.8c0.2,0,0.4,0,0.7,0c0-0.2,0-0.3,0-0.3c0-0.1,0-0.1,0.1-0.1l0.1-0.1c0.1,0,0.1,0,0.1,0l0.1,0.1c0,0.1,0,0.4,0,1
		c0,0.1,0,0.1,0,0.1c0,0.1-0.1,0.1-0.1,0.1s-0.1,0-0.1-0.1c0,0,0-0.2,0-0.5c-1,0-1.4,0-1.5,0c0,0,0,0.7,0,2.2h2.1c0-0.3,0-0.5,0-0.6
		c0-0.1,0-0.2,0.1-0.2l0.1-0.1c0.1,0,0.1,0,0.1,0.1c0,0,0,0.2,0,0.5s0,0.4,0,0.4s0,0.1-0.1,0.1c0,0-0.4,0-1.1,0c-0.3,0-0.7,0-1.1,0
		L57.4,18.2z M56.9,14.2c0,0,0.1-0.1,0.1-0.1c0.2-0.2,0.3-0.4,0.3-0.7l0,0c0-0.3-0.1-0.5-0.2-0.6c0,0-0.1-0.1-0.1-0.1
		c-0.1,0-0.1-0.1-0.1-0.1c-0.1,0-0.1,0-0.1,0s0,0.1,0,0.1c0,0.1,0,0.1,0,0.1s0,0,0.1,0c0.1,0,0.1,0.1,0.2,0.2
		c0.1,0.1,0.1,0.2,0.1,0.3c0,0.1,0,0.1,0,0.2c-0.1,0.2-0.1,0.3-0.2,0.3c-0.1,0.1-0.1,0.1-0.1,0.1c0,0,0,0.1,0,0.1
		C56.9,14.2,56.9,14.2,56.9,14.2z M56.9,13.7L56.9,13.7c0.1-0.1,0.1-0.1,0.1-0.2c0-0.1,0.1-0.1,0.1-0.2c0-0.1-0.1-0.2-0.1-0.3
		L56.9,13.7L56.9,13.7z M56.9,16.1c0.1-0.1,0.1-0.1,0.2-0.2c0.1-0.2,0.2-0.3,0.2-0.5c0-0.1,0.1-0.2,0.1-0.3c0-0.2-0.1-0.3-0.2-0.5
		S57,14.5,57,14.5c0,0,0,0.1,0,0.1c0,0.1,0,0.1,0,0.1s0,0,0.1,0c0.1,0.1,0.1,0.1,0.2,0.2c0,0.2,0,0.3,0,0.4c0,0.2-0.1,0.3-0.2,0.5
		l-0.1,0.1V16.1z M56.9,15.5C56.9,15.5,56.9,15.5,56.9,15.5c0.1-0.1,0.1-0.2,0.1-0.2c0-0.1,0-0.1-0.1-0.2V15c0,0,0,0.1,0,0.2
		C56.9,15.4,56.9,15.5,56.9,15.5z M56.9,17.9c0.1-0.1,0.2-0.2,0.3-0.4c0.1-0.2,0.1-0.3,0.1-0.5c0-0.2-0.1-0.4-0.2-0.5
		S57,16.4,57,16.4c0,0,0,0.1,0,0.1s0,0.1,0,0.1s0,0.1,0.1,0.1c0.1,0.1,0.2,0.3,0.2,0.6c0,0.1,0,0.2-0.1,0.3c0,0.1-0.1,0.1-0.1,0.2
		l-0.1,0.1C56.9,17.8,56.9,17.9,56.9,17.9z M56.9,17.4c0,0,0.1-0.1,0.1-0.3c0-0.1,0-0.1,0-0.2l0,0c0,0,0,0.1,0,0.2
		C56.9,17.3,56.9,17.4,56.9,17.4z M57.9,15.5c0,0,0.1-0.1,0.3-0.3l-0.9-0.9l-0.2,0.1l0.1,0.1c0.2,0.2,0.3,0.4,0.3,0.6v0.1
		C57.8,15.4,57.8,15.5,57.9,15.5z M57.9,17.4c0,0,0.1-0.1,0.2-0.2c0.1-0.1,0.1-0.2,0.1-0.2S58.1,17,58,16.8
		c-0.5-0.5-0.7-0.7-0.7-0.8l0,0l-0.1,0.1l-0.1,0.1c0.2,0.2,0.3,0.3,0.3,0.4c0.1,0.1,0.1,0.1,0.1,0.2c0,0.1,0.1,0.2,0.1,0.2l0,0
		C57.6,17.1,57.7,17.2,57.9,17.4L57.9,17.4z M57.9,13.6c0,0,0.1-0.1,0.2-0.2c0.1-0.1,0.2-0.2,0.2-0.2s0-0.1-0.1-0.1
		c-0.1-0.1-0.1-0.1-0.2-0.2c-0.1-0.1-0.3-0.3-0.6-0.5h-0.2l0.1,0.1c0.2,0.2,0.3,0.3,0.3,0.6v0.1C57.8,13.5,57.9,13.6,57.9,13.6z
		 M58,17.9c0.1,0,0.1,0,0.1,0s-0.1-0.1-0.2-0.3c-0.2-0.2-0.3-0.3-0.3-0.3s0,0.1-0.1,0.1c-0.1,0.2-0.2,0.3-0.3,0.5h0.3c0,0,0,0,0-0.1
		s0-0.1,0.1-0.1l0.1-0.1c0,0,0.1,0,0.1,0.1c0,0,0.1,0.1,0.1,0.1C57.8,17.9,58,17.9,58,17.9z M57.9,16.5c0.1-0.1,0.1-0.2,0.2-0.2
		c0.1-0.1,0.1-0.1,0.1-0.1S58,16,57.8,15.8c-0.1-0.2-0.2-0.3-0.2-0.3s0,0,0,0.1c0,0.1-0.1,0.1-0.1,0.2c0,0.1-0.1,0.1-0.1,0.1
		C57.4,15.9,57.6,16.1,57.9,16.5z M57.9,14.6L57.9,14.6c0.1-0.1,0.1-0.1,0.1-0.1c0.1,0,0.1-0.1,0.1-0.1s0.1-0.1,0.1-0.1l0.1-0.1
		c-0.1-0.1-0.2-0.2-0.3-0.4c-0.2-0.2-0.3-0.3-0.3-0.3s0,0.1-0.1,0.1c-0.1,0.1-0.1,0.1-0.1,0.2c0,0.1-0.1,0.1-0.1,0.1
		s0.2,0.2,0.5,0.5C57.9,14.6,57.9,14.6,57.9,14.6z M57.9,12.7c0.1-0.1,0.2-0.2,0.2-0.2c0-0.1-0.1,0-0.4,0L57.9,12.7z M57.8,15.1
		L57.8,15.1l-0.1-0.1c0,0,0-0.1,0.1-0.1l0.1-0.1c0.1,0,0.1,0.1,0.1,0.1C57.9,15.1,57.8,15.1,57.8,15.1z M57.8,14.2
		C57.8,14.2,57.7,14.2,57.8,14.2c-0.1-0.1-0.1-0.1-0.1-0.1s0,0,0-0.1c0-0.1,0.1-0.1,0.1-0.1c0,0,0.1,0,0.1,0.1
		c0,0.1,0.1,0.1,0.1,0.1s0,0,0,0.1C57.9,14.2,57.8,14.2,57.8,14.2C57.8,14.2,57.8,14.2,57.8,14.2z M57.8,16.1L57.8,16.1L57.8,16.1
		c-0.1,0-0.1-0.1-0.1-0.1v-0.1l0.1-0.1h0.1c0.1,0,0.1,0,0.1,0.1V16C57.9,16,57.9,16,57.8,16.1C57.9,16.1,57.9,16.1,57.8,16.1
		C57.9,16.2,57.8,16.1,57.8,16.1z M57.8,13.3C57.8,13.3,57.8,13.3,57.8,13.3c-0.1,0-0.1-0.1-0.1-0.1v-0.1c0-0.1,0-0.1,0.1-0.1
		c0,0,0,0,0.1,0c0,0,0.1,0,0.1,0.1c0,0.1,0,0.1,0,0.1C57.9,13.3,57.9,13.3,57.8,13.3C57.8,13.3,57.8,13.3,57.8,13.3z M57.8,17
		C57.8,17,57.8,17,57.8,17l-0.1-0.1c0-0.1,0-0.1,0-0.1h0.1h0.1c0.1,0,0.1,0.1,0.1,0.1S57.9,17,57.8,17C57.8,17,57.8,17,57.8,17z
		 M58.4,15.9c0-0.1,0-0.1,0-0.2c0-0.1,0-0.1,0-0.2s0-0.2,0-0.3c-0.1,0.1-0.2,0.2-0.3,0.3c0.1,0.1,0.1,0.1,0.2,0.1
		C58.3,15.7,58.2,15.9,58.4,15.9z M58.3,17.8v-0.4c0-0.1,0-0.1,0-0.2c-0.2,0.2-0.2,0.3-0.2,0.3S58.1,17.6,58.3,17.8z M58.3,14.1
		c0,0,0-0.2,0-0.5l-0.2,0.2C58.2,13.9,58.3,14.1,58.3,14.1z M58.3,16.9c0-0.1,0-0.3,0-0.6c-0.1,0.1-0.2,0.2-0.3,0.3L58.3,16.9z
		 M58.3,15c0,0,0-0.1,0-0.2c0-0.1,0-0.2,0-0.2s-0.1,0.1-0.2,0.2C58.2,14.9,58.3,15,58.3,15z M58.3,13.1c0,0,0-0.2,0-0.5l-0.1,0.1
		c-0.1,0.1-0.1,0.1-0.1,0.1s0,0.1,0.1,0.1C58.2,13,58.3,13.1,58.3,13.1z"/>
	<path class="st0" d="M67.2,18.3c-0.1,0-0.1,0-0.2,0c-0.5-0.1-0.9-0.2-1.4-0.5s-0.8-0.7-1-1.1c0-0.1,0-0.1,0-0.1l-0.1-0.1
		c-0.1-0.1-0.1-0.2-0.1-0.4c-0.1-0.3-0.1-0.6-0.1-0.9c0-0.2,0-0.4,0.1-0.6c0.2-0.8,0.6-1.4,1.2-1.9c0.1,0,0.1-0.1,0.1-0.1l0,0
		c0.1-0.1,0.2-0.1,0.3-0.2c0.1-0.1,0.2-0.1,0.2-0.1c0.1,0,0.2-0.1,0.3-0.1s0.2-0.1,0.3-0.1c0.1,0,0.3,0,0.5,0c0.1,0,0.2,0,0.2,0
		c0.5,0.1,0.9,0.2,1.3,0.5c0.4,0.3,0.7,0.7,0.9,1.1c0.2,0.3,0.2,0.6,0.3,1c0,0.1,0,0.3,0,0.5c0.1,0.7-0.1,1.3-0.5,1.9
		c-0.5,0.7-1.2,1-1.9,1.1C67.4,18.3,67.2,18.3,67.2,18.3z M64.6,15c0,0,0.1,0,0.1-0.1c0.3-0.1,0.5-0.3,0.5-0.6c0-0.1,0-0.1,0-0.2
		c0-0.2-0.1-0.3-0.2-0.6C65,13.7,65,13.7,65,13.8c0,0,0,0.1,0.1,0.1c0.1,0.1,0.1,0.2,0.1,0.3c0,0.1-0.1,0.3-0.1,0.3
		c-0.1,0.1-0.2,0.2-0.3,0.3h-0.1C64.6,14.8,64.6,14.9,64.6,15C64.5,15,64.5,15,64.6,15z M64.7,16.2C64.7,16.2,64.7,16.1,64.7,16.2
		c0-0.1,0.1-0.1,0.1-0.1c0-0.1,0-0.1,0-0.1c0-0.1,0-0.2,0-0.2c0-0.1-0.1-0.1-0.1-0.2c0,0,0-0.1-0.1-0.1l0,0l0,0c0,0.1,0,0.2,0.1,0.3
		C64.6,15.9,64.6,16.1,64.7,16.2L64.7,16.2z M64.6,14.6C64.6,14.6,64.7,14.6,64.6,14.6c0.2-0.2,0.2-0.3,0.2-0.4c0-0.1,0-0.1,0-0.2
		l0,0c0,0-0.1,0.1-0.1,0.2C64.6,14.4,64.6,14.5,64.6,14.6L64.6,14.6z M65.1,16.5c0,0,0.1,0,0.1-0.1c0.1,0,0.1-0.1,0.1-0.1
		c0.1,0,0.1-0.1,0.1-0.1l0,0c0,0-0.1-0.1-0.1-0.2c0-0.1-0.1-0.1-0.1-0.1c0-0.1,0-0.1,0-0.1s0-0.1-0.1-0.1c0-0.1-0.1-0.1-0.1-0.2
		S65,15.6,65,15.5c0-0.1-0.1-0.1-0.1-0.1s0,0,0-0.1c-0.1-0.2-0.1-0.2-0.1-0.2s0,0-0.1-0.1l0,0c0,0-0.1,0-0.1,0.1
		c-0.1,0-0.1,0-0.1,0.1c0,0.1,0,0,0.1,0.1c0.1,0.1,0.1,0.2,0.2,0.3c0,0.1,0.1,0.1,0.1,0.2c0,0.3,0,0.5,0,0.5
		C65,16.3,65.1,16.5,65.1,16.5L65.1,16.5z M64.9,16.7L64.9,16.7c0-0.1,0-0.1-0.1-0.1s0-0.1-0.1-0.1c-0.1-0.1-0.1-0.1-0.1-0.1l0,0
		c0,0,0,0.1,0.1,0.2C64.9,16.7,64.9,16.7,64.9,16.7z M65.1,16.2C65.1,16.2,65,16.2,65.1,16.2L65,16.1c0,0,0-0.1,0.1-0.1l0.1-0.1
		c0,0,0.1,0,0.1,0.1l0.1,0.1C65.2,16.1,65.2,16.2,65.1,16.2C65.1,16.2,65.1,16.2,65.1,16.2z M65.3,15.7
		C65.3,15.7,65.4,15.6,65.3,15.7c0.1-0.1,0.1-0.1,0.2-0.1s0.1-0.1,0.1-0.1c0.1-0.1,0.1-0.1,0.1-0.1l0,0c0-0.1-0.1-0.2-0.2-0.5
		c-0.1-0.1-0.1-0.2-0.1-0.2l0,0c-0.1,0.1-0.1,0.2-0.2,0.3C65.3,15.4,65.3,15.7,65.3,15.7z M65.4,17.1c0,0,0.1,0,0.2-0.1
		c0-0.1,0-0.2,0-0.3s0-0.1,0-0.1s-0.1,0-0.2,0.1c-0.1,0-0.1,0.1-0.1,0.1c0,0,0,0-0.1,0l0,0v0.1C65.3,16.9,65.3,17,65.4,17.1
		C65.3,17.1,65.3,17.1,65.4,17.1z M65.6,14.7l0.2-0.1c0.1-0.1,0.2-0.1,0.2-0.1c0-0.1-0.1-0.2-0.2-0.3c-0.1-0.1-0.2-0.3-0.3-0.7
		c-0.1-0.1-0.1-0.1-0.1-0.1s-0.1,0-0.1,0c-0.1,0-0.1,0-0.1,0v0.1c0,0.1,0.1,0.1,0.1,0.2c0.1,0.2,0.1,0.3,0.1,0.4
		c0,0.1,0,0.2-0.1,0.3c0.1,0.2,0.1,0.2,0.1,0.2C65.5,14.7,65.5,14.7,65.6,14.7z M65.4,15.3c-0.1,0-0.1,0-0.1-0.1v-0.1
		c0,0,0-0.1,0.1-0.1h0.1c0.1,0,0.1,0.1,0.1,0.1v0.1C65.4,15.3,65.4,15.3,65.4,15.3z M65.3,13.3c0,0,0.1,0,0.1-0.1
		c0.1-0.1,0.2-0.1,0.2-0.2c0.1-0.1,0.2-0.2,0.2-0.3c0,0,0,0,0-0.1c0,0-0.1,0.1-0.2,0.1C65.5,13,65.4,13.1,65.3,13.3L65.3,13.3z
		 M65.7,17.5L65.7,17.5L65.7,17.5c0-0.1,0-0.1-0.1-0.2c0-0.1-0.1-0.1-0.1-0.1l0,0c0,0,0,0-0.1,0h-0.1c0,0.1,0.1,0.1,0.1,0.1
		C65.5,17.5,65.6,17.5,65.7,17.5z M65.5,16.1c0,0,0-0.1,0-0.1c0-0.1,0-0.1,0-0.2c0-0.1,0-0.1,0-0.1l0,0c0,0-0.1,0-0.1,0.1
		c-0.1,0-0.1,0.1-0.1,0.1s0,0.1,0.1,0.1C65.5,16,65.5,16.1,65.5,16.1z M65.7,14.5L65.7,14.5l-0.1-0.1v-0.1l0.1-0.1
		c0,0,0.1,0,0.1,0.1V14.5C65.7,14.4,65.7,14.4,65.7,14.5C65.7,14.4,65.7,14.4,65.7,14.5L65.7,14.5z M65.9,13.9
		C65.9,13.9,65.9,13.9,65.9,13.9c0.1-0.1,0.2-0.1,0.2-0.1s0.1-0.1,0.2-0.1s0-0.1,0-0.1s-0.1-0.1-0.1-0.3c-0.1-0.1-0.1-0.2-0.1-0.3
		c0-0.1-0.1-0.1-0.1-0.1S66,13,65.9,13.1c-0.1,0.1-0.2,0.2-0.2,0.2c-0.1,0.1-0.1,0.1-0.1,0.1s0.1,0.1,0.1,0.3
		C65.9,13.8,65.9,13.9,65.9,13.9z M65.8,15.1c0,0,0-0.1,0.1-0.1s0-0.1,0-0.1l0,0h-0.1c-0.1,0-0.1,0.1-0.1,0.1s0,0.1,0.1,0.1
		C65.8,15.1,65.8,15.1,65.8,15.1z M66.3,17.8c0.3,0,0.6-0.2,1-0.7c0.5-0.6,0.8-1.3,1.1-2.2c0.1-0.5,0.2-0.9,0.2-1.2
		c0-0.5-0.1-0.9-0.3-1c-0.1-0.1-0.2-0.1-0.3-0.1c-0.1,0-0.1,0-0.2,0c-0.3,0.1-0.6,0.4-1,0.8c-0.3,0.5-0.6,1-0.8,1.6
		c-0.2,0.6-0.3,1.1-0.3,1.6c0,0.5,0.1,0.9,0.3,1.1C66.1,17.8,66.2,17.8,66.3,17.8z M66,13.7C66,13.7,65.9,13.7,66,13.7l-0.1-0.1
		c0,0,0-0.1,0.1-0.1l0.1-0.1c0,0,0.1,0,0.1,0.1l0.1,0.1C66.1,13.5,66.1,13.6,66,13.7C66,13.7,66,13.7,66,13.7z M66.1,14.3
		c0,0,0-0.1,0.1-0.1c0-0.1,0.1-0.1,0.1-0.1l0,0c0,0-0.1,0-0.1,0.1c-0.1,0-0.1,0.1-0.1,0.1C66.1,14.2,66.1,14.3,66.1,14.3z
		 M66.3,13.1l0.4-0.2c-0.1-0.2-0.1-0.2-0.2-0.3c-0.1-0.1-0.1-0.1-0.1-0.1s-0.1,0-0.1,0.1c-0.1,0-0.1,0.1-0.1,0.1l-0.1,0.1
		c-0.1,0.1-0.1,0.1-0.1,0.1s0,0,0,0.1s0.1,0.1,0.1,0.1c0,0.1,0.1,0.1,0.1,0.1C66.3,13.1,66.3,13.1,66.3,13.1L66.3,13.1z M66.4,12.9
		C66.4,12.9,66.3,12.9,66.4,12.9l-0.1-0.1c0,0,0,0,0-0.1c0.1,0,0.1-0.1,0.1-0.1s0.1,0,0.1,0.1l0.1,0.1
		C66.5,12.8,66.5,12.8,66.4,12.9C66.5,12.9,66.5,12.9,66.4,12.9z M66.5,13.5c0,0,0.1-0.1,0.1-0.1c0.1-0.1,0.2-0.2,0.2-0.2
		s-0.1,0-0.2,0.1c-0.1,0.1-0.2,0.1-0.2,0.1C66.4,13.4,66.4,13.4,66.5,13.5C66.5,13.5,66.5,13.5,66.5,13.5z M66.7,18L66.7,18
		C66.7,18,66.7,18,66.7,18C66.6,18,66.6,18,66.7,18C66.6,18,66.6,18,66.7,18L66.7,18z M66.8,12.5c0.1-0.1,0.2-0.1,0.2-0.1l0,0
		C66.8,12.5,66.8,12.5,66.8,12.5C66.8,12.5,66.8,12.5,66.8,12.5L66.8,12.5L66.8,12.5z M67.2,18.1l-0.1-0.2c-0.1-0.1-0.1-0.2-0.1-0.2
		l0,0c0,0-0.1,0.1-0.1,0.1C67,17.9,67,18,67,18L67,18C67,18.1,67.1,18.1,67.2,18.1z M67,12.9c0,0,0.1,0,0.1-0.1
		c0.1-0.1,0.1-0.1,0.2-0.2c0.1-0.1,0.1-0.1,0.1-0.1l0,0c0,0-0.1,0.1-0.2,0.1c-0.2,0-0.3,0-0.3,0.1C66.9,12.7,66.9,12.8,67,12.9
		C67,12.9,67,12.9,67,12.9z M67.5,18c0.2-0.1,0.3-0.1,0.3-0.1c0.1,0,0.1,0,0.2-0.1c0.1,0,0.1,0,0.1-0.1v-0.1c0,0,0-0.1,0-0.1h-0.1
		c-0.1,0-0.1,0-0.2,0.1c-0.1,0-0.1,0-0.1,0s-0.1,0-0.1,0c-0.1-0.1-0.1-0.1-0.1-0.1c-0.1-0.1-0.1-0.2-0.1-0.2
		c-0.1,0.1-0.1,0.1-0.1,0.1l0.1,0.3C67.4,18,67.4,18,67.5,18L67.5,18z M68.3,17.8c0,0,0.1-0.1,0.2-0.1h-0.1c-0.1,0-0.1,0-0.1-0.1
		s-0.1-0.1-0.1-0.2c-0.1-0.1-0.1-0.1-0.1-0.1s-0.1,0-0.1,0.1c-0.1,0.1-0.2,0.1-0.2,0.1s-0.1,0-0.1,0s-0.1-0.1-0.1-0.1
		s-0.1-0.1-0.1-0.2c-0.1,0.1-0.1,0.1-0.1,0.1c-0.1,0,0,0,0,0.1c0,0,0,0.1,0.1,0.1s0.1,0.1,0.1,0.1s0,0.1,0.1,0.1s0.1,0,0.3-0.1
		c0.1,0,0.1,0,0.1,0c0.1,0,0.1,0,0.1,0.1S68.3,17.7,68.3,17.8C68.4,17.8,68.3,17.8,68.3,17.8z M68.6,17.5c0.1,0,0.1,0,0.2,0
		c0.1,0,0.1-0.1,0.2-0.1c0.1-0.1,0.1-0.1,0.1-0.1l0,0c0,0-0.1,0-0.2,0c-0.1,0-0.1,0-0.2,0c-0.1,0-0.1,0-0.1,0s-0.1-0.1-0.1-0.1
		c-0.1-0.1-0.1-0.1-0.1-0.2c0-0.1-0.1-0.1-0.1-0.1s-0.1,0-0.2,0.1h-0.1h-0.1H68c-0.1,0-0.1-0.1-0.1-0.1c0,0-0.1-0.1-0.1-0.2
		c-0.1,0.1-0.1,0.2-0.1,0.2s0.1,0.1,0.1,0.2c0,0,0.1,0,0.2-0.1c0.1,0,0.2-0.1,0.2-0.1c0.1,0,0.1,0,0.1,0.1c0,0,0.1,0.1,0.1,0.2v0.1
		C68.6,17.5,68.6,17.5,68.6,17.5z M68.8,17.1H69c0.2-0.1,0.3-0.1,0.3-0.1c0-0.1,0.1-0.1,0.1-0.2l0,0h-0.1c-0.1,0-0.1,0-0.2,0.1
		c-0.1,0-0.1,0-0.2,0.1H69h-0.1c-0.1-0.1-0.1-0.1-0.2-0.2c-0.1-0.1-0.1-0.1-0.1-0.1s-0.1,0-0.2,0.1c-0.1,0.1-0.2,0.1-0.2,0.1
		c0,0-0.1-0.1-0.2-0.1C68,16.7,68,16.7,68,16.7s0.1,0.1,0.1,0.1l0.1,0.1c0.2-0.1,0.3-0.1,0.4-0.1s0.1,0.1,0.2,0.2
		C68.7,17,68.8,17,68.8,17.1C68.8,17.1,68.8,17.1,68.8,17.1z M69,16.6l0.6-0.1c0.1-0.1,0.1-0.2,0.1-0.2l0,0c0,0-0.2,0.1-0.3,0.1
		c-0.1,0-0.1,0-0.1,0c-0.1,0-0.1-0.1-0.2-0.2l-0.1-0.1c-0.2-0.1-0.3,0-0.4,0s-0.1,0-0.1-0.1L68.3,16c-0.1,0.1-0.1,0.2-0.1,0.2
		s0,0.1,0.1,0.1l0.1,0.1c0.2-0.1,0.4-0.1,0.4-0.1c0.1,0,0.1,0.1,0.2,0.2C68.9,16.6,69,16.6,69,16.6z M69.2,16.2c0,0,0.1,0,0.3-0.1
		c0.1-0.1,0.2-0.1,0.2-0.1v-0.1c0-0.1,0-0.1,0-0.1v-0.1c0,0-0.1,0-0.1,0c-0.1,0.1-0.2,0.1-0.3,0.1c-0.1,0-0.1-0.1-0.2-0.3
		C69,15.5,69,15.5,69,15.5c-0.1,0-0.1,0.1-0.2,0.1c-0.1,0.1-0.1,0.1-0.1,0.1c-0.1,0-0.1,0-0.1-0.1l-0.1-0.1c0,0-0.1,0.1-0.1,0.2
		l0.1,0.1c0.1,0.1,0.1,0.1,0.1,0.1c0.2-0.1,0.3-0.1,0.3-0.1c0.1,0,0.1,0,0.1,0.1C69.1,16.1,69.2,16.2,69.2,16.2z M68.6,15.4
		c0.1,0,0.1,0,0.2-0.1l0,0c0,0,0,0-0.1,0c0,0-0.1,0-0.1-0.1c-0.1,0-0.1-0.1-0.1-0.1l0,0v0.1C68.6,15.4,68.6,15.4,68.6,15.4
		L68.6,15.4L68.6,15.4z M69.8,15.5c0,0,0-0.1,0-0.1c0-0.1,0-0.1-0.1-0.1c-0.1-0.1-0.1-0.1-0.2-0.1c0,0-0.1-0.1-0.4-0.2
		c-0.3-0.1-0.5-0.2-0.6-0.2l0,0v0.1v0.1c0,0,0.1,0.1,0.3,0.2c0.1,0.1,0.2,0.1,0.3,0.1C69.6,15.4,69.8,15.5,69.8,15.5z M68.8,13
		L68.8,13L68.8,13c-0.1-0.1-0.1-0.1-0.2-0.1l0,0c0,0,0,0.1,0.1,0.1C68.7,13,68.7,13,68.8,13z M69.8,15.1
		C69.8,15.1,69.8,15,69.8,15.1c0-0.1,0-0.1,0-0.2c0,0-0.1-0.1-0.1-0.1s-0.2-0.1-0.5-0.2c-0.1-0.1-0.1-0.1-0.2-0.1
		c-0.1,0-0.2-0.1-0.3-0.1c-0.1,0-0.1,0-0.1,0l0,0c0,0,0,0.1,0,0.1c0,0,0,0,0,0.1c0.2,0.1,0.5,0.2,0.8,0.3C69.7,15,69.8,15,69.8,15.1
		C69.8,15.1,69.8,15.1,69.8,15.1z M69.3,13.7L69.3,13.7c0,0-0.1-0.1-0.1-0.2c-0.3-0.1-0.5-0.2-0.5-0.2l0,0v0.1
		c0,0.1,0.1,0.1,0.1,0.1c0,0,0.1,0.1,0.2,0.1C69.2,13.6,69.3,13.7,69.3,13.7z M69.7,14.6C69.8,14.6,69.8,14.6,69.7,14.6
		c0,0,0-0.1,0-0.1c0-0.1,0-0.1-0.1-0.1c0,0-0.1-0.1-0.1-0.1s-0.1-0.1-0.2-0.1c-0.4-0.2-0.6-0.2-0.6-0.2l0,0c0,0,0,0.1,0,0.2
		c0.4,0.2,0.7,0.3,0.7,0.3c0.1,0.1,0.1,0.1,0.2,0.1C69.7,14.6,69.7,14.6,69.7,14.6z M69.6,14.1L69.6,14.1c0-0.1,0-0.1-0.1-0.2v-0.1
		c0,0-0.1,0-0.1-0.1c-0.1,0-0.2-0.1-0.3-0.1c-0.2-0.1-0.2-0.1-0.2-0.1s0,0,0,0.1c0,0.1,0,0.1,0,0.1s0.1,0.1,0.2,0.1
		c0.2,0.1,0.3,0.1,0.4,0.2C69.5,14.1,69.6,14.1,69.6,14.1z M69.4,15.7c0,0,0.1,0,0.1,0s0.1,0,0.1-0.1c0,0-0.1-0.1-0.3-0.2
		C69.2,15.5,69.3,15.5,69.4,15.7C69.4,15.7,69.4,15.7,69.4,15.7z"/>
	<path class="st0" d="M71.5,18.2c-0.7,0-1.1,0-1.1,0s-0.1-0.1-0.1-0.1c0-0.1,0.1-0.1,0.1-0.1s0.1,0,0.1,0c0.1,0,0.2,0,0.2,0
		c0-0.1,0-0.5,0-1v-4.4c-0.2,0-0.3,0-0.3,0c-0.1,0-0.1,0-0.1-0.1l0,0c0-0.1,0-0.1,0.1-0.1c0.1,0,0.6-0.1,1.6-0.1c0.3,0,1.2,0,2.8,0
		c0.1,0,0.1,0.1,0.1,0.1v0.9c-0.1,0.1-0.1,0.1-0.1,0.1c-0.1,0-0.1,0-0.1-0.1c0-0.1,0-0.3,0-0.7h-2.1c0,0.9,0,1.6,0,2.1
		c0,0.3,0,0.6,0,1h0.8c0.2,0,0.4,0,0.7,0v-0.3c0-0.1,0.1-0.2,0.1-0.2s0.1,0,0.1,0c0-0.1,0.1,0.3,0.1,1c0,0.1,0,0.1,0,0.1
		c0,0.1-0.1,0.1-0.1,0.1c-0.1,0-0.1,0-0.1,0c0,0,0-0.1-0.1-0.1s0-0.2,0-0.4c-1,0-1.4,0-1.5,0c0,0.1,0,0.7,0,2.2H73
		c0.1,0,0.2,0.1,0.2,0.1c0,0.1,0,0.1-0.1,0.1C73.1,18.2,72.5,18.2,71.5,18.2z M71,14.3c0,0,0.1-0.1,0.1-0.1c0.2-0.2,0.3-0.4,0.3-0.7
		v-0.1c0-0.3-0.1-0.5-0.2-0.6c0,0-0.1-0.1-0.1-0.1s-0.1-0.1-0.1-0.1s-0.1,0-0.1,0s0,0.1,0,0.1c0,0.1,0,0.1,0,0.1s0,0,0.1,0
		s0.1,0.1,0.2,0.2c0.1,0.1,0.1,0.2,0.1,0.3c0,0.1,0,0.1,0,0.2c-0.1,0.2-0.1,0.3-0.2,0.3C71,13.9,71,13.9,71,13.9c0,0,0,0.1,0,0.1
		C71,14.2,71,14.3,71,14.3z M71,13.8L71,13.8c0.1-0.1,0.1-0.1,0.1-0.2c0-0.1,0.1-0.1,0.1-0.2c0-0.1-0.1-0.2-0.1-0.3L71,13.8L71,13.8
		z M71,16.2c0.1-0.1,0.1-0.1,0.2-0.2c0.1-0.2,0.2-0.3,0.2-0.5c0-0.1,0.1-0.2,0.1-0.3c0-0.1,0-0.2-0.1-0.3c0-0.1-0.1-0.1-0.1-0.2
		s-0.1-0.1-0.1-0.2c-0.1-0.1-0.1-0.1-0.1-0.1c0,0,0,0.1,0,0.1c0,0.1,0,0.1,0,0.1s0,0,0.1,0c0.1,0.1,0.1,0.1,0.2,0.2s0.1,0.2,0.1,0.3
		c0,0.2-0.1,0.3-0.2,0.5l-0.1,0.1L71,16.2L71,16.2z M71,15.5C71,15.5,71,15.5,71,15.5c0.1-0.1,0.1-0.2,0.1-0.2s0-0.1-0.1-0.2V15
		c0,0,0,0.1,0,0.2S71,15.5,71,15.5z M71,17.9c0.1-0.1,0.1-0.1,0.1-0.1c0.1-0.1,0.2-0.2,0.2-0.3c0.1-0.2,0.1-0.3,0.1-0.5
		c0-0.2-0.1-0.4-0.2-0.5c-0.1-0.1-0.2-0.2-0.2-0.2c0,0,0,0.1,0,0.1c0,0.1,0,0.1,0,0.1s0,0.1,0.1,0.1c0.1,0.1,0.2,0.3,0.2,0.6
		c0,0.1,0,0.2-0.1,0.3c0,0.1-0.1,0.1-0.1,0.2l-0.1,0V17.9z M71,17.4c0,0,0.1-0.1,0.1-0.2c0-0.1,0-0.2-0.1-0.2c0,0,0,0.1,0,0.2
		C71,17.4,71,17.4,71,17.4z M71.9,15.5c0,0,0.1-0.1,0.3-0.3l-0.9-0.9l-0.2,0.1l0.1,0.1c0.2,0.2,0.3,0.5,0.3,0.7v0.1
		C71.8,15.4,71.9,15.5,71.9,15.5z M72,17.4c0,0,0.1-0.1,0.2-0.2c0.1-0.1,0.1-0.1,0.1-0.2c0,0-0.2-0.3-0.7-0.9
		c-0.1-0.1-0.1-0.1-0.1-0.1s-0.1,0.1-0.1,0.2c0.1,0.1,0.2,0.2,0.3,0.3c0.1,0.1,0.1,0.1,0.1,0.2s0.1,0.2,0.1,0.2
		C71.7,17.1,71.8,17.2,72,17.4C71.9,17.4,72,17.4,72,17.4z M72,13.7c0,0,0.1-0.1,0.2-0.2c0.1-0.1,0.2-0.2,0.2-0.2s0-0.1-0.1-0.1
		c-0.1-0.1-0.1-0.1-0.2-0.2c-0.1-0.1-0.3-0.3-0.6-0.5h-0.2l0.1,0.1c0.2,0.2,0.3,0.3,0.3,0.6v0.1C71.9,13.5,72,13.7,72,13.7z M72,18
		c0.1,0,0.1,0,0.1,0s-0.1-0.1-0.2-0.3c-0.2-0.2-0.3-0.3-0.3-0.3s0,0.1-0.1,0.1c-0.1,0.2-0.2,0.3-0.3,0.5h0.3c0,0,0,0,0-0.1
		s0-0.1,0.1-0.1l0.1-0.1c0,0,0.1,0,0.1,0.1l0.1,0.1V18H72z M72,16.5c0.1-0.1,0.1-0.2,0.2-0.2c0.1-0.1,0.1-0.1,0.1-0.1
		s-0.1-0.1-0.3-0.3c-0.2-0.2-0.3-0.3-0.3-0.3s0,0,0,0.1c0,0.1-0.1,0.1-0.1,0.2s-0.1,0.1-0.1,0.1C71.5,15.9,71.6,16.1,72,16.5z
		 M72,14.6L72,14.6c0.1-0.1,0.1-0.1,0.1-0.1c0.1,0,0.1-0.1,0.1-0.1c0.1,0,0.1-0.1,0.1-0.1l0.1-0.1c-0.1-0.1-0.3-0.3-0.6-0.6
		c-0.1-0.1-0.1-0.1-0.1-0.1c0,0,0,0,0,0.1v0.1c0,0,0,0.1-0.1,0.1c0,0.1-0.1,0.1-0.1,0.1c0,0.1-0.1,0.1-0.1,0.1S71.6,14.3,72,14.6
		C72,14.6,72,14.6,72,14.6z M72,12.7c0.1-0.1,0.2-0.2,0.2-0.2c0-0.1-0.1,0-0.4,0L72,12.7z M71.9,15.2L71.9,15.2l-0.1-0.1
		c0,0,0-0.1,0.1-0.1l0.1-0.1c0,0,0,0,0.1,0c0.1,0,0.1,0.1,0.1,0.1C71.9,15.1,71.9,15.2,71.9,15.2z M71.9,14.3
		C71.9,14.3,71.8,14.3,71.9,14.3l-0.1-0.1c0,0,0,0,0-0.1s0.1-0.1,0.1-0.1c0,0,0.1,0,0.1,0.1s0.1,0.1,0.1,0.1s0,0,0,0.1
		C71.9,14.2,71.9,14.2,71.9,14.3C71.9,14.3,71.9,14.3,71.9,14.3z M71.9,16.2L71.9,16.2L71.9,16.2c-0.1-0.1-0.1-0.1-0.1-0.1V16
		l0.1-0.1h0.1c0.1,0,0.1,0,0.1,0.1v0.1C71.9,16.1,71.9,16.1,71.9,16.2C71.9,16.2,71.9,16.2,71.9,16.2z M71.9,13.4L71.9,13.4
		c-0.1,0-0.1-0.1-0.1-0.1v-0.1c0-0.1,0-0.1,0.1-0.1c0,0,0,0,0.1,0c0,0,0.1,0,0.1,0.1l0.1,0.1C72,13.3,72,13.3,71.9,13.4
		C71.9,13.4,71.9,13.4,71.9,13.4z M71.9,17.1C71.9,17.1,71.8,17.1,71.9,17.1L71.8,17v-0.1h0.1h0.1c0.1,0,0.1,0.1,0.1,0.1
		S71.9,17,71.9,17.1C71.9,17.1,71.9,17.1,71.9,17.1z M72.4,16v-0.2c0-0.1,0-0.2,0-0.2c0-0.1,0-0.1,0-0.1c-0.1,0.1-0.2,0.2-0.3,0.3
		c0.1,0.1,0.1,0.1,0.2,0.1C72.3,15.8,72.3,15.9,72.4,16z M72.4,17.8v-0.4c0-0.1,0-0.1,0-0.2c-0.1,0.1-0.2,0.2-0.2,0.3
		C72.1,17.5,72.2,17.6,72.4,17.8z M72.4,14.1c0,0,0-0.2,0-0.5l-0.2,0.2C72.3,14,72.4,14.1,72.4,14.1z M72.4,16.9c0-0.1,0-0.3,0-0.6
		c-0.1,0.1-0.2,0.2-0.3,0.3L72.4,16.9z M72.4,15c0,0,0-0.1,0-0.2c0-0.1,0-0.2,0-0.2s-0.1,0.1-0.2,0.2C72.3,14.9,72.3,15,72.4,15z
		 M72.4,13.1c0,0,0-0.2,0-0.5l-0.1,0.1c-0.1,0.1-0.1,0.1-0.1,0.1C72.2,12.9,72.2,13,72.4,13.1L72.4,13.1z"/>
	<path class="st0" d="M7.1,20.6v0.9c0,2.2,0,3.9,0,5.2c0,0.7,0,1.5,0.1,2.3l1.9-0.1c0.5,0,1,0,1.7-0.1v-0.7c0-0.3,0.1-0.5,0.2-0.5
		c0.1,0,0.2,0,0.2,0.1c0.1,0.1,0.2,0.9,0.2,2.5c0,0.2,0,0.3,0,0.3c-0.1,0.1-0.1,0.2-0.2,0.2c-0.1,0-0.2,0-0.2-0.1
		C11,30.6,11,30.5,11,30.4c0-0.2,0-0.5,0-1c-2.3,0.1-3.5,0.1-3.6,0.1c0,0.1,0,1.8-0.1,5.3h1c0.3,0,0.5,0.1,0.5,0.3
		c0,0.1-0.1,0.2-0.2,0.2c-0.2,0.1-1.5,0.1-4,0.1c-1.8,0-2.7,0-2.7,0c-0.2-0.1-0.3-0.1-0.3-0.2c0-0.1,0.1-0.2,0.2-0.2
		c0.1,0,0.2,0,0.2,0c0.2,0,0.5,0,0.6-0.1c0-0.3,0.1-1.1,0.1-2.4L2.6,21.5c-0.3-0.1-0.5-0.2-0.7-0.4c-0.4-0.3-0.6-0.6-0.7-1
		c-0.1-0.3-0.1-0.6-0.1-0.7c0-0.3,0.1-0.6,0.2-0.9c0.3-0.7,0.9-1,1.5-1c0.5,0,0.8,0.2,1.1,0.5c0.2,0.2,0.3,0.4,0.3,0.7v0.2
		C4.2,19,4.1,19.1,4,19.1c-0.1,0-0.1,0-0.2-0.1s-0.1-0.1-0.1-0.2v-0.1c0-0.1-0.1-0.2-0.2-0.3c-0.1-0.1-0.3-0.2-0.6-0.3
		c-0.1,0-0.2,0-0.2,0c-0.5,0-0.8,0.2-1,0.7c-0.2,0.1-0.2,0.3-0.2,0.6c0,0.5,0.2,0.9,0.6,1.2c0.3,0.2,0.6,0.4,0.9,0.4s0.5,0,0.5,0
		c0.6,0,1.3-0.2,2.1-0.5c1-0.5,2-0.9,3-1.4c0.9-0.4,1.8-0.8,2.7-1.2c1-0.4,2-0.8,3.1-1.2c1-0.3,1.9-0.5,2.6-0.5c0.2,0,0.4,0,0.6,0.1
		c0.8,0.1,1.4,0.4,1.7,0.9c0.3,0.4,0.5,0.9,0.5,1.3c0,0.6-0.2,1-0.6,1.3c-0.1,0.1-0.1,0.1-0.2,0.1s-0.1,0-0.2-0.1
		c-0.1-0.1-0.1-0.1-0.1-0.2c0-0.1,0.1-0.2,0.1-0.2c0.2-0.2,0.3-0.3,0.3-0.5c0-0.2,0.1-0.3,0.1-0.3c0-0.3-0.1-0.6-0.3-0.9
		c-0.2-0.3-0.6-0.6-1-0.6c-0.4-0.1-0.7-0.1-0.9-0.1c-1.1,0-3,0.6-5.5,1.7c-0.9,0.4-1.8,0.8-2.7,1.2C8.3,20,7.8,20.3,7.1,20.6z
		 M3.2,25.7c0,0,0.1-0.1,0.3-0.2c0.6-0.5,0.9-1,0.9-1.8v-0.2c0-0.7-0.2-1.1-0.6-1.5c-0.1-0.1-0.1-0.1-0.2-0.2s-0.2-0.1-0.2-0.2
		c-0.1-0.1-0.1-0.1-0.2-0.1c0,0,0,0.1,0,0.2c0,0.2,0,0.2,0,0.2l0.1,0.1c0.2,0.1,0.3,0.2,0.5,0.4c0.2,0.3,0.3,0.6,0.3,0.9
		c0,0.2,0,0.3-0.1,0.5c-0.1,0.4-0.3,0.7-0.5,0.9c-0.1,0.1-0.2,0.1-0.2,0.2c-0.1,0-0.1,0.1-0.1,0.3C3.2,25.6,3.2,25.7,3.2,25.7z
		 M3.2,24.4l0.1-0.1c0.1-0.1,0.1-0.2,0.2-0.4c0.1-0.2,0.1-0.3,0.1-0.4c0-0.2-0.1-0.5-0.3-0.7L3.2,24.4L3.2,24.4z M3.2,30.3
		c0.2-0.1,0.3-0.2,0.4-0.4c0.3-0.4,0.5-0.7,0.5-1c0.1-0.3,0.1-0.5,0.1-0.7c0-0.3-0.1-0.6-0.2-0.9c-0.1-0.1-0.2-0.2-0.3-0.4
		c-0.1-0.2-0.2-0.3-0.3-0.4s-0.2-0.2-0.2-0.2c0,0,0,0.1,0,0.2c0,0.1,0,0.2,0.1,0.2c0,0.1,0.1,0.1,0.1,0.1c0.2,0.1,0.3,0.3,0.5,0.6
		c0.1,0.2,0.2,0.5,0.2,0.7c0,0.4-0.2,0.8-0.5,1.1l-0.2,0.2V30.3z M3.2,28.8c0.1,0,0.1-0.1,0.1-0.2c0.1-0.1,0.1-0.2,0.1-0.3
		c0-0.1-0.1-0.3-0.1-0.5c0-0.1-0.1-0.1-0.1-0.1c0,0-0.1,0.2-0.1,0.5C3.2,28.6,3.2,28.8,3.2,28.8z M3.2,34.7c0.1-0.1,0.2-0.1,0.2-0.2
		c0.2-0.2,0.4-0.4,0.6-0.7c0.2-0.4,0.3-0.8,0.3-1.1c0-0.5-0.2-1-0.5-1.3c-0.3-0.3-0.5-0.5-0.6-0.5c-0.1,0-0.1,0.1-0.1,0.2
		c0,0.1,0,0.1,0,0.2c0,0.1,0.1,0.1,0.1,0.2c0.3,0.3,0.5,0.7,0.5,1.4c0,0.3-0.1,0.5-0.1,0.7c-0.1,0.2-0.2,0.3-0.3,0.5l-0.2,0.2
		L3.2,34.7L3.2,34.7z M3.2,33.4c0.1-0.1,0.1-0.3,0.1-0.6c0-0.3-0.1-0.5-0.1-0.6c0,0,0,0.2,0,0.6C3.2,33.2,3.2,33.4,3.2,33.4z
		 M5.5,28.7c0,0,0.3-0.3,0.8-0.8L4,25.6L3.6,26l0.2,0.2c0.5,0.5,0.8,1,0.9,1.6l0.1,0.3C5.3,28.5,5.5,28.7,5.5,28.7z M5.6,33.3
		c0,0,0.2-0.1,0.4-0.4c0.2-0.2,0.3-0.3,0.3-0.4c0-0.1-0.6-0.7-1.9-2.1c-0.2-0.2-0.3-0.3-0.3-0.3c0,0-0.1,0.1-0.3,0.3
		c0.3,0.3,0.6,0.7,0.8,1c0.1,0.1,0.1,0.3,0.2,0.5s0.1,0.3,0.1,0.5c0,0.1,0.2,0.4,0.6,0.8C5.5,33.3,5.5,33.3,5.6,33.3z M5.8,34.7
		c0.2,0,0.3,0,0.3,0s-0.2-0.2-0.6-0.7c-0.4-0.5-0.6-0.7-0.7-0.7c0,0-0.1,0.1-0.1,0.2C4.5,34,4.3,34.4,4,34.7l0.9,0.1
		c0.1,0,0.1-0.1,0.1-0.1c0-0.1,0-0.1,0.1-0.2s0.1-0.1,0.2-0.1s0.1,0,0.2,0.1c0.1,0.1,0.1,0.1,0.1,0.2v0.1
		C5.4,34.7,5.8,34.7,5.8,34.7z M4.1,21.6L4.1,21.6c0.5,0.5,0.7,0.9,0.7,1.5l0.1,0.3c0.5,0.5,0.7,0.7,0.7,0.7S5.8,24,6,23.7
		c0.2-0.3,0.4-0.4,0.4-0.4s-0.1-0.1-0.2-0.2c-0.1-0.1-0.3-0.3-0.5-0.5c-0.2-0.2-0.6-0.6-1.3-1.2C4.3,21.6,4.2,21.6,4.1,21.6z
		 M5.7,31c0.2-0.2,0.3-0.4,0.5-0.5s0.2-0.2,0.2-0.2S6,30,5.5,29.5s-0.8-0.7-0.8-0.7s-0.1,0.1-0.1,0.2s-0.1,0.3-0.2,0.5
		c0,0.1-0.1,0.2-0.1,0.3C4.4,29.7,4.8,30.2,5.7,31z M5.7,26.5C5.7,26.5,5.7,26.5,5.7,26.5c0.1-0.1,0.2-0.2,0.2-0.2s0.2-0.1,0.2-0.2
		S6.2,26,6.3,26c0.1-0.1,0.1-0.1,0.1-0.1c-0.2-0.3-0.7-0.7-1.4-1.5c-0.1-0.1-0.2-0.2-0.2-0.2v0.1c0,0.1,0,0.1-0.1,0.2
		c0,0.1-0.1,0.2-0.1,0.3S4.5,24.9,4.5,25c0,0.1-0.1,0.2-0.1,0.2c0,0.1,0.3,0.4,1,1.1C5.6,26.5,5.7,26.5,5.7,26.5z M5.1,21.4l0.6,0.6
		c0.5-0.5,0.7-0.7,0.7-0.7c0,0-0.1-0.1-0.2-0.2C6.1,21,6,21,5.9,21.1c-0.1,0-0.1,0-0.1,0.1c0,0.1-0.1,0.2-0.1,0.2
		c-0.1,0.1-0.1,0.1-0.2,0.1s-0.1,0-0.1,0c-0.1,0-0.1-0.1-0.1-0.1C5.3,21.4,5.1,21.4,5.1,21.4z M5.3,27.9c-0.1,0-0.1,0-0.2-0.1
		s-0.1-0.1-0.1-0.1c0-0.1,0-0.1,0.1-0.2c0.1-0.1,0.1-0.1,0.2-0.1h0.1c0.1,0.1,0.2,0.1,0.2,0.2C5.5,27.9,5.5,27.9,5.3,27.9z
		 M5.4,25.7c-0.1,0-0.1-0.1-0.2-0.1s-0.1-0.1-0.1-0.2c0-0.1,0-0.1,0-0.1c0.1-0.1,0.1-0.1,0.2-0.1c0.1,0,0.1,0,0.2,0.1
		s0.1,0.1,0.1,0.2c0,0.1,0,0.1-0.1,0.1C5.5,25.6,5.5,25.6,5.4,25.7C5.4,25.7,5.4,25.7,5.4,25.7z M5.4,30.3L5.4,30.3
		c-0.1,0-0.1,0-0.2-0.1c-0.1-0.1-0.2-0.1-0.2-0.2c0-0.1,0-0.1,0.1-0.1c0.1-0.1,0.1-0.1,0.2-0.1h0.1c0.1,0,0.2,0.1,0.2,0.1
		C5.6,30,5.7,30,5.7,30c0,0.1,0,0.1-0.1,0.2C5.5,30.2,5.5,30.3,5.4,30.3z M5.4,23.4C5.3,23.4,5.3,23.4,5.4,23.4
		c-0.2-0.1-0.2-0.1-0.2-0.1c0-0.1,0-0.1,0-0.1c0-0.1,0.1-0.2,0.2-0.2c0.1,0,0.1,0,0.1,0c0.1,0,0.1,0.1,0.2,0.1
		c0.1,0.1,0.1,0.1,0.1,0.2s-0.1,0.2-0.1,0.2C5.5,23.4,5.4,23.4,5.4,23.4z M5.4,32.5c-0.1,0-0.1,0-0.2-0.1s-0.1-0.1-0.1-0.2
		s0-0.1,0.1-0.1c0.1-0.1,0.1-0.1,0.2-0.1s0.1,0,0.1,0c0.1,0.1,0.2,0.1,0.2,0.2c0,0.1,0,0.1-0.1,0.2S5.4,32.5,5.4,32.5z M6.6,29.8
		v-0.6c0-0.2,0-0.4,0-0.6c0-0.1,0-0.2,0-0.3c-0.3,0.3-0.6,0.6-0.7,0.7c0.2,0.1,0.3,0.2,0.4,0.3C6.3,29.5,6.5,29.6,6.6,29.8z
		 M6.6,34.5v-0.9c0-0.1,0-0.3,0-0.5c-0.2,0.2-0.5,0.5-0.6,0.7C6,33.7,6.2,34,6.6,34.5z M6.6,25.2c0,0,0-0.4,0-1.3L6,24.5
		C6.4,24.9,6.6,25.2,6.6,25.2z M6.6,32.1c0.1-0.2,0.1-0.7,0.1-1.4C6.3,31,6.1,31.2,6,31.4L6.6,32.1z M6.6,27.4c0,0,0-0.2,0-0.5
		c0-0.3,0-0.5-0.1-0.5c0,0-0.2,0.2-0.5,0.5C6.3,27.2,6.5,27.4,6.6,27.4z M6.6,22.8c0,0,0-0.4,0-1.2L6.3,22c-0.2,0.2-0.2,0.3-0.2,0.3
		c0,0.1,0.2,0.2,0.5,0.5C6.6,22.8,6.6,22.8,6.6,22.8z"/>
	<path class="st0" d="M14,35.3h-1.4c-0.4,0-0.6,0-0.7-0.1c-0.1-0.1-0.1-0.1-0.1-0.2c0-0.1,0.1-0.2,0.2-0.2c0.1,0,0.2-0.1,0.5-0.1
		l4.6-13.3c0,0-0.1,0-0.1,0c-0.3,0-0.5,0-0.5-0.1c-0.1,0-0.2-0.1-0.2-0.2c0-0.1,0-0.1,0.1-0.2c0,0,0,0,0.1,0h0.1c0.1,0,0.1,0,0.2,0
		c0.1,0,0.2,0,0.3,0c0.2,0,0.3,0,0.5,0c0.2,0,0.5,0,0.7,0c0.3,0,0.6,0,1.1,0h2.9c0.1,0.1,0.2,0.2,0.2,0.2v0.1c0,0.1-0.1,0.2-0.2,0.2
		c-0.1,0-0.1,0-0.2,0c-0.2,0-0.2,0-0.2,0.1s0.8,2.3,2.4,6.7l2.3,6.6c0.3,0,0.4,0,0.5,0c0.1,0,0.1,0.1,0.1,0.1C27,34.9,27,35,27,35
		s0,0.1-0.1,0.2c-0.1,0.1-0.7,0.1-1.9,0.1l-4,0.1c-0.1-0.1-0.2-0.2-0.2-0.2c0-0.1,0.1-0.2,0.2-0.2c0.1,0,0.2,0,0.3,0
		c0.2,0,0.3,0,0.3-0.1s-0.1-0.3-0.3-0.9c-0.2-0.6-0.3-0.9-0.3-0.9c-0.6,0-1.8,0-3.7,0.1c-2.4,0.1-3.6,0.1-3.7,0.1
		c0,0-0.2,0.6-0.6,1.7c0,0,0.3,0,0.8,0c0.4,0,0.6,0,0.7,0s0.2,0.1,0.2,0.1c0.1,0.1,0.1,0.1,0.1,0.2c0,0.1,0,0.1-0.1,0.2
		C14.7,35.3,14.5,35.3,14,35.3z M13.8,32.5l5.8-0.1c0.9,0,1.3-0.1,1.3-0.1c0-0.1-0.6-1.8-1.7-5.1c-1.1-3.4-1.7-5.1-1.7-5.1
		s-0.6,1.7-1.8,5.1S13.9,32.4,13.8,32.5z M19.3,25.9c0.1,0,0.1-0.1,0.2-0.3c0.2-0.3,0.2-0.7,0.2-1.3c0-0.5-0.1-0.9-0.2-1.2
		c-0.2-0.3-0.5-0.7-1-1c-0.3-0.2-0.5-0.3-0.6-0.3l0,0c0,0.1,0.1,0.3,0.2,0.6l0.2,0.1c0.3,0,0.5,0.1,0.7,0.3c0.3,0.3,0.4,0.6,0.4,1.1
		c0,0.3-0.1,0.7-0.3,1l-0.1,0.3c0.1,0.2,0.1,0.3,0.1,0.4C19.2,25.8,19.3,25.9,19.3,25.9z M18.8,24.5c0,0,0.1-0.1,0.1-0.2
		c0-0.1,0.1-0.2,0.1-0.3c0-0.2-0.1-0.4-0.1-0.5c-0.1-0.1-0.1-0.2-0.2-0.3C18.5,23,18.4,23,18.4,23s-0.1,0-0.1,0.1s0.1,0.3,0.2,0.7
		C18.7,24.2,18.8,24.4,18.8,24.5z M21.3,24.2l0.3-0.5c0.1-0.2,0.2-0.3,0.2-0.3c0,0-0.2-0.2-0.5-0.4c-0.2-0.2-0.6-0.4-1-0.6
		c-0.7-0.4-1.1-0.6-1.3-0.7c-0.1-0.1-0.2-0.1-0.2-0.2c0-0.1-0.1-0.1-0.1-0.1s-0.1,0-0.2,0h-0.2l0.2,0.1c0.9,0.5,1.4,1.1,1.6,1.8
		l0.1,0.2c0.2,0.1,0.4,0.2,0.5,0.3C20.8,23.9,21,24,21.3,24.2z M20.7,30.2c0.1-0.1,0.2-0.2,0.2-0.2c0.2-0.3,0.2-0.6,0.2-1.1
		c0-0.3,0-0.7-0.1-0.9c-0.1-0.3-0.3-0.5-0.6-0.8c-0.3-0.2-0.5-0.3-0.7-0.3h-0.2c0.1,0.2,0.1,0.4,0.2,0.4c0,0.1,0.1,0.1,0.1,0.1
		c0.2,0,0.3,0.1,0.6,0.3c0.3,0.2,0.4,0.5,0.4,0.9c0,0.2-0.1,0.5-0.2,0.9c-0.1,0.1-0.1,0.1-0.1,0.2c0,0,0,0.1,0,0.1
		C20.5,29.5,20.5,29.8,20.7,30.2z M20.5,21.9c0.1,0,0.1-0.2,0.3-0.5c0,0-0.1,0-0.2,0c-0.1,0-0.2,0.1-0.3,0.1
		c-0.1,0.1-0.1,0.1-0.2,0.1s-0.1,0-0.2-0.1c-0.1-0.1-0.1-0.1-0.2-0.1c-0.1,0-0.1,0-0.1,0s0.1,0.1,0.3,0.2
		C20.3,21.8,20.5,21.9,20.5,21.9z M22.7,28.8l0.5-0.8c-0.7-0.6-1.3-1-1.7-1.3c-0.9-0.6-1.4-0.9-1.4-0.9s-0.1,0-0.1,0.1
		S20,25.9,19.9,26c-0.1,0.1-0.1,0.1-0.1,0.2l0.2,0.1c0.3,0.1,0.6,0.2,0.9,0.5c0.5,0.4,0.7,0.7,0.8,1.2c0,0.1,0,0.1,0.1,0.2
		c0.1,0.1,0.1,0.1,0.2,0.1c0.1,0.1,0.3,0.2,0.5,0.3C22.5,28.7,22.6,28.8,22.7,28.8z M20.3,28.6L20.3,28.6c0-0.1,0.1-0.1,0.1-0.1
		c0-0.1,0-0.1,0-0.1c0-0.2-0.1-0.3-0.2-0.5l-0.2-0.2C20.1,28.4,20.2,28.6,20.3,28.6z M22.1,26.4c0.1,0,0.1-0.1,0.2-0.2
		c0.1-0.2,0.2-0.2,0.2-0.3s-0.1-0.2-0.4-0.4c-0.2-0.2-0.5-0.4-0.7-0.6c-0.5-0.3-0.8-0.6-1-0.7l-0.1,1v0.1c0,0,0.1,0.1,0.3,0.2
		C21.6,26.1,22,26.4,22.1,26.4z M20.7,23.5c-0.1,0-0.1,0-0.2-0.1c-0.1-0.1-0.1-0.1-0.1-0.2s0-0.1,0.1-0.1c0.1-0.1,0.1-0.1,0.1-0.1
		h0.1c0.1,0,0.1,0.1,0.2,0.1c0,0.1,0.1,0.1,0.1,0.1c0,0.1,0,0.1-0.1,0.2C20.8,23.5,20.7,23.5,20.7,23.5z M22.1,34.5
		c0.2-0.2,0.2-0.3,0.3-0.5c0.2-0.3,0.2-0.6,0.3-0.7c0.1-0.2,0-0.3,0-0.3c0-0.2-0.1-0.4-0.1-0.6c-0.2-0.8-0.7-1.3-1.4-1.4
		c-0.1-0.1-0.2-0.1-0.2-0.1c-0.1,0-0.1,0-0.1,0.1c0,0.1,0,0.1,0.1,0.2c0.1,0.1,0.1,0.2,0.1,0.2c0,0,0.1,0.1,0.1,0.1
		c0.1,0.1,0.3,0.1,0.4,0.2c0.4,0.2,0.6,0.5,0.7,0.9c0,0.1,0.1,0.2,0.1,0.5c0,0.2,0,0.3,0,0.4s-0.1,0.3-0.2,0.6
		C22.1,34,22.1,34,22.1,34C22,34,22,34.1,22,34.1C22,34.1,22.1,34.3,22.1,34.5z M21.6,22.6c0,0-0.1-0.1-0.2-0.4
		c-0.1-0.3-0.1-0.5-0.1-0.5c-0.1,0-0.1,0.2-0.2,0.5L21.6,22.6z M21.4,25.6c-0.1,0-0.1,0-0.2-0.1s-0.1-0.1-0.1-0.2
		c0-0.1,0-0.1,0.1-0.1c0.1-0.1,0.1-0.1,0.2-0.1c0.1,0,0.1,0.1,0.2,0.1c0,0.1,0.1,0.1,0.1,0.1c0,0.1,0,0.1-0.1,0.2
		C21.5,25.6,21.4,25.6,21.4,25.6z M24.1,33.2c0,0,0.2-0.2,0.5-0.7c-0.4-0.3-1.3-0.9-2.7-1.9c-0.3-0.2-0.5-0.3-0.5-0.3
		s-0.1,0-0.1,0.1c0,0-0.1,0.1-0.1,0.1c0,0.1-0.1,0.1-0.1,0.1s0.1,0.1,0.2,0.1c0.1,0.1,0.3,0.1,0.5,0.2c0.6,0.3,1.1,0.9,1.3,1.7
		c0,0.1,0.1,0.2,0.2,0.2C23.6,32.8,23.8,32.9,24.1,33.2z M21.8,33.4c0.1-0.2,0.1-0.3,0.1-0.5c0-0.3-0.2-0.6-0.5-0.8
		C21.4,32,21.4,32,21.4,32l0,0c0,0.1,0.1,0.3,0.2,0.6L21.8,33.4z M23.6,31c0.1,0,0.2-0.2,0.3-0.6c-0.3-0.3-0.7-0.6-1.3-1
		c-0.2-0.1-0.5-0.3-1-0.7c-0.1,0.4-0.1,0.7-0.1,1C22.9,30.5,23.5,31,23.6,31z M22.5,25.1c0,0-0.1-0.3-0.3-1L22.1,24
		c0,0-0.1,0.1-0.2,0.2s-0.2,0.3-0.2,0.3s0.1,0.1,0.1,0.1c0.1,0.1,0.2,0.1,0.2,0.2c0.1,0.1,0.2,0.2,0.2,0.2
		C22.4,25.1,22.5,25.1,22.5,25.1z M22,27.9c-0.1,0-0.1,0-0.2-0.1c-0.1-0.1-0.1-0.1-0.1-0.1c0-0.1,0-0.1,0-0.1
		c0.1-0.1,0.1-0.2,0.2-0.2c0.1,0,0.1,0.1,0.2,0.1c0.1,0.1,0.1,0.1,0.1,0.2s0,0.1-0.1,0.2C22.2,27.9,22.1,27.9,22,27.9z M22.7,30.2
		c-0.2,0-0.2-0.1-0.2-0.2c0-0.1,0-0.1,0.1-0.1c0.1-0.1,0.1-0.1,0.2-0.1c0.2,0,0.2,0.1,0.2,0.2C22.9,30.1,22.9,30.2,22.7,30.2z
		 M23.2,27.3c0-0.1-0.1-0.2-0.2-0.5s-0.2-0.5-0.2-0.5c0,0-0.1,0.2-0.3,0.5C23,27.2,23.2,27.3,23.2,27.3z M23.5,34.7
		c0.5,0,1.1,0,1.8-0.1l-0.5-0.5c-0.1-0.1-0.6-0.5-1.4-1c-0.1,0.6-0.3,1.1-0.6,1.5L23.5,34.7L23.5,34.7z M24.1,29.8
		c0,0,0-0.1-0.1-0.2C24,29.4,24,29.3,23.9,29c-0.1-0.2-0.2-0.4-0.2-0.6s-0.1-0.2-0.1-0.2s-0.2,0.3-0.5,0.7c0.4,0.3,0.7,0.5,0.8,0.6
		c0.1,0.1,0.1,0.1,0.2,0.1C24.1,29.8,24.1,29.8,24.1,29.8z M23.6,32.5c-0.1,0-0.1,0-0.2-0.1c-0.1-0.1-0.1-0.1-0.1-0.2s0-0.1,0-0.1
		c0.1-0.1,0.1-0.2,0.2-0.2c0.1,0,0.1,0,0.2,0.1c0.1,0.1,0.1,0.1,0.1,0.2s0,0.1-0.1,0.1C23.7,32.4,23.7,32.4,23.6,32.5
		C23.7,32.5,23.6,32.5,23.6,32.5z M23.9,34.5c-0.1,0-0.1,0-0.2-0.1c-0.1-0.1-0.1-0.1-0.1-0.2c0-0.1,0-0.1,0-0.1
		c0.1-0.1,0.1-0.2,0.2-0.2c0.1,0,0.1,0,0.2,0.1c0.1,0.1,0.1,0.1,0.1,0.2s0,0.1-0.1,0.1C24,34.4,24,34.4,23.9,34.5
		C24,34.5,24,34.5,23.9,34.5z M24.9,32c0,0-0.1-0.1-0.1-0.3c-0.2-0.5-0.3-0.9-0.3-0.9c0,0-0.1,0.1-0.2,0.3c-0.1,0.2-0.2,0.3-0.2,0.3
		c0,0,0.1,0.1,0.4,0.3C24.8,31.9,24.9,32,24.9,32z M25.7,34.3c0-0.1-0.1-0.3-0.3-0.9c-0.2-0.5-0.3-0.8-0.3-0.8c0,0-0.1,0.2-0.3,0.4
		c-0.2,0.2-0.2,0.3-0.2,0.4c0,0,0,0.1,0.1,0.1c0,0,0.1,0.1,0.1,0.1c0.1,0.1,0.1,0.1,0.2,0.2s0.2,0.2,0.5,0.4
		C25.6,34.3,25.7,34.3,25.7,34.3z"/>
	<path class="st0" d="M37.1,35.4c-0.3,0-0.5,0-0.6,0c-0.1,0-0.1,0-0.2-0.1c-0.1-0.1-0.1-0.1-0.1-0.1c0-0.1,0-0.2,0.1-0.2
		c0.1-0.1,0.2-0.1,0.3-0.1l1.1-0.1c-2.7-3.1-4-4.6-4-4.7c0,0.1-0.1,1.6-0.1,4.6c0.3,0,0.6,0,0.7,0.1c0.2,0,0.3,0.1,0.3,0.2v0.1
		c0,0.1-0.1,0.2-0.1,0.2c-0.2,0.1-1.9,0.1-5.2,0.1c-0.6,0-1,0-1-0.1C28.1,35.2,28,35.1,28,35s0.1-0.2,0.2-0.2c0.1,0,0.2-0.1,0.3-0.1
		c0.2,0,0.4,0,0.6-0.1c0-0.2,0.1-1.1,0.1-2.4l-0.1-10.9c-0.4,0-0.7,0-0.7,0c-0.1,0-0.2-0.1-0.2-0.2v-0.1c0-0.1,0.1-0.2,0.1-0.2
		c0.1-0.1,0.9-0.1,2.5-0.1c0.6,0,1.3,0,2.1,0c1.1,0,2,0.1,2.6,0.2c0.6,0.1,1.2,0.3,1.7,0.6c1,0.5,1.7,1.1,2,1.8
		c0.3,0.7,0.5,1.3,0.5,1.9c0,0.3-0.1,0.7-0.2,1.1c-0.2,0.8-0.7,1.5-1.4,2.1c-0.9,0.7-1.9,1.1-3.1,1.3c-0.2,0.1-0.5,0.1-0.9,0.1
		l4.3,5h0.7c0.2,0,0.3,0,0.3,0c0.1,0.1,0.2,0.1,0.2,0.2s-0.1,0.2-0.1,0.2S38.6,35.3,37.1,35.4z M29.7,25.6c0,0,0.1-0.1,0.3-0.2
		c0.6-0.5,0.9-1,0.9-1.8v-0.2c0-0.7-0.2-1.1-0.6-1.5c-0.1-0.1-0.1-0.1-0.2-0.2c-0.1-0.1-0.2-0.1-0.2-0.2c-0.1-0.1-0.1-0.1-0.2-0.1
		c0,0,0,0.1,0,0.2s0,0.2,0,0.2l0.1,0.1c0.2,0.1,0.3,0.2,0.5,0.4c0.2,0.3,0.3,0.6,0.3,0.9c0,0.2,0,0.3-0.1,0.5
		c-0.1,0.4-0.2,0.7-0.5,0.9c-0.1,0.1-0.2,0.1-0.2,0.2c-0.1,0-0.1,0.1-0.1,0.3C29.6,25.5,29.6,25.6,29.7,25.6z M29.6,24.4l0.1-0.1
		c0.1-0.1,0.1-0.2,0.2-0.4c0.1-0.2,0.1-0.3,0.1-0.4c0-0.2-0.1-0.5-0.3-0.7L29.6,24.4L29.6,24.4z M29.7,30.2c0.2-0.1,0.3-0.2,0.4-0.4
		c0.3-0.4,0.5-0.7,0.5-1c0.1-0.3,0.1-0.5,0.1-0.7c0-0.3-0.1-0.6-0.2-0.9c-0.1-0.1-0.2-0.2-0.3-0.4s-0.2-0.3-0.3-0.4
		c-0.1-0.1-0.2-0.2-0.2-0.2c0,0,0,0.1,0,0.2c0,0.1,0,0.2,0,0.2l0.1,0.1c0.2,0.1,0.3,0.3,0.5,0.6c0.1,0.2,0.2,0.5,0.2,0.7
		c0,0.4-0.2,0.8-0.5,1.1l-0.2,0.2L29.7,30.2L29.7,30.2z M29.7,28.7c0,0,0.1-0.1,0.1-0.2c0.1-0.1,0.1-0.2,0.1-0.4
		c0-0.1-0.1-0.3-0.1-0.5c0-0.1-0.1-0.1-0.1-0.1c0,0-0.1,0.2-0.1,0.5C29.7,28.5,29.7,28.7,29.7,28.7z M29.7,34.6
		c0.1-0.1,0.2-0.1,0.2-0.2c0.2-0.2,0.4-0.4,0.6-0.7c0.1-0.2,0.2-0.5,0.3-0.7c0.1-0.2,0.1-0.3,0.1-0.5c0-0.5-0.2-1-0.5-1.3
		c-0.3-0.3-0.5-0.5-0.6-0.5c-0.1,0-0.1,0.1-0.1,0.2c0,0.1,0,0.1,0.1,0.2c0.1,0.1,0.1,0.1,0.1,0.2c0.3,0.3,0.5,0.8,0.5,1.4
		c0,0.3-0.1,0.5-0.1,0.6c-0.1,0.2-0.2,0.3-0.3,0.5l-0.2,0.2L29.7,34.6L29.7,34.6z M29.7,33.3c0.1-0.1,0.1-0.3,0.1-0.6
		c0-0.4-0.1-0.6-0.1-0.6c0,0-0.1,0.2-0.1,0.6C29.7,33.2,29.7,33.3,29.7,33.3z M32,28.6c0,0,0.3-0.3,0.8-0.8l-2.3-2.3l-0.5,0.3
		l0.2,0.2c0.5,0.5,0.8,1,0.9,1.6l0.1,0.3C31.7,28.5,31.9,28.6,32,28.6z M32.1,33.3c0,0,0.2-0.1,0.4-0.4c0.2-0.2,0.3-0.3,0.3-0.4
		c0-0.1-0.6-0.7-1.9-2.1c-0.2-0.2-0.3-0.3-0.3-0.3c0,0-0.1,0.1-0.3,0.3c0.4,0.3,0.7,0.6,0.9,0.9c0.1,0.1,0.1,0.3,0.2,0.5
		c0.1,0.2,0.1,0.3,0.1,0.5c0,0.1,0.1,0.2,0.1,0.3c0.2,0.2,0.3,0.3,0.5,0.5C32,33.3,32.1,33.3,32.1,33.3z M32.1,24.1
		c0,0,0.2-0.1,0.4-0.4c0.2-0.3,0.4-0.4,0.4-0.4s-0.1-0.1-0.2-0.2c-0.1-0.1-0.3-0.3-0.5-0.5c-0.2-0.2-0.7-0.6-1.4-1.3h-0.4l0.3,0.2
		c0.4,0.4,0.6,0.9,0.7,1.4l0.1,0.3C31.8,23.9,32.1,24.1,32.1,24.1z M32.2,34.7c0.2,0,0.3,0,0.3,0s-0.2-0.2-0.6-0.7
		c-0.4-0.5-0.6-0.7-0.6-0.7s-0.1,0.1-0.1,0.2c-0.1,0.4-0.3,0.7-0.7,1.1c0.1,0,0.2,0,0.3,0c0.1,0,0.2,0,0.3,0c0.1,0,0.1,0,0.2,0h0.1
		c0.1,0,0.1-0.1,0.1-0.1s0-0.1,0.1-0.2c0.1-0.1,0.1-0.1,0.2-0.1s0.1,0,0.2,0.1c0.1,0.1,0.1,0.1,0.1,0.2v0.1L32.2,34.7L32.2,34.7z
		 M32.1,31c0.2-0.2,0.3-0.4,0.5-0.5s0.2-0.2,0.2-0.2s-0.3-0.3-0.8-0.8c-0.5-0.5-0.8-0.7-0.8-0.7s-0.1,0.1-0.1,0.2
		C31,29,31,29.2,30.9,29.3c-0.1,0.2-0.1,0.3-0.1,0.3C30.9,29.6,31.3,30.1,32.1,31z M32.1,26.5C32.1,26.5,32.2,26.5,32.1,26.5
		c0.4-0.3,0.6-0.6,0.7-0.7c-0.2-0.3-0.7-0.7-1.4-1.4c-0.1-0.1-0.2-0.2-0.2-0.2c0,0-0.1,0.1-0.1,0.2c0,0.1-0.1,0.3-0.2,0.6
		c-0.1,0.1-0.1,0.2-0.1,0.2s0.3,0.5,1.1,1.1C32.1,26.4,32.1,26.5,32.1,26.5z M32.1,21.9c0.3-0.3,0.4-0.5,0.4-0.5c0,0-0.3-0.1-1-0.1
		C31.7,21.5,31.9,21.7,32.1,21.9z M31.8,27.9c-0.1,0-0.1,0-0.2-0.1s-0.1-0.1-0.1-0.2s0-0.1,0.1-0.2c0.1-0.1,0.1-0.1,0.2-0.1h0.1
		c0.1,0.1,0.2,0.1,0.2,0.2C32,27.8,31.9,27.9,31.8,27.9z M31.8,25.6c-0.1,0-0.1-0.1-0.2-0.1c-0.1-0.1-0.1-0.1-0.1-0.2
		c0-0.2,0.1-0.2,0.2-0.2c0.1,0,0.1,0,0.2,0.1s0.1,0.1,0.1,0.2s0,0.1-0.1,0.1C32,25.5,31.9,25.5,31.8,25.6
		C31.8,25.6,31.9,25.6,31.8,25.6z M31.9,30.2C31.8,30.2,31.8,30.2,31.9,30.2c-0.1,0-0.1,0-0.1-0.1l-0.1-0.1c0,0-0.1-0.1-0.1-0.1
		c0-0.1,0-0.1,0-0.1c0-0.1,0-0.1,0.1-0.1c0,0,0.1-0.1,0.1-0.1h0.1c0.1,0,0.2,0.1,0.2,0.1c0,0.1,0.1,0.1,0.1,0.1
		C32.1,30.1,32,30.2,31.9,30.2z M31.9,23.3L31.9,23.3c-0.2-0.1-0.2-0.1-0.2-0.1c0-0.1,0-0.1,0-0.1c0-0.1,0.1-0.2,0.2-0.2
		c0.1,0,0.1,0,0.1,0c0.1,0,0.1,0.1,0.2,0.1s0.1,0.1,0.1,0.2s-0.1,0.2-0.1,0.2C32,23.3,31.9,23.3,31.9,23.3z M31.8,32.5
		c-0.1,0-0.1,0-0.2-0.1c-0.1-0.1-0.1-0.1-0.1-0.2s0-0.1,0.1-0.1c0.1,0,0.1-0.1,0.2-0.1c0.1,0,0.1,0,0.1,0c0.1,0.1,0.1,0.1,0.1,0.2
		c0,0.1,0,0.1-0.1,0.2C31.9,32.5,31.9,32.5,31.8,32.5z M33.1,29.8v-0.6c0-0.3,0-0.6-0.1-0.9c-0.3,0.3-0.6,0.6-0.7,0.7
		c0.2,0.2,0.3,0.3,0.4,0.3C32.8,29.4,32.9,29.5,33.1,29.8z M33.1,34.4v-0.9c0-0.1,0-0.3,0-0.5c-0.1,0.1-0.2,0.2-0.3,0.3
		c-0.1,0.1-0.2,0.2-0.2,0.2c-0.1,0.1-0.1,0.1-0.1,0.1S32.6,34,33.1,34.4z M33.1,25.1c0,0,0-0.4,0-1.3l-0.6,0.6
		C32.8,24.9,33.1,25.1,33.1,25.1z M33.1,32c0.1-0.2,0.1-0.7,0.1-1.4c-0.3,0.3-0.5,0.5-0.6,0.7L33.1,32z M33,27.3
		c0,0,0.1-0.2,0.1-0.5c0-0.3,0-0.5-0.1-0.5c-0.1,0-0.2,0.2-0.5,0.5C32.8,27.2,33,27.3,33,27.3z M33.1,22.8c0,0,0-0.4,0-1.2l-0.3,0.3
		c-0.2,0.2-0.2,0.3-0.2,0.3c0,0.1,0.2,0.2,0.5,0.5C33,22.8,33.1,22.8,33.1,22.8z M33.6,29.3h0.6c0.5,0,0.8-0.1,1-0.1
		c1.1-0.2,1.9-0.7,2.7-1.4c0.7-0.7,1.1-1.6,1.1-2.5c0-0.2,0-0.5-0.1-0.6c-0.2-1.1-1-2.1-2.2-2.7c-0.7-0.4-1.5-0.6-2.3-0.6l-1-0.1
		v1.3c0,1.2,0,2.1,0,2.7c0,0.5,0,0.9,0,1.3C33.6,27.3,33.6,28.2,33.6,29.3z"/>
	<path class="st0" d="M42.7,35.3h-1.4c-0.4,0-0.6,0-0.7-0.1c-0.1-0.1-0.1-0.1-0.1-0.2c0-0.1,0.1-0.2,0.2-0.2c0.1,0,0.2-0.1,0.5-0.1
		l4.6-13.3c0,0-0.1,0-0.1,0c-0.3,0-0.5,0-0.5-0.1c-0.1,0-0.2-0.1-0.2-0.2c0-0.1,0-0.1,0.1-0.2c0,0,0,0,0.1,0h0.1c0.1,0,0.1,0,0.2,0
		c0.1,0,0.2,0,0.3,0c0.2,0,0.3,0,0.5,0c0.2,0,0.5,0,0.7,0c0.3,0,0.6,0,1.1,0h2.9c0.1,0.1,0.2,0.2,0.2,0.2v0.1c0,0.1-0.1,0.2-0.2,0.2
		c-0.1,0-0.1,0-0.2,0c-0.2,0-0.2,0-0.2,0.1s0.8,2.3,2.4,6.7l2.3,6.6c0.3,0,0.4,0,0.5,0s0.1,0.1,0.1,0.1c0.1-0.1,0.1,0,0.1,0.1
		c0,0.1,0,0.1-0.1,0.2s-0.7,0.1-1.9,0.1l-4,0.1c-0.1-0.1-0.2-0.2-0.2-0.2c0-0.1,0.1-0.2,0.2-0.2c0.1,0,0.2,0,0.3,0
		c0.2,0,0.3,0,0.3-0.1c0-0.1-0.1-0.3-0.3-0.9c-0.2-0.6-0.3-0.9-0.3-0.9c-0.6,0-1.8,0-3.7,0.1c-2.4,0.1-3.6,0.1-3.7,0.1
		c0,0-0.2,0.6-0.6,1.7c0,0,0.3,0,0.8,0c0.4,0,0.6,0,0.7,0s0.2,0.1,0.2,0.1c0.1,0.1,0.1,0.1,0.1,0.2c0,0.1,0,0.1-0.1,0.2
		C43.4,35.3,43.2,35.3,42.7,35.3z M42.5,32.5l5.8-0.1c0.9,0,1.3-0.1,1.3-0.1c0-0.1-0.6-1.8-1.7-5.1s-1.7-5.1-1.7-5.1
		s-0.6,1.7-1.8,5.1C43.2,30.6,42.5,32.4,42.5,32.5z M48,25.9c0.1,0,0.1-0.1,0.2-0.3c0.2-0.3,0.2-0.7,0.2-1.3c0-0.5-0.1-0.9-0.2-1.2
		c-0.2-0.3-0.5-0.7-1-1c-0.3-0.2-0.5-0.3-0.6-0.3l0,0c0,0.1,0.1,0.3,0.2,0.6l0.2,0.1c0.3,0,0.5,0.1,0.7,0.3c0.3,0.3,0.4,0.6,0.4,1.1
		c0,0.3-0.1,0.7-0.3,1l-0.1,0.3c0.1,0.2,0.1,0.3,0.1,0.4C47.9,25.8,48,25.9,48,25.9z M47.5,24.5c0,0,0.1-0.1,0.1-0.2
		c0-0.1,0.1-0.2,0.1-0.3c0-0.2-0.1-0.4-0.1-0.5c-0.1-0.1-0.1-0.2-0.2-0.3C47.2,23,47.1,23,47,23S47,23,47,23.1s0.1,0.3,0.2,0.7
		C47.4,24.2,47.5,24.4,47.5,24.5z M49.9,24.2l0.3-0.5c0.1-0.2,0.2-0.3,0.2-0.3c0,0-0.2-0.2-0.5-0.4c-0.2-0.2-0.6-0.4-1-0.6
		c-0.7-0.4-1.1-0.6-1.3-0.7c-0.1-0.1-0.2-0.1-0.2-0.2c0-0.1-0.1-0.1-0.1-0.1s-0.1,0-0.2,0H47l0.2,0.1c0.9,0.5,1.4,1.1,1.6,1.8
		l0.1,0.2c0.2,0.1,0.4,0.2,0.5,0.3C49.5,23.9,49.7,24,49.9,24.2z M49.4,30.2c0.1-0.1,0.2-0.2,0.2-0.2c0.2-0.3,0.2-0.6,0.2-1.1
		c0-0.3,0-0.7-0.1-0.9c-0.1-0.3-0.3-0.5-0.6-0.8c-0.3-0.2-0.5-0.3-0.7-0.3h-0.2c0.1,0.2,0.1,0.4,0.2,0.4c0,0.1,0.1,0.1,0.1,0.1
		c0.2,0,0.3,0.1,0.6,0.3c0.3,0.2,0.4,0.5,0.4,0.9c0,0.2-0.1,0.5-0.2,0.9c-0.1,0.1-0.1,0.1-0.1,0.2c0,0,0,0.1,0,0.1
		C49.2,29.5,49.3,29.8,49.4,30.2z M49.2,21.9c0.1,0,0.1-0.2,0.3-0.5c0,0-0.1,0-0.2,0s-0.2,0.1-0.3,0.1c-0.1,0.1-0.1,0.1-0.2,0.1
		s-0.1,0-0.2-0.1c-0.1-0.1-0.1-0.1-0.2-0.1c-0.1,0-0.1,0-0.1,0s0.1,0.1,0.3,0.2C49,21.8,49.2,21.9,49.2,21.9z M51.4,28.8l0.5-0.8
		c-0.7-0.6-1.3-1-1.7-1.3c-0.9-0.6-1.4-0.9-1.4-0.9s-0.1,0-0.1,0.1s-0.1,0.1-0.1,0.2c-0.1,0.1-0.1,0.1-0.1,0.2l0.2,0.1
		c0.3,0.1,0.6,0.2,0.9,0.5c0.5,0.4,0.7,0.7,0.8,1.2c0,0.1,0,0.1,0.1,0.2s0.1,0.1,0.2,0.1c0.1,0.1,0.3,0.2,0.5,0.3
		C51.2,28.7,51.3,28.8,51.4,28.8z M48.9,28.6L48.9,28.6c0-0.1,0.1-0.1,0.1-0.1c0-0.1,0-0.1,0-0.1c0-0.2-0.1-0.3-0.2-0.5l-0.2-0.2
		C48.8,28.4,48.9,28.6,48.9,28.6z M50.7,26.4c0.1,0,0.1-0.1,0.2-0.2c0.1-0.2,0.2-0.2,0.2-0.3s-0.1-0.2-0.4-0.4
		c-0.2-0.2-0.5-0.3-0.7-0.6c-0.5-0.3-0.8-0.6-1-0.7l-0.1,1v0.1c0,0,0.1,0.1,0.3,0.2C50.2,26.1,50.7,26.4,50.7,26.4z M49.3,23.5
		c-0.1,0-0.1,0-0.2-0.1c-0.1-0.1-0.1-0.1-0.1-0.2s0-0.1,0.1-0.1c0.1-0.1,0.1-0.1,0.1-0.1h0.1c0.1,0,0.1,0.1,0.2,0.1
		c0,0.1,0.1,0.1,0.1,0.1c0,0.1,0,0.1-0.1,0.2C49.4,23.5,49.4,23.5,49.3,23.5z M50.9,34.5c0.2-0.2,0.2-0.3,0.3-0.5
		c0.2-0.3,0.2-0.6,0.3-0.7s0-0.3,0-0.3c0-0.2-0.1-0.4-0.1-0.6c-0.2-0.8-0.7-1.3-1.4-1.4c-0.1-0.1-0.2-0.1-0.2-0.1
		c-0.1,0-0.1,0-0.1,0.1c0,0.1,0,0.1,0.1,0.2c0.1,0.1,0.1,0.2,0.1,0.2c0,0,0.1,0.1,0.1,0.1c0.1,0.1,0.3,0.1,0.4,0.2
		c0.4,0.2,0.6,0.5,0.7,0.9c0,0.1,0.1,0.2,0.1,0.5c0,0.2,0,0.3,0,0.4s-0.1,0.3-0.2,0.6C50.9,34,50.9,34,50.8,34s-0.1,0.1-0.1,0.1
		C50.7,34.1,50.7,34.3,50.9,34.5z M50.2,22.6c0,0-0.1-0.1-0.1-0.4c-0.1-0.3-0.2-0.5-0.2-0.5c-0.1,0-0.1,0.2-0.2,0.5L50.2,22.6z
		 M50.1,25.6c-0.1,0-0.1,0-0.2-0.1c-0.1-0.1-0.1-0.1-0.1-0.2c0-0.1,0-0.1,0.1-0.1c0.1-0.1,0.1-0.1,0.2-0.1c0.1,0,0.1,0.1,0.2,0.1
		c0,0.1,0.1,0.1,0.1,0.1c0,0.1,0,0.1-0.1,0.2C50.2,25.6,50.1,25.6,50.1,25.6z M52.8,33.2c0,0,0.2-0.2,0.5-0.7
		c-0.4-0.3-1.3-0.9-2.7-1.9c-0.3-0.2-0.5-0.3-0.5-0.3s-0.1,0-0.1,0.1c0,0-0.1,0.1-0.1,0.1c0,0.1-0.1,0.1-0.1,0.1s0.1,0.1,0.2,0.1
		c0.1,0.1,0.3,0.1,0.5,0.2c0.6,0.3,1.1,0.9,1.3,1.7c0,0.1,0.1,0.2,0.2,0.2C52.2,32.8,52.5,32.9,52.8,33.2z M50.5,33.4
		c0.1-0.2,0.1-0.3,0.1-0.5c0-0.3-0.2-0.6-0.5-0.8C50.1,32,50.1,32,50.1,32l0,0c0,0.1,0.1,0.3,0.2,0.6L50.5,33.4z M52.2,31
		c0.1,0,0.2-0.2,0.3-0.6c-0.3-0.3-0.7-0.6-1.3-1c-0.2-0.1-0.5-0.3-1-0.7c-0.1,0.4-0.1,0.7-0.1,1C51.5,30.5,52.2,31,52.2,31z
		 M51.1,25.1c0,0-0.1-0.3-0.3-1L50.7,24c0,0-0.1,0.1-0.2,0.2c-0.1,0.2-0.2,0.3-0.2,0.3s0.1,0.1,0.1,0.1s0.2,0.1,0.2,0.2
		c0.1,0.1,0.2,0.2,0.2,0.2C51.1,25.1,51.1,25.1,51.1,25.1z M50.7,27.9c-0.1,0-0.1,0-0.2-0.1c-0.1-0.1-0.1-0.1-0.1-0.1
		c0-0.1,0-0.1,0-0.1c0.1-0.1,0.1-0.2,0.2-0.2c0.1,0,0.1,0.1,0.2,0.1c0.1,0.1,0.1,0.1,0.1,0.2s0,0.1-0.1,0.2
		C50.9,27.9,50.8,27.9,50.7,27.9z M51.4,30.2c-0.2,0-0.2-0.1-0.2-0.2c0-0.1,0-0.1,0.1-0.1c0.1-0.1,0.1-0.1,0.2-0.1
		c0.2,0,0.2,0.1,0.2,0.2C51.6,30.1,51.5,30.2,51.4,30.2z M51.9,27.3c0-0.1-0.1-0.2-0.2-0.5c-0.1-0.3-0.2-0.5-0.2-0.5
		c0,0-0.1,0.2-0.3,0.5C51.7,27.2,51.9,27.3,51.9,27.3z M52.2,34.7c0.5,0,1.1,0,1.8-0.1l-0.5-0.4c-0.1-0.1-0.6-0.5-1.4-1
		c-0.1,0.6-0.3,1.1-0.6,1.5H52.2z M52.8,29.8c0,0,0-0.1-0.1-0.2c-0.1-0.2-0.1-0.3-0.2-0.6c-0.1-0.2-0.2-0.4-0.2-0.6
		c-0.1-0.2-0.1-0.2-0.1-0.2s-0.2,0.3-0.5,0.7c0.4,0.3,0.7,0.5,0.8,0.6c0.1,0.1,0.1,0.1,0.2,0.1C52.8,29.8,52.8,29.8,52.8,29.8z
		 M52.3,32.5c-0.1,0-0.1,0-0.2-0.1s-0.1-0.1-0.1-0.2s0-0.1,0-0.1c0.1-0.1,0.1-0.2,0.2-0.2c0.1,0,0.1,0,0.2,0.1s0.1,0.1,0.1,0.2
		s0,0.1-0.1,0.1C52.4,32.4,52.4,32.4,52.3,32.5C52.3,32.5,52.3,32.5,52.3,32.5z M52.6,34.5c-0.1,0-0.1,0-0.2-0.1
		c-0.1-0.1-0.1-0.1-0.1-0.2c0-0.1,0-0.1,0-0.1c0.1-0.1,0.1-0.2,0.2-0.2c0.1,0,0.1,0,0.2,0.1c0.1,0.1,0.1,0.2,0.1,0.2s0,0.1-0.1,0.1
		c-0.1,0.1-0.1,0.1-0.1,0.1C52.6,34.5,52.6,34.5,52.6,34.5z M53.6,32c0,0-0.1-0.1-0.1-0.3c-0.2-0.5-0.3-0.9-0.3-0.9
		c0,0-0.1,0.1-0.2,0.3c-0.1,0.2-0.2,0.3-0.2,0.3c0,0,0.1,0.1,0.4,0.3C53.4,31.8,53.5,32,53.6,32z M54.4,34.3c0-0.1-0.1-0.3-0.3-0.9
		s-0.3-0.8-0.3-0.8c0,0-0.1,0.2-0.3,0.4s-0.2,0.3-0.2,0.4c0,0,0,0.1,0.1,0.1c0,0,0.1,0.1,0.1,0.1c0.1,0.1,0.1,0.1,0.2,0.2
		c0.1,0.1,0.2,0.2,0.5,0.4C54.3,34.3,54.4,34.3,54.4,34.3z"/>
	<path class="st0" d="M66.8,35.7c-0.1,0-0.1-0.1-0.2-0.1c-0.1-0.1-0.1-0.1-0.1-0.2v-0.2l-7.7,0.1c-1.3,0-2,0-2,0
		c-0.1-0.1-0.2-0.1-0.2-0.2c0-0.1,0-0.1,0-0.1c0-0.2,0.1-0.2,0.2-0.2c0.1,0,0.1,0,0.2,0c0.2,0,0.4,0,0.6-0.1c0-0.3,0.1-1.1,0.1-2.4
		c0-2,0-5.6-0.1-10.9c-0.4,0-0.6,0-0.7,0c-0.2,0-0.3-0.1-0.3-0.2c0-0.1,0-0.1,0.1-0.2s0.5-0.1,1.4-0.1c0.3,0,0.9,0,1.7-0.1
		c0.4,0,0.9-0.1,1.3-0.1c0.3,0,0.7,0,1.2,0s0.7,0.1,0.8,0.1c0.1,0.1,0.1,0.1,0.1,0.2s-0.1,0.2-0.2,0.2c-0.1,0-0.3,0-0.9,0v1.8
		c0,0.7,0,1.4-0.1,2.2c0,0.5,0,1,0,1.4s0,0.7,0,1c0,0.3,0,0.7,0,1.2s0,1,0,1.4v4.4h4.3c0-1.1,0-1.7,0.1-1.8c0-0.1,0-0.1,0.1-0.1
		c0.1-0.1,0.1-0.1,0.2-0.1c0.1,0,0.1,0.1,0.2,0.1c0.1,0.1,0.1,0.1,0.1,0.2s0,0.3,0,0.6c0,1.1,0,1.8-0.1,1.9
		c-0.1,0.1-0.1,0.2-0.1,0.2C66.9,35.7,66.8,35.7,66.8,35.7z M58.3,25.6c0.1,0,0.1-0.1,0.3-0.2c0.6-0.5,0.9-1.1,0.9-1.8v-0.1
		c0-0.7-0.2-1.1-0.6-1.5c-0.1-0.1-0.1-0.1-0.2-0.2c-0.1-0.1-0.2-0.1-0.2-0.2c-0.1-0.1-0.1-0.1-0.2-0.1c0,0,0,0.1,0,0.2
		c0,0.1,0,0.2,0.1,0.2c0.1,0,0.1,0.1,0.1,0.1c0.1,0.1,0.3,0.2,0.5,0.4c0.2,0.3,0.3,0.6,0.3,0.9c0,0.2,0,0.3-0.1,0.5
		c-0.1,0.4-0.2,0.7-0.5,0.9c-0.1,0.1-0.2,0.1-0.2,0.2c-0.1,0-0.1,0.1-0.1,0.3C58.3,25.5,58.3,25.6,58.3,25.6z M58.3,24.4l0.1-0.1
		c0.1-0.1,0.1-0.2,0.2-0.4c0.1-0.2,0.1-0.3,0.1-0.4c0-0.2-0.1-0.5-0.3-0.7L58.3,24.4L58.3,24.4z M58.4,30.2c0.1-0.1,0.2-0.2,0.2-0.2
		c0.4-0.5,0.6-0.9,0.7-1.3c0.1-0.3,0.1-0.5,0.1-0.7c0-0.3-0.1-0.6-0.2-0.9c-0.1-0.1-0.2-0.2-0.3-0.4c-0.1-0.2-0.2-0.3-0.3-0.4
		c-0.1-0.1-0.2-0.2-0.2-0.2c0,0,0,0.1,0,0.2c0,0.1,0,0.2,0,0.2l0.1,0.1c0.2,0.1,0.3,0.3,0.5,0.6c0.1,0.2,0.2,0.5,0.2,0.7
		c0,0.4-0.2,0.8-0.5,1.1l-0.2,0.2L58.4,30.2L58.4,30.2z M58.4,28.7c0.1,0,0.1-0.1,0.1-0.2c0.1-0.1,0.1-0.2,0.1-0.3
		c0-0.2-0.1-0.3-0.1-0.5c0-0.1-0.1-0.1-0.1-0.1c0,0-0.1,0.2-0.1,0.5C58.3,28.5,58.3,28.7,58.4,28.7z M58.3,34.6
		c0.3-0.2,0.6-0.5,0.8-0.9c0.2-0.4,0.3-0.8,0.3-1.1c0-0.5-0.2-1-0.5-1.3c-0.3-0.3-0.5-0.4-0.6-0.4c-0.1,0-0.1,0.1-0.1,0.2
		c0,0.1,0,0.1,0,0.1c0,0.1,0.1,0.1,0.1,0.2c0.3,0.3,0.5,0.7,0.5,1.4c0,0.3-0.1,0.5-0.1,0.7c-0.1,0.2-0.2,0.3-0.3,0.5l-0.2,0.2
		L58.3,34.6L58.3,34.6z M58.3,33.3c0.1-0.1,0.1-0.2,0.1-0.6s-0.1-0.6-0.1-0.6c0,0,0,0.2,0,0.6C58.3,33.2,58.3,33.3,58.3,33.3z
		 M60.7,28.6c0,0,0.3-0.3,0.8-0.8l-2.3-2.3l-0.4,0.3l0.2,0.2c0.5,0.5,0.8,1,0.9,1.6L60,28C60.4,28.5,60.6,28.6,60.7,28.6z
		 M60.7,33.3c0,0,0.2-0.1,0.4-0.4c0.2-0.2,0.3-0.3,0.3-0.4c0,0-0.1-0.2-0.4-0.5c-1.1-1.3-1.8-1.9-1.8-1.9c-0.1,0.1-0.2,0.2-0.3,0.3
		c0.2,0.2,0.4,0.3,0.6,0.5c0.2,0.3,0.4,0.6,0.5,0.9c0.1,0.2,0.1,0.3,0.1,0.5c0,0.1,0,0.1,0,0.1c0,0.1,0.1,0.1,0.1,0.1
		c0.1,0.1,0.1,0.1,0.2,0.2c0.1,0.1,0.2,0.2,0.2,0.3C60.7,33.3,60.7,33.3,60.7,33.3z M60.8,24.1c0,0,0.2-0.1,0.4-0.4
		c0.3-0.3,0.4-0.4,0.4-0.4s-0.1-0.1-0.2-0.2c-0.1-0.1-0.3-0.3-0.5-0.5c-0.2-0.2-0.7-0.6-1.4-1.3H59l0.3,0.3c0.4,0.4,0.6,0.9,0.7,1.4
		l0.1,0.3C60.5,23.9,60.7,24.1,60.8,24.1z M60.9,34.7c0.2,0,0.3,0,0.3,0S61,34.5,60.6,34c-0.4-0.5-0.6-0.7-0.7-0.7
		c0,0-0.1,0.1-0.1,0.2c-0.2,0.4-0.4,0.8-0.7,1.1l0.9,0.1c0.1,0,0.1-0.1,0.1-0.1s0-0.1,0.1-0.2c0.1-0.1,0.1-0.1,0.2-0.1
		s0.1,0,0.2,0.1c0.1,0.1,0.1,0.1,0.1,0.2l0.1,0.1C60.6,34.7,60.9,34.7,60.9,34.7z M60.8,26.5L60.8,26.5c0.1-0.1,0.2-0.2,0.2-0.2
		c0.1-0.1,0.2-0.1,0.2-0.2c0.1-0.1,0.1-0.1,0.2-0.2c0.1-0.1,0.1-0.1,0.1-0.1c-0.1-0.2-0.4-0.5-0.9-1c-0.5-0.5-0.7-0.7-0.7-0.7
		s-0.1,0.1-0.1,0.2c0,0.2-0.1,0.3-0.2,0.6c-0.1,0.1-0.1,0.2-0.1,0.2s0.3,0.5,1.1,1.1C60.7,26.4,60.8,26.5,60.8,26.5z M60.8,31
		c0.2-0.2,0.3-0.4,0.5-0.6c0.1-0.2,0.2-0.2,0.2-0.2s-0.3-0.3-0.8-0.8s-0.8-0.7-0.8-0.7s-0.1,0.1-0.1,0.2c0,0.1-0.1,0.3-0.2,0.5
		c-0.1,0.2-0.1,0.3-0.1,0.3C59.5,29.6,59.9,30.1,60.8,31z M60.8,21.9c0.3-0.3,0.5-0.5,0.5-0.5s-0.2-0.1-0.5-0.1h-0.5L60.8,21.9z
		 M60.4,27.9c-0.1,0-0.1,0-0.2-0.1s-0.1-0.1-0.1-0.2s0-0.1,0.1-0.2c0.1-0.1,0.1-0.1,0.2-0.1c0.1,0,0.1,0,0.1,0
		c0.1,0.1,0.1,0.1,0.1,0.2C60.7,27.8,60.6,27.9,60.4,27.9z M60.5,25.6c-0.1,0-0.1-0.1-0.2-0.1c-0.1-0.1-0.1-0.1-0.1-0.2
		c0-0.2,0.1-0.2,0.2-0.2c0.1,0,0.1,0,0.2,0.1c0.1,0.1,0.1,0.1,0.1,0.2c0,0.1,0,0.1-0.1,0.1C60.6,25.5,60.6,25.5,60.5,25.6
		C60.6,25.6,60.6,25.6,60.5,25.6z M60.6,30.2L60.6,30.2c-0.1,0-0.2-0.1-0.2-0.1c-0.1-0.1-0.1-0.1-0.1-0.2c0-0.1,0-0.1,0.1-0.2
		c0.1-0.1,0.1-0.1,0.2-0.1c0.1,0,0.2,0.1,0.2,0.1c0,0.1,0.1,0.1,0.1,0.1s0,0.1,0,0.1c0,0.1-0.1,0.1-0.1,0.1
		C60.7,30.2,60.6,30.2,60.6,30.2z M60.6,23.3L60.6,23.3c-0.2-0.1-0.2-0.1-0.2-0.1c0-0.1,0-0.1,0-0.1c0-0.1,0.1-0.2,0.2-0.2
		c0.1,0,0.1,0,0.1,0c0.1,0,0.1,0.1,0.2,0.1c0.1,0.1,0.1,0.1,0.1,0.2s-0.1,0.2-0.1,0.2C60.6,23.3,60.6,23.3,60.6,23.3z M60.5,32.5
		c-0.1,0-0.1,0-0.2-0.1c-0.1-0.1-0.1-0.1-0.1-0.2c0-0.2,0.1-0.2,0.2-0.2c0.1,0,0.1,0,0.1,0c0.1,0.1,0.1,0.1,0.1,0.2
		c0,0.1,0,0.1-0.1,0.2C60.6,32.4,60.6,32.5,60.5,32.5z M61.7,29.8v-0.6c0-0.2,0-0.5-0.1-0.9c-0.3,0.3-0.5,0.5-0.7,0.7
		c0.2,0.2,0.3,0.3,0.4,0.3C61.5,29.4,61.6,29.6,61.7,29.8z M61.7,34.3c0-0.5,0.1-0.8,0.1-0.9c0-0.2,0-0.3-0.1-0.5
		c-0.4,0.4-0.6,0.6-0.6,0.7C61.1,33.7,61.3,33.9,61.7,34.3z M61.7,25.1c0,0,0-0.4,0-1.3l-0.6,0.6C61.5,24.9,61.7,25.1,61.7,25.1z
		 M61.7,32c0.1-0.2,0.1-0.7,0.1-1.4c-0.3,0.3-0.5,0.5-0.6,0.7L61.7,32z M61.7,27.3c0,0,0-0.2,0-0.5c0-0.3,0-0.5,0-0.5
		s-0.2,0.2-0.5,0.5C61.5,27.2,61.7,27.3,61.7,27.3z M61.7,22.8c0,0,0-0.2,0-0.6v-0.6l-0.3,0.3c-0.2,0.2-0.2,0.3-0.2,0.3
		c0,0.1,0.1,0.2,0.3,0.3C61.6,22.7,61.7,22.8,61.7,22.8z"/>
	<path class="st0" d="M69.6,35.3c-0.9,0-1.3,0-1.4,0c-0.1-0.1-0.1-0.1-0.1-0.2V35c0-0.2,0.1-0.2,0.2-0.2c0.1,0,0.1,0,0.2,0
		c0.2,0,0.4,0,0.6-0.1c0-0.2,0.1-1.1,0.1-2.4c0-2,0-5.6-0.1-11c-0.4,0-0.6,0-0.7,0c-0.1,0-0.2,0-0.2-0.1s-0.1-0.1-0.1-0.2
		s0-0.2,0.1-0.2s0.3-0.1,0.9-0.1h0.5c3.2,0,4.8,0,4.9,0.1c0.2,0.1,0.2,0.1,0.2,0.3c0,0.1-0.1,0.2-0.2,0.2c-0.1,0-0.3,0-0.9,0v1.8
		c0,0.7,0,1.4-0.1,2.2c0,0.5,0,1,0,1.3c0,0.4,0,0.7,0,1c0,0.5,0.1,1.8,0.1,3.9v3.1l0.7,0.1c0.2,0,0.3,0.1,0.3,0.2V35
		c0,0.1-0.1,0.1-0.1,0.1c-0.1,0-0.3,0.1-0.7,0.1C73.5,35.3,72.1,35.3,69.6,35.3z M69.7,25.6c0,0,0.1-0.1,0.3-0.2
		c0.6-0.5,0.9-1,0.9-1.8v-0.2c0-0.6-0.2-1.1-0.6-1.5c-0.1-0.1-0.1-0.1-0.2-0.2c-0.1-0.1-0.2-0.1-0.2-0.2c-0.1-0.1-0.1-0.1-0.2-0.1
		c0,0,0,0.1,0,0.2s0,0.2,0,0.2l0.1,0.1c0.2,0.1,0.3,0.2,0.5,0.4c0.2,0.3,0.3,0.6,0.3,0.9c0,0.1,0,0.3-0.1,0.5
		c-0.1,0.4-0.3,0.7-0.5,0.9c-0.1,0.1-0.2,0.1-0.2,0.2c-0.1,0-0.1,0.1-0.1,0.3C69.7,25.5,69.7,25.6,69.7,25.6z M69.7,24.4l0.1-0.1
		c0.1-0.1,0.1-0.2,0.2-0.4c0.1-0.2,0.1-0.3,0.1-0.4c0-0.2-0.1-0.5-0.3-0.7L69.7,24.4L69.7,24.4z M69.7,30.2c0.1-0.1,0.3-0.2,0.4-0.4
		c0.3-0.4,0.5-0.7,0.5-1s0.1-0.5,0.1-0.7c0-0.3-0.1-0.6-0.2-0.9c-0.1-0.1-0.2-0.2-0.3-0.4s-0.2-0.3-0.3-0.4s-0.2-0.2-0.2-0.2
		c0,0,0,0.1,0,0.2c0,0.2,0,0.2,0,0.2l0.1,0.1c0.2,0.1,0.3,0.3,0.5,0.6c0.1,0.2,0.2,0.5,0.2,0.7c0,0.4-0.2,0.8-0.5,1.1l-0.2,0.2
		L69.7,30.2L69.7,30.2z M69.7,28.7c0.1,0,0.1-0.1,0.1-0.2c0.1-0.1,0.1-0.2,0.1-0.3c0-0.1,0-0.2-0.1-0.3c-0.1-0.2-0.1-0.2-0.1-0.3
		c0,0-0.1,0.2-0.1,0.5C69.7,28.5,69.7,28.7,69.7,28.7z M69.7,34.6c0.3-0.2,0.6-0.5,0.8-0.9c0.1-0.2,0.2-0.5,0.3-0.7
		c0.1-0.2,0.1-0.3,0.1-0.5c0-0.5-0.2-1-0.5-1.3c-0.3-0.3-0.5-0.5-0.6-0.5c-0.1,0-0.1,0.1-0.1,0.3c0,0.1,0,0.1,0,0.1
		c0,0.1,0.1,0.1,0.1,0.2c0.3,0.3,0.5,0.8,0.5,1.4c0,0.3-0.1,0.5-0.1,0.6c-0.1,0.2-0.2,0.3-0.3,0.5l-0.2,0.2v0.5H69.7z M69.7,33.3
		c0.1-0.1,0.1-0.3,0.1-0.6c0-0.4-0.1-0.6-0.1-0.6c0,0,0,0.2,0,0.6C69.7,33.2,69.7,33.3,69.7,33.3z M72,28.6c0,0,0.3-0.3,0.8-0.8
		l-2.3-2.3l-0.4,0.3l0.2,0.2c0.5,0.5,0.8,1,0.9,1.6l0.1,0.3C71.6,28.3,71.8,28.4,72,28.6C72,28.6,72,28.6,72,28.6z M72.1,33.3
		c0,0,0.2-0.1,0.4-0.4c0.2-0.2,0.3-0.3,0.3-0.4c0,0-0.2-0.2-0.5-0.5c-1.1-1.3-1.7-1.9-1.8-1.9c0,0,0,0-0.1,0.1
		c-0.1,0.1-0.1,0.1-0.3,0.3c0.2,0.2,0.4,0.3,0.6,0.5c0.2,0.3,0.4,0.6,0.5,0.9c0.1,0.2,0.1,0.3,0.1,0.5c0,0.1,0.1,0.2,0.1,0.3
		c0.2,0.2,0.3,0.3,0.5,0.5C72,33.3,72.1,33.3,72.1,33.3z M72.1,24.1c0,0,0.2-0.1,0.4-0.4c0.2-0.3,0.4-0.4,0.4-0.4s-0.1-0.1-0.2-0.2
		c-0.1-0.1-0.3-0.3-0.5-0.5c-0.2-0.2-0.7-0.6-1.4-1.3l-0.4-0.1l0.2,0.3c0.4,0.4,0.6,0.9,0.7,1.4l0.1,0.3
		C71.8,23.9,72.1,24.1,72.1,24.1z M72.2,34.7c0.2,0,0.3,0,0.3,0s-0.1-0.1-0.2-0.2c-0.1-0.1-0.3-0.3-0.5-0.5s-0.3-0.3-0.5-0.5
		c-0.1-0.1-0.2-0.2-0.2-0.2s-0.1,0.1-0.1,0.2c-0.2,0.4-0.4,0.8-0.7,1.1l0.9,0.1c0.1,0,0.1-0.1,0.1-0.1s0-0.1,0.1-0.2
		s0.1-0.1,0.2-0.1c0.1,0,0.1,0,0.2,0.1c0.1,0.1,0.1,0.1,0.1,0.2v0.1C71.9,34.7,72.2,34.7,72.2,34.7z M72.1,26.5
		c0.1,0,0.3-0.2,0.8-0.7c-0.2-0.3-0.6-0.7-1.4-1.5c-0.1-0.1-0.2-0.2-0.2-0.2s0,0,0,0.1s0,0.1-0.1,0.2c0,0.1-0.1,0.2-0.1,0.3
		C71.1,24.8,71,24.9,71,25c-0.1,0.1-0.1,0.2-0.1,0.2C70.9,25.2,71.3,25.6,72.1,26.5z M72.1,31c0.2-0.2,0.3-0.4,0.5-0.5
		s0.2-0.2,0.2-0.2S72.5,30,72,29.4s-0.8-0.7-0.8-0.7s-0.1,0.1-0.1,0.2s-0.1,0.3-0.2,0.5c-0.1,0.2-0.1,0.3-0.1,0.3
		C70.9,29.6,71.3,30.1,72.1,31z M72.1,21.9c0.3-0.3,0.4-0.5,0.4-0.5s-0.2-0.1-0.5-0.1h-0.5L72.1,21.9z M71.8,27.9
		c-0.1,0-0.1,0-0.2-0.1s-0.1-0.1-0.1-0.1c0-0.1,0-0.1,0.1-0.2c0.1-0.1,0.1-0.1,0.2-0.1h0.1c0.1,0.1,0.1,0.1,0.1,0.2
		C72.1,27.8,72,27.9,71.8,27.9z M71.8,25.6c-0.1,0-0.1-0.1-0.2-0.1c-0.1-0.1-0.1-0.1-0.1-0.2c0-0.2,0.1-0.2,0.2-0.2
		c0.1,0,0.1,0,0.2,0.1c0.1,0.1,0.1,0.1,0.1,0.2s0,0.1-0.1,0.1C72,25.5,72,25.5,71.8,25.6C71.8,25.6,71.9,25.6,71.8,25.6z M71.9,30.2
		L71.9,30.2c-0.1,0-0.1,0-0.2-0.1c-0.1-0.1-0.1-0.1-0.1-0.2c0-0.1,0-0.1,0.1-0.1c0.1-0.1,0.1-0.1,0.2-0.1s0.2,0.1,0.2,0.1
		c0,0.1,0.1,0.1,0.1,0.1c0,0.1,0,0.1-0.1,0.2C72,30.2,72,30.2,71.9,30.2z M71.9,23.3C71.8,23.3,71.8,23.3,71.9,23.3
		c-0.2-0.1-0.2-0.1-0.2-0.1c0-0.1,0-0.1,0-0.1c0-0.1,0.1-0.2,0.2-0.2c0.1,0,0.1,0,0.1,0c0.1,0,0.1,0.1,0.2,0.1
		c0.1,0.1,0.1,0.1,0.1,0.2s-0.1,0.2-0.1,0.2S72,23.3,71.9,23.3z M71.9,32.5c-0.1,0-0.1,0-0.2-0.1c-0.1-0.1-0.1-0.1-0.1-0.2
		c0-0.2,0.1-0.2,0.2-0.2c0.1,0,0.1,0,0.1,0c0.1,0.1,0.1,0.1,0.1,0.2c0,0.1,0,0.1-0.1,0.2S72,32.5,71.9,32.5z M73.1,29.8
		c0-0.1,0-0.3,0-0.4s0-0.2,0-0.4c0-0.1,0-0.3-0.1-0.7c-0.3,0.3-0.5,0.5-0.7,0.7c0.2,0.2,0.3,0.3,0.4,0.3
		C72.9,29.4,73,29.6,73.1,29.8z M73.1,34.4c0-0.5,0.1-0.8,0.1-0.9c0-0.2,0-0.3-0.1-0.5c-0.4,0.5-0.6,0.6-0.6,0.7
		C72.5,33.7,72.7,34,73.1,34.4z M73.1,25.1c0,0,0-0.4,0-1.3l-0.6,0.6C72.9,24.9,73.1,25.1,73.1,25.1z M73.1,32
		c0.1-0.2,0.1-0.7,0.1-1.4c-0.3,0.3-0.5,0.5-0.6,0.7L73.1,32z M73,27.3c0,0,0.1-0.2,0.1-0.5c0-0.3,0-0.5-0.1-0.5
		c-0.1,0-0.2,0.2-0.5,0.5C72.9,27.2,73,27.3,73,27.3z M73.1,22.8c0,0,0-0.4,0-1.2l-0.3,0.3c-0.2,0.2-0.2,0.3-0.2,0.3
		s0.1,0.2,0.3,0.3C73,22.7,73.1,22.8,73.1,22.8z"/>
</g>
</svg>
