<?xml version="1.0" encoding="UTF-8"?>
<svg id="Layer_1" xmlns="http://www.w3.org/2000/svg" version="1.1" viewBox="0 0 24 24">
  <!-- Generator: Adobe Illustrator 29.0.0, SVG Export Plug-In . SVG Version: 2.1.0 Build 186)  -->
  <path d="M22.8,7.4l-.8-.4c-.4-.2-1,0-1.2.3l-1.1,1.9,2.3,1.3,1.1-1.9c.2-.4,0-1-.3-1.2h0Z"/>
  <path d="M15.4,16.7c0,0,0,.1,0,.2l-.6,2.7c-.1.5.5.9.9.5l2-1.9s0,0,.1-.1l3.7-6.4-2.3-1.3-3.7,6.4Z"/>
  <path d="M18.5,19.1l-2,1.9c-.3.3-.8.5-1.3.5h0c-.6,0-1.1-.3-1.5-.7-.1-.2-.2-.4-.3-.6h-5.6c-.4,0-.7-.3-.7-.7s.3-.7.7-.7h5.6l.5-2.3c0-.2.1-.4.2-.5l3.2-5.5h-9.4l-2.5-1.6c-.4-.3-1,0-1,.5v11.4c0,1.3,1.1,2.4,2.4,2.4h10c1.3,0,2.4-1.1,2.4-2.4v-3.2l-.6,1c0,.2-.2.3-.4.4ZM7.9,13.6h4.7c.4,0,.7.3.7.7s-.3.7-.7.7h-4.7c-.4,0-.7-.3-.7-.7s.3-.7.7-.7h0ZM7.9,16.2h4.7c.4,0,.7.3.7.7s-.3.7-.7.7h-4.7c-.4,0-.7-.3-.7-.7s.3-.7.7-.7h0Z"/>
  <path d="M5.5,6.8c.1,0,.2,0,.3-.1.2-.1.3-.3.2-.6l-.3-1.5,1.1-1c.2-.2.2-.4.1-.6,0-.2-.2-.4-.5-.4l-1.5-.2-.7-1.3c0-.2-.3-.3-.5-.3s-.4.1-.5.3l-.7,1.3-1.5.2c-.2,0-.4.2-.5.4,0,.2,0,.4.1.6l1.1,1-.3,1.5c0,.2,0,.4.2.6.2.1.4.1.6,0l1.3-.7,1.3.7c0,0,.2,0,.3,0h0Z"/>
  <path d="M9,4.7l-.3,1.5c0,.2,0,.4.2.6s.4.1.6,0l1.3-.7,1.3.7c.2.1.4,0,.6,0,.2-.1.3-.3.2-.6l-.3-1.5,1.1-1c.2-.2.2-.4.1-.6s-.2-.4-.5-.4l-1.5-.2-.7-1.3c0-.2-.3-.3-.5-.3s-.4.1-.5.3l-.7,1.3-1.5.2c-.2,0-.4.2-.5.4,0,.2,0,.4.1.6l1.1,1Z"/>
  <path d="M15.9,4.7l-.3,1.5c0,.2,0,.4.2.6.2.1.4.1.6,0l1.3-.7,1.3.7c.2.1.4,0,.6,0,.2-.1.3-.3.2-.6l-.3-1.5,1.1-1c.2-.2.2-.4.1-.6,0-.2-.2-.4-.5-.4l-1.5-.2-.7-1.3c0-.2-.3-.3-.5-.3s-.4.1-.5.3l-.7,1.3-1.5.2c-.2,0-.4.2-.5.4s0,.4.1.6l1.1,1Z"/>
</svg>