<?xml version="1.0" encoding="UTF-8"?>
<svg id="Layer_1" xmlns="http://www.w3.org/2000/svg" version="1.1" viewBox="0 0 24 24">
  <!-- Generator: Adobe Illustrator 29.0.0, SVG Export Plug-In . SVG Version: 2.1.0 Build 186)  -->
  <path d="M13.4,2.2c0-.8-.6-1.4-1.4-1.4-1.9,0-1.9,2.7,0,2.8.8,0,1.4-.6,1.4-1.4Z"/>
  <path d="M16.4,14.1l-3.3,2.7c-.1,0-.3.1-.4.1h-4.9c-.4,0-.7-.3-.7-.6,0-.4.3-.7.7-.7h2.8c.8,0,1.5-.7,1.4-1.5h-7.2c-.6.7-1.1,1.6-1.1,2.6l-2.6,2.6c-.3.3-.3.7,0,.9l2.8,2.8c.3.3.7.3.9,0l2.6-2.6,6.1-.7c.1,0,.2,0,.3-.1l4.8-3.9c.5-.4.7-1,.6-1.6h-2.8Z"/>
  <path d="M12,3.6c-4.2,0-7.8,2.7-9.2,6.5h18.4c-1.3-3.8-5-6.5-9.2-6.5Z"/>
  <path d="M22.5,11.4H1.5c-.4,0-.7.3-.7.7s.3.7.7.7h21c.9,0,.9-1.3,0-1.3Z"/>
</svg>