<?xml version="1.0" encoding="utf-8"?>
<!-- Generator: Adobe Illustrator 28.2.0, SVG Export Plug-In . SVG Version: 6.00 Build 0)  -->
<svg version="1.1" id="Layer_1" xmlns="http://www.w3.org/2000/svg" xmlns:xlink="http://www.w3.org/1999/xlink" x="0px" y="0px"
	 viewBox="0 0 27.8 27.9" style="enable-background:new 0 0 27.8 27.9;" xml:space="preserve">
<style type="text/css">
	.st0{fill:#FC8019;}
</style>
<path class="st0" d="M13.9,21.7C13.9,21.7,13.9,21.7,13.9,21.7c-0.2-0.3-1.4-1.7-2.5-3.6c-0.4-0.6-0.6-1.1-0.5-1.2
	c0.1-0.3,2.2-0.5,2.8-0.2c0.2,0.1,0.2,0.2,0.2,0.3c0,0.3,0,1,0,1c0,0.2,0.1,0.3,0.3,0.3c0.2,0,0.3-0.1,0.3-0.3l0-1.9h0
	c0-0.2-0.2-0.2-0.2-0.2c-0.3,0-1,0-1.7,0c-1.6,0-1.9,0.1-2.2-0.1c-0.6-0.4-1.5-3-1.6-4.4c0-2,1.2-3.8,2.9-4.7
	c0.7-0.4,1.5-0.6,2.4-0.6c2.7,0,4.9,2,5.2,4.6c0,0,0,0,0,0c0.1,0.6-3.4,0.8-4.1,0.6c-0.1,0-0.1-0.1-0.1-0.2c0-0.5,0-1.8,0-1.8
	c0-0.2-0.1-0.3-0.3-0.3c-0.2,0-0.3,0.1-0.3,0.3l0,2.5c0,0.2,0.1,0.2,0.2,0.2c0.4,0,1.3,0,2.2,0c1.2,0,1.6,0.1,2,0.4
	c0.2,0.2,0.3,0.5,0.2,0.9C18.2,17,14.1,21.5,13.9,21.7L13.9,21.7z"/>
</svg>
