<?xml version="1.0" encoding="utf-8"?>
<!-- Generator: Adobe Illustrator 16.0.0, SVG Export Plug-In . SVG Version: 6.00 Build 0)  -->
<!DOCTYPE svg PUBLIC "-//W3C//DTD SVG 1.1//EN" "http://www.w3.org/Graphics/SVG/1.1/DTD/svg11.dtd">
<svg version="1.1" id="Layer_1" xmlns="http://www.w3.org/2000/svg" xmlns:xlink="http://www.w3.org/1999/xlink" x="0px" y="0px"
	 width="28px" height="19px" viewBox="0 0 28 19" enable-background="new 0 0 28 19" xml:space="preserve">
<path d="M14,0C7.636,0,2.202,3.939,0,9.5C2.202,15.061,7.636,19,14,19c6.363,0,11.799-3.939,14-9.5C25.799,3.939,20.363,0,14,0z
	 M14,15.834c-3.513,0-6.364-2.838-6.364-6.334S10.487,3.167,14,3.167s6.363,2.837,6.363,6.333S17.513,15.834,14,15.834z M14,5.7
	c-2.113,0-3.818,1.697-3.818,3.8s1.706,3.8,3.818,3.8c2.113,0,3.818-1.697,3.818-3.8S16.113,5.7,14,5.7z"/>
</svg>
