<?xml version="1.0" encoding="UTF-8"?>
<svg id="Layer_1" xmlns="http://www.w3.org/2000/svg" version="1.1" viewBox="0 0 19 17.6">
  <!-- Generator: Adobe Illustrator 29.0.0, SVG Export Plug-In . SVG Version: 2.1.0 Build 186)  -->
  <defs>
    <style>
      .st0 {
        fill: #010101;
      }

      .st1 {
        fill: #040404;
      }

      .st1, .st2 {
        fill-rule: evenodd;
      }

      .st2 {
        fill: #020202;
      }
    </style>
  </defs>
  <g>
    <path class="st2" d="M4,14.1c.5-2.4,1.2-4.8,1.6-7.2.1-.6.4-.9,1.1-.8,1.3.2,2.4.5,3,1.8.5.9,1.1,1.8,1.8,2.7.3-1.2,2.3-2.6,2.3-2.6,0,0,2.2,0,3.8,0-.4.8-1.1,1-1.8,1.1-1.2.2-1.8.9-2.3,2-.3.6-.6,1.3-1,1.9-.6,1-1.2,1.1-2.1.2-.3-.3-.5-.6-.8-.9-.2-.3-.5-.5-.8-.9-.3,1.3-.1,2.6-.2,3.8,0,1.9-.6,2.5-2.5,2.5-1.3,0-2.7,0-4,0-1.4,0-2.2-.7-2.2-2.1C0,12.8,0,10.1,0,7.4c0-1,.6-1,1.3-1.2.8-.2.8.4.9.9.5,2.3,1.3,4.7,1.8,7,0,0,0,0,0,0Z"/>
    <path class="st1" d="M6.4,2.9c0,1.6-1.2,2.8-2.9,2.8-1.6,0-2.8-1.2-2.8-2.9C.8,1.1,2,0,3.7,0c1.6,0,2.8,1.2,2.8,2.9Z"/>
  </g>
  <path class="st0" d="M18,5.7c0-1.4-1-2.5-2.3-2.7.1-.1.2-.3.2-.4,0-.3-.3-.6-.6-.6s-.6.3-.6.6,0,.3.2.4c-1.3.2-2.3,1.4-2.3,2.7h-1v1.8h7.6v-1.8h-1Z"/>
  <g>
    <polygon class="st0" points="3.7 6.2 2.3 6.5 2.3 5.7 3.7 5.9 3.7 6.2"/>
    <polygon class="st0" points="4 6.2 5.4 6.5 5.4 5.7 4 5.9 4 6.2"/>
  </g>
</svg>