<?xml version="1.0" encoding="utf-8"?>
<!-- Generator: Adobe Illustrator 28.2.0, SVG Export Plug-In . SVG Version: 6.00 Build 0)  -->
<svg version="1.1" id="Layer_1" xmlns="http://www.w3.org/2000/svg" xmlns:xlink="http://www.w3.org/1999/xlink" x="0px" y="0px"
	 viewBox="0 0 27.8 27.9" style="enable-background:new 0 0 27.8 27.9;" xml:space="preserve">
<style type="text/css">
	.st0{fill:#E23844;}
	.st1{fill:#FFFFFF;}
</style>
<g>
	<path class="st0" d="M5.1,4.7h17.6c0.3,0,0.5,0.2,0.5,0.5v17.6c0,0.3-0.2,0.5-0.5,0.5H5.1c-0.3,0-0.5-0.2-0.5-0.5V5.1
		C4.6,4.9,4.8,4.7,5.1,4.7L5.1,4.7z"/>
	<path class="st1" d="M19.3,14.8l-0.1,0.6c-0.2,0.1-0.4,0.2-0.8,0.2c-0.6,0-0.7-0.3-0.6-0.9l0.1-1h-0.3l0.1-0.7l0.3,0l0.1-0.5
		l0.9-0.3L19,13h0.6c0,0.1-0.1,0.5-0.1,0.7h-0.6l-0.1,0.9c0,0.2,0,0.3,0.2,0.3C19,15,19.2,14.9,19.3,14.8L19.3,14.8z M14.9,13.8
		c0.1-0.4,0-0.8-0.5-0.8c-0.4,0-0.7,0.3-1,0.8c0.1-0.4,0-0.8-0.5-0.8c-0.4,0-0.8,0.3-1,0.8c0.1-0.3,0.1-0.7,0-0.8
		c-0.3,0-0.5,0.1-0.9,0.1c0,0.2,0,0.5,0,0.8l-0.1,0.8c0,0.3-0.1,0.7-0.1,0.9h0.9c0-0.1,0-0.3,0.1-0.5l0.1-0.5
		c0.1-0.3,0.3-0.8,0.6-0.8c0.1,0,0.1,0.1,0.1,0.3l-0.1,0.6c0,0.3-0.1,0.7-0.1,0.9h0.9c0-0.1,0-0.3,0.1-0.5l0.1-0.5
		c0.1-0.3,0.3-0.8,0.6-0.8c0.1,0,0.1,0.1,0.1,0.3l-0.2,1.6h0.8L14.9,13.8L14.9,13.8z M22,14.1c0,0.9-0.6,1.6-1.4,1.6
		c-0.7,0-1.1-0.5-1.1-1.1c0-0.9,0.6-1.6,1.4-1.6C21.7,12.9,22,13.4,22,14.1L22,14.1z M20.4,14.5c0,0.3,0.1,0.5,0.3,0.5
		c0.2,0,0.4-0.4,0.4-0.8c0-0.3-0.1-0.5-0.3-0.5C20.6,13.7,20.4,14,20.4,14.5L20.4,14.5z M10.7,14.1c0,0.9-0.6,1.6-1.4,1.6
		c-0.7,0-1.1-0.5-1.1-1.1c0-0.9,0.6-1.6,1.4-1.6C10.4,13,10.7,13.5,10.7,14.1L10.7,14.1z M9.1,14.5c0,0.3,0.1,0.5,0.3,0.5
		c0.2,0,0.4-0.4,0.4-0.8c0-0.3-0.1-0.5-0.3-0.5C9.3,13.7,9.1,14,9.1,14.5L9.1,14.5z M8.2,13l0,0.5L7,14.8c0.5,0,0.8,0,1,0
		c-0.1,0.3-0.1,0.5-0.1,0.8c-0.2,0-0.6,0-1,0c-0.4,0-0.8,0-1.1,0l0-0.5L7,13.8c-0.5,0-0.7,0-1,0c0-0.2,0.1-0.5,0.1-0.8
		c0.4,0,0.5,0,1.1,0C7.7,13.1,8,13.1,8.2,13L8.2,13z"/>
	<path class="st1" d="M15.8,15.6c-0.4,0.1-0.7-0.1-0.8-0.5c-0.1-0.2,0-0.5,0.2-0.7c0.2-0.2,0.5-0.4,0.8-0.4c0.3,0,0.5,0,0.7,0l0,0
		c0-0.1,0-0.1,0-0.2c0-0.2-0.2-0.3-0.5-0.3c-0.2,0-0.5,0.1-0.7,0.2l-0.2-0.5c0.2-0.1,0.6-0.2,0.9-0.3c0.7-0.1,1.2,0.1,1.2,0.6
		c0,0.1,0,0.3,0,0.4c-0.1,0.6-0.1,1.1-0.2,1.4c0,0,0,0.1,0,0.2h-0.8c0,0,0-0.1,0-0.2c0-0.1,0-0.1,0-0.2
		C16.4,15.4,16.1,15.6,15.8,15.6L15.8,15.6z M16.1,15.1c0.3,0,0.5-0.3,0.6-0.6l0-0.1c-0.1,0-0.3-0.1-0.5,0c-0.2,0-0.3,0.1-0.4,0.2
		c-0.1,0.1-0.1,0.2-0.1,0.3C15.7,15,15.9,15.2,16.1,15.1L16.1,15.1z"/>
</g>
</svg>
