<?xml version="1.0" encoding="UTF-8"?>
<svg id="Layer_1" xmlns="http://www.w3.org/2000/svg" version="1.1" viewBox="0 0 512 512">
  <!-- Generator: Adobe Illustrator 29.0.0, SVG Export Plug-In . SVG Version: 2.1.0 Build 186)  -->
  <defs>
    <style>
      .st0 {
        fill: none;
      }

      .st1 {
        fill-rule: evenodd;
      }
    </style>
  </defs>
  <g id="Layer_x5F_1">
    <path class="st0" d="M-73-73h658v658H-73V-73Z"/>
    <path class="st1" d="M118.6,131.4v329c0,9.5,9.5,25.5,15.9,31.9,3.1,3.1,9.5,9.5,15.9,12.8,3.1,0,12.8,3.1,19.2,3.1h172.5c15.9,0,35.2-12.8,44.7-28.8,3.1-6.4,3.1-12.8,3.1-19.2v-172.5c0-12.8-3.1-25.5-9.5-31.9-6.4-9.5-12.8-12.8-25.5-19.2-3.1-3.1-9.5-3.1-15.9-3.1l-48-15.9c-15.9-3.1-57.5-12.8-67.1-19.2-41.6-19.2-38.3-83-6.4-108.6,15.9-12.8,38.3-19.2,60.7-9.5,19.2,6.4,35.2,22.4,38.3,41.6,3.1,12.8,0,19.2,9.5,28.8,22.4,31.9,95.8,12.8,51.1-73.5C358.1,35.5,310.2,3.6,262.3,3.6s-41.6,0-63.9,12.8c-31.9,12.8-51.1,35.2-67.1,63.9-3.1,12.8-12.8,31.9-12.8,51.1h.1ZM201.8,355.1c0,12.8-3.1,28.8,9.5,28.8h89.4c12.8,0,9.5-15.9,9.5-28.8s-3.1-9.5-9.5-9.5h-89.4c-6.4,0-9.5,3.1-9.5,9.5ZM256,268.8c51.1,0,95.8,44.7,95.8,95.8s-44.7,95.8-95.8,95.8-95.8-44.7-95.8-95.8,44.7-95.8,95.8-95.8h0Z"/>
  </g>
</svg>