<?xml version="1.0" encoding="utf-8"?>
<!-- Generator: Adobe Illustrator 28.2.0, SVG Export Plug-In . SVG Version: 6.00 Build 0)  -->
<svg version="1.1" id="Layer_1" xmlns="http://www.w3.org/2000/svg" xmlns:xlink="http://www.w3.org/1999/xlink" x="0px" y="0px"
	 viewBox="0 0 19.5 27.9" style="enable-background:new 0 0 19.5 27.9;" xml:space="preserve">
<g>
	<path d="M6.4,14H3.3c-0.3,0-0.6,0.2-0.6,0.6c0,0.3,0.2,0.6,0.6,0.6h3.1C6.7,15.2,7,15,7,14.6C7,14.1,6.8,14,6.4,14z"/>
	<path d="M17.7,7.9c0-2.6-2.1-4.7-4.7-4.7c-2,0-3.8,1.3-4.5,3.2H3.2C1.4,6.4,0,7.9,0,9.6v10.8C0,20.7,0.3,21,0.6,21
		c0.2,0,0.3-0.1,0.4-0.2l2.2-2.6h10.3c1.8,0,3.2-1.5,3.2-3.2v-4.2C17.3,10.1,17.7,9,17.7,7.9z M10.3,7.1C10.3,7,10.6,7,10.7,7
		l1.5-0.2l0.6-1.4C12.9,5.3,13,5.2,13,5.2c0.2,0,0.2,0.1,0.2,0.2l0.7,1.5l1.5,0.2c0.2,0,0.2,0.1,0.2,0.2s-0.1,0.2-0.2,0.2l-1.2,1
		l0.2,1.7c0,0.2,0.1,0.3-0.1,0.3c-0.1,0-0.2,0-0.3-0.1l-1.3-0.7l-1.3,0.7c-0.1,0.1-0.3,0.1-0.3,0C11,10.3,11,10.2,11,10.2l0.4-1.7
		l-1-1.1C10.3,7.3,10.3,7.3,10.3,7.1z M13.5,16.9H3.3H2.6l-0.3,0.5l-1.1,1.1V9.6c0-1.1,0.9-1.9,1.9-1.9h5c0,0.2,0.1,0.5,0.2,0.7
		c0,0.2,0.1,0.5,0.2,0.8h-5c-0.4,0-0.7,0.2-0.7,0.5s0.2,0.6,0.6,0.6H9c0.2,0.4,0.7,0.8,1.1,1.2H3.4c-0.3,0-0.6,0.2-0.6,0.6
		s0.2,0.6,0.6,0.6h7.5c0.2,0,0.4-0.2,0.6-0.3c0.5,0.2,1.1,0.3,1.7,0.3c0.9,0,1.7-0.2,2.5-0.7v3C15.4,16.1,14.6,16.9,13.5,16.9z"/>
</g>
</svg>
