<?xml version="1.0" encoding="UTF-8"?>
<svg id="Layer_1" xmlns="http://www.w3.org/2000/svg" version="1.1" viewBox="0 0 24 24">
  <!-- Generator: Adobe Illustrator 29.0.0, SVG Export Plug-In . SVG Version: 2.1.0 Build 186)  -->
  <path d="M15.2,12.2c-1.7,0-3,1.4-3,3v.6h6.1v-.6c0-1.7-1.4-3-3-3Z"/>
  <path d="M7.9,22.6h14.6V6.7H7.9v15.9ZM19.4,20.7h-8.5v-1.2h8.5v1.2ZM9.7,15.9h1.2v-.6c0-2.1,1.6-3.9,3.6-4.2v-1.3h1.2v1.3c2.1.3,3.6,2.1,3.6,4.2v.6h1.2v1.2h-10.9v-1.2Z"/>
  <path d="M6.7,5.5l7.3-3.6H1.8v15.8h4.9V5.5Z"/>
  <path d="M14,3.2l-4.6,2.3h4.6v-2.3Z"/>
</svg>