<?xml version="1.0" encoding="utf-8"?>
<!-- Generator: Adobe Illustrator 28.2.0, SVG Export Plug-In . SVG Version: 6.00 Build 0)  -->
<svg version="1.1" id="Layer_1" xmlns="http://www.w3.org/2000/svg" xmlns:xlink="http://www.w3.org/1999/xlink" x="0px" y="0px"
	 viewBox="0 0 27.8 27.9" style="enable-background:new 0 0 27.8 27.9;" xml:space="preserve">
<style type="text/css">
	.st0{enable-background:new    ;}
</style>
<g>
	<g class="st0">
		<path d="M6.4,15.7l-1.2-3.4h0.7l1.1,3H6.6l1.1-3h0.7l1.1,3H9.2l1.1-3H11l-1.3,3.4H9l-1-2.6h0.2l-1,2.6C7.2,15.7,6.4,15.7,6.4,15.7
			z"/>
		<path d="M12.2,15.7L11,12.3h0.7l1.1,3h-0.4l1.1-3h0.7l1.1,3H15l1.1-3h0.7l-1.3,3.4h-0.8l-1-2.6H14l-1,2.6
			C13,15.7,12.2,15.7,12.2,15.7z"/>
		<path d="M18,15.7l-1.2-3.4h0.7l1.1,3h-0.4l1.1-3H20l1.1,3h-0.3l1.1-3h0.7l-1.3,3.4h-0.8l-1-2.6h0.2l-1,2.6
			C18.7,15.7,18,15.7,18,15.7z"/>
	</g>
	<path d="M16.9,25.3c0.8-1.6,1.5-3.7,1.8-6.2h2.7v-0.8h-16c-2.5,0-4.5-2-4.5-4.5s2-4.5,4.5-4.5h16.9c2.5,0,4.5,2,4.5,4.5
		c0,2-1.3,3.7-3.1,4.3l2.3,2.3c0.3-0.6,0.6-1.3,0.9-1.9v-0.1c0.5-1.4,0.8-3,0.8-4.6s-0.3-3.1-0.8-4.6V9.1C25,3.8,19.8,0,13.8,0
		S2.7,3.8,0.8,9.2v0.1c-0.5,1.4-0.8,3-0.8,4.6s0.3,3.1,0.8,4.6v0.1c1.9,5.3,7,9.2,13,9.2c2.7,0,5.2-0.8,7.4-2.1l0.1-2.5
		C20,24.1,18.6,24.9,16.9,25.3z M24.5,8.6h-5.7c-0.4-2.4-1-4.6-1.8-6.2C20.2,3.3,23,5.6,24.5,8.6z M11.8,5.1c0.7-2.2,1.5-3.1,2-3.1
		s1.4,1,2.1,3.1c0.3,1,0.6,2.2,0.8,3.5h-5.8C11.1,7.3,11.4,6.1,11.8,5.1z M10.7,2.4C9.9,4,9.3,6.1,8.9,8.6H3.2
		C4.7,5.6,7.4,3.3,10.7,2.4z M3.2,19.1h5.7c0.4,2.4,1,4.6,1.8,6.2C7.4,24.4,4.7,22.1,3.2,19.1z M15.9,22.6c-0.7,2.1-1.6,3.1-2.1,3.1
		s-1.4-1-2.1-3.1c-0.3-1-0.6-2.2-0.8-3.5h5.8C16.5,20.4,16.3,21.6,15.9,22.6z"/>
	<polygon points="30.4,26.4 22.5,18.3 22.1,29.7 25.2,27.2 27.1,32.2 28.5,31.7 26.5,26.7 	"/>
</g>
</svg>
