<?xml version="1.0" encoding="UTF-8"?>
<svg id="Layer_1" xmlns="http://www.w3.org/2000/svg" xmlns:xlink="http://www.w3.org/1999/xlink" version="1.1" viewBox="0 0 27.8 27.9">
  <!-- Generator: Adobe Illustrator 29.0.0, SVG Export Plug-In . SVG Version: 2.1.0 Build 186)  -->
  <defs>
    <style>
      .st0, .st1 {
        fill: none;
      }

      .st2 {
        fill: #fff;
      }

      .st1 {
        stroke: #e92675;
        stroke-miterlimit: 10;
      }

      .st3 {
        clip-path: url(#clippath);
      }
    </style>
    <clipPath id="clippath">
      <rect class="st0" x="2.7" y="2.7" width="22.6" height="22.6" rx="1.9" ry="1.9"/>
    </clipPath>
  </defs>
  <g class="st3">
    <g>
      <path class="st2" d="M22.2,12.6c0,5.1-5.9,9.8-7.8,11.1s-.8.2-1.1,0c-1.9-1.3-7.8-5.9-7.8-11.1s3.7-8.3,8.3-8.3,8.3,3.7,8.3,8.3"/>
      <path class="st1" d="M21,12.6c0,4.4-5.1,8.5-6.7,9.6s-.7.2-1,0c-1.6-1.1-6.7-5.2-6.7-9.6s3.2-7.2,7.2-7.2,7.2,3.2,7.2,7.2"/>
      <path class="st1" d="M13.9,7.4c3,0,5.3,2.4,5.3,5.3s-3.6,5.9-4.8,7-.7.2-1,0c-1.3-1-4.8-3.8-4.8-7s2.4-5.3,5.3-5.3"/>
      <path class="st1" d="M17.4,12.6c0,2.1-2.3,4-3.2,4.6s-.4,0-.6,0c-.9-.6-3.2-2.5-3.2-4.6s1.6-3.4,3.4-3.4,3.4,1.5,3.4,3.4"/>
    </g>
  </g>
</svg>