<?xml version="1.0" encoding="UTF-8"?>
<svg id="Layer_1" xmlns="http://www.w3.org/2000/svg" version="1.1" viewBox="0 0 24 24">
  <!-- Generator: Adobe Illustrator 29.0.0, SVG Export Plug-In . SVG Version: 2.1.0 Build 186)  -->
  <path d="M6.4,11.9h-3.1c-.3,0-.6.2-.6.6s.2.6.6.6h3.1c.3,0,.6-.2.6-.6s-.2-.6-.6-.6Z"/>
  <path d="M17.7,5.8c0-2.6-2.1-4.7-4.7-4.7s-3.8,1.3-4.5,3.2H3.2c-1.8,0-3.2,1.5-3.2,3.2v10.8c0,.3.3.6.6.6s.3-.1.4-.2l2.2-2.6h10.3c1.8,0,3.2-1.5,3.2-3.2v-4.2c.6-.7,1-1.8,1-2.9ZM10.3,5h.4l1.5-.2.6-1.4.2-.2q.2,0,.2.2l.7,1.5,1.5.2q.2,0,.2.2c0,.2-.1.2-.2.2l-1.2,1,.2,1.7c0,.2.1.3-.1.3s-.2,0-.3-.1l-1.3-.7-1.3.7c-.1.1-.3.1-.3,0v-.2l.4-1.7-1-1.1v-.3h-.2ZM13.5,14.8H2.6l-.3.5-1.1,1.1V7.5c0-1.1.9-1.9,1.9-1.9h5c0,.2.1.5.2.7,0,.2.1.5.2.8H3.5c-.4,0-.7.2-.7.5s.2.6.6.6h5.6c.2.4.7.8,1.1,1.2H3.4c-.3,0-.6.2-.6.6s.2.6.6.6h7.5c.2,0,.4-.2.6-.3.5.2,1.1.3,1.7.3.9,0,1.7-.2,2.5-.7v3c-.3,1.1-1.1,1.9-2.2,1.9Z"/>
</svg>