<?xml version="1.0" encoding="UTF-8"?>
<svg id="Layer_1" xmlns="http://www.w3.org/2000/svg" xmlns:xlink="http://www.w3.org/1999/xlink" version="1.1" viewBox="0 0 27.8 27.9">
  <!-- Generator: Adobe Illustrator 29.0.0, SVG Export Plug-In . SVG Version: 2.1.0 Build 186)  -->
  <defs>
    <style>
      .st0, .st1, .st2 {
        fill: none;
      }

      .st3 {
        fill: #2e108e;
      }

      .st4 {
        fill: #fff;
      }

      .st1 {
        stroke-width: .2px;
      }

      .st1, .st2 {
        stroke: #e92675;
        stroke-miterlimit: 10;
      }

      .st5 {
        clip-path: url(#clippath);
      }
    </style>
    <clipPath id="clippath">
      <rect class="st0" x="2.7" y="2.7" width="22.6" height="22.6" rx="1.9" ry="1.9"/>
    </clipPath>
  </defs>
  <g class="st5">
    <g>
      <circle class="st3" cx="13.9" cy="13.9" r="25"/>
      <g>
        <path class="st1" d="M21.4,12.8c0,4.7-5.3,8.9-7,10.1s-.7.2-1.1,0c-1.7-1.2-7-5.4-7-10.1s3.4-7.5,7.6-7.5,7.5,3.4,7.5,7.5"/>
        <path class="st1" d="M22.4,12.6c0,5.3-6,10-7.9,11.3s-.8.2-1.1,0c-1.9-1.4-7.9-6.1-7.9-11.3s3.8-8.5,8.5-8.5,8.5,3.8,8.5,8.5"/>
        <path class="st1" d="M23.3,12.5c0,5.8-6.6,11.3-8.8,12.6s-.9.2-1.3,0c-2.1-1.5-8.8-6.8-8.8-12.6S8.6,3,13.9,3s9.5,4.2,9.5,9.5"/>
        <path class="st1" d="M24.3,12.3c0,6.4-7.4,12.2-9.7,13.8-.4.3-1,.3-1.4,0-2.3-1.7-9.6-7.4-9.6-13.8S8.2,1.9,13.9,1.9s10.4,4.6,10.4,10.4"/>
        <path class="st1" d="M25.2,12.1c0,7-8,13.3-10.5,15.1-.5.3-1.1.3-1.5,0-2.5-1.9-10.4-8.2-10.4-15.1S7.7.8,13.9.8s11.3,5.1,11.3,11.3"/>
        <path class="st1" d="M26.1,12c0,7.5-8.7,14.4-11.4,16.4-.5.3-1.1.3-1.6,0C10.3,26.3,1.7,19.5,1.7,12S7.1-.3,13.9-.3s12.2,5.5,12.2,12.2"/>
        <path class="st1" d="M27.1,11.8c0,8.2-9.3,15.5-12.3,17.6-.6.4-1.2.4-1.8,0C10.1,27.3.7,20,.7,11.8S6.6-1.4,13.9-1.4s13.2,5.9,13.2,13.2"/>
        <path class="st1" d="M28,11.6c0,8.7-10,16.6-13.2,18.9-.6.4-1.3.4-1.9,0C9.8,28.2-.3,20.3-.3,11.6S6.1-2.5,13.9-2.5s14.1,6.3,14.1,14.2"/>
        <path class="st1" d="M29,11.4c0,9.3-10.7,17.7-14.1,20.1-.6.4-1.4.4-2,0C9.5,29-1.2,20.6-1.2,11.4S5.6-3.7,13.9-3.7s15.1,6.8,15.1,15.1"/>
        <path class="st1" d="M29.9,11.2c0,9.9-11.3,18.8-14.9,21.4-.6.5-1.5.5-2.2,0-3.6-2.6-14.9-11.5-14.9-21.4S5.1-4.7,13.9-4.7s15.9,7.1,15.9,15.9"/>
        <path class="st1" d="M30.8,11.1c0,10.4-12,19.9-15.8,22.6-.6.5-1.6.5-2.3,0-3.8-2.8-15.8-12.1-15.8-22.6S4.5-5.8,13.9-5.8,30.8,1.8,30.8,11.1"/>
        <path class="st1" d="M31.7,10.9c0,11-12.6,21-16.7,23.9-.7.5-1.7.5-2.4,0-4-2.9-16.7-12.9-16.7-23.9S4-6.9,13.9-6.9,31.7,1,31.7,10.9"/>
      </g>
      <path class="st4" d="M20.9,12.9c0,4.3-5,8.3-6.6,9.4s-.6.2-1,0c-1.6-1.1-6.6-5-6.6-9.4s3.2-7,7-7,7,3.2,7,7"/>
      <path class="st2" d="M19.9,12.9c0,3.7-4.3,7.2-5.7,8.1s-.6.2-.8,0c-1.4-1-5.7-4.4-5.7-8.1s2.7-6.1,6.1-6.1,6.1,2.7,6.1,6.1"/>
      <path class="st2" d="M13.9,8.4c2.5,0,4.5,2,4.5,4.5s-3.1,5-4,5.9-.6.2-.8,0c-1.1-.8-4-3.2-4-5.9s2-4.5,4.5-4.5"/>
      <path class="st2" d="M16.8,12.9c0,1.8-1.9,3.3-2.7,3.9s-.3,0-.5,0c-.7-.5-2.7-2.1-2.7-3.9s1.3-2.9,2.9-2.9,2.9,1.3,2.9,2.9"/>
    </g>
  </g>
</svg>