<?xml version="1.0" encoding="UTF-8"?>
<svg id="Layer_1" xmlns="http://www.w3.org/2000/svg" version="1.1" viewBox="0 0 24 24">
  <!-- Generator: Adobe Illustrator 29.0.0, SVG Export Plug-In . SVG Version: 2.1.0 Build 186)  -->
  <path d="M21.5,1.9H7.4c-.5,0-.9.4-.9.9v7.5H2.5c-.5,0-.9.4-.9.9v7.7c0,2,1.7,3.7,3.7,3.7h13.3c2,0,3.7-1.7,3.7-3.7V2.8c0-.5-.4-.9-.9-.9ZM6.6,19.6c0,.7-.5,1.2-1.2,1.2-1.1,0-1.9-.9-1.9-1.9v-6.8h3.2v7.5ZM10.9,7.3h5.3v1.8h-5.3c-.5,0-.9-.4-.9-.9s.4-.9.9-.9ZM10.9,11.4h5.3v1.8h-5.3c-.5,0-.9-.4-.9-.9s.4-.9.9-.9ZM10.1,16.3c0-.5.4-.9.9-.9h5.3v1.8h-5.3c-.5,0-.9-.4-.9-.9ZM18,17.2h-1.2v-1.8h1.2c.5,0,.9.4.9.9s-.4.9-.9.9ZM18,13.1h-1.2v-1.8h1.2c.5,0,.9.4.9.9s-.4.9-.9.9ZM18,9h-1.2v-1.8h1.2c.5,0,.9.4.9.9s-.4.9-.9.9Z"/>
</svg>