<?xml version="1.0" encoding="UTF-8"?>
<svg id="Layer_1" xmlns="http://www.w3.org/2000/svg" version="1.1" viewBox="0 0 24 24">
  <!-- Generator: Adobe Illustrator 29.0.0, SVG Export Plug-In . SVG Version: 2.1.0 Build 186)  -->
  <path d="M14,1.9H1.8v20.7h20.7V1.9h-8.5ZM3.8,8.5c0-2.8,2.3-5.1,5.1-5.1s5.1,2.3,5.1,5.1-2.3,5.1-5.1,5.1-5.1-2.3-5.1-5.1ZM16.3,17.4v.3c0,1.7-1.3,3-3,3s-3-1.3-3-3-.5-1.1-1-1.1-1,.4-1,1.1h-1.9v.6-.6h0c0-1.8,1.4-3.1,3-3.1s3,1.2,3,2.8v.5c.2.4.5.8,1,.8s1-.5,1-1.1v-.3h1.9ZM20.1,16.5h-7.2v-.4h1.7v-4h1.9v4h1.6v-6.6h0,2.1v7Z"/>
  <path d="M11.9,8.6c0-1.7-1.3-3-3-3s-3,1.4-3,3,1.3,3,3,3,3-1.3,3-3Z"/>
</svg>