<?xml version="1.0" encoding="utf-8"?>
<!-- Generator: Adobe Illustrator 28.2.0, SVG Export Plug-In . SVG Version: 6.00 Build 0)  -->
<svg version="1.1" id="Layer_1" xmlns="http://www.w3.org/2000/svg" xmlns:xlink="http://www.w3.org/1999/xlink" x="0px" y="0px"
	 viewBox="0 0 27.8 27.9" style="enable-background:new 0 0 27.8 27.9;" xml:space="preserve">
<g>
	<path d="M10.9,16.2H7.2c-0.4,0-0.7,0.3-0.7,0.7c0,0.4,0.3,0.7,0.7,0.7H11c0.4,0,0.7-0.3,0.7-0.7C11.7,16.4,11.4,16.2,10.9,16.2z"/>
	<path d="M24.6,8.9c0-3.1-2.5-5.7-5.7-5.7c-2.4,0-4.6,1.6-5.4,3.9H7.1c-2.2,0-3.9,1.8-3.9,3.9v13.1c0,0.4,0.4,0.7,0.7,0.7
		c0.2,0,0.4-0.1,0.5-0.3l2.6-3.1h12.4c2.2,0,3.9-1.8,3.9-3.9v-5.1C24.1,11.5,24.6,10.2,24.6,8.9z M15.7,7.9c0-0.1,0.3-0.1,0.4-0.1
		l1.8-0.3l0.8-1.7c0.1-0.1,0.2-0.2,0.3-0.2c0.2,0,0.3,0.1,0.3,0.2l0.8,1.8l1.8,0.3c0.2,0,0.3,0.1,0.3,0.2c0,0.1-0.1,0.3-0.2,0.3
		l-1.4,1.2l0.3,2.1c0,0.2,0.1,0.4-0.1,0.4c-0.1,0-0.3,0-0.4-0.1l-1.6-0.9l-1.6,0.9c-0.1,0.1-0.4,0.1-0.4,0c-0.1-0.1-0.1-0.2-0.1-0.3
		l0.5-2L16,8.4C15.7,8.2,15.7,8.1,15.7,7.9z M19.5,19.8H7.2H6.4L6,20.4l-1.3,1.3V10.9c0-1.3,1.1-2.3,2.3-2.3h6
		c0,0.3,0.1,0.6,0.2,0.8c0,0.3,0.1,0.6,0.2,1H7.3c-0.4,0-0.7,0.3-0.7,0.7c0,0.4,0.3,0.7,0.7,0.7h6.8c0.3,0.5,0.8,1,1.3,1.4H7.3
		c-0.4,0-0.7,0.3-0.7,0.7c0,0.4,0.3,0.7,0.7,0.7h9.1c0.3,0,0.5-0.2,0.7-0.4c0.6,0.3,1.3,0.4,2,0.4c1.1,0,2.1-0.3,3-0.8v3.7
		C21.8,18.8,20.8,19.8,19.5,19.8z"/>
</g>
</svg>
