<?xml version="1.0" encoding="utf-8"?>
<!-- Generator: Adobe Illustrator 16.0.0, SVG Export Plug-In . SVG Version: 6.00 Build 0)  -->
<!DOCTYPE svg PUBLIC "-//W3C//DTD SVG 1.1//EN" "http://www.w3.org/Graphics/SVG/1.1/DTD/svg11.dtd">
<svg version="1.1" id="Layer_1" xmlns="http://www.w3.org/2000/svg" xmlns:xlink="http://www.w3.org/1999/xlink" x="0px" y="0px"
	 width="60.947px" height="60.948px" viewBox="0 0 60.947 60.948" enable-background="new 0 0 60.947 60.948" xml:space="preserve">
<g>
	<rect fill="#F7EC30" width="60.947" height="60.948"/>
	<g>
		<g>
			<path fill="#571246" d="M19.92,51.417l2.856,3.376h-1.503l-2.119-2.514l-0.647,0.727v1.787h-1.148v-6.869h1.148v3.365
				l3.013-3.365h1.531L19.92,51.417z"/>
			<path fill="#571246" d="M29.216,54.793h-1.237l-0.226-0.569h-2.561l-0.227,0.569H23.73l2.738-6.869L29.216,54.793z
				 M27.292,53.074l-0.824-2.06l-0.814,2.06H27.292z"/>
			<path fill="#571246" d="M33.035,51.417l2.854,3.376h-1.501l-2.119-2.514l-0.647,0.727v1.787h-1.148v-6.869h1.148v3.365
				l3.013-3.365h1.529L33.035,51.417z"/>
			<path fill="#571246" d="M40.889,53.929h-2.326l-0.343,0.864h-1.237l2.738-6.869l2.747,6.869h-1.235L40.889,53.929z M40.438,52.79
				l-0.717-1.775l-0.706,1.775H40.438z"/>
		</g>
		<g>
			<path fill="#571246" d="M13.267,43.071l2.855,3.375h-1.501l-2.119-2.511l-0.647,0.726v1.785h-1.148v-6.868h1.148v3.365
				l3.012-3.365h1.531L13.267,43.071z"/>
			<path fill="#571246" d="M22.677,46.446h-1.236l-0.226-0.568h-2.562l-0.225,0.568h-1.237l2.738-6.868L22.677,46.446z
				 M20.754,44.729l-0.824-2.061l-0.815,2.061H20.754z"/>
			<path fill="#571246" d="M28.249,44.632l0.805,0.813c-0.619,0.619-1.472,1.001-2.423,1.001c-1.894,0-3.435-1.54-3.435-3.434
				s1.541-3.435,3.435-3.435c0.951,0,1.805,0.382,2.423,1.011l-0.805,0.804c-0.412-0.411-0.991-0.667-1.618-0.667
				c-1.266,0-2.287,1.021-2.287,2.287s1.021,2.285,2.287,2.285C27.258,45.298,27.837,45.044,28.249,44.632z"/>
			<path fill="#571246" d="M35.588,39.578v6.868h-1.148v-2.864h-2.855v2.864h-1.148v-6.868h1.148v2.846h2.855v-2.846H35.588z"/>
			<path fill="#571246" d="M36.541,42.129c0-1.403,1.148-2.551,2.551-2.551c1.403,0,2.552,1.147,2.552,2.551
				s-1.148,2.553-2.552,2.553C37.689,44.682,36.541,43.532,36.541,42.129z M41.329,46.446h-4.534V45.31h4.534V46.446z
				 M37.679,42.129c0,0.786,0.628,1.413,1.413,1.413s1.413-0.627,1.413-1.413c0-0.785-0.628-1.413-1.413-1.413
				S37.679,41.344,37.679,42.129z"/>
			<path fill="#571246" d="M46.186,46.446l-1.786-2.864h-0.657v2.864h-1.147v-4.003l0,0v-1.718v-1.147h2.285
				c0,0,2.297,0,2.297,2.002c0,1.217-0.845,1.697-1.512,1.884l1.864,2.982H46.186z M43.723,42.434
				c0.306-0.029,2.329,0.243,2.306-0.854c-0.021-0.929-1.148-0.854-1.148-0.854h-1.173L43.723,42.434z"/>
			<path fill="#571246" d="M48.597,39.578h1.149v6.868h-1.149V39.578z"/>
		</g>
	</g>
	<g>
		<path fill="#571246" d="M31.009,31.895c0,0-0.61-0.814-0.863-1.035c-0.263-0.231-0.861-0.608-1.18-0.749
			c-0.225-0.1-0.704-0.239-0.95-0.26c-0.36-0.03-1.09,0.05-1.439,0.145c-0.512,0.138-1.457,0.639-1.929,0.878
			c-0.295,0.148-0.869,0.477-1.151,0.647c-2.936,1.784-3.524,1.427-3.829,1.468c-1.266,0.173-1.684-0.685-1.784-0.863
			c-0.108-0.192-0.271-0.614-0.288-0.834c-0.058-0.778,0.6-1.216,0.719-1.267c0.806-0.346,1.121,0.234,1.209,0.374
			c0.08,0.129,0.046,0.455,0.029,0.604c-0.057,0.49-0.604,0.417-0.604,0.417s0.489,0.532,1.237,0
			c0.176-0.125,1.037-0.85,0.662-2.404c-0.073-0.301-0.966-1.343-2.129-1.353c-2.045-0.017-3.02,2.246-3.11,2.475
			c-0.129,0.334-0.258,1.052-0.259,1.411c-0.004,2.216,1.059,3.168,1.238,3.397c0.227,0.288,1.954,1.364,3.108,1.611
			c0.807,0.173,2.39,0.144,3.197-0.172c0.527-0.208,1.784-0.864,2.244-2.159c0.086-0.242,0.199-0.75,0.317-0.979
			c0.082-0.16,0.518-0.979,1.353-1.296c1.721-0.652,3.127,0.527,3.31,0.634c0.102,0.059,0.345,0.316,0.345,0.316L31.009,31.895z"/>
		<path fill="#571246" d="M29.857,31.895c0,0,0.61-0.814,0.863-1.035c0.264-0.231,0.861-0.608,1.181-0.749
			c0.226-0.1,0.704-0.239,0.949-0.26c0.361-0.03,1.091,0.05,1.439,0.145c0.512,0.138,1.457,0.639,1.93,0.878
			c0.294,0.148,0.869,0.477,1.151,0.647c2.936,1.784,3.524,1.427,3.828,1.468c1.267,0.173,1.685-0.685,1.784-0.863
			c0.107-0.192,0.272-0.614,0.288-0.834c0.058-0.778-0.601-1.216-0.72-1.267c-0.807-0.346-1.123,0.234-1.208,0.374
			c-0.08,0.129-0.048,0.455-0.029,0.604c0.057,0.49,0.604,0.417,0.604,0.417s-0.489,0.532-1.238,0
			c-0.176-0.125-1.035-0.85-0.661-2.404c0.073-0.301,0.966-1.343,2.13-1.353c2.044-0.017,3.021,2.246,3.109,2.475
			c0.13,0.334,0.257,1.052,0.259,1.411c0.005,2.216-1.06,3.168-1.237,3.397c-0.228,0.288-1.954,1.364-3.109,1.611
			c-0.806,0.173-2.389,0.144-3.195-0.172c-0.527-0.208-1.784-0.864-2.244-2.159c-0.088-0.242-0.199-0.75-0.317-0.979
			c-0.083-0.16-0.518-0.979-1.353-1.296c-1.721-0.652-3.127,0.527-3.311,0.634c-0.102,0.059-0.346,0.316-0.346,0.316L29.857,31.895z
			"/>
	</g>
	<path fill="none" d="M15.333,17.678c0.004,0.01,0.012,0.021,0.017,0.03c-0.01-0.018-0.019-0.035-0.027-0.052
		C15.326,17.663,15.329,17.672,15.333,17.678z"/>
	<path fill="none" d="M14.545,15.012c-0.02,0.113-0.032,0.218-0.024,0.295c0.036,0.327,0.178,0.814,0.347,1.284
		c-0.117-0.373-0.219-0.781-0.262-1.047C14.583,15.408,14.561,15.217,14.545,15.012z"/>
	<path fill="none" d="M20.187,8.848l-0.113,0.287c0,0,0.045,0.232,0.11,0.513C20.165,9.385,20.163,9.088,20.187,8.848z"/>
	<path fill="none" d="M20.598,7.803l-0.049,0.123c0.043-0.068,0.086-0.131,0.128-0.186C20.631,7.776,20.598,7.803,20.598,7.803z"/>
	<path fill="none" d="M26.375,15.512c-0.05-0.021-0.11-0.047-0.168-0.072c2.137,1.045,4.447,1.848,5.083,2.062
		c-0.365-0.137-0.745-0.279-0.946-0.357C29.344,16.751,27.362,15.937,26.375,15.512z"/>
	<path fill="none" d="M32.238,17.854c0,0-0.301-0.112-0.672-0.25c0.201,0.089,0.685,0.301,1.279,0.553
		c0.04,0.001,0.08,0.002,0.119,0.004L32.238,17.854z"/>
	<path fill="#26AAE1" d="M40.668,23.357c-0.293,0.024-0.564,0.03-0.799,0.009c-0.038-0.004-0.075-0.004-0.113-0.012
		c-0.006,0-0.007,0-0.011,0c-0.126-0.016-0.249-0.045-0.373-0.073c-0.112-0.026-0.225-0.057-0.336-0.089
		c-0.066,0.014-0.131,0.024-0.196,0.038c0.856,1.009,2.164,2.101,2.709,2.229c0.246,0.059,1.637,0.331,1.855,0.269
		c0.231-0.068,0.669-0.296,0.864-0.423c0.131-0.089,0.348-0.316,0.444-0.446c0.08-0.113,0.227-0.37,0.265-0.518
		c0.04-0.14,0.023-0.477,0.047-0.63c0.015-0.113,0.052-0.349,0.03-0.474c-0.005-0.031-0.048-0.08-0.107-0.135
		c-0.212,0.138-0.395,0.252-0.465,0.292C43.917,23.719,41.814,23.72,40.668,23.357z"/>
	<path fill="#FBED1F" d="M40.668,23.357c1.146,0.362,3.249,0.362,3.814,0.036c0.07-0.041,0.253-0.155,0.465-0.292
		c0.419-0.272,0.962-0.644,1.049-0.775c0.133-0.21,0.339-0.692,0.415-0.929c0.053-0.159,0.095-0.486,0.095-0.653
		c0.002-0.142-0.025-0.421-0.068-0.569c-0.354,0.533-1.144,1.482-1.319,1.677C44.581,22.448,42.29,23.222,40.668,23.357z"/>
	<path fill="#DA1D5E" d="M46.557,17.496c-0.009,0.043-0.006,0.095-0.026,0.128c-0.912,1.457-4.54,3.867-9.274,5.583
		c0.111,0.033,2.004,0.047,2.116,0.074c0.124,0.027,0.247,0.057,0.373,0.073c0.004,0,0.005,0,0.011,0
		c0.038,0.008,0.075,0.008,0.113,0.012c0.234,0.021,0.506,0.016,0.799-0.009c1.622-0.135,3.913-0.909,4.45-1.505
		c0.176-0.195,0.965-1.144,1.319-1.677c0.091-0.136,0.154-0.247,0.17-0.31c0.088-0.322,0.151-1.021,0.151-1.352
		c0-0.225-0.082-0.663-0.151-0.874C46.596,17.601,46.577,17.549,46.557,17.496z"/>
	<path fill="#F7EC30" d="M46.53,17.624c0.005-0.039,0.018-0.085,0.026-0.128c0.117-0.575,0.202-1.611,0.202-2.124
		c0-0.375-0.126-1.099-0.229-1.456c-0.092-0.31-0.335-0.933-0.514-1.199c-0.165-0.242-0.626-0.61-0.858-0.854
		c-0.014,0.593-0.104,1.607-0.226,2.104c-0.125,0.51-1.556,2.546-1.893,2.954c-4.394,5.317-5.709,5.055-6.21,5.372
		c-0.433,0.278-1.138,0.663-1.689,0.913c0.119,0.036,0.239,0.074,0.361,0.104c0.188,0.043,0.375,0.094,0.564,0.125
		c0.006,0,0.012,0.003,0.019,0.003c0.057,0.005,0.115,0.008,0.174,0.014C36.961,23.524,46.208,20.126,46.53,17.624z"/>
	<path fill="#F05A29" d="M32.846,18.157c0.084,0.036,0.173,0.073,0.261,0.111c0.017-0.009,0.034-0.018,0.051-0.027l-0.192-0.08
		C32.926,18.16,32.886,18.159,32.846,18.157z"/>
	<path fill="#F7EC30" d="M14.545,15.012c0.016,0.206,0.038,0.396,0.061,0.531c0.043,0.267,0.146,0.674,0.262,1.047
		c0.148,0.41,0.316,0.804,0.455,1.066c0.008,0.017,0.017,0.034,0.027,0.052c0.253,0.462,0.774,1.275,1.196,1.561
		c0.427,0.296,1.443,0.589,1.94,0.745c0.679,0.213,2.064,0.555,2.767,0.683c0.497,0.09,1.494,0.213,1.998,0.237
		c0.67,0.03,2.021,0.019,2.686-0.074c0.928-0.125,2.702-0.577,3.664-0.912c-2.983,0.13-7.843-1.195-8.994-2.39
		c-0.441-0.457-2.839-3.168-3.036-3.77c-0.208-0.638-0.431-2.023-0.483-2.692c-0.011-0.148-0.014-0.459,0.054-0.862
		c-0.146-0.828-0.599-1.514-1.995,0.87c-0.125,0.213-0.436,1.865-0.561,2.584C14.715,14.056,14.625,14.541,14.545,15.012z"/>
	<path fill="#39B24A" d="M17.089,11.097c0.052,0.668,0.275,2.054,0.483,2.692c0.196,0.602,2.594,3.313,3.036,3.77
		c1.15,1.194,6.011,2.52,8.994,2.39c0.045-0.016,0.098-0.033,0.14-0.048c0.744-0.273,2.46-1.158,3.366-1.632
		c-0.088-0.038-0.177-0.075-0.261-0.111c-0.595-0.252-1.078-0.464-1.279-0.553c-0.09-0.033-0.183-0.068-0.276-0.103
		c-0.636-0.214-2.946-1.016-5.083-2.062c-0.646-0.275-1.724-0.72-2.254-1.022c-0.483-0.272-1.399-0.906-1.818-1.266
		c-0.368-0.314-1.08-0.991-1.331-1.404c-0.229-0.385-0.502-1.251-0.577-1.695c-0.018-0.107-0.032-0.25-0.043-0.404
		c-0.064-0.281,0.122-0.4,0.122-0.4l-0.119-0.4c0.009-0.093,0.022-0.18,0.04-0.249c0.046-0.175,0.181-0.448,0.323-0.673l0.049-0.123
		c0,0,0.033-0.026,0.079-0.063c0.032-0.042,0.064-0.082,0.093-0.112c0.189-0.193,0.67-0.479,0.93-0.556
		c0.051-0.015,0.117-0.028,0.183-0.041c0.061-0.017,0.115-0.024,0.167-0.027c0.156-0.021,0.325-0.038,0.493-0.043
		c-0.031-0.29-1.831-1.215-3.571,0.212c-1.263,1.033-1.692,2.241-1.829,3.062C17.075,10.638,17.078,10.949,17.089,11.097z"/>
	<path fill="#39B24A" d="M39.293,6.917c0.387,0.35,1.594,1.819,2.656,3.351c0.012-0.447-0.042-1.04-0.042-1.04l-0.456-1.255
		l-1.185-1.808c-0.006-0.006-0.012-0.013-0.018-0.02c-0.007,0.002-0.035,0.012-0.053,0.019c0.009-0.003,0.025-0.009,0.053-0.019
		c-0.065-0.069-0.127-0.134-0.179-0.185c-0.237-0.226-0.744-0.667-1.04-0.808c-0.274-0.132-0.882-0.26-1.188-0.28
		c-0.248-0.019-0.753,0.012-0.986,0.094c-0.049,0.018-0.11,0.05-0.174,0.088c0.151,0.099,0.287,0.191,0.395,0.27
		C37.581,5.694,38.829,6.494,39.293,6.917z"/>
	<path fill="#26AAE1" d="M35.688,6.4c0.772,0.649,4.785,5.34,4.744,6.774c0.595-0.773,1.278-1.841,1.475-2.521
		c0.025-0.089,0.038-0.229,0.042-0.386c-1.063-1.532-2.27-3.001-2.656-3.351c-0.464-0.423-1.712-1.223-2.217-1.592
		c-0.107-0.078-0.243-0.171-0.395-0.27c-0.452-0.293-1.043-0.637-1.396-0.804c-0.415-0.19-1.271-0.542-1.724-0.595
		c-0.418-0.048-1.271,0.053-1.679,0.162c-0.08,0.021-0.181,0.053-0.289,0.091c0.487,0.205,1.388,0.7,1.813,0.988
		C33.929,5.248,35.211,5.994,35.688,6.4z"/>
	<path fill="#F7EC30" d="M29.902,6.72c0.526,0.345,1.479,1.161,1.963,1.561c0.782,0.64,2.322,1.949,3.082,2.612
		c0.358,0.312,1.417,1.279,1.417,1.279l3.024,2.129c0.189-0.169,0.368-0.336,0.521-0.501c0.153-0.164,0.333-0.381,0.522-0.626
		c0.041-1.434-3.972-6.125-4.744-6.774c-0.478-0.406-1.76-1.152-2.281-1.501c-0.426-0.289-1.326-0.783-1.813-0.988
		c-0.006-0.003-0.015-0.007-0.021-0.009c-0.419-0.176-1.288-0.49-1.742-0.525c-0.42-0.032-1.269,0.104-1.672,0.228
		c-0.325,0.099-0.966,0.389-1.225,0.614c-0.195,0.174-0.5,0.619-0.587,0.867c-0.015,0.044-0.027,0.099-0.039,0.158
		c0.456,0.033,1.328,0.333,1.751,0.505C28.542,5.941,29.467,6.437,29.902,6.72z"/>
	<path fill="#EA2B7B" d="M24.386,7.683c0.281,0.184,0.809,0.598,1.074,0.799c0.592,0.462,1.758,1.403,2.337,1.885
		c0.507,0.42,1.461,1.338,2.006,1.712c0.477,0.325,1.533,0.813,2.036,1.096c0.674,0.38,1.938,1.302,2.66,1.576
		c0.729,0.279,3.063,0.591,3.063,0.591l0.3,0.142c0.556-0.385,1.082-0.786,1.526-1.182l-3.024-2.129c0,0-1.059-0.967-1.417-1.279
		c-0.76-0.664-2.3-1.972-3.082-2.612c-0.483-0.4-1.437-1.216-1.963-1.561c-0.436-0.284-1.36-0.779-1.843-0.973
		c-0.423-0.172-1.295-0.472-1.751-0.505h-0.002c-0.421-0.027-1.264,0.121-1.667,0.247c-0.326,0.108-0.962,0.402-1.217,0.629
		c-0.187,0.171-0.464,0.589-0.561,0.844c0.119,0.006,0.228,0.017,0.311,0.037C23.513,7.081,24.094,7.495,24.386,7.683z"/>
	<path fill="#F7EC30" d="M21.884,7.032c-0.066,0.013-0.132,0.026-0.183,0.041c-0.26,0.077-0.741,0.362-0.93,0.556
		c-0.029,0.03-0.061,0.07-0.093,0.112c-0.042,0.055-0.084,0.118-0.128,0.186c-0.142,0.225-0.277,0.498-0.323,0.673
		c-0.018,0.069-0.03,0.156-0.04,0.249c-0.024,0.24-0.022,0.538-0.003,0.8c0.011,0.154,0.025,0.297,0.043,0.404
		c0.075,0.443,0.348,1.31,0.577,1.695c0.251,0.413,0.963,1.09,1.331,1.404c0.419,0.36,1.335,0.994,1.818,1.266
		c0.53,0.303,1.609,0.747,2.254,1.022c0.058,0.025,0.118,0.051,0.168,0.072c0.987,0.425,2.969,1.24,3.969,1.632
		c0.201,0.079,0.581,0.221,0.946,0.357c0.094,0.035,0.187,0.07,0.276,0.103c0.371,0.138,0.672,0.25,0.672,0.25l0.727,0.307
		l0.192,0.08c0.324-0.17,0.534-0.283,0.534-0.283s2.238-1.135,4.171-2.474l-0.3-0.142c0,0-2.334-0.312-3.063-0.591
		c-0.723-0.273-1.986-1.196-2.66-1.576c-0.503-0.284-1.56-0.771-2.036-1.096c-0.545-0.375-1.499-1.292-2.006-1.712
		c-0.58-0.482-1.746-1.422-2.337-1.885c-0.265-0.201-0.793-0.616-1.074-0.799c-0.292-0.188-0.873-0.602-1.214-0.684
		c-0.083-0.02-0.192-0.031-0.311-0.037c-0.099-0.004-0.207-0.004-0.318,0c-0.168,0.006-0.337,0.022-0.493,0.043
		C21.999,7.007,21.944,7.015,21.884,7.032z"/>
	<path fill="#26AAE1" d="M17.083,23.893c-0.427-0.213-0.906-0.761-1.274-1.063c-0.301-0.246-0.974-1.127-1.234-1.417
		c-0.141-0.162-0.652-0.522-1.129-1.022c0.09,1.342,0.876,3.591,1.374,4.055c0.187,0.17,1.264,1.087,1.486,1.142
		c0.232,0.057,0.727,0.075,0.961,0.057c0.157-0.012,0.458-0.104,0.604-0.173c0.127-0.058,0.38-0.208,0.486-0.319
		c0.104-0.101,0.255-0.407,0.349-0.527c0.058-0.075,0.164-0.207,0.226-0.32c-0.162-0.029-0.306-0.063-0.419-0.102
		C18.155,24.075,17.426,24.062,17.083,23.893z"/>
	<path fill="#EA2B7B" d="M43.04,16.921c0.337-0.407,1.768-2.443,1.893-2.954c0.122-0.498,0.212-1.511,0.226-2.104
		c0.001-0.053,0.003-0.108,0.003-0.153c0-0.373-0.126-1.098-0.229-1.457c-0.09-0.306-0.336-0.931-0.514-1.196
		c-0.177-0.263-0.709-0.67-0.913-0.914c-0.157-0.183-0.477-0.566-0.684-0.683c-0.206-0.116-0.601-1.144-1.77-1.316
		c-0.198-0.027-0.61-0.064-0.799,0l0.013,0.021l1.185,1.808l0.456,1.255c0,0,0.054,0.592,0.042,1.04
		c-0.004,0.157-0.017,0.297-0.042,0.386c-0.196,0.68-0.88,1.747-1.475,2.521c-0.189,0.245-0.369,0.462-0.522,0.626
		c-0.153,0.165-0.332,0.333-0.521,0.501c-0.444,0.396-0.971,0.797-1.526,1.182c-1.933,1.339-4.171,2.474-4.171,2.474
		s-0.21,0.113-0.534,0.283c-0.017,0.009-0.034,0.018-0.051,0.027c-0.905,0.475-2.622,1.359-3.366,1.632
		c-0.042,0.015-0.095,0.032-0.14,0.048c-0.962,0.335-2.736,0.787-3.664,0.912c-0.665,0.093-2.016,0.104-2.686,0.074
		c-0.504-0.024-1.501-0.147-1.998-0.237c-0.702-0.128-2.087-0.47-2.767-0.683c-0.497-0.156-1.513-0.449-1.94-0.745
		c-0.422-0.286-0.943-1.099-1.196-1.561c-0.004-0.009-0.012-0.021-0.017-0.03c-0.004-0.006-0.008-0.015-0.01-0.021
		c-0.139-0.262-0.307-0.656-0.455-1.066c-0.169-0.469-0.312-0.957-0.347-1.284c-0.008-0.077,0.004-0.182,0.024-0.295
		c0.08-0.471,0.314-1.158,0.042-1.323c-0.004-0.003-0.006-0.01-0.012-0.012c-0.08-0.041-0.223,0.161-0.284,0.231
		c-0.275,0.315-0.681,1.057-0.856,1.437c-0.168,0.366-0.916,1.643-0.911,3.183c0,0.721,0.443,1.362,0.922,1.863
		c0.478,0.5,0.988,0.86,1.129,1.022c0.26,0.291,0.933,1.172,1.234,1.417c0.368,0.301,0.847,0.85,1.274,1.063
		c0.343,0.169,1.072,0.182,1.429,0.31c0.113,0.04,0.257,0.073,0.419,0.102c0.498,0.09,1.154,0.135,1.521,0.159
		c0.414,0.031,1.244,0.023,1.656,0c0.645-0.032,1.923-0.228,2.567-0.261c0.684-0.038,2.058,0.059,2.739,0
		c0.723-0.065,2.16-0.411,2.881-0.368c0.411,0.023,1.874,0.354,2.579,0.211c0.761-0.153,1.322-0.452,1.97-0.711
		c0.09-0.036,0.191-0.081,0.296-0.128c0.552-0.25,1.257-0.635,1.689-0.913C37.331,21.976,38.646,22.239,43.04,16.921z"/>
	<path fill="#EA2B7B" d="M40.249,6.146c-0.027,0.009-0.044,0.015-0.053,0.019C40.214,6.159,40.242,6.149,40.249,6.146z"/>
	<g>
		<g>
			<circle fill="#F7EC30" cx="43.282" cy="12.397" r="0.638"/>
			<circle fill="#F7EC30" cx="44.227" cy="11.819" r="0.289"/>
			<circle fill="#F7EC30" cx="42.339" cy="13.007" r="0.289"/>
			<circle fill="#F7EC30" cx="42.689" cy="11.47" r="0.289"/>
			<circle fill="#F7EC30" cx="43.877" cy="13.357" r="0.289"/>
			<circle fill="#F7EC30" cx="43.532" cy="11.326" r="0.288"/>
			<circle fill="#F7EC30" cx="43.036" cy="13.501" r="0.288"/>
			<circle fill="#F7EC30" cx="42.196" cy="12.167" r="0.289"/>
			<circle fill="#F7EC30" cx="44.371" cy="12.66" r="0.289"/>
		</g>
		<g>
			<circle fill="#F7EC30" cx="40.962" cy="16.116" r="0.638"/>
			<circle fill="#F7EC30" cx="41.907" cy="15.538" r="0.289"/>
			<circle fill="#F7EC30" cx="40.02" cy="16.727" r="0.289"/>
			<circle fill="#F7EC30" cx="40.37" cy="15.189" r="0.289"/>
			<circle fill="#F7EC30" cx="41.558" cy="17.077" r="0.289"/>
			<circle fill="#F7EC30" cx="41.211" cy="15.046" r="0.289"/>
			<circle fill="#F7EC30" cx="40.716" cy="17.22" r="0.288"/>
			<circle fill="#F7EC30" cx="39.876" cy="15.886" r="0.288"/>
			<circle fill="#F7EC30" cx="42.051" cy="16.38" r="0.289"/>
		</g>
		<g>
			<circle fill="#F7EC30" cx="37.257" cy="19.311" r="0.638"/>
			<circle fill="#F7EC30" cx="38.203" cy="18.732" r="0.289"/>
			<circle fill="#F7EC30" cx="36.314" cy="19.921" r="0.289"/>
			<circle fill="#F7EC30" cx="36.665" cy="18.383" r="0.289"/>
			<circle fill="#F7EC30" cx="37.853" cy="20.271" r="0.289"/>
			<circle fill="#F7EC30" cx="37.506" cy="18.24" r="0.288"/>
			<circle fill="#F7EC30" cx="37.011" cy="20.415" r="0.288"/>
			<circle fill="#F7EC30" cx="36.171" cy="19.081" r="0.288"/>
			<circle fill="#F7EC30" cx="38.346" cy="19.573" r="0.288"/>
		</g>
		<g>
			<circle fill="#F7EC30" cx="32.865" cy="21.078" r="0.638"/>
			<circle fill="#F7EC30" cx="33.811" cy="20.5" r="0.288"/>
			<circle fill="#F7EC30" cx="31.923" cy="21.688" r="0.288"/>
			<circle fill="#F7EC30" cx="32.272" cy="20.151" r="0.289"/>
			<circle fill="#F7EC30" cx="33.46" cy="22.038" r="0.289"/>
			<circle fill="#F7EC30" cx="33.115" cy="20.007" r="0.288"/>
			<circle fill="#F7EC30" cx="32.619" cy="22.182" r="0.288"/>
			<circle fill="#F7EC30" cx="31.78" cy="20.848" r="0.288"/>
			<circle fill="#F7EC30" cx="33.954" cy="21.341" r="0.288"/>
		</g>
		<g>
			<circle fill="#F7EC30" cx="27.34" cy="22.165" r="0.638"/>
			<circle fill="#F7EC30" cx="28.285" cy="21.588" r="0.289"/>
			<circle fill="#F7EC30" cx="26.398" cy="22.776" r="0.288"/>
			<circle fill="#F7EC30" cx="26.748" cy="21.239" r="0.289"/>
			<circle fill="#F7EC30" cx="27.936" cy="23.126" r="0.289"/>
			<circle fill="#F7EC30" cx="27.59" cy="21.094" r="0.288"/>
			<circle fill="#F7EC30" cx="27.095" cy="23.269" r="0.288"/>
			<circle fill="#F7EC30" cx="26.255" cy="21.935" r="0.288"/>
			<circle fill="#F7EC30" cx="28.43" cy="22.429" r="0.288"/>
		</g>
		<g>
			<circle fill="#F7EC30" cx="21.536" cy="22.31" r="0.638"/>
			<circle fill="#F7EC30" cx="22.481" cy="21.732" r="0.289"/>
			<circle fill="#F7EC30" cx="20.594" cy="22.92" r="0.289"/>
			<circle fill="#F7EC30" cx="20.945" cy="21.383" r="0.289"/>
			<circle fill="#F7EC30" cx="22.133" cy="23.27" r="0.289"/>
			<circle fill="#F7EC30" cx="21.786" cy="21.239" r="0.288"/>
			<circle fill="#F7EC30" cx="21.291" cy="23.414" r="0.288"/>
			<circle fill="#F7EC30" cx="20.451" cy="22.08" r="0.288"/>
			<circle fill="#F7EC30" cx="22.625" cy="22.573" r="0.288"/>
		</g>
		<g>
			<circle fill="#F7EC30" cx="16.651" cy="21.12" r="0.638"/>
			<circle fill="#F7EC30" cx="17.596" cy="20.542" r="0.289"/>
			<circle fill="#F7EC30" cx="15.709" cy="21.73" r="0.288"/>
			<circle fill="#F7EC30" cx="16.06" cy="20.193" r="0.289"/>
			<circle fill="#F7EC30" cx="17.247" cy="22.08" r="0.289"/>
			<circle fill="#F7EC30" cx="16.901" cy="20.049" r="0.288"/>
			<circle fill="#F7EC30" cx="16.405" cy="22.224" r="0.288"/>
			<circle fill="#F7EC30" cx="15.565" cy="20.89" r="0.288"/>
			<circle fill="#F7EC30" cx="17.74" cy="21.383" r="0.288"/>
		</g>
		<g>
			<circle fill="#F7EC30" cx="13.43" cy="17.349" r="0.638"/>
			<circle fill="#F7EC30" cx="14.375" cy="16.771" r="0.289"/>
			<circle fill="#F7EC30" cx="14.026" cy="18.309" r="0.289"/>
			<circle fill="#F7EC30" cx="13.68" cy="16.278" r="0.288"/>
			<circle fill="#F7EC30" cx="13.185" cy="18.452" r="0.288"/>
			<circle fill="#F7EC30" cx="14.52" cy="17.612" r="0.288"/>
			<line fill="none" x1="13.088" y1="15.989" x2="13.088" y2="15.989"/>
			<path fill="#F7EC30" d="M12.642,18.203c0.135-0.085,0.176-0.263,0.091-0.398c-0.036-0.057-0.091-0.093-0.15-0.114
				c-0.03,0.199-0.048,0.384-0.059,0.553C12.565,18.238,12.605,18.226,12.642,18.203z"/>
			<path fill="#F7EC30" d="M13.082,16.268c-0.021-0.035-0.05-0.063-0.082-0.084c-0.074,0.158-0.141,0.332-0.199,0.521
				c0.064,0.008,0.131,0,0.189-0.038C13.127,16.581,13.168,16.402,13.082,16.268z"/>
		</g>
		<path fill="#F7EC30" d="M42.93,7.566c-0.056,0.173-0.044,0.366,0.06,0.532c0.159,0.252,0.467,0.343,0.737,0.252
			C43.432,8.054,43.136,7.768,42.93,7.566z"/>
		<circle fill="#F7EC30" cx="42.587" cy="8.37" r="0.288"/>
		<path fill="#F7EC30" d="M43.881,8.873c0.085,0.134,0.263,0.175,0.397,0.09c0.007-0.005,0.012-0.013,0.019-0.018
			c-0.116-0.127-0.25-0.268-0.389-0.41C43.829,8.628,43.812,8.763,43.881,8.873z"/>
		<circle fill="#F7EC30" cx="43.283" cy="8.863" r="0.288"/>
		<circle fill="#F7EC30" cx="42.443" cy="7.529" r="0.288"/>
	</g>
</g>
</svg>
