<svg width="186" height="93" viewBox="0 0 186 93" fill="none" xmlns="http://www.w3.org/2000/svg">
<path d="M100.876 30.6839C100.876 43.3184 111.12 53.562 123.752 53.562C136.387 53.562 146.631 43.3192 146.631 30.6839C146.631 18.0486 136.388 7.80508 123.752 7.80508C111.12 7.80426 100.876 18.0486 100.876 30.6839ZM110.299 31.1761C110.299 23.7433 116.322 17.7197 123.752 17.7197C131.185 17.7197 137.206 23.7433 137.206 31.1761C137.206 38.608 131.183 44.6324 123.752 44.6324C116.322 44.6324 110.299 38.608 110.299 31.1761Z" fill="#662E19"/>
<path d="M157.419 70.2745H148.674C148.696 71.673 148.707 71.308 148.707 71.4876C148.707 74.0639 146.62 76.4925 144.045 76.4925C141.988 76.4925 140.247 74.8316 139.627 72.8516C139.577 72.5153 139.439 70.6985 139.428 70.473C139.067 63.4274 133.242 57.7918 126.11 57.7918C118.744 57.7918 112.773 63.7284 112.773 71.0963C112.773 71.2546 112.792 70.2761 112.795 71.6746H121.422C121.389 71.1447 121.389 71.2596 121.389 71.0816C121.389 68.507 123.476 66.3572 126.051 66.3572C128.627 66.3572 130.581 68.5357 130.714 71.1086C130.724 71.2932 130.75 71.4933 130.767 71.7287H130.775C130.935 78.9572 136.841 84.7667 144.105 84.7667C151.471 84.7667 157.444 78.7948 157.444 71.4285C157.443 71.271 157.424 71.673 157.419 70.2745Z" fill="#662E19"/>
<path d="M165.371 34.9621V64.6807H158.378V46.5H149.987V64.6807H142.297V66.4286H174.811V64.6807V34.9621H165.371Z" fill="#662E19"/>
<path d="M92.651 0H0V93H92.651V0Z" fill="#662E19"/>
<path d="M23.0996 25.4641C23.0996 26.3541 22.9331 27.1956 22.6001 27.9879C22.2671 28.7811 21.7799 29.4873 21.1418 30.109C20.4963 30.7307 19.7712 31.2072 18.9617 31.537C18.1513 31.8675 17.3024 32.0332 16.4116 32.0332C15.5119 32.0332 14.6515 31.8659 13.8329 31.5329C13.0151 31.199 12.2909 30.7241 11.6642 30.109C11.0261 29.4873 10.5406 28.7835 10.21 27.9961C9.88029 27.2095 9.7146 26.3656 9.7146 25.4641C9.7146 24.5693 9.87947 23.7253 10.21 22.933C10.5406 22.1399 11.0261 21.4304 11.6642 20.8029C12.3024 20.182 13.0274 19.7088 13.837 19.384C14.6465 19.0592 15.5045 18.8951 16.4108 18.8951C17.313 18.8951 18.1669 19.0583 18.974 19.384C19.7802 19.7088 20.5028 20.182 21.1418 20.8029C21.7799 21.4353 22.2671 22.1505 22.6001 22.9453C22.9331 23.7417 23.0996 24.5808 23.0996 25.4641ZM20.9794 25.4641C20.9794 24.8318 20.8637 24.2297 20.6324 23.6597C20.402 23.0897 20.0689 22.5828 19.6367 22.1374C19.2135 21.6986 18.7246 21.3615 18.1685 21.1244C17.6132 20.8882 17.0268 20.7693 16.4108 20.7693C15.7948 20.7693 15.2092 20.8866 14.6531 21.1203C14.097 21.3541 13.6032 21.6928 13.1685 22.1374C12.7363 22.577 12.4033 23.0814 12.1769 23.6523C11.9489 24.2224 11.834 24.8277 11.834 25.4658C11.834 26.099 11.948 26.6977 12.1769 27.2612C12.4033 27.8255 12.7363 28.3316 13.1685 28.7753C13.6024 29.2199 14.0953 29.5603 14.6482 29.794C15.201 30.0278 15.7899 30.1451 16.41 30.1451C17.021 30.1451 17.6009 30.0278 18.1505 29.794C18.7008 29.5603 19.1954 29.2199 19.6359 28.7753C20.0681 28.3308 20.4011 27.8255 20.6316 27.2571C20.8646 26.6887 20.9794 26.0916 20.9794 25.4641Z" fill="white"/>
<path d="M16.4108 32.1513C15.4996 32.1513 14.6162 31.9799 13.7886 31.6419C12.9594 31.304 12.2171 30.816 11.5831 30.1926C10.9359 29.5627 10.438 28.8401 10.1034 28.0412C9.76711 27.244 9.59814 26.3778 9.59814 25.4641C9.59814 24.5586 9.76711 23.6908 10.1034 22.887C10.4364 22.0849 10.9367 21.3557 11.5831 20.7201C12.2294 20.0901 12.9725 19.6046 13.7935 19.2749C14.6129 18.946 15.4946 18.7786 16.4108 18.7786C17.3221 18.7786 18.2005 18.9468 19.0166 19.2749C19.8344 19.6038 20.5767 20.0901 21.223 20.7192C21.871 21.3615 22.3688 22.0947 22.7084 22.9002C23.0463 23.7064 23.2169 24.5685 23.2169 25.4641C23.2169 26.3664 23.0463 27.23 22.7084 28.0338C22.3697 28.8368 21.871 29.5635 21.223 30.1934C20.5701 30.8234 19.8237 31.3114 19.0043 31.646C18.1841 31.9815 17.3122 32.1513 16.4108 32.1513ZM16.4108 19.0124C15.5242 19.0124 14.672 19.174 13.8805 19.4922C13.0881 19.8104 12.3696 20.2796 11.7463 20.8874C11.1205 21.5009 10.6398 22.2046 10.3183 22.9781C9.99431 23.7524 9.83109 24.589 9.83109 25.4641C9.83109 26.3459 9.99431 27.1825 10.3175 27.9502C10.6406 28.7195 11.1205 29.4167 11.7463 30.0245C12.3582 30.6273 13.075 31.0981 13.8764 31.4246C14.6777 31.751 15.5299 31.9159 16.4108 31.9159C17.2811 31.9159 18.1242 31.7527 18.9174 31.4287C19.7089 31.1055 20.4299 30.6331 21.0606 30.0237C21.6848 29.4167 22.1671 28.7163 22.4919 27.9412C22.8183 27.1677 22.9848 26.3336 22.9848 25.4633C22.9848 24.598 22.8191 23.7663 22.4919 22.9888C22.1671 22.212 21.6848 21.5034 21.0598 20.8841C20.4364 20.2771 19.7187 19.8072 18.9297 19.4897C18.1398 19.174 17.2942 19.0124 16.4108 19.0124ZM16.4108 30.2607C15.7776 30.2607 15.169 30.1393 14.6039 29.9006C14.0396 29.662 13.5286 29.3101 13.0849 28.8582C12.6436 28.4029 12.3016 27.8821 12.0694 27.3055C11.8365 26.7305 11.7184 26.1113 11.7184 25.4658C11.7184 24.8153 11.8365 24.1912 12.0694 23.6088C12.3016 23.0273 12.6444 22.504 13.0865 22.0554C13.5286 21.6026 14.0404 21.2515 14.6072 21.0129C15.7448 20.5355 17.0793 20.5339 18.2128 21.0178C18.7821 21.2589 19.2889 21.6092 19.7196 22.057C20.1608 22.5114 20.5037 23.0355 20.7391 23.617C20.9761 24.1977 21.0967 24.8203 21.0967 25.465C21.0967 26.1039 20.9769 26.7223 20.7391 27.3006C20.5037 27.8788 20.1608 28.4029 19.7187 28.8565C19.2709 29.3101 18.7591 29.6611 18.1972 29.8998C17.6354 30.1385 17.035 30.2607 16.4108 30.2607ZM16.4108 20.8857C15.8145 20.8857 15.2379 21.0014 14.6982 21.2278C14.161 21.4541 13.6738 21.7888 13.253 22.2194C12.8322 22.6467 12.5058 23.1429 12.2852 23.6958C12.0629 24.2494 11.9522 24.8449 11.9522 25.465C11.9522 26.0809 12.0637 26.6698 12.2852 27.2186C12.5058 27.7656 12.8314 28.2627 13.253 28.6949C13.6738 29.1264 14.1585 29.4602 14.6941 29.6866C15.2297 29.9129 15.8088 30.0286 16.4108 30.0286C17.0038 30.0286 17.5731 29.9138 18.1062 29.6866C18.6393 29.461 19.1265 29.1255 19.5531 28.6941C19.9746 28.2635 20.3011 27.7648 20.5258 27.2136C20.7497 26.6641 20.8637 26.0752 20.8637 25.4658C20.8637 24.8506 20.7497 24.2576 20.5258 23.7056C20.3019 23.152 19.9746 22.6525 19.5531 22.2202C19.1438 21.7929 18.6623 21.4615 18.1242 21.2319C17.5845 21.0014 17.0096 20.8857 16.4108 20.8857Z" fill="white"/>
<path d="M12.1484 49.8546L13.8036 49.0886C13.9611 49.657 14.249 50.0917 14.6665 50.3911C15.0856 50.6904 15.6204 50.8413 16.2716 50.8413C16.8868 50.8413 17.3765 50.6699 17.7398 50.3271C18.1023 49.9842 18.2844 49.5241 18.2844 48.9491C18.2844 48.1995 17.6627 47.531 16.4193 46.9445C16.2454 46.8576 16.1117 46.7936 16.019 46.7534C14.6123 46.0677 13.6757 45.4468 13.2081 44.8924C12.7414 44.3371 12.5069 43.6588 12.5069 42.8575C12.5069 41.8174 12.8604 40.9751 13.5658 40.3304C14.2711 39.6849 15.1963 39.3626 16.3414 39.3626C17.2821 39.3626 18.0695 39.5446 18.7044 39.9072C19.3368 40.2697 19.7756 40.7914 20.02 41.4713L18.3984 42.3087C18.1434 41.9085 17.8628 41.6148 17.5585 41.4287C17.2534 41.2425 16.9024 41.1498 16.5079 41.1498C15.9493 41.1498 15.5072 41.295 15.1791 41.5853C14.851 41.8757 14.687 42.2644 14.687 42.7533C14.687 43.521 15.4063 44.2346 16.8474 44.8965C16.9581 44.949 17.0451 44.99 17.1099 45.0187C18.3697 45.5994 19.2359 46.1678 19.7067 46.7223C20.1775 47.2784 20.4121 47.9698 20.4121 48.7999C20.4121 50.0097 20.0315 50.9693 19.2695 51.6804C18.5083 52.3932 17.4806 52.7492 16.1839 52.7492C15.0979 52.7492 14.208 52.499 13.5133 51.9995C12.8186 51.5 12.3625 50.7848 12.1484 49.8546Z" fill="white"/>
<path d="M16.1829 52.9878C15.051 52.9878 14.1062 52.7188 13.3737 52.1914C12.6347 51.6599 12.1434 50.8922 11.917 49.9088L11.8735 49.7209L13.9585 48.7547L14.034 49.0238C14.1767 49.5446 14.4285 49.9293 14.805 50.1967C15.1806 50.4657 15.6736 50.6018 16.2707 50.6018C16.8284 50.6018 17.2541 50.4542 17.5765 50.1515C17.8922 49.8538 18.0448 49.4609 18.0448 48.9483C18.0448 48.3028 17.4641 47.7008 16.3174 47.1586C16.1427 47.0717 16.0123 47.0085 15.9229 46.9691C14.4646 46.2597 13.5197 45.6306 13.0259 45.0441C12.5231 44.447 12.2681 43.7113 12.2681 42.8558C12.2681 41.751 12.6511 40.8414 13.4049 40.1532C14.1513 39.47 15.1396 39.1239 16.3404 39.1239C17.3197 39.1239 18.1539 39.3174 18.8207 39.6997C19.5007 40.0901 19.9789 40.6577 20.2413 41.3909L20.3119 41.5853L18.3122 42.6179L18.1957 42.4342C17.9611 42.0668 17.7044 41.7961 17.4313 41.6296C17.1655 41.468 16.8539 41.3852 16.5044 41.3852C16.0017 41.3852 15.6186 41.5082 15.3315 41.7616C15.0543 42.0069 14.9198 42.3301 14.9198 42.7516C14.9198 43.4144 15.5998 44.0631 16.9433 44.6799C17.0548 44.7324 17.1393 44.7726 17.2025 44.8013C18.509 45.4026 19.3842 45.9808 19.8837 46.5672C20.389 47.1652 20.6457 47.9148 20.6457 48.8007C20.6457 50.0712 20.2364 51.0997 19.4285 51.8543C18.6263 52.6048 17.5354 52.9878 16.1829 52.9878ZM12.4272 49.9891C12.6454 50.7659 13.0555 51.3761 13.6501 51.8059C14.3005 52.2734 15.1527 52.5121 16.1829 52.5121C17.4116 52.5121 18.3942 52.1742 19.1053 51.5073C19.823 50.8364 20.1724 49.9522 20.1724 48.7998C20.1724 48.0321 19.9534 47.3833 19.522 46.8756C19.0774 46.3491 18.2302 45.7971 17.0081 45.2336C16.9449 45.2057 16.8563 45.1647 16.7439 45.1106C15.1995 44.4011 14.4482 43.6284 14.4482 42.7525C14.4482 42.1955 14.6401 41.7428 15.0207 41.4057C15.3914 41.0776 15.8917 40.9103 16.5069 40.9103C16.9441 40.9103 17.3402 41.0161 17.6798 41.2244C17.9669 41.3983 18.2343 41.6583 18.477 41.9979L19.7189 41.3573C19.4843 40.8233 19.1127 40.4149 18.5845 40.1114C17.9923 39.771 17.2361 39.5979 16.3412 39.5979C15.2627 39.5979 14.3834 39.9022 13.7264 40.5035C13.0661 41.1063 12.7462 41.8765 12.7462 42.8558C12.7462 43.6063 12.957 44.2223 13.3909 44.7374C13.8347 45.2656 14.7541 45.8709 16.1239 46.5377C16.2108 46.5754 16.3486 46.6411 16.5266 46.7296C17.8488 47.3555 18.5238 48.1018 18.5238 48.9475C18.5238 49.5864 18.3146 50.1089 17.9045 50.4969C17.4977 50.8815 16.9474 51.0767 16.2731 51.0767C15.5751 51.0767 14.9895 50.9102 14.531 50.5813C14.1373 50.3008 13.8461 49.9088 13.6624 49.415L12.4272 49.9891Z" fill="white"/>
<path d="M32.6986 43.1306C32.1343 42.6508 31.5372 42.2907 30.908 42.0504C30.2806 41.81 29.6195 41.6903 28.9264 41.6903C27.5862 41.6903 26.4953 42.1209 25.6554 42.9813C24.8147 43.8409 24.3939 44.9555 24.3939 46.3245C24.3939 47.6483 24.8032 48.7391 25.6218 49.6012C26.4404 50.4616 27.473 50.8922 28.7173 50.8922C29.444 50.8922 30.1354 50.7626 30.7908 50.5042C31.4486 50.2492 32.0777 49.8587 32.6813 49.3412V51.5935C32.1457 51.9798 31.5609 52.2677 30.9294 52.4572C30.2978 52.6474 29.6138 52.7426 28.8764 52.7426C27.9364 52.7426 27.0703 52.5884 26.2747 52.2825C25.4791 51.9749 24.7786 51.5213 24.1749 50.9242C23.577 50.3377 23.1177 49.6455 22.7962 48.8515C22.4746 48.0535 22.3147 47.2062 22.3147 46.3072C22.3147 45.4066 22.4746 44.5618 22.7962 43.7712C23.1177 42.9805 23.5819 42.2866 24.1913 41.6895C24.7999 41.0866 25.4996 40.6289 26.2862 40.3189C27.0744 40.0089 27.9258 39.8547 28.8419 39.8547C29.5637 39.8547 30.2502 39.9588 30.9039 40.1688C31.5577 40.3779 32.1917 40.6954 32.806 41.1194L32.6986 43.1306Z" fill="white"/>
<path d="M34.1987 52.4079V40.1401H36.1935V44.6652H42.2269V40.1401H44.2217V52.4079H42.2269V46.4508H36.1935V52.4079H34.1987Z" fill="white"/>
<path d="M58.719 46.2998C58.719 47.1717 58.5566 47.996 58.2285 48.772C57.9021 49.5487 57.4255 50.2426 56.8005 50.8512C56.1681 51.4598 55.4562 51.9265 54.6639 52.2496C53.8715 52.5728 53.039 52.7368 52.1672 52.7368C51.2838 52.7368 50.4414 52.572 49.6401 52.2463C48.8379 51.9183 48.1309 51.4548 47.5157 50.8512C46.8899 50.2426 46.4158 49.552 46.0919 48.7818C45.7679 48.01 45.6055 47.1832 45.6055 46.3007C45.6055 45.4239 45.7679 44.5979 46.0919 43.8204C46.4167 43.0445 46.8907 42.3489 47.5157 41.7338C48.1416 41.1252 48.851 40.6609 49.645 40.3435C50.4381 40.0245 51.2789 39.8661 52.168 39.8661C53.0489 39.8661 53.888 40.0245 54.6778 40.3435C55.4685 40.6618 56.1755 41.1252 56.8013 41.7338C57.4272 42.3547 57.9037 43.0535 58.2302 43.8335C58.5566 44.6135 58.719 45.4345 58.719 46.2998ZM56.6406 46.2998C56.6406 45.6798 56.5282 45.09 56.3018 44.5315C56.0755 43.9729 55.749 43.4767 55.3258 43.0412C54.9116 42.6114 54.4334 42.2792 53.8888 42.0479C53.3442 41.8158 52.77 41.6993 52.1663 41.6993C51.5627 41.6993 50.9877 41.815 50.4422 42.0422C49.8993 42.2718 49.4145 42.6048 48.9897 43.0403C48.5648 43.4693 48.2416 43.9647 48.0177 44.5241C47.7946 45.0827 47.6822 45.674 47.6822 46.2998C47.6822 46.9199 47.7946 47.5072 48.0177 48.06C48.2408 48.6128 48.5648 49.1074 48.9897 49.5438C49.4153 49.9793 49.8976 50.3131 50.4398 50.542C50.9819 50.7708 51.5569 50.8848 52.1663 50.8848C52.7643 50.8848 53.3319 50.7708 53.8707 50.542C54.4096 50.3131 54.8935 49.9793 55.325 49.5438C55.749 49.1082 56.0738 48.6112 56.3002 48.0559C56.529 47.499 56.6406 46.915 56.6406 46.2998Z" fill="white"/>
<path d="M73.2187 46.2998C73.2187 47.1717 73.0538 47.996 72.7274 48.772C72.4009 49.5487 71.9244 50.2426 71.2986 50.8512C70.6662 51.4598 69.9551 51.9265 69.1627 52.2496C68.3688 52.5736 67.5371 52.7368 66.6652 52.7368C65.7827 52.7368 64.9395 52.572 64.1389 52.2463C63.3368 51.9183 62.6281 51.4548 62.0138 50.8512C61.388 50.2426 60.9131 49.552 60.5891 48.7818C60.2651 48.01 60.1035 47.1832 60.1035 46.3007C60.1035 45.4239 60.2651 44.5979 60.5891 43.8204C60.9139 43.0445 61.3888 42.3489 62.0138 41.7338C62.6396 41.1252 63.3491 40.6609 64.1431 40.3435C64.9362 40.0245 65.7777 39.8661 66.6652 39.8661C67.5477 39.8661 68.3844 40.0245 69.175 40.3435C69.9657 40.6618 70.6736 41.1252 71.2994 41.7338C71.9252 42.3547 72.4017 43.0535 72.7282 43.8335C73.0538 44.611 73.2187 45.4345 73.2187 46.2998ZM71.1394 46.2998C71.1394 45.6798 71.0263 45.09 70.8007 44.5315C70.5743 43.9729 70.2487 43.4767 69.8238 43.0412C69.4096 42.6114 68.9314 42.2792 68.3868 42.0479C67.843 41.8158 67.2689 41.6993 66.6652 41.6993C66.0615 41.6993 65.4882 41.815 64.9419 42.0422C64.3981 42.2718 63.9126 42.6048 63.4885 43.0403C63.0637 43.4693 62.7405 43.9647 62.5166 44.5241C62.2935 45.0827 62.1811 45.674 62.1811 46.2998C62.1811 46.9199 62.2935 47.5072 62.5166 48.06C62.7405 48.6128 63.0637 49.1074 63.4885 49.5438C63.9134 49.9801 64.3965 50.3131 64.9387 50.542C65.4808 50.7708 66.055 50.8848 66.6644 50.8848C67.2623 50.8848 67.8307 50.7708 68.3696 50.542C68.9085 50.3131 69.3932 49.9793 69.823 49.5438C70.2479 49.1082 70.5727 48.6112 70.7991 48.0559C71.0263 47.499 71.1394 46.915 71.1394 46.2998Z" fill="white"/>
<path d="M74.6023 52.4079V40.1401H76.597V50.6232H81.9112V52.4079H74.6023Z" fill="white"/>
<path d="M12.719 73.3585V60.6002H19.8392V62.3603H14.7941V65.5419H19.8392V67.3636H14.7941V73.3585H12.719V73.3585Z" fill="white"/>
<path d="M14.9122 73.4782H12.6008V60.4812H19.9581V62.4793H14.913V65.4222H19.9581V67.4825H14.913V73.4782H14.9122ZM12.8379 73.2396H14.6751V67.243H19.7203V65.66H14.6751V62.2414H19.7203V60.7199H12.837V73.2396H12.8379Z" fill="white"/>
<path d="M35.3724 67.2424C35.3724 68.1143 35.2084 68.9386 34.8811 69.7145C34.5547 70.4912 34.0781 71.1851 33.4523 71.7937C32.8207 72.4007 32.108 72.869 31.3157 73.1922C30.5233 73.5153 29.6916 73.6777 28.8189 73.6777C27.9364 73.6777 27.0932 73.5145 26.2927 73.1872C25.4905 72.8608 24.7835 72.3957 24.1683 71.7937C23.5433 71.1851 23.0676 70.4945 22.7436 69.7227C22.4188 68.9533 22.2581 68.1257 22.2581 67.2432C22.2581 66.3656 22.4188 65.5405 22.7436 64.7637C23.0684 63.987 23.5442 63.2915 24.1683 62.6763C24.7942 62.0677 25.5028 61.6043 26.2976 61.2844C27.0899 60.967 27.9306 60.807 28.8189 60.807C29.7015 60.807 30.5389 60.967 31.3296 61.2844C32.1195 61.6051 32.8281 62.0677 33.4531 62.6763C34.0789 63.2964 34.5555 63.996 34.8819 64.7752C35.2084 65.5536 35.3724 66.3754 35.3724 67.2424ZM33.294 67.2424C33.294 66.6223 33.1808 66.0326 32.9552 65.474C32.7289 64.9163 32.4024 64.4184 31.9792 63.9829C31.5658 63.5539 31.086 63.2217 30.5414 62.9896C29.9968 62.7575 29.4234 62.6418 28.8189 62.6418C28.2161 62.6418 27.6403 62.7558 27.0965 62.9847C26.5519 63.2135 26.0679 63.5474 25.6431 63.9829C25.2182 64.4135 24.895 64.9073 24.6711 65.4666C24.4472 66.026 24.3357 66.6166 24.3357 67.2432C24.3357 67.8633 24.4472 68.4497 24.6711 69.0025C24.895 69.557 25.2182 70.05 25.6431 70.4863C26.0688 70.9218 26.551 71.2557 27.0932 71.4845C27.6354 71.7133 28.2095 71.8273 28.8189 71.8273C29.4169 71.8273 29.9853 71.7117 30.5241 71.4845C31.0638 71.2557 31.5478 70.9218 31.9784 70.4863C32.4024 70.0508 32.728 69.5554 32.9544 68.9993C33.18 68.4423 33.294 67.8575 33.294 67.2424Z" fill="white"/>
<path d="M49.8695 67.2439C49.8695 68.1157 49.7063 68.94 49.379 69.7159C49.0526 70.4927 48.576 71.1866 47.9502 71.7952C47.3186 72.4021 46.6067 72.8705 45.8144 73.1936C45.0204 73.5176 44.1887 73.6792 43.3152 73.6792C42.4343 73.6792 41.5903 73.516 40.7906 73.1887C39.9876 72.8623 39.2797 72.3972 38.6662 71.7952C38.0396 71.1866 37.5647 70.496 37.2415 69.7242C36.9175 68.9548 36.7551 68.1272 36.7551 67.2447C36.7551 66.367 36.9175 65.5419 37.2415 64.7652C37.5655 63.9884 38.0404 63.2929 38.6662 62.6778C39.2912 62.0692 39.9999 61.6057 40.7947 61.2859C41.587 60.9684 42.4277 60.8085 43.3152 60.8085C44.1977 60.8085 45.0352 60.9684 45.8267 61.2859C46.6173 61.6066 47.3244 62.0692 47.9502 62.6778C48.576 63.2978 49.0526 63.9975 49.379 64.7767C49.7063 65.555 49.8695 66.3769 49.8695 67.2439ZM47.7911 67.2439C47.7911 66.6238 47.6795 66.034 47.4523 65.4755C47.2268 64.9177 46.9003 64.4199 46.4763 63.9844C46.0621 63.5554 45.5831 63.2232 45.0384 62.9911C44.4946 62.759 43.9205 62.6433 43.316 62.6433C42.714 62.6433 42.139 62.7573 41.5944 62.9862C41.0498 63.215 40.565 63.5488 40.141 63.9844C39.7153 64.415 39.3929 64.9087 39.169 65.4681C38.9451 66.0275 38.8335 66.618 38.8335 67.2447C38.8335 67.8647 38.9451 68.4512 39.169 69.004C39.3929 69.5585 39.7153 70.0514 40.141 70.4878C40.5658 70.9233 41.0489 71.2571 41.5911 71.486C42.1324 71.7132 42.7074 71.8288 43.3168 71.8288C43.9156 71.8288 44.484 71.7132 45.0229 71.486C45.5617 71.2571 46.0473 70.9233 46.4763 70.4878C46.902 70.0522 47.2268 69.5568 47.4523 69.0007C47.6803 68.4438 47.7911 67.859 47.7911 67.2439Z" fill="white"/>
<path d="M51.2549 73.3774V61.1095H53.9452C55.693 61.1095 56.9234 61.1973 57.6353 61.3736C58.3481 61.5483 58.9722 61.8444 59.5087 62.2578C60.2173 62.7991 60.7546 63.4947 61.122 64.3436C61.487 65.1941 61.6699 66.162 61.6699 67.2512C61.6699 68.3405 61.487 69.3067 61.122 70.1457C60.7546 70.9864 60.2173 71.682 59.5087 72.2282C58.9722 72.6433 58.362 72.9361 57.6788 73.1124C56.9931 73.2888 55.9268 73.3765 54.4816 73.3765H53.946H51.2549V73.3774ZM53.2496 71.577H54.9253C55.8464 71.577 56.5379 71.5147 56.9996 71.3925C57.4606 71.2694 57.8617 71.0627 58.2021 70.7724C58.6655 70.3754 59.0133 69.8816 59.2446 69.2935C59.4759 68.7038 59.5915 68.0181 59.5915 67.2348C59.5915 66.4532 59.4759 65.7675 59.2446 65.1777C59.0133 64.588 58.6655 64.0951 58.2021 63.6989C57.8559 63.4086 57.4409 63.201 56.957 63.0788C56.4731 62.9558 55.7176 62.8943 54.6899 62.8943H53.969H53.248L53.2496 71.577Z" fill="white"/>
<path d="M63.0554 70.8979L64.6466 70.1597C64.7984 70.7092 65.074 71.1275 65.4767 71.4138C65.8794 71.7009 66.3937 71.8444 67.0195 71.8444C67.6109 71.8444 68.0817 71.6795 68.4311 71.349C68.7805 71.0209 68.9552 70.5788 68.9552 70.0244C68.9552 69.305 68.3573 68.6628 67.1622 68.0985C66.9941 68.0132 66.8653 67.9525 66.7759 67.914C65.425 67.2537 64.5228 66.6582 64.0741 66.1243C63.623 65.5911 63.3983 64.9391 63.3983 64.1664C63.3983 63.1666 63.7387 62.3562 64.417 61.7362C65.0953 61.1161 65.986 60.8052 67.0859 60.8052C67.9906 60.8052 68.7477 60.9816 69.3571 61.331C69.9649 61.6787 70.3873 62.1815 70.6227 62.8352L69.0651 63.639C68.8182 63.2527 68.5492 62.9714 68.2564 62.7934C67.9636 62.6138 67.6265 62.5244 67.2467 62.5244C66.7111 62.5244 66.2838 62.6638 65.9688 62.9443C65.653 63.2232 65.4947 63.598 65.4947 64.0672C65.4947 64.8037 66.1878 65.4911 67.5731 66.1292C67.6789 66.1792 67.7626 66.217 67.8249 66.2465C69.0372 66.8059 69.8697 67.3521 70.3217 67.8836C70.7752 68.4184 71.0008 69.0852 71.0008 69.8833C71.0008 71.0447 70.635 71.9691 69.9025 72.6531C69.1709 73.3372 68.1809 73.68 66.9367 73.68C65.8925 73.68 65.0362 73.4397 64.3678 72.9591C63.6993 72.4792 63.2621 71.7919 63.0554 70.8979Z" fill="white"/>
<path d="M24.6833 31.4877V19.2199H26.6781V29.7022H31.9923V31.4877H24.6833V31.4877Z" fill="white"/>
<path d="M34.0649 31.4877V19.2199H36.7552C38.5039 19.2199 39.7326 19.3077 40.4454 19.4832C41.1581 19.6595 41.7823 19.954 42.3187 20.3666C43.0274 20.9095 43.5663 21.6043 43.9313 22.4532C44.2971 23.3021 44.48 24.2716 44.48 25.3608C44.48 26.45 44.2971 27.4146 43.9313 28.2561C43.5663 29.096 43.0274 29.7907 42.3187 30.3378C41.7823 30.7512 41.1721 31.0456 40.4888 31.222C39.8031 31.3983 38.7385 31.4861 37.2917 31.4861H36.7561H34.0649V31.4877ZM36.0597 29.6858H37.7354C38.6573 29.6858 39.3479 29.6251 39.8089 29.5012C40.2707 29.379 40.6717 29.1723 41.0121 28.8819C41.4755 28.485 41.8233 27.992 42.0546 27.4023C42.2867 26.8126 42.4024 26.1277 42.4024 25.3452C42.4024 24.5627 42.2867 23.877 42.0546 23.2873C41.8233 22.6976 41.4755 22.2055 41.0121 21.8077C40.6652 21.5173 40.251 21.3106 39.7662 21.1892C39.2831 21.0662 38.5285 21.0039 37.5008 21.0039H36.779H36.0597V29.6858Z" fill="white"/>
</svg>
