<svg width="60" height="60" viewBox="0 0 60 60" fill="none" xmlns="http://www.w3.org/2000/svg">
<path d="M46.5273 59.9727H51.0545C53.3455 59.9727 55.2273 58.2273 55.5 55.9909L60 11.0455H46.3636V0H40.9909V11.0455H27.4364L28.2545 17.4273C32.9182 18.7091 37.2818 21.0273 39.9 23.5909C43.8273 27.4636 46.5273 31.4727 46.5273 38.0182V59.9727V59.9727ZM0 57.2455V54.5455H40.9909V57.2455C40.9909 58.7455 39.7636 59.9727 38.2364 59.9727H2.75455C1.22727 59.9727 0 58.7455 0 57.2455V57.2455ZM40.9909 38.1545C40.9909 16.3364 0 16.3364 0 38.1545H40.9909ZM0.0545454 43.6364H40.9636V49.0909H0.0545454V43.6364Z" fill="#C09186"/>
</svg>
