<?xml version="1.0" encoding="utf-8"?>
<!-- Generator: Adobe Illustrator 16.0.0, SVG Export Plug-In . SVG Version: 6.00 Build 0)  -->
<!DOCTYPE svg PUBLIC "-//W3C//DTD SVG 1.1//EN" "http://www.w3.org/Graphics/SVG/1.1/DTD/svg11.dtd">
<svg version="1.1" id="Layer_1" xmlns="http://www.w3.org/2000/svg" xmlns:xlink="http://www.w3.org/1999/xlink" x="0px" y="0px"
	 width="27.77px" height="27.92px" viewBox="0 0 27.77 27.92" enable-background="new 0 0 27.77 27.92" xml:space="preserve">
<g>
	<path d="M27.396,10.694C25.888,4.386,20.444,0.085,13.881,0c-0.866,0.042-1.8,0.106-2.65,0.265
		C2.029,2.124-2.707,12.277,1.743,20.455c0.158,0.233,0.158,0.437,0.127,0.688c-0.648,2.125-1.243,4.303-1.816,6.447
		c-0.096,0.371-0.096,0.371,0.26,0.275c2.246-0.615,4.472-1.189,6.712-1.741c0.196-0.063,0.334-0.063,0.499,0.021
		c2.878,1.465,5.915,1.881,9.103,1.285C24.226,25.966,29.212,18.213,27.396,10.694z M15.83,25.212
		c-0.664,0.116-1.285,0.18-1.599,0.139c-2.447,0-4.418-0.553-6.25-1.604c-0.26-0.159-0.457-0.202-0.706-0.106
		c-1.253,0.299-2.475,0.639-3.717,0.957c-0.255,0.073-0.281,0.021-0.223-0.225c0.33-1.146,0.637-2.314,0.999-3.504
		c0.08-0.318,0.059-0.574-0.145-0.818C1.679,15.951,1.791,10.928,4.6,7.126c2.926-3.908,6.945-5.533,11.719-4.503
		c4.71,0.988,7.728,4.046,8.806,8.74C26.642,17.789,22.309,24.161,15.83,25.212z"/>
	<path d="M17.508,20.455c-0.482,0.053-0.972-0.043-1.438-0.181c-3.17-0.936-5.569-2.879-7.498-5.512
		c-0.717-0.978-1.401-2.029-1.608-3.271C6.67,10.057,7.122,8.772,8.21,7.795c0.36-0.35,1.417-0.51,1.848-0.276
		c0.138,0.117,0.218,0.223,0.309,0.361c0.393,0.988,0.813,1.901,1.21,2.835c0.059,0.213,0.048,0.393-0.059,0.595
		c-0.212,0.436-0.537,0.775-0.85,1.147c-0.267,0.223-0.267,0.478-0.085,0.754c1.136,1.901,2.671,3.271,4.73,4.067
		c0.297,0.117,0.525,0.074,0.711-0.159c0.356-0.414,0.706-0.871,1.036-1.308c0.201-0.265,0.474-0.317,0.771-0.18
		c0.68,0.297,1.349,0.616,1.997,0.914c0.18,0.096,0.308,0.159,0.467,0.232c0.685,0.341,0.685,0.383,0.604,1.115
		c-0.091,1.444-1.199,2.178-2.47,2.539C18.087,20.507,17.811,20.507,17.508,20.455z"/>
</g>
</svg>
