<?xml version="1.0" encoding="utf-8"?>
<!-- Generator: Adobe Illustrator 16.0.0, SVG Export Plug-In . SVG Version: 6.00 Build 0)  -->
<!DOCTYPE svg PUBLIC "-//W3C//DTD SVG 1.1//EN" "http://www.w3.org/Graphics/SVG/1.1/DTD/svg11.dtd">
<svg version="1.1" id="Layer_1" xmlns="http://www.w3.org/2000/svg" xmlns:xlink="http://www.w3.org/1999/xlink" x="0px" y="0px"
	 width="53px" height="50px" viewBox="0 0 53 50" enable-background="new 0 0 53 50" xml:space="preserve">
<path d="M47.368,10.526h-5.736c0.289-0.816,0.474-1.71,0.474-2.632C42.105,3.526,38.579,0,34.211,0
	c-2.764,0-5.158,1.421-6.579,3.553l-1.316,1.763L25,3.526C23.579,1.421,21.184,0,18.421,0c-4.368,0-7.895,3.526-7.895,7.895
	c0,0.921,0.184,1.816,0.474,2.632H5.263c-2.921,0-5.237,2.342-5.237,5.263L0,44.736C0,47.658,2.342,50,5.263,50h42.105
	c2.921,0,5.264-2.342,5.264-5.264V15.79C52.632,12.869,50.289,10.526,47.368,10.526z M34.211,5.263c1.447,0,2.631,1.184,2.631,2.631
	c0,1.448-1.184,2.632-2.631,2.632s-2.632-1.184-2.632-2.632C31.579,6.447,32.764,5.263,34.211,5.263z M18.421,5.263
	c1.447,0,2.632,1.184,2.632,2.631c0,1.448-1.185,2.632-2.632,2.632S15.79,9.342,15.79,7.895C15.79,6.447,16.974,5.263,18.421,5.263z
	 M47.368,44.736H5.263v-5.263h42.105V44.736z M47.368,31.579H5.263V15.79h13.369l-5.474,7.447l4.263,3.08l6.263-8.527l2.632-3.579
	l2.631,3.579l6.264,8.527l4.263-3.08L34,15.79h13.368V31.579z"/>
</svg>
