<?xml version="1.0" encoding="utf-8"?>
<!-- Generator: Adobe Illustrator 16.0.0, SVG Export Plug-In . SVG Version: 6.00 Build 0)  -->
<!DOCTYPE svg PUBLIC "-//W3C//DTD SVG 1.1//EN" "http://www.w3.org/Graphics/SVG/1.1/DTD/svg11.dtd">
<svg version="1.1" id="Layer_1" xmlns="http://www.w3.org/2000/svg" xmlns:xlink="http://www.w3.org/1999/xlink" x="0px" y="0px"
	 width="60px" height="60px" viewBox="0 0 60 60" enable-background="new 0 0 60 60" xml:space="preserve">
<path d="M46.527,59.973h4.527c2.291,0,4.172-1.746,4.445-3.982L60,11.045H46.363V0H40.99v11.045H27.437l0.818,6.382
	c4.664,1.282,9.027,3.6,11.646,6.164c3.927,3.873,6.627,7.882,6.627,14.427V59.973L46.527,59.973z M0,57.246v-2.701h40.99v2.701
	c0,1.5-1.227,2.727-2.754,2.727H2.754C1.227,59.973,0,58.746,0,57.246L0,57.246z M40.99,38.154c0-21.818-40.99-21.818-40.99,0H40.99
	z M0.055,43.637h40.908v5.454H0.055V43.637z"/>
</svg>
