<?xml version="1.0" encoding="utf-8"?>
<!-- Generator: Adobe Illustrator 16.0.0, SVG Export Plug-In . SVG Version: 6.00 Build 0)  -->
<!DOCTYPE svg PUBLIC "-//W3C//DTD SVG 1.1//EN" "http://www.w3.org/Graphics/SVG/1.1/DTD/svg11.dtd">
<svg version="1.1" id="Layer_1" xmlns="http://www.w3.org/2000/svg" xmlns:xlink="http://www.w3.org/1999/xlink" x="0px" y="0px"
	 width="40px" height="21.666px" viewBox="0 0 40 21.666" enable-background="new 0 0 40 21.666" xml:space="preserve">
<path d="M13.333,9.333h-5v-5H5v5H0v3.333h5v5h3.333v-5h5V9.333z M30,11c2.768,0,4.982-2.233,4.982-5S32.768,1,30,1
	c-0.533,0-1.05,0.083-1.518,0.233c0.951,1.35,1.5,2.983,1.5,4.767s-0.566,3.4-1.5,4.767C28.95,10.917,29.467,11,30,11z M21.666,11
	c2.768,0,4.984-2.233,4.984-5s-2.217-5-4.984-5c-2.766,0-5,2.233-5,5S18.9,11,21.666,11z M32.7,14.601
	c1.384,1.217,2.3,2.768,2.3,4.733v3.332h5v-3.332C40,16.767,36.05,15.185,32.7,14.601z M21.666,14.334c-3.333,0-10,1.666-10,5v3.332
	h20v-3.332C31.666,16,25,14.334,21.666,14.334z"/>
</svg>
