<?xml version="1.0" encoding="utf-8"?>
<!-- Generator: Adobe Illustrator 16.0.0, SVG Export Plug-In . SVG Version: 6.00 Build 0)  -->
<!DOCTYPE svg PUBLIC "-//W3C//DTD SVG 1.0//EN" "http://www.w3.org/TR/2001/REC-SVG-20010904/DTD/svg10.dtd">
<svg version="1.0" id="Layer_1" xmlns="http://www.w3.org/2000/svg" xmlns:xlink="http://www.w3.org/1999/xlink" x="0px" y="0px"
	 width="268px" height="269px" viewBox="0 0 268 269" enable-background="new 0 0 268 269" xml:space="preserve">
<g>
	<rect fill="#662E19" width="269" height="269"/>
	<g>
		<path fill="#FFFFFF" d="M33.909,92.511c0,34.093,27.642,61.732,61.729,61.732c34.094,0,61.733-27.64,61.733-61.732
			c0-34.093-27.639-61.734-61.733-61.734C61.551,30.776,33.909,58.417,33.909,92.511z M59.331,93.841
			c0-20.055,16.259-36.311,36.307-36.311c20.055,0,36.308,16.255,36.308,36.311c0,20.051-16.252,36.31-36.308,36.31
			C75.59,130.15,59.331,113.892,59.331,93.841z"/>
		<path fill="#FFFFFF" d="M186.98,199.648h-23.594c0.059,3.772,0.092,2.789,0.092,3.271c0,6.952-5.633,13.506-12.58,13.506
			c-5.551,0-10.252-4.479-11.922-9.825c-0.135-0.908-0.509-5.811-0.539-6.42c-0.976-19.009-16.692-34.214-35.935-34.214
			c-19.877,0-35.991,16.019-35.991,35.896c0,0.431,0.049-2.215,0.061,1.56h23.278c-0.087-1.43-0.088-1.116-0.088-1.599
			c0-6.948,5.632-12.746,12.578-12.746c6.952,0,12.224,5.88,12.583,12.82c0.026,0.496,0.097,1.035,0.146,1.674l0.017,0.002
			c0.433,19.501,16.37,35.182,35.972,35.182c19.875,0,35.989-16.115,35.989-35.99C187.048,202.336,186.998,203.422,186.98,199.648z"
			/>
		<polygon fill="#FFFFFF" points="208.439,104.366 208.439,184.555 189.572,184.555 189.572,135.498 166.932,135.498 
			166.932,184.555 146.178,184.555 146.178,189.271 233.912,189.271 233.912,184.555 233.912,104.366 		"/>
	</g>
</g>
</svg>
