<svg width="24" height="24" viewBox="0 0 24 24" fill="none" xmlns="http://www.w3.org/2000/svg">
<path d="M4.45594 1.92001C3.5947 1.92001 2.83451 2.49851 2.60532 3.32908L0.960007 9.29533V9.36001C0.960007 10.2402 1.32977 11.0361 1.92001 11.6044V20.64C1.92001 21.4296 2.57042 22.08 3.36001 22.08H20.64C21.4296 22.08 22.08 21.4296 22.08 20.64V11.6044C22.6702 11.0361 23.04 10.2402 23.04 9.36001V9.29533L21.3938 3.32908C21.1646 2.49873 20.4047 1.92001 19.5431 1.92001H4.45594ZM4.45594 2.88001H7.12969L6.33469 8.64001H2.13657L3.53063 3.58501C3.64608 3.16662 4.02215 2.88001 4.45594 2.88001ZM8.09813 2.88001H11.52V8.64001H7.30407L8.09813 2.88001ZM12.48 2.88001H15.9019L16.6959 8.64001H12.48V2.88001ZM16.8703 2.88001H19.5431C19.9776 2.88001 20.3529 3.1664 20.4684 3.58501L21.8634 8.64001H17.6653L16.8703 2.88001ZM1.95094 9.60001H6.21563C6.09587 10.683 5.19658 11.52 4.08001 11.52C2.96414 11.52 2.0709 10.6822 1.95094 9.60001ZM7.24782 9.60001H11.4722C11.3486 10.6789 10.4737 11.52 9.36001 11.52C8.24634 11.52 7.37137 10.6789 7.24782 9.60001ZM12.5278 9.60001H16.7522C16.6286 10.6789 15.7537 11.52 14.64 11.52C13.5263 11.52 12.6514 10.6789 12.5278 9.60001ZM17.7844 9.60001H22.0491C21.9291 10.6822 21.0359 11.52 19.92 11.52C18.8034 11.52 17.9041 10.683 17.7844 9.60001ZM12 10.9191C12.5451 11.8342 13.502 12.48 14.64 12.48C15.7583 12.48 16.7245 11.8792 17.2641 10.9866C17.8141 11.88 18.7983 12.48 19.92 12.48C20.3448 12.48 20.7502 12.3942 21.12 12.2391V20.64C21.12 20.9112 20.9112 21.12 20.64 21.12H3.36001C3.08879 21.12 2.88001 20.9112 2.88001 20.64V12.2391C3.24981 12.3942 3.6552 12.48 4.08001 12.48C5.20168 12.48 6.18591 11.88 6.73594 10.9866C7.27555 11.8792 8.24173 12.48 9.36001 12.48C10.498 12.48 11.4549 11.8342 12 10.9191ZM17.04 13.92C15.3197 13.92 13.92 15.3197 13.92 17.04C13.92 18.7603 15.3197 20.16 17.04 20.16C18.7603 20.16 20.16 18.7603 20.16 17.04C20.16 16.9589 20.1536 16.8797 20.1478 16.8H17.28V17.76H19.0678C18.7697 18.5962 17.9774 19.2 17.04 19.2C15.8491 19.2 14.88 18.2309 14.88 17.04C14.88 15.8491 15.8491 14.88 17.04 14.88C17.7581 14.88 18.3906 15.2358 18.7838 15.7763L19.4709 15.0891C18.8983 14.3777 18.0221 13.92 17.04 13.92Z" fill="#8C4B38"/>
</svg>
