<?xml version="1.0" encoding="UTF-8"?>
<svg id="Layer_1" data-name="Layer 1" xmlns="http://www.w3.org/2000/svg" viewBox="0 0 150 150">
  <defs>
    <style>
      .cls-1 {
        font-family: KhmerMN, 'Khmer MN';
        font-size: 22.05px;
      }

      .cls-1, .cls-2 {
        fill: #501844;
      }

      .cls-3 {
        fill: #fff;
        stroke-width: 2px;
      }

      .cls-3, .cls-2 {
        stroke: #501844;
        stroke-miterlimit: 10;
      }

      .cls-2 {
        stroke-width: .15px;
      }

      .cls-4 {
        letter-spacing: -.03em;
      }

      .cls-5 {
        letter-spacing: -.01em;
      }

      .cls-6 {
        letter-spacing: 0em;
      }
    </style>
  </defs>
  <path class="cls-3" d="M138.81,148.24H11.18c-5.14,0-9.31-4.16-9.31-9.31V11.07C1.88,5.92,6.04,1.76,11.18,1.76h127.62c5.14,0,9.31,4.16,9.31,9.31v127.62c.24,5.14-4.16,9.55-9.31,9.55Z"/>
  <text class="cls-1" transform="translate(32.66 133.51)"><tspan class="cls-5" x="0" y="0">Vrat </tspan><tspan class="cls-4" x="40.8" y="0">F</tspan><tspan class="cls-6" x="50.24" y="0">ood</tspan></text>
  <g>
    <path class="cls-2" d="M19.28,60.13c-.14,0-.23,0-.25-.01-.04-.02-.07-.05-.09-.09-.02-.02-.03-.04-.03-.06,0-.02,0-.05.02-.07.02-.06.07-.11.14-.13s.18-.04.33-.04h.25v-2.62h-2.49v2.6c.31,0,.49.01.53.02.09.03.13.08.13.16,0,.05,0,.09-.03.11s-.1.04-.25.06c-.14.01-1.23.02-3.26.03-.59,0-.9,0-.91-.02-.07-.03-.11-.07-.11-.11,0-.04,0-.06,0-.07,0-.09.07-.15.2-.16.35-.02.53-.03.55-.04.01-.06.02-.9.03-2.53-.27,0-.56,0-.87,0-.04,0-.07-.02-.1-.06s-.05-.07-.05-.12c0-.07.01-.12.04-.15.04-.05.23-.08.56-.08h.42c0-1.09,0-1.8-.03-2.15l-.39-.16c-.61-.25-1.2-.38-1.76-.4-.52,0-.94.08-1.25.24-.13.07-.26.16-.38.28-.29.29-.43.63-.43,1.04,0,.36.11.61.33.76.1.06.21.09.33.09.05,0,.1,0,.14-.02.06-.02.08-.04.08-.07,0-.03-.02-.06-.06-.1-.05-.06-.07-.11-.07-.16,0-.03.01-.06.04-.09.04-.05.08-.07.15-.07.18,0,.29.1.35.31,0,.04.01.07.01.11,0,.21-.12.36-.36.46-.08.03-.18.04-.28.04-.27,0-.49-.09-.68-.27-.25-.23-.38-.57-.38-1.02,0-.28.07-.56.21-.83.37-.73,1.12-1.09,2.27-1.09.51,0,1.11.15,1.8.42.17.07.27.11.29.11.02,0,.03-.25.03-.75v-3.05c-.29,0-.45,0-.49,0-.12,0-.19-.06-.19-.17,0-.05.01-.09.04-.12.03-.05.34-.08.94-.08.25,0,.64,0,1.17-.03.29-.01.59-.02.9-.02.92,0,1.4.03,1.46.09.03.03.04.07.04.12,0,.09-.04.14-.11.17-.03,0-.24.02-.63.02v.88c.01.25,0,.56,0,.92s0,.69-.01.98c0,.29-.01.59-.01.88,0,.89.02,1.49.06,1.79l.27.15c.68.4,1.33.62,1.95.64l.24.02c.02-3.05.03-5.14.03-6.26-.38,0-.6,0-.67-.03-.08-.02-.13-.07-.13-.15,0-.12.08-.18.25-.19.28-.01,1.66-.02,4.16-.03l.06.06s.06.08.06.12c0,.04-.01.08-.04.11s-.07.06-.13.06c-.04,0-.16.02-.37.03-.01,4.12-.02,7.22-.02,9.3,0,.02.08.04.22.04.24.01.36.07.36.19,0,.04-.01.08-.03.12-.02.03-.1.05-.25.06-.21.01-.51.02-.9.03-1.77.03-2.77.05-2.98.05ZM14.39,53.34s.08-.05.21-.16c.39-.32.59-.73.59-1.22v-.1c0-.46-.14-.81-.41-1.05-.04-.04-.09-.08-.15-.12s-.11-.07-.16-.1-.08-.04-.1-.04c0,0,0,.06,0,.17,0,.11,0,.16.02.17.01.01.03.02.06.03.1.05.2.14.3.29.14.22.21.43.21.62,0,.1-.01.21-.04.33-.06.27-.18.48-.35.63-.06.05-.12.09-.16.1-.03.01-.04.09-.04.23s0,.21.02.21ZM14.37,52.48l.06-.07c.04-.05.08-.14.12-.27.03-.13.05-.22.05-.29,0-.16-.08-.34-.22-.52v1.15ZM14.42,56.56c.1-.08.2-.17.27-.27.21-.27.33-.52.37-.73.04-.22.05-.37.05-.47,0-.22-.04-.42-.13-.6-.04-.08-.1-.17-.18-.27-.08-.1-.16-.19-.24-.27-.08-.08-.13-.12-.16-.12-.01,0-.02.06-.02.17,0,.1,0,.16.02.17.01.02.03.03.05.04.1.06.21.19.31.41.08.16.12.33.12.51,0,.3-.11.55-.33.76l-.15.16v.5ZM14.43,55.5s.04-.04.06-.11c.03-.09.04-.18.04-.25,0-.09-.03-.21-.08-.35-.01-.03-.02-.06-.03-.06-.02,0-.03.12-.03.36,0,.28.01.41.04.41ZM14.39,59.65c.08-.05.14-.09.17-.12.13-.11.26-.29.4-.53.16-.28.24-.55.24-.8,0-.37-.11-.68-.33-.92-.19-.2-.33-.29-.4-.29-.02,0-.04.05-.04.15,0,.05,0,.09.02.12.01.03.04.06.1.11.21.21.32.53.32.94,0,.21-.02.37-.07.49s-.12.24-.24.35l-.15.15v.34ZM14.42,58.74s.06-.18.06-.42c0-.21-.02-.35-.06-.43-.01,0-.02.14-.02.43s0,.42.02.42ZM16.02,55.48s.19-.2.54-.55l-1.58-1.59-.28.24.15.14c.36.33.56.71.62,1.12l.03.18c.33.3.5.46.52.46ZM16.06,58.7l.26-.27c.15-.15.22-.23.22-.26,0-.03-.43-.51-1.3-1.44-.14-.15-.21-.23-.23-.24,0,0-.02.02-.04.04s-.05.05-.08.09c-.03.04-.07.07-.11.12.28.22.47.43.59.64.05.1.09.21.13.35.04.14.06.25.06.35,0,.06.03.13.08.19.09.1.2.23.34.36.05.05.08.07.08.07ZM16.09,52.3s.1-.09.28-.27.27-.27.27-.29-.05-.05-.14-.12c-.1-.07-.22-.18-.36-.33-.14-.14-.47-.45-.98-.92h-.29l.18.18c.29.27.45.6.5,1l.03.23c.33.34.5.51.51.51ZM16.19,59.67c.15,0,.23,0,.23-.02,0,0-.15-.16-.43-.48-.29-.32-.44-.48-.46-.49-.01,0-.04.05-.08.16-.11.28-.27.55-.47.8l.58.02s.04-.02.04-.06.02-.08.05-.12c.04-.04.07-.06.11-.06s.08.02.12.05c.04.04.07.08.08.12l.02.07h.22ZM16.1,57.11c.13-.16.24-.29.33-.38.09-.09.13-.15.13-.16s-.18-.2-.54-.55-.55-.53-.56-.53-.03.04-.05.13c-.02.09-.05.19-.1.3-.05.12-.07.18-.08.2,0,.03.29.36.86.99ZM16.11,53.94s.02-.01.06-.04c.03-.03.08-.07.13-.11.05-.05.1-.09.15-.14.05-.04.09-.08.12-.11.03-.03.06-.05.09-.08-.14-.18-.46-.52-.96-1.02-.09-.09-.14-.14-.15-.14,0,0,0,.02-.02.05,0,.03-.02.06-.03.11-.01.04-.04.11-.07.19-.04.08-.07.16-.11.23-.04.07-.06.12-.08.14,0,.03.25.29.74.78.08.09.13.13.13.13ZM16.1,50.75c.2-.21.29-.33.29-.35s-.11-.03-.33-.03h-.36s.4.37.4.37ZM15.88,54.91s-.08-.02-.11-.04-.05-.06-.05-.1.02-.07.05-.12.07-.06.12-.06c.02,0,.04,0,.06.02.07.02.1.08.1.15,0,.1-.05.15-.16.15ZM15.92,53.34s-.07-.02-.11-.06-.06-.08-.06-.12c0-.02,0-.04.02-.06.02-.07.08-.1.15-.1.04,0,.08.02.12.06s.06.08.06.12c0,.02,0,.04-.03.07-.02.03-.04.05-.07.07-.03.02-.05.03-.07.03ZM15.95,56.58h-.03s-.05,0-.07-.02c-.07-.04-.1-.1-.1-.17,0-.04.01-.07.04-.1.04-.04.09-.07.15-.07s.11.03.15.09c.02.03.03.06.03.08,0,.04-.02.09-.06.13-.02.03-.05.05-.1.06ZM15.93,51.78s-.04,0-.06-.01c-.07-.03-.1-.06-.11-.09,0-.03,0-.05,0-.06,0-.08.04-.15.13-.18.02-.01.04-.02.05-.02.04,0,.07.02.11.07s.06.08.06.12c0,.06-.02.1-.06.13-.04.03-.08.04-.12.04ZM15.93,58.12s-.08-.02-.11-.05c-.03-.03-.05-.08-.05-.13,0-.04.02-.07.05-.1.03-.03.07-.04.1-.04.02,0,.05,0,.07.02.07.03.1.08.1.14,0,.04-.02.08-.05.11s-.07.05-.11.05ZM16.8,56.25v-.4c.01-.17,0-.3,0-.38,0-.08-.01-.16-.02-.24-.2.2-.36.37-.49.52.11.09.2.17.27.24.04.04.12.13.24.27ZM16.78,59.45l.02-.65c0-.09,0-.19-.02-.32-.28.29-.43.44-.43.47,0,.02.07.11.21.26l.22.24ZM16.78,52.99s0-.29,0-.86l-.43.43c.28.28.43.42.43.42ZM16.78,57.82c.02-.15.03-.47.04-.95-.19.2-.34.37-.46.51l.42.43ZM16.74,54.56s.02-.12.02-.33,0-.33-.02-.33c-.01,0-.14.11-.37.33.23.23.35.34.37.34ZM16.78,51.38s0-.28,0-.84l-.21.23c-.1.11-.16.18-.16.21s.04.09.12.16c.15.15.23.23.24.23ZM17.99,56.68l-.27-.13c-.18-.09-.36-.19-.52-.29-.02.2-.03.34-.03.42h.83ZM22.49,51.88v-.25c-.92-.04-1.74-.07-2.47-.09v.34h2.47ZM22.49,52.62v-.17c0-.1,0-.16-.02-.18s-.38-.03-1.1-.03c-.67,0-1.12,0-1.34.03,0,.14,0,.22,0,.25,0,.04.02.05.05.05.14,0,.52,0,1.14.02.67,0,1.09.02,1.27.03ZM20.77,53.23c.21,0,.79,0,1.72-.03,0-.12,0-.18,0-.2,0-.02-.02-.03-.05-.03-.08-.01-.88-.02-2.41-.04v.27c.21.01.46.02.74.02ZM22.49,53.83v-.24h-2.47c0,.14,0,.2.02.2.11.01.68.02,1.71.03h.74ZM22.49,54.46v-.28c-1.27,0-2.09-.01-2.47-.03,0,.15,0,.23.03.25.08.03.89.06,2.44.06ZM20.55,55.93s.11-.06.3-.18c.2-.14.32-.21.38-.21.07,0,.2.07.37.22.14.1.21.15.22.15,0,0,.03-.01.08-.04.04-.03.1-.06.16-.09.06-.04.12-.07.18-.11.06-.04.11-.07.15-.09.04-.02.08-.05.12-.07,0-.26,0-.39,0-.39,0,0-.09.07-.27.2-.16.13-.28.2-.34.2-.04,0-.08-.01-.13-.04-.07-.05-.17-.14-.29-.26-.09-.08-.15-.13-.16-.13-.01,0-.03,0-.04.02-.01.01-.05.04-.09.08-.28.24-.46.36-.53.36-.06,0-.17-.08-.33-.23-.14-.14-.23-.2-.25-.2-.01,0-.02.07-.02.21s.01.22.04.23.11.09.25.21c.14.13.21.19.23.19ZM21.84,56.83s.08-.05.19-.15c.12-.11.28-.23.46-.36v-.39c-.29.19-.45.29-.46.3-.07.06-.13.08-.19.08-.08,0-.22-.08-.42-.24-.11-.09-.18-.13-.21-.13,0,0-.03.02-.09.05-.29.19-.45.29-.49.3-.04.01-.07.02-.09.02-.08,0-.22-.09-.41-.26-.04-.05-.07-.07-.08-.07-.01,0-.02.17-.02.5l.41.3.14-.1c.31-.24.5-.36.59-.36.04,0,.09.02.14.05.06.04.18.15.38.32.09.08.14.12.16.12ZM21.83,57.62c.42-.31.64-.49.66-.53,0-.02,0-.06,0-.13v-.19c-.28.25-.44.38-.5.42-.05.04-.1.05-.14.05-.09,0-.23-.09-.42-.27-.1-.09-.17-.15-.21-.18-.03-.02-.06-.05-.09-.07l-.43.33c-.12.1-.21.15-.26.15-.04,0-.19-.08-.42-.25,0,.18,0,.29,0,.32,0,.03.02.04.03.04.03.01.19.11.48.29.31-.26.49-.39.53-.39.09,0,.28.1.57.29l.18.12ZM20.56,58.52c.17-.15.3-.27.41-.38.05-.06.1-.09.16-.09.07,0,.19.07.35.21s.25.21.26.21c.01,0,.11-.07.28-.2.27-.21.41-.34.43-.39.01-.02.02-.12.02-.28-.13.09-.26.18-.37.27-.09.08-.18.13-.25.13-.07,0-.2-.06-.37-.17-.2-.13-.32-.19-.35-.19s-.09.04-.17.11c-.18.17-.32.26-.4.26-.06,0-.16-.04-.3-.14s-.21-.14-.23-.14c0,0-.01.1-.01.31l.53.49ZM20.56,59.3c.12-.11.23-.21.32-.28.16-.13.27-.2.34-.2.04,0,.08,0,.1.03.03.02.16.16.4.42.06-.05.12-.1.18-.15s.12-.11.19-.17c.07-.06.13-.11.19-.16.06-.05.1-.09.13-.11.03-.03.04-.05.05-.07,0-.02,0-.05,0-.09,0-.08,0-.12-.01-.12,0,0-.03.02-.08.06-.23.18-.37.29-.42.33-.08.06-.15.08-.22.08s-.26-.13-.58-.39c-.28.25-.45.38-.49.41-.04.02-.08.03-.11.03-.07,0-.25-.13-.53-.38v.35l.53.41ZM20.06,59.71c.05-.01.56-.02,1.53-.02-.12-.12-.21-.22-.27-.31-.06-.09-.1-.13-.12-.13-.03,0-.09.04-.19.13-.1.09-.17.15-.22.19-.05.04-.09.07-.13.08-.03.01-.07.02-.1.02-.08,0-.17-.04-.28-.12-.12-.08-.18-.13-.19-.15,0-.02-.02-.03-.03-.03-.02,0-.03.06-.03.18,0,.11,0,.16.03.16h.01ZM22.49,51.25v-.35c-.21-.01-.42-.02-.64-.02-1.12,0-1.72.01-1.8.04-.01,0-.02.03-.02.07v.19c1.18.02,1.78.04,1.82.05.01,0,.23.01.64.01ZM20.05,50.56c.27-.02,1.09-.03,2.44-.03v-.2c-1.47,0-2.29.01-2.44.03v.2ZM20.64,55.11s.02-.01.06-.04c.04-.03.08-.06.13-.11.05-.04.11-.09.17-.14-.39-.02-.63-.03-.72-.03,0,0,.03.03.08.07.05.04.15.12.27.24ZM21.91,55.09l.31-.25h-.61c.17.17.26.25.29.25h.01ZM21.96,59.68c.1,0,.19,0,.26,0,.07,0,.16,0,.27,0,0-.35,0-.52-.03-.52-.02,0-.24.18-.68.53,0,0,.06,0,.17,0Z"/>
    <path class="cls-2" d="M29,60.24c-.11,0-.21,0-.31-.01-.82-.06-1.58-.32-2.29-.79-.75-.51-1.33-1.17-1.73-1.97-.04-.08-.08-.15-.11-.22-.03-.07-.05-.11-.06-.13-.05-.11-.12-.33-.22-.68-.14-.48-.2-.97-.2-1.47,0-.33.03-.66.08-.99.27-1.38.96-2.48,2.07-3.3.06-.05.1-.07.1-.07s.02,0,.05-.03c.11-.08.26-.16.46-.26.15-.07.25-.12.31-.15.09-.04.25-.09.46-.15.22-.06.42-.1.59-.14.19-.02.46-.04.82-.04.14,0,.26,0,.36.02.84.1,1.6.4,2.27.89.68.49,1.21,1.12,1.6,1.9.25.51.42,1.06.52,1.65.03.2.04.49.04.85-.01,1.2-.36,2.26-1.05,3.16-.89,1.14-2.01,1.77-3.35,1.9-.15.01-.29.02-.41.02ZM24.45,54.66s.06-.02.17-.05c.51-.19.83-.58.95-1.15.02-.13.04-.24.04-.34-.02-.31-.13-.63-.32-.95-.09.12-.14.2-.14.25,0,.02.02.07.06.14.09.16.13.35.13.57,0,.23-.06.44-.18.63-.14.23-.33.39-.59.49-.03.01-.06.02-.06.02-.03,0-.05.11-.07.34,0,.04,0,.06.02.06ZM24.68,56.57s.02-.02.03-.05c.01-.04.02-.09.03-.16s.01-.15.02-.22c0-.16-.02-.29-.05-.41-.03-.11-.09-.23-.17-.35-.02-.03-.05-.06-.06-.08-.02-.02-.03-.03-.04-.03s-.01.02-.01.05c0,.11.02.29.07.55.07.39.12.62.17.7h0ZM24.56,53.84s.06-.03.12-.08c.19-.19.29-.4.29-.62,0-.1-.01-.2-.04-.28,0-.02,0-.03-.02-.03-.02,0-.08.14-.18.41-.12.33-.18.53-.18.58,0,.01,0,.02.01.02ZM25.4,57.17s.08-.02.17-.06c.08-.04.16-.08.24-.11.08-.03.13-.06.13-.09,0,0,0-.02-.01-.03-.03-.04-.07-.13-.12-.27-.03-.06-.05-.11-.07-.16-.02-.04-.03-.07-.03-.08s-.02-.06-.07-.16-.1-.21-.15-.34c-.05-.13-.11-.24-.15-.34s-.07-.15-.07-.16c0,0,0-.03-.03-.08-.12-.25-.17-.38-.17-.4,0-.02-.02-.04-.07-.05h-.02s-.06.04-.14.07-.12.05-.12.05c0,0,.03.04.08.11.09.11.18.27.27.5.04.07.05.17.06.29,0,.51.02.79.04.82.11.24.17.39.19.42.01.04.04.06.06.06ZM25.1,57.51s0-.03-.01-.05c0-.03-.02-.06-.04-.1s-.04-.08-.05-.13c-.06-.15-.11-.22-.13-.22,0,0-.01.01-.01.03s.04.11.12.26c.07.14.12.21.13.21ZM25.4,56.73s-.08-.02-.12-.06c-.04-.04-.06-.08-.06-.11s.02-.07.06-.11.08-.06.12-.06c.04,0,.08.02.11.06.04.04.06.08.06.12,0,.04-.02.08-.06.11s-.07.05-.11.05ZM25.8,55.68s.03-.01.08-.04c.05-.02.11-.05.19-.09.07-.04.13-.07.19-.1.05-.03.08-.05.09-.06s0-.01,0-.02c0-.07-.14-.37-.41-.92-.11-.23-.18-.34-.2-.34-.01,0-.03.02-.04.05-.07.12-.2.28-.38.47.3.7.46,1.05.48,1.05ZM25.82,58.17s.12-.03.3-.1c-.02-.2-.03-.38-.03-.53s0-.23-.02-.23c-.03,0-.12.04-.28.12-.08.04-.13.06-.15.06s-.04.01-.07.04c-.02.01-.03.03-.03.04,0,.02.01.06.04.13.09.2.16.34.19.44.01.03.02.05.04.05ZM26.23,54.19l.32-.16c.21-.11.32-.18.32-.21-.02-.08-.1-.26-.25-.55-.06-.12-.25-.5-.56-1.14-.05-.09-.08-.14-.1-.14-.02,0-.08.02-.17.03-.09.01-.14.03-.14.04,0,.02.02.05.05.09.04.07.09.19.15.37.08.25.12.47.12.66,0,.09-.02.26-.05.51.15.25.23.37.23.38,0,.01.03.06.08.13ZM25.84,55.17c-.09,0-.14-.03-.15-.09v-.08s0-.09.04-.13c.03-.02.06-.04.11-.04.12,0,.17.06.17.17,0,.03-.01.06-.03.09-.04.05-.08.07-.15.07ZM25.75,51.65s.11-.02.21-.06c.13-.06.27-.16.41-.28.18-.16.31-.32.4-.48.01-.03.02-.04.02-.05-.02,0-.12.06-.31.18-.31.21-.57.43-.79.69h.06ZM26.3,58.92s.02-.01.02-.03l-.02-.05s-.04-.08-.07-.2c-.03-.12-.06-.18-.08-.18-.01,0-.03,0-.04,0-.02,0-.04,0-.07.02s-.05.02-.09.04c.04.09.08.16.12.2.11.13.19.2.24.2ZM26.14,56.44s.04-.06.05-.17c0-.07.02-.16.04-.26.01-.05.02-.08.02-.11,0,0,0-.02,0-.02-.02,0-.08.02-.15.07-.08.04-.12.08-.12.09,0,.03.02.08.05.15.07.16.11.24.12.24ZM26.32,53.66s-.07-.01-.12-.04c-.04-.03-.06-.07-.06-.11,0-.04.01-.09.04-.12.03-.04.07-.05.12-.05.03,0,.07.02.11.06.04.04.06.07.06.1,0,.02,0,.04-.03.07-.02.02-.04.05-.07.07s-.04.03-.06.03ZM26.82,52.79s.04-.02.11-.06c.07-.03.15-.08.25-.12.1-.05.18-.09.25-.12.07-.03.1-.05.1-.05,0-.03-.08-.21-.24-.54-.07-.14-.14-.3-.21-.47-.04-.1-.07-.17-.09-.21-.02,0-.08.05-.18.16-.13.14-.23.24-.31.29-.1.07-.15.12-.17.13,0,.03.07.2.22.52s.23.47.26.48ZM26.53,54.76s.03-.05.06-.16c.03-.1.05-.16.05-.17,0,0,0,0-.01,0-.01,0-.05.01-.12.04-.08.04-.11.06-.11.08s.02.05.06.12.06.1.07.1ZM27.5,59.45c.5,0,1.06-.38,1.69-1.13.8-.98,1.4-2.2,1.81-3.68.2-.76.3-1.46.3-2.09,0-.83-.16-1.42-.48-1.78-.17-.16-.36-.25-.58-.25-.08,0-.17.01-.26.04-.55.18-1.1.64-1.65,1.38s-1,1.65-1.37,2.72c-.33,1.02-.5,1.94-.5,2.78,0,.88.18,1.48.54,1.81.14.13.31.19.51.19ZM26.89,52.29s-.08-.02-.12-.06-.05-.08-.05-.11c0-.04.02-.08.06-.12s.07-.05.11-.05c.04,0,.07.02.11.05s.06.07.07.12c0,.04-.02.09-.06.12-.04.04-.08.05-.12.05ZM27.07,53.34s.04-.05.1-.16c.04-.1.07-.16.07-.18h0s-.06.02-.14.06c-.08.04-.12.06-.12.08.05.14.08.2.09.2ZM27.51,51.42l.73-.36c-.15-.25-.24-.43-.29-.54-.05-.11-.09-.16-.14-.16-.03,0-.1.02-.21.05-.09.03-.17.05-.21.07-.05.02-.08.05-.09.09-.05.14-.08.22-.08.23,0,.02,0,.04.03.05.04.05.07.12.09.2.04.1.07.17.09.2.02.03.04.06.04.1.01.04.02.06.03.06ZM27.63,50.92s-.07-.02-.11-.05c-.04-.04-.06-.08-.06-.13,0-.02,0-.04.01-.06.02-.07.08-.11.16-.11.05,0,.09.02.13.06.03.04.05.07.05.11,0,.05-.02.1-.07.14-.03.03-.07.05-.11.05ZM27.79,52.05s.05-.06.14-.17c.16-.23.25-.34.25-.35-.03,0-.11.03-.25.1-.17.09-.26.14-.26.16,0,.03.02.08.06.15.04.07.06.11.07.11ZM28.11,59.79s.04,0,.04-.02c0-.04-.03-.06-.09-.06-.05,0-.08.01-.08.04,0,0,.02.02.05.03s.06.01.09.01ZM28.33,50.38c.22-.09.33-.14.33-.15,0,0,0,0-.03,0-.26,0-.39.02-.39.07,0,.01,0,.03.02.05.02.02.03.03.04.03h.02ZM28.99,59.89l-.14-.27c-.09-.17-.14-.27-.15-.28,0,0-.02,0-.05.02-.03.02-.11.07-.24.15.06.08.1.16.14.22.04.06.07.1.1.12.03.02.15.03.34.03ZM28.63,51s.06-.04.15-.13c.06-.05.17-.14.35-.28.13-.1.2-.16.2-.18,0-.01,0-.02-.02-.02-.02,0-.16.05-.4.15-.27.11-.41.17-.42.18,0,.01.02.06.06.15.04.07.06.12.08.14ZM29.44,59.81c.29-.06.49-.08.62-.08.08,0,.19-.02.33-.07.09-.03.14-.05.14-.06,0-.02-.01-.07-.04-.13-.04-.08-.08-.12-.1-.12l-.24.04c-.1.02-.19.04-.26.05-.07.02-.13.03-.2.03-.09,0-.15-.02-.18-.05-.04-.06-.09-.13-.14-.23-.08-.15-.15-.25-.19-.3-.07.07-.14.13-.2.2l.24.46c.09.17.16.25.2.25h.02ZM30.9,59.44s.14-.07.38-.21l-.09-.02c-.06-.01-.12-.04-.16-.09-.04-.05-.1-.13-.15-.25-.07-.15-.12-.22-.14-.22-.03,0-.11.02-.24.05-.16.06-.3.08-.4.08-.05,0-.1-.01-.13-.04-.04-.03-.08-.1-.14-.21-.04-.08-.1-.16-.16-.25-.08.12-.13.2-.16.22-.03.02-.04.05-.04.07,0,.03.03.1.1.21.07.11.11.18.14.23.02.04.05.07.07.07.07-.02.23-.04.47-.08.1,0,.18-.02.24-.02.07,0,.12.03.18.08s.1.13.15.23c.05.1.08.15.09.15ZM31.37,58.84c.08,0,.21-.01.39-.03.07,0,.16-.07.28-.19.12-.12.18-.18.18-.19,0,0,0,0-.02,0-.04,0-.14.02-.28.05-.13.02-.23.04-.3.04-.06,0-.1-.02-.14-.05-.04-.03-.08-.09-.13-.17-.07-.11-.13-.2-.16-.28-.02-.05-.05-.07-.08-.07-.02,0-.15.03-.37.1-.04.01-.06.02-.07.02-.01,0-.05,0-.12.03-.03.01-.05.02-.08.02-.08,0-.15-.05-.21-.15-.02-.04-.08-.13-.18-.25-.1.16-.15.25-.15.29,0,.02.08.16.24.43.02,0,.14-.03.36-.08.16-.04.27-.06.33-.06.06,0,.1.02.13.06.03.04.11.17.22.4.02.04.04.07.04.09,0,.01.05.02.11.02ZM31.72,58.12l.26-.04c.37-.07.58-.11.63-.14.04-.05.1-.17.21-.37,0,0,0,0,0,0h-.08c-.1.03-.2.05-.31.07-.11.02-.2.04-.28.08-.03.02-.07.03-.1.03-.04,0-.08-.02-.13-.05-.08-.06-.18-.18-.31-.37-.08-.12-.12-.19-.13-.2-.01,0-.13.03-.36.08-.21.05-.34.07-.39.07-.03,0-.12-.08-.27-.24-.08.17-.12.28-.12.3,0,.04.05.12.15.23l.1.13c.37-.1.6-.16.68-.16.09,0,.17.08.25.25.04.07.08.14.12.21s.07.11.09.11ZM32.09,57.35l.97-.24c.07-.19.11-.29.11-.32h0s-.25.05-.6.16c-.1.03-.18.05-.24.05-.1,0-.24-.14-.43-.42l-.15-.21c-.36.09-.57.14-.63.14-.07,0-.14-.04-.2-.11l-.1-.11c-.1.23-.16.36-.16.39,0,.04.03.09.09.15l.07.08c.43-.11.67-.16.72-.16.08,0,.18.1.31.3.13.2.2.3.24.3ZM32.4,56.6s.17-.03.44-.1c.28-.07.43-.12.46-.15.03-.04.04-.07.04-.11.02-.06.03-.11.03-.14,0-.04-.02-.05-.05-.05-.04,0-.1.02-.19.05-.21.07-.4.1-.57.1-.1,0-.23-.17-.4-.5-.07-.12-.12-.18-.14-.18-.06,0-.21.05-.43.15-.12.05-.2.08-.23.08-.09,0-.16-.04-.2-.11-.03-.04-.05-.06-.06-.06-.01,0-.05.11-.13.32l.1.12c.06.07.1.11.12.11.35-.08.55-.13.61-.13.09,0,.16.04.21.12.22.33.35.5.38.5ZM31.45,55.3c.07,0,.16-.04.28-.11.02-.01.04-.02.04-.03s-.02-.02-.07-.04c-.05-.02-.1-.04-.15-.07-.11-.04-.18-.06-.22-.06,0,0,0,0,0,0,0,.02.01.06.04.12.04.08.05.13.05.15s0,.03.03.03h.02ZM33.43,55.43s.03-.06.05-.19c0-.06-.03-.11-.1-.15-.07-.03-.18-.08-.32-.14-.01,0-.23-.09-.64-.27-.56-.24-.87-.36-.94-.36h0s-.02.07-.04.14c-.02.07-.03.11-.03.13,0,0,.2.09.61.26.14.05.29.12.47.19.63.26.95.39.96.39ZM31.69,51.29s.01,0,.01,0c0,0-.02-.03-.07-.07-.1-.08-.16-.13-.19-.13,0,0-.01,0-.01.01,0,.04.03.08.09.12.07.05.13.08.16.08ZM33.42,54.71s.02-.02.02-.05c0-.11-.02-.19-.05-.23-.03-.03-.08-.05-.15-.08-.09-.03-.34-.13-.75-.29-.14-.06-.23-.09-.27-.12-.11-.04-.28-.11-.49-.19-.08-.03-.12-.04-.13-.04-.03,0-.04.01-.04.03s0,.08-.02.16c0,.02.02.04.05.05.4.16.85.34,1.36.56.28.12.43.18.45.18.02,0,.03,0,.03.01ZM32.61,52.31s.02,0,.02,0c0-.01-.08-.13-.25-.35-.51-.2-.77-.3-.79-.3h0s0,.05.03.13c.02.08.05.13.11.17.04.02.16.07.37.16.32.14.49.2.52.2ZM33.32,53.99s.02,0,.02-.02c0-.02,0-.06-.03-.13-.02-.08-.04-.13-.07-.17-.02-.04-.07-.07-.15-.11s-.2-.09-.38-.16c-.64-.25-.98-.38-1.02-.38-.02,0-.03,0-.03,0-.02,0-.03.11-.03.3.72.28,1.13.44,1.23.49.12.05.23.1.36.14.06.02.09.03.1.03ZM33.04,53.14s0,0,0,0c0-.05-.03-.13-.09-.24-.02-.03-.03-.05-.05-.07-.01-.01-.09-.04-.23-.09s-.33-.12-.59-.23-.39-.16-.41-.16-.03.03-.03.09c0,.1.01.17.03.19.02.02.13.06.33.13.26.1.48.18.64.25.24.09.37.14.38.14ZM32.72,55.8s.1-.01.19-.03c.07-.02.13-.04.17-.06,0-.02-.2-.12-.61-.27,0,.03.05.13.15.31.02.03.05.05.1.05Z"/>
    <path class="cls-2" d="M38.28,60.32c-.26,0-.48-.01-.64-.04-1.03-.21-1.76-.73-2.19-1.56-.18-.38-.3-.79-.33-1.22-.02-.24-.04-2.62-.06-7.14-.28,0-.44,0-.49,0-.12,0-.18-.06-.18-.17,0-.05.01-.09.04-.12.03-.05.34-.08.94-.08.15,0,.54-.01,1.17-.03.27-.01.55-.02.83-.02.95,0,1.46.03,1.51.08.04.04.05.08.05.13,0,.09-.04.14-.11.17-.03.01-.24.02-.63.02v.86c.01.12.02.27.02.42,0,.39,0,.9-.02,1.5,0,.35-.01.66-.01.93s0,.5.01.68c0,.18.01.55.02,1.09,0,.54,0,1.15,0,1.81v2.34s.17-.01.17-.01c.78-.05,1.41-.31,1.88-.78.21-.21.38-.42.49-.64.05-.1.1-.24.15-.4.05-.17.08-.31.1-.44.03-.29.06-2.75.1-7.37-.58,0-.88,0-.91-.02-.05-.02-.08-.06-.09-.11,0-.07.01-.12.04-.16.02-.04.18-.06.46-.08.16,0,.62,0,1.4,0l.05.06s.05.08.05.12-.02.08-.05.11c-.04.04-.08.05-.14.05-.04,0-.15,0-.35,0-.04,0-.06.01-.08.03s-.04,2.44-.07,7.26l-.06.29c-.08.36-.17.65-.29.87-.48.83-1.23,1.35-2.27,1.53-.14.02-.31.03-.49.03ZM35.43,53.33s.08-.05.21-.16c.4-.32.6-.73.6-1.23v-.09c0-.46-.14-.81-.41-1.05-.04-.04-.09-.08-.14-.11-.05-.04-.11-.07-.15-.1-.05-.03-.08-.04-.1-.04-.01,0-.02.06-.02.17,0,.1,0,.16.02.17.01.01.03.02.05.03.1.04.2.14.3.29.14.22.21.43.21.63,0,.1-.01.2-.04.32-.07.27-.19.48-.35.63-.06.05-.11.09-.16.1-.02,0-.04.04-.04.09,0,.03,0,.08,0,.14,0,.14,0,.21.02.21ZM35.41,52.47l.06-.07c.04-.05.08-.14.12-.27.03-.13.05-.22.05-.29,0-.16-.07-.34-.22-.52v1.15ZM35.46,56.55c.07-.05.12-.1.16-.14.04-.04.08-.09.12-.13.21-.27.33-.52.37-.74.03-.22.05-.37.05-.46,0-.22-.04-.42-.13-.6-.04-.08-.1-.17-.18-.26-.08-.1-.16-.19-.23-.27-.08-.08-.13-.12-.16-.12-.01,0-.02.06-.02.17,0,.1,0,.15.02.17.01.01.03.03.06.04.1.06.2.19.31.41.08.17.12.34.12.52,0,.29-.11.54-.32.75l-.15.16v.5ZM35.47,55.49s.04-.04.06-.12c.03-.09.04-.18.05-.25,0-.07-.01-.14-.04-.22-.04-.11-.07-.17-.08-.19-.01,0-.02.13-.02.37,0,.27,0,.41.03.41ZM36.02,58.97l.13-.3c.06-.15.09-.32.09-.49,0-.47-.19-.84-.58-1.13-.08-.05-.13-.08-.16-.08-.02,0-.04.05-.04.15,0,.06,0,.1.01.12s.03.05.07.08c.24.23.36.56.36.97,0,.09-.01.24-.04.43.06.08.11.16.16.24ZM37.05,55.46s.2-.19.54-.55l-1.58-1.58-.29.24.15.14c.36.34.57.71.63,1.12l.03.18c.33.3.5.46.51.46ZM37.1,58.68s.12-.1.27-.26c.15-.16.22-.25.22-.28,0-.01-.18-.22-.55-.63-.62-.69-.95-1.04-.97-1.04,0,0-.09.08-.24.25.28.21.48.42.59.64.05.1.1.22.13.36.04.14.05.25.05.35s.14.28.42.54c.05.05.08.07.08.07ZM37.13,52.28s.11-.09.28-.27c.18-.18.27-.27.27-.28s-.05-.05-.14-.12c-.09-.07-.21-.18-.36-.32-.14-.15-.47-.45-.98-.92h-.29l.18.18c.29.27.46.6.5,1.01l.03.22c.33.34.51.51.51.51ZM37.15,53.93s.07-.05.19-.15c.16-.14.28-.25.36-.33-.16-.2-.48-.54-.96-1.01-.09-.09-.15-.14-.15-.14,0,0,0,.02-.02.05,0,.03-.02.07-.03.11-.01.05-.04.11-.07.19s-.07.16-.11.23c-.04.07-.06.12-.08.14,0,.04.29.35.87.91ZM37.14,57.09c.13-.16.24-.28.33-.38.09-.09.13-.15.13-.17,0-.01-.18-.19-.54-.55-.36-.35-.55-.53-.56-.53,0,0-.02.04-.04.13-.02.09-.05.19-.1.3-.05.12-.07.18-.08.2,0,.02.29.35.86.98ZM37.7,59.93h0s-.19-.23-.56-.64c-.35-.38-.54-.59-.59-.62-.01,0-.02.03-.04.09s-.09.22-.23.5c.12.1.24.19.35.27l.06-.05s.07-.05.11-.05c.04,0,.08.02.12.06.04.04.06.08.06.12v.03s.02.08.05.1c.11.06.31.13.6.19.04.01.05.02.06.02ZM37.14,50.74c.2-.21.29-.33.29-.34s-.23-.03-.69-.03l.4.37ZM36.92,54.89s-.08-.02-.11-.05c-.04-.03-.05-.06-.05-.09,0-.04.02-.07.05-.11.03-.04.07-.06.12-.06.02,0,.03,0,.05.01.07.02.1.08.1.16,0,.1-.05.15-.16.15ZM36.96,53.33s-.07-.02-.12-.06c-.04-.04-.05-.08-.05-.13,0-.11.06-.16.17-.16.04,0,.08.02.11.06.04.04.06.08.06.12,0,.02,0,.04-.03.07s-.04.05-.07.07c-.03.02-.05.03-.07.03ZM36.97,56.56s-.05,0-.08-.02c-.06-.03-.09-.09-.09-.18,0-.03.01-.06.03-.09.04-.05.09-.07.15-.07s.11.03.15.1c.02.03.03.06.03.09,0,.03-.02.07-.05.11s-.08.06-.12.06ZM36.98,51.77s-.04,0-.06-.01c-.07-.03-.1-.06-.11-.09,0-.03,0-.06,0-.06,0-.07.04-.13.13-.17.02-.01.04-.02.05-.02.04,0,.07.02.11.06.04.04.06.08.06.12,0,.06-.02.1-.06.13-.04.03-.08.04-.11.04ZM36.96,58.11s-.07-.02-.11-.05-.05-.07-.05-.12c0-.04.02-.08.05-.11.03-.03.07-.04.1-.04.02,0,.05,0,.07.02.06.03.09.08.09.15,0,.04-.02.08-.05.11-.03.04-.07.05-.11.05ZM37.84,56.23c0-.09,0-.18,0-.26,0-.08,0-.18,0-.27,0-.1-.01-.26-.03-.48-.2.19-.36.36-.49.52.13.11.22.19.27.24s.13.14.23.26ZM37.81,59.44c.01-.32.02-.54.02-.65,0-.1,0-.21-.02-.31-.29.3-.43.46-.43.47,0,.02.14.19.43.5ZM37.82,52.98s.01-.29.01-.86l-.43.43c.28.28.42.42.42.42ZM37.81,57.8c.02-.15.04-.47.04-.95-.19.2-.34.37-.45.51l.41.43ZM37.78,54.55s.02-.12.02-.33,0-.34-.02-.34c-.01,0-.14.11-.37.32.23.23.35.35.37.35ZM37.81,51.36s.01-.28.01-.83l-.21.23c-.11.1-.16.18-.16.21,0,.03.04.08.12.16.15.15.23.23.24.23Z"/>
    <path class="cls-2" d="M46.67,60.4c-.92,0-1.72-.2-2.39-.6-.59-.35-.99-.79-1.2-1.33-.04-.08-.07-.18-.1-.3-.16,0-.25,0-.28-.01s-.05-.03-.08-.05c-.04-.04-.06-.07-.06-.11s.02-.08.06-.12l.06-.07c.52,0,.9-.01,1.15-.01.21,0,.33,0,.36,0,.04,0,.08.02.09.04.04.03.05.08.05.13,0,.04-.01.07-.03.1-.03.06-.27.08-.74.08-.12,0-.18.02-.18.05,0,.03.02.1.07.2.32.66.93,1.14,1.83,1.43.46.13.93.2,1.41.2.27,0,.56-.03.87-.08.16-.02.27-.05.33-.07.04-.02.07-.04.1-.04.04,0,.13-.06.28-.18.28-.23.42-.56.42-.98,0-.4-.17-.77-.5-1.12-.15-.17-.35-.32-.6-.46-.25-.14-.66-.31-1.22-.53-.66-.26-1.14-.46-1.43-.59s-.53-.26-.71-.38c-.94-.63-1.41-1.44-1.41-2.42,0-.29.05-.58.15-.88.3-.82.87-1.49,1.72-2,.77-.43,1.62-.64,2.55-.64s1.78.23,2.48.7c.48.33.78.66.89,1.01l.04.15c.22,0,.35.01.41.04.06.04.09.07.09.1v.05c0,.06-.03.11-.08.15-.02.02-.1.03-.24.03-.33,0-.66-.02-1-.04-.13-.01-.2-.07-.2-.17,0-.07.04-.13.11-.16.04-.01.21-.02.51-.03l-.07-.14c-.08-.14-.22-.3-.42-.47-.67-.56-1.53-.84-2.59-.84-.66,0-1.3.13-1.92.4-.06.02-.1.04-.13.06-.03.02-.05.04-.07.06-.01.02-.03.05-.04.08-.08.2-.12.4-.12.59,0,.21.05.41.15.6.16.32.41.6.75.84s.85.49,1.52.76c.79.32,1.38.57,1.78.76s.71.37.95.55c.58.44.96,1.01,1.14,1.72.02.12.04.25.04.41,0,.37-.04.71-.12.99-.07.23-.21.49-.43.8-.11.14-.25.29-.42.45-.17.16-.34.3-.5.41-.91.59-1.93.89-3.07.89ZM43.88,53.34s.19-.05.52-.11c.35-.08.52-.12.52-.13,0-.04-.02-.13-.05-.27-.06-.28-.12-.42-.16-.42-.02,0-.09.01-.19.03-.1.02-.21.04-.34.07l-.98.21c-.02.14-.03.23-.03.26,0,.07.01.1.04.1s.09.02.19.06c.1.04.2.08.29.13s.15.07.17.07ZM44.48,55.34s.02-.06.02-.17c0-.33-.09-.67-.28-1-.07-.12-.16-.23-.26-.31-.1-.09-.24-.17-.42-.26-.1-.05-.18-.09-.24-.11-.05-.02-.09-.03-.1-.03-.01,0-.02.01-.02.02,0,.12.05.2.15.22.21.06.38.16.51.3.2.24.3.49.3.77,0,.05,0,.1-.02.14,0,.04-.02.09-.02.14,0,.02.02.04.06.08.18.14.28.21.3.21ZM43.38,52.3c.06,0,.11-.01.15-.03.09-.02.14-.03.15-.04,0,0,0-.02,0-.03-.03-.27-.06-.4-.08-.4-.03,0-.09.1-.19.3-.05.09-.07.15-.07.17,0,.01.01.02.03.02ZM43.77,54.75s0,0,0-.03c-.02-.17-.08-.31-.19-.44-.1-.11-.17-.17-.19-.17,0,0,0,0,0,.01,0,.04.05.14.16.32.13.21.2.31.23.31ZM44.09,52.15s.02,0,.04,0c.02,0,.06-.01.12-.02.06-.01.13-.03.21-.04l.28-.06-.06-.12c-.09-.18-.14-.41-.14-.69v-.25s-.07,0-.13.02c-.08.02-.19.09-.32.23l-.19.19c.08.31.13.51.14.6.02.09.03.14.05.14ZM44.14,53.1c-.12,0-.17-.05-.17-.16.01-.1.06-.15.14-.15.1,0,.16.05.17.15,0,.06-.02.11-.07.14-.02.01-.04.02-.07.02ZM44.67,54.22c.11-.02.22-.04.32-.06.11-.02.49-.09,1.16-.23,0-.1-.02-.18-.03-.24-.06-.26-.11-.39-.16-.39-.22.04-.37.07-.44.08-.82.15-1.24.24-1.24.25,0,.01.02.05.06.09.06.07.16.23.31.49ZM44.89,55.27l.21-.11c.29-.13.57-.19.85-.19.08,0,.36-.04.83-.13.45-.08.69-.13.73-.15,0,0,0-.01,0-.03,0-.05-.01-.14-.04-.29-.04-.16-.06-.24-.08-.26-.02-.01-.04-.02-.06-.02-.03,0-.1.01-.19.03-.04.01-.11.02-.2.04-1.42.25-2.13.39-2.13.43,0,.03,0,.08.01.16.03.33.06.5.06.5ZM47.67,56.74s.02-.02.02-.05c0-.05-.03-.14-.09-.28-.06-.13-.12-.25-.19-.35-.15-.23-.37-.42-.66-.55-.13-.07-.25-.11-.35-.13-.1-.02-.25-.03-.43-.03-.27,0-.51.05-.73.16-.13.05-.19.09-.19.12s.05.06.16.1l.19.08c.24-.12.47-.17.67-.17.14,0,.27.02.41.06.36.13.6.38.72.74,0,.03.02.05.03.07s.04.04.07.06c.03.02.08.04.14.07.06.03.11.05.16.08.04.02.07.03.08.03ZM45.33,53.93s-.05,0-.07-.02c-.04-.03-.07-.09-.07-.16,0-.09.05-.14.16-.14.02,0,.05,0,.07.02.05.03.08.08.08.15,0,.06-.02.1-.06.12-.04.02-.08.03-.1.03ZM45.33,53.05s.04,0,.08,0,.07-.01.1-.02.06-.01.07-.02c.02,0,.02,0,.02-.02,0-.02-.14-.13-.41-.35.04.15.07.27.08.36,0,.03.02.05.05.05ZM46.74,56.34s0,0,0,0c0-.01-.02-.04-.05-.08-.07-.08-.16-.15-.27-.19-.11-.04-.22-.07-.33-.07h-.19c.21.09.41.17.6.25.15.07.23.1.24.1ZM46.48,54.77s-.07-.02-.12-.05c-.03-.04-.04-.07-.04-.12,0-.02,0-.04.01-.06.03-.06.08-.09.15-.09.04,0,.08.02.11.05.04.03.05.07.05.11,0,.04-.02.08-.05.11s-.07.05-.11.05ZM46.55,53.87l.29-.05c.24-.05.36-.08.36-.09,0,0,0,0-.02,0s-.06-.02-.13-.04c-.07-.03-.16-.06-.26-.1s-.18-.07-.23-.09c-.06-.02-.09-.03-.1-.03h0c.07.28.1.42.1.42ZM47.62,55.72s.2-.04.58-.11c.39-.07.68-.12.87-.16-.04-.27-.07-.45-.08-.52-.02-.08-.03-.12-.06-.12-.02,0-.12.03-.3.06-1.08.2-1.62.31-1.64.32,0,.01.06.05.18.13.12.08.22.16.31.25.04.04.08.08.1.1s.04.04.04.04ZM47.94,54.62s.19-.02.43-.07c.26-.04.4-.08.44-.09,0-.02-.17-.1-.5-.25s-.52-.22-.54-.22c0,.02.04.22.13.61,0,.02.02.03.04.03ZM48.15,56.74c.06,0,.11-.01.15-.03.04-.02.38-.09,1.01-.2.59-.1.91-.16.96-.17h0c0-.05-.02-.17-.06-.36-.05-.23-.08-.35-.09-.35,0,0-.04,0-.11.02-.06.01-.14.03-.24.05-.09.02-.24.05-.43.08-.2.04-.4.07-.61.11-.21.04-.39.07-.54.1s-.24.05-.27.05-.05,0-.08.02c.1.23.16.42.19.55.02.09.04.13.05.14.01,0,.03,0,.06,0ZM48.26,55.46s-.07-.01-.09-.04c-.04-.04-.07-.09-.07-.14,0-.02,0-.04.01-.06.03-.07.08-.11.16-.11.11,0,.17.05.17.16,0,.05-.02.09-.06.13-.04.04-.08.05-.12.05ZM48.85,59.58s.09-.04.22-.1c.32-.16.51-.29.56-.38.07-.14.11-.36.11-.67,0-.24-.07-.48-.21-.7-.23-.41-.58-.61-1.05-.61h-.23c.15.15.24.23.27.25s.07.03.12.03c.13.02.26.07.39.14.33.2.49.52.49.96,0,.1,0,.18,0,.23-.02.13-.1.27-.25.42-.09.09-.17.15-.25.18-.09.05-.15.13-.16.25ZM49.05,58.86l.06-.1c.04-.07.05-.16.05-.25,0-.2-.05-.36-.16-.5-.06-.08-.11-.13-.13-.13v.03c.11.26.17.5.17.71,0,.16,0,.24,0,.24ZM49.3,56.37s-.08-.02-.12-.05c-.03-.04-.05-.08-.05-.12,0-.02,0-.05.02-.07.03-.07.08-.11.15-.11.04,0,.08.02.12.06s.06.08.06.12c0,.12-.06.17-.18.17ZM49.84,57.41s.19-.03.52-.09c.31-.06.47-.09.48-.09.01-.03.02-.13.02-.3,0-.2,0-.3-.03-.3-.06,0-.33.04-.8.12-.5.09-.77.14-.82.14,0,0,.01.01.03.03.02.02.05.04.1.07.1.07.2.16.3.26.09.1.16.16.2.16ZM49.46,55.37l.29-.05c.23-.05.35-.08.35-.09,0-.01-.05-.06-.16-.15-.17-.13-.32-.23-.47-.33-.06-.04-.1-.05-.11-.05,0,0,0,0,0,0,0,.09.03.27.08.56.01.07.02.1.04.1ZM50.11,58.73s.02-.02.05-.05c.1-.12.17-.2.19-.24s.04-.07.04-.1v-.11c-.01-.11.04-.17.16-.19.05-.01.08-.04.1-.08.04-.09.08-.19.12-.31,0,0,0,0-.02-.01-.12,0-.33.04-.64.11-.08.02-.12.04-.12.06.07.17.11.39.11.65,0,.19,0,.28.01.28ZM50.48,57.17s-.05,0-.08-.02c-.06-.04-.09-.09-.09-.16,0-.03,0-.05.02-.08.03-.05.08-.08.15-.08.04,0,.09.02.12.05.04.03.05.07.05.11,0,.06-.03.11-.08.14-.04.02-.07.03-.09.03ZM50.69,56.27s.04,0,.04-.03c0,0,0-.03-.02-.07-.01-.04-.03-.08-.05-.12-.02-.05-.04-.09-.06-.12-.02-.03-.03-.05-.03-.05h0s0,.11.03.21c.02.12.05.18.08.18Z"/>
    <path class="cls-2" d="M53.68,60.05c-1.31,0-1.96,0-1.96-.02-.06-.04-.09-.07-.09-.11v-.06c0-.1.06-.16.18-.17.05,0,.1,0,.15,0,.15,0,.29,0,.42-.03.02-.24.03-.8.03-1.68l-.03-7.64c-.3,0-.47,0-.52-.01-.11,0-.16-.06-.16-.16,0-.07.03-.12.09-.16.11-.04,1-.07,2.69-.08.48,0,2.08.01,4.81.04.09,0,.14.07.15.17v1.43l-.06.06s-.08.05-.13.05c-.07,0-.13-.04-.16-.13-.02-.08-.03-.49-.03-1.22h-3.55c0,1.22,0,2.44,0,3.65,0,.49,0,1.03.03,1.63l1.32-.03c.32,0,.72-.01,1.18-.03-.01-.31-.02-.51-.02-.6,0-.08.02-.14.05-.18s.07-.06.11-.06c.06,0,.1,0,.13.03s.05.06.06.12c.02.1.03.65.05,1.63,0,.12,0,.19-.02.21-.03.08-.09.12-.17.12s-.14-.04-.16-.12c0-.03-.02-.29-.03-.79-1.62.02-2.45.04-2.49.05,0,.04-.02,1.26-.03,3.68h3.62c0-.55,0-.87,0-.95,0-.17.02-.27.05-.3.05-.04.09-.06.14-.06.08,0,.13.05.16.12.01.03.02.28.02.73,0,.44-.02.68-.03.71-.01.04-.03.06-.06.06-.04.03-.66.04-1.86.04-.5,0-1.16,0-1.98.01h-1.91ZM52.76,53.3s.08-.05.21-.16c.39-.32.59-.73.59-1.23v-.1c0-.46-.14-.81-.41-1.05-.04-.04-.09-.08-.15-.12-.06-.04-.11-.07-.16-.1-.05-.03-.08-.04-.1-.04,0,0-.02.06-.02.17,0,.1,0,.15.02.17.01.01.03.03.06.04.1.04.2.14.3.29.14.22.21.42.21.61,0,.1-.01.21-.04.33-.06.26-.18.47-.35.63-.06.05-.11.09-.15.1-.03,0-.05.08-.05.23s0,.21.02.21ZM52.74,52.44l.06-.07c.04-.05.08-.14.11-.27.03-.13.05-.22.05-.29,0-.16-.07-.34-.22-.52v1.15ZM52.79,56.52c.1-.08.2-.17.27-.27.21-.27.33-.52.37-.74s.05-.37.05-.47c0-.31-.1-.6-.31-.86-.2-.26-.34-.38-.4-.38-.01,0-.02.06-.02.17,0,.1,0,.15.02.17.01.02.03.03.05.04.1.06.21.19.31.41.08.15.12.33.12.52,0,.29-.11.54-.32.75l-.15.16v.5ZM52.79,55.46s.04-.04.06-.12c.03-.09.05-.18.05-.25,0-.09-.03-.21-.08-.35-.01-.04-.02-.06-.03-.06-.02,0-.03.12-.03.36,0,.28.01.41.03.41ZM52.76,59.61c.21-.12.4-.34.57-.64.16-.28.24-.55.24-.81,0-.37-.11-.67-.33-.91-.2-.2-.33-.3-.4-.3-.02,0-.04.05-.04.15,0,.05,0,.09.02.12.01.03.04.07.09.11.21.21.32.53.33.94,0,.21-.02.37-.07.49s-.12.24-.24.35l-.15.15v.34ZM52.78,58.7s.06-.2.06-.53c0-.13-.01-.23-.04-.28-.01-.03-.02-.04-.03-.04-.01,0-.02.14-.02.42s0,.43.02.43ZM54.38,55.44s.19-.19.54-.55l-1.58-1.59-.28.24.14.14c.36.33.57.71.63,1.12l.03.18c.33.3.5.45.52.45ZM54.43,58.65s.11-.09.26-.26c.15-.15.22-.24.22-.27,0-.01-.1-.13-.29-.35-.81-.87-1.22-1.31-1.24-1.32,0,0-.02.02-.04.04s-.05.05-.08.09c-.03.04-.07.08-.1.12.29.24.49.46.59.65.05.09.09.21.13.35.04.14.06.25.06.34v.02c0,.08.14.26.41.52.05.05.08.07.08.07ZM54.46,52.25s.1-.09.28-.27c.18-.18.27-.27.27-.28,0,0-.05-.05-.14-.12-.09-.07-.21-.18-.36-.32-.15-.14-.47-.45-.98-.92h-.29l.18.18c.29.26.45.6.5,1l.03.22c.34.34.51.51.52.51ZM54.56,59.63c.15,0,.23,0,.23-.02,0,0-.15-.16-.43-.48-.29-.32-.44-.48-.46-.49-.01,0-.04.05-.08.16-.12.3-.28.57-.48.8l.58.02s.05-.02.05-.06.02-.08.05-.12c.04-.04.07-.06.11-.06s.08.02.12.06c.04.04.07.1.09.19h.22ZM54.47,57.07c.13-.16.24-.28.33-.38.09-.09.13-.15.13-.16,0-.01-.18-.2-.54-.55s-.55-.53-.56-.53c0,0-.02.04-.04.13-.02.09-.05.19-.1.3-.05.11-.07.18-.08.2,0,.03.29.36.86.98ZM54.48,53.9l.06-.05s.08-.06.13-.11c.05-.04.1-.09.15-.14.05-.04.09-.08.12-.11.03-.03.06-.05.09-.08-.08-.1-.29-.33-.63-.68-.29-.3-.46-.46-.49-.48-.01.02-.03.08-.05.16-.02.09-.08.23-.17.42-.04.07-.06.12-.08.14,0,.04.24.3.73.78.09.09.13.13.14.13ZM54.47,50.71c.2-.21.29-.33.29-.35s-.23-.03-.69-.03l.4.37ZM54.25,54.87s-.08-.02-.11-.05-.05-.06-.05-.1.02-.07.05-.11.07-.06.12-.06c.1,0,.15.06.15.17,0,.1-.05.15-.16.15ZM54.28,53.3s-.07-.02-.11-.06c-.04-.04-.06-.08-.06-.13,0-.02,0-.04.01-.06.03-.06.08-.09.16-.09.04,0,.08.02.12.06.04.04.06.08.06.12,0,.02,0,.04-.03.07-.02.03-.04.05-.07.07-.03.02-.05.03-.08.03ZM54.32,56.54h-.03s-.04,0-.07-.03c-.07-.03-.1-.08-.1-.17,0-.04.01-.07.04-.1.04-.05.07-.07.1-.07h.05c.06,0,.1.03.14.09.01.03.02.06.03.08,0,.02,0,.04-.02.07,0,.02-.02.05-.04.07-.02.02-.05.04-.1.05ZM54.3,51.75s-.04,0-.06,0c-.07-.03-.1-.06-.11-.1,0-.03,0-.05,0-.07,0-.07.04-.13.13-.17.02,0,.04-.02.05-.02.04,0,.07.02.11.06.04.04.06.08.06.12,0,.06-.02.1-.06.13-.04.03-.08.04-.12.04ZM54.3,58.09s-.07-.02-.1-.05c-.04-.03-.06-.07-.06-.12,0-.05.02-.09.05-.11s.06-.04.1-.04c.02,0,.05,0,.08.02.07.03.1.08.1.14,0,.04-.02.08-.05.11s-.07.05-.11.05ZM55.17,56.21c0-.09,0-.18,0-.27,0-.09,0-.18,0-.28s0-.26-.03-.48c-.2.2-.36.37-.49.52.13.11.22.19.27.24s.13.14.23.27ZM55.14,59.42l.02-.65c0-.09,0-.19-.02-.32-.28.29-.42.44-.43.46,0,.02.14.19.43.51ZM55.15,52.96s0-.29,0-.86l-.43.43c.28.28.42.42.43.42ZM55.14,57.77c.02-.15.03-.46.03-.94-.19.2-.34.37-.45.51l.42.43ZM55.11,54.52s.02-.12.02-.33,0-.33-.02-.33c-.01,0-.13.11-.37.32.23.23.35.35.37.35ZM55.14,51.33s0-.28,0-.83l-.21.23c-.1.1-.16.18-.16.21,0,.03.04.08.12.16.15.15.24.23.25.23Z"/>
    <path class="cls-2" d="M70.35,60.24c-.11,0-.21,0-.31-.01-.82-.06-1.58-.32-2.29-.79-.75-.51-1.33-1.17-1.73-1.97-.04-.08-.08-.15-.11-.22-.03-.07-.05-.11-.06-.13-.05-.11-.12-.33-.22-.68-.14-.48-.2-.97-.2-1.47,0-.33.03-.66.08-.99.27-1.38.96-2.48,2.07-3.3.06-.05.1-.07.1-.07s.02,0,.05-.03c.11-.08.26-.16.46-.26.15-.07.25-.12.31-.15.09-.04.25-.09.46-.15.22-.06.42-.1.59-.14.19-.02.46-.04.82-.04.14,0,.26,0,.36.02.84.1,1.6.4,2.27.89.68.49,1.21,1.12,1.6,1.9.25.51.42,1.06.52,1.65.03.2.04.49.04.85-.01,1.2-.36,2.26-1.05,3.16-.89,1.14-2.01,1.77-3.35,1.9-.15.01-.29.02-.41.02ZM65.8,54.66s.06-.02.17-.05c.51-.19.83-.58.95-1.15.02-.13.04-.24.04-.34-.02-.31-.13-.63-.32-.95-.09.12-.14.2-.14.25,0,.02.02.07.06.14.09.16.13.35.13.57,0,.23-.06.44-.18.63-.14.23-.33.39-.59.49-.03.01-.06.02-.06.02-.03,0-.05.11-.07.34,0,.04,0,.06.02.06ZM66.03,56.57s.02-.02.03-.05c.01-.04.02-.09.03-.16s.01-.15.02-.22c0-.16-.02-.29-.05-.41-.03-.11-.09-.23-.17-.35-.02-.03-.05-.06-.06-.08-.02-.02-.03-.03-.04-.03s-.01.02-.01.05c0,.11.02.29.07.55.07.39.12.62.17.7h0ZM65.91,53.84s.06-.03.12-.08c.19-.19.29-.4.29-.62,0-.1-.01-.2-.04-.28,0-.02,0-.03-.02-.03-.02,0-.08.14-.18.41-.12.33-.18.53-.18.58,0,.01,0,.02.01.02ZM66.74,57.17s.08-.02.17-.06c.08-.04.16-.08.24-.11.08-.03.13-.06.13-.09,0,0,0-.02-.01-.03-.03-.04-.07-.13-.12-.27-.03-.06-.05-.11-.07-.16-.02-.04-.03-.07-.03-.08s-.02-.06-.07-.16-.1-.21-.15-.34c-.05-.13-.11-.24-.15-.34s-.07-.15-.07-.16c0,0,0-.03-.03-.08-.12-.25-.17-.38-.17-.4,0-.02-.02-.04-.07-.05h-.02s-.06.04-.14.07-.12.05-.12.05c0,0,.03.04.08.11.09.11.18.27.27.5.04.07.05.17.06.29,0,.51.02.79.04.82.11.24.17.39.19.42.01.04.04.06.06.06ZM66.44,57.51s0-.03-.01-.05c0-.03-.02-.06-.04-.1s-.04-.08-.05-.13c-.06-.15-.11-.22-.13-.22,0,0-.01.01-.01.03s.04.11.12.26c.07.14.12.21.13.21ZM66.75,56.73s-.08-.02-.12-.06c-.04-.04-.06-.08-.06-.11s.02-.07.06-.11.08-.06.12-.06c.04,0,.08.02.11.06.04.04.06.08.06.12,0,.04-.02.08-.06.11s-.07.05-.11.05ZM67.15,55.68s.03-.01.08-.04c.05-.02.11-.05.19-.09.07-.04.13-.07.19-.1.05-.03.08-.05.09-.06s0-.01,0-.02c0-.07-.14-.37-.41-.92-.11-.23-.18-.34-.2-.34-.01,0-.03.02-.04.05-.07.12-.2.28-.38.47.3.7.46,1.05.48,1.05ZM67.16,58.17s.12-.03.3-.1c-.02-.2-.03-.38-.03-.53s0-.23-.02-.23c-.03,0-.12.04-.28.12-.08.04-.13.06-.15.06s-.04.01-.07.04c-.02.01-.03.03-.03.04,0,.02.01.06.04.13.09.2.16.34.19.44.01.03.02.05.04.05ZM67.58,54.19l.32-.16c.21-.11.32-.18.32-.21-.02-.08-.1-.26-.25-.55-.06-.12-.25-.5-.56-1.14-.05-.09-.08-.14-.1-.14-.02,0-.08.02-.17.03-.09.01-.14.03-.14.04,0,.02.02.05.05.09.04.07.09.19.15.37.08.25.12.47.12.66,0,.09-.02.26-.05.51.15.25.23.37.23.38,0,.01.03.06.08.13ZM67.19,55.17c-.09,0-.14-.03-.15-.09v-.08s0-.09.04-.13c.03-.02.06-.04.11-.04.12,0,.17.06.17.17,0,.03-.01.06-.03.09-.04.05-.08.07-.15.07ZM67.1,51.65s.11-.02.21-.06c.13-.06.27-.16.41-.28.18-.16.31-.32.4-.48.01-.03.02-.04.02-.05-.02,0-.12.06-.31.18-.31.21-.57.43-.79.69h.06ZM67.65,58.92s.02-.01.02-.03l-.02-.05s-.04-.08-.07-.2c-.03-.12-.06-.18-.08-.18-.01,0-.03,0-.04,0-.02,0-.04,0-.07.02s-.05.02-.09.04c.04.09.08.16.12.2.11.13.19.2.24.2ZM67.48,56.44s.04-.06.05-.17c0-.07.02-.16.04-.26.01-.05.02-.08.02-.11,0,0,0-.02,0-.02-.02,0-.08.02-.15.07-.08.04-.12.08-.12.09,0,.03.02.08.05.15.07.16.11.24.12.24ZM67.66,53.66s-.07-.01-.12-.04c-.04-.03-.06-.07-.06-.11,0-.04.01-.09.04-.12.03-.04.07-.05.12-.05.03,0,.07.02.11.06.04.04.06.07.06.1,0,.02,0,.04-.03.07-.02.02-.04.05-.07.07s-.04.03-.06.03ZM68.16,52.79s.04-.02.11-.06c.07-.03.15-.08.25-.12.1-.05.18-.09.25-.12.07-.03.1-.05.1-.05,0-.03-.08-.21-.24-.54-.07-.14-.14-.3-.21-.47-.04-.1-.07-.17-.09-.21-.02,0-.08.05-.18.16-.13.14-.23.24-.31.29-.1.07-.15.12-.17.13,0,.03.07.2.22.52s.23.47.26.48ZM67.87,54.76s.03-.05.06-.16c.03-.1.05-.16.05-.17,0,0,0,0-.01,0-.01,0-.05.01-.12.04-.08.04-.11.06-.11.08s.02.05.06.12.06.1.07.1ZM68.84,59.45c.5,0,1.06-.38,1.69-1.13.8-.98,1.4-2.2,1.81-3.68.2-.76.3-1.46.3-2.09,0-.83-.16-1.42-.48-1.78-.17-.16-.36-.25-.58-.25-.08,0-.17.01-.26.04-.55.18-1.1.64-1.65,1.38s-1,1.65-1.37,2.72c-.33,1.02-.5,1.94-.5,2.78,0,.88.18,1.48.54,1.81.14.13.31.19.51.19ZM68.24,52.29s-.08-.02-.12-.06-.05-.08-.05-.11c0-.04.02-.08.06-.12s.07-.05.11-.05c.04,0,.07.02.11.05s.06.07.07.12c0,.04-.02.09-.06.12-.04.04-.08.05-.12.05ZM68.41,53.34s.04-.05.1-.16c.04-.1.07-.16.07-.18h0s-.06.02-.14.06c-.08.04-.12.06-.12.08.05.14.08.2.09.2ZM68.85,51.42l.73-.36c-.15-.25-.24-.43-.29-.54-.05-.11-.09-.16-.14-.16-.03,0-.1.02-.21.05-.09.03-.17.05-.21.07-.05.02-.08.05-.09.09-.05.14-.08.22-.08.23,0,.02,0,.04.03.05.04.05.07.12.09.2.04.1.07.17.09.2.02.03.04.06.04.1.01.04.02.06.03.06ZM68.97,50.92s-.07-.02-.11-.05c-.04-.04-.06-.08-.06-.13,0-.02,0-.04.01-.06.02-.07.08-.11.16-.11.05,0,.09.02.13.06.03.04.05.07.05.11,0,.05-.02.1-.07.14-.03.03-.07.05-.11.05ZM69.14,52.05s.05-.06.14-.17c.16-.23.25-.34.25-.35-.03,0-.11.03-.25.1-.17.09-.26.14-.26.16,0,.03.02.08.06.15.04.07.06.11.07.11ZM69.45,59.79s.04,0,.04-.02c0-.04-.03-.06-.09-.06-.05,0-.08.01-.08.04,0,0,.02.02.05.03s.06.01.09.01ZM69.68,50.38c.22-.09.33-.14.33-.15,0,0,0,0-.03,0-.26,0-.39.02-.39.07,0,.01,0,.03.02.05.02.02.03.03.04.03h.02ZM70.33,59.89l-.14-.27c-.09-.17-.14-.27-.15-.28,0,0-.02,0-.05.02-.03.02-.11.07-.24.15.06.08.1.16.14.22.04.06.07.1.1.12.03.02.15.03.34.03ZM69.98,51s.06-.04.15-.13c.06-.05.17-.14.35-.28.13-.1.2-.16.2-.18,0-.01,0-.02-.02-.02-.02,0-.16.05-.4.15-.27.11-.41.17-.42.18,0,.01.02.06.06.15.04.07.06.12.08.14ZM70.78,59.81c.29-.06.49-.08.62-.08.08,0,.19-.02.33-.07.09-.03.14-.05.14-.06,0-.02-.01-.07-.04-.13-.04-.08-.08-.12-.1-.12l-.24.04c-.1.02-.19.04-.26.05-.07.02-.13.03-.2.03-.09,0-.15-.02-.18-.05-.04-.06-.09-.13-.14-.23-.08-.15-.15-.25-.19-.3-.07.07-.14.13-.2.2l.24.46c.09.17.16.25.2.25h.02ZM72.25,59.44s.14-.07.38-.21l-.09-.02c-.06-.01-.12-.04-.16-.09-.04-.05-.1-.13-.15-.25-.07-.15-.12-.22-.14-.22-.03,0-.11.02-.24.05-.16.06-.3.08-.4.08-.05,0-.1-.01-.13-.04-.04-.03-.08-.1-.14-.21-.04-.08-.1-.16-.16-.25-.08.12-.13.2-.16.22-.03.02-.04.05-.04.07,0,.03.03.1.1.21.07.11.11.18.14.23.02.04.05.07.07.07.07-.02.23-.04.47-.08.1,0,.18-.02.24-.02.07,0,.12.03.18.08s.1.13.15.23c.05.1.08.15.09.15ZM72.72,58.84c.08,0,.21-.01.39-.03.07,0,.16-.07.28-.19.12-.12.18-.18.18-.19,0,0,0,0-.02,0-.04,0-.14.02-.28.05-.13.02-.23.04-.3.04-.06,0-.1-.02-.14-.05-.04-.03-.08-.09-.13-.17-.07-.11-.13-.2-.16-.28-.02-.05-.05-.07-.08-.07-.02,0-.15.03-.37.1-.04.01-.06.02-.07.02-.01,0-.05,0-.12.03-.03.01-.05.02-.08.02-.08,0-.15-.05-.21-.15-.02-.04-.08-.13-.18-.25-.1.16-.15.25-.15.29,0,.02.08.16.24.43.02,0,.14-.03.36-.08.16-.04.27-.06.33-.06.06,0,.1.02.13.06.03.04.11.17.22.4.02.04.04.07.04.09,0,.01.05.02.11.02ZM73.07,58.12l.26-.04c.37-.07.58-.11.63-.14.04-.05.1-.17.21-.37,0,0,0,0,0,0h-.08c-.1.03-.2.05-.31.07-.11.02-.2.04-.28.08-.03.02-.07.03-.1.03-.04,0-.08-.02-.13-.05-.08-.06-.18-.18-.31-.37-.08-.12-.12-.19-.13-.2-.01,0-.13.03-.36.08-.21.05-.34.07-.39.07-.03,0-.12-.08-.27-.24-.08.17-.12.28-.12.3,0,.04.05.12.15.23l.1.13c.37-.1.6-.16.68-.16.09,0,.17.08.25.25.04.07.08.14.12.21s.07.11.09.11ZM73.43,57.35l.97-.24c.07-.19.11-.29.11-.32h0s-.25.05-.6.16c-.1.03-.18.05-.24.05-.1,0-.24-.14-.43-.42l-.15-.21c-.36.09-.57.14-.63.14-.07,0-.14-.04-.2-.11l-.1-.11c-.1.23-.16.36-.16.39,0,.04.03.09.09.15l.07.08c.43-.11.67-.16.72-.16.08,0,.18.1.31.3.13.2.2.3.24.3ZM73.74,56.6s.17-.03.44-.1c.28-.07.43-.12.46-.15.03-.04.04-.07.04-.11.02-.06.03-.11.03-.14,0-.04-.02-.05-.05-.05-.04,0-.1.02-.19.05-.21.07-.4.1-.57.1-.1,0-.23-.17-.4-.5-.07-.12-.12-.18-.14-.18-.06,0-.21.05-.43.15-.12.05-.2.08-.23.08-.09,0-.16-.04-.2-.11-.03-.04-.05-.06-.06-.06-.01,0-.05.11-.13.32l.1.12c.06.07.1.11.12.11.35-.08.55-.13.61-.13.09,0,.16.04.21.12.22.33.35.5.38.5ZM72.79,55.3c.07,0,.16-.04.28-.11.02-.01.04-.02.04-.03s-.02-.02-.07-.04c-.05-.02-.1-.04-.15-.07-.11-.04-.18-.06-.22-.06,0,0,0,0,0,0,0,.02.01.06.04.12.04.08.05.13.05.15s0,.03.03.03h.02ZM74.77,55.43s.03-.06.05-.19c0-.06-.03-.11-.1-.15-.07-.03-.18-.08-.32-.14-.01,0-.23-.09-.64-.27-.56-.24-.87-.36-.94-.36h0s-.02.07-.04.14c-.02.07-.03.11-.03.13,0,0,.2.09.61.26.14.05.29.12.47.19.63.26.95.39.96.39ZM73.03,51.29s.01,0,.01,0c0,0-.02-.03-.07-.07-.1-.08-.16-.13-.19-.13,0,0-.01,0-.01.01,0,.04.03.08.09.12.07.05.13.08.16.08ZM74.77,54.71s.02-.02.02-.05c0-.11-.02-.19-.05-.23-.03-.03-.08-.05-.15-.08-.09-.03-.34-.13-.75-.29-.14-.06-.23-.09-.27-.12-.11-.04-.28-.11-.49-.19-.08-.03-.12-.04-.13-.04-.03,0-.04.01-.04.03s0,.08-.02.16c0,.02.02.04.05.05.4.16.85.34,1.36.56.28.12.43.18.45.18.02,0,.03,0,.03.01ZM73.95,52.31s.02,0,.02,0c0-.01-.08-.13-.25-.35-.51-.2-.77-.3-.79-.3h0s0,.05.03.13c.02.08.05.13.11.17.04.02.16.07.37.16.32.14.49.2.52.2ZM74.66,53.99s.02,0,.02-.02c0-.02,0-.06-.03-.13-.02-.08-.04-.13-.07-.17-.02-.04-.07-.07-.15-.11s-.2-.09-.38-.16c-.64-.25-.98-.38-1.02-.38-.02,0-.03,0-.03,0-.02,0-.03.11-.03.3.72.28,1.13.44,1.23.49.12.05.23.1.36.14.06.02.09.03.1.03ZM74.39,53.14s0,0,0,0c0-.05-.03-.13-.09-.24-.02-.03-.03-.05-.05-.07-.01-.01-.09-.04-.23-.09s-.33-.12-.59-.23-.39-.16-.41-.16-.03.03-.03.09c0,.1.01.17.03.19.02.02.13.06.33.13.26.1.48.18.64.25.24.09.37.14.38.14ZM74.06,55.8s.1-.01.19-.03c.07-.02.13-.04.17-.06,0-.02-.2-.12-.61-.27,0,.03.05.13.15.31.02.03.05.05.1.05Z"/>
    <path class="cls-2" d="M77.69,60.09c-1.22,0-1.86,0-1.91-.01-.06-.04-.09-.1-.09-.17,0-.1.06-.16.17-.17.05,0,.1,0,.15,0,.16,0,.3,0,.42-.03.02-.24.03-.8.03-1.68l-.03-7.64c-.3,0-.47,0-.52-.01-.08,0-.13-.05-.16-.12,0-.01,0-.02,0-.04,0-.07.03-.12.09-.16.11-.04,1-.07,2.69-.08.48,0,2.08.01,4.81.04.09.01.14.07.15.17v1.43c-.07.07-.13.11-.18.11-.08,0-.13-.04-.16-.13-.02-.08-.03-.49-.03-1.22h-3.55c0,1.5,0,2.71-.01,3.65,0,.53.01,1.07.03,1.63l1.33-.03c.32,0,.71-.01,1.18-.03l-.02-.53c0-.2.05-.3.15-.3.06,0,.11,0,.14.03.07.05.1.63.1,1.75,0,.12,0,.19-.02.21-.03.07-.07.11-.13.12-.08,0-.13-.02-.16-.04-.03-.03-.04-.09-.05-.2,0-.1-.01-.32-.02-.66-1.62.02-2.45.04-2.49.05,0,.05-.02,1.28-.03,3.68h.67c.2-.01.3.05.3.18,0,.07-.04.13-.11.16-.1.02-1.02.04-2.76.04ZM76.82,53.35s.09-.05.21-.16c.39-.32.59-.73.59-1.22v-.1c0-.46-.14-.81-.41-1.05-.04-.04-.09-.08-.15-.12s-.11-.07-.16-.1c-.05-.03-.08-.04-.1-.04,0,0-.01.06-.01.17,0,.1,0,.16.02.17.01.01.03.02.05.03.1.04.2.14.3.29.14.22.21.43.21.62,0,.1-.02.21-.05.33-.06.27-.18.48-.35.63-.06.05-.12.09-.16.1-.03.01-.04.09-.04.23s0,.21.02.21ZM76.8,52.5l.06-.07c.04-.05.08-.14.12-.27.04-.13.05-.22.05-.29,0-.16-.08-.34-.23-.52v1.15ZM76.85,56.58c.1-.08.2-.17.27-.27.21-.27.33-.52.37-.73.04-.22.06-.37.06-.47,0-.22-.04-.42-.13-.6-.04-.08-.1-.17-.18-.27-.08-.1-.16-.19-.24-.27-.08-.08-.13-.12-.16-.12-.01,0-.02.06-.02.17,0,.1,0,.15.02.17s.03.03.05.04c.1.06.21.19.31.41.08.16.12.33.12.51,0,.3-.11.55-.32.76l-.15.16v.5ZM76.86,55.52s.04-.04.06-.12c.03-.09.04-.18.04-.25,0-.09-.03-.21-.08-.35-.01-.03-.02-.06-.03-.06-.02,0-.03.12-.03.36,0,.28.01.41.04.41ZM76.82,59.66c.08-.05.14-.09.17-.12.13-.11.27-.28.4-.53.16-.28.24-.55.24-.8,0-.37-.11-.68-.33-.92-.2-.2-.33-.3-.4-.3-.02,0-.04.05-.04.15,0,.05,0,.09.02.12.01.03.04.06.1.11.21.21.32.53.32.94,0,.21-.02.37-.07.49-.04.12-.12.24-.24.35l-.15.15v.34ZM76.85,58.75s.06-.18.06-.42c0-.21-.02-.35-.06-.43-.01,0-.02.14-.02.43s0,.42.02.42ZM78.44,55.49s.19-.19.54-.55l-1.58-1.59-.28.24.15.14c.36.33.56.71.62,1.12l.03.18c.33.3.5.45.52.45ZM78.49,58.71s.1-.09.26-.26c.15-.15.22-.23.22-.26,0-.03-.43-.51-1.3-1.45-.14-.15-.21-.23-.23-.24-.01,0-.09.09-.24.25.28.22.47.43.59.64.05.1.09.21.13.35.04.14.06.25.06.35s.14.28.41.54c.05.05.08.07.08.07ZM78.52,52.31s.1-.09.28-.27c.18-.18.27-.27.27-.28s-.05-.05-.14-.12c-.1-.07-.21-.18-.36-.32-.14-.15-.47-.45-.98-.92h-.29l.18.18c.29.27.45.6.5,1l.03.23c.34.34.51.51.51.51ZM78.62,59.68c.15,0,.22,0,.22-.02,0,0-.14-.16-.43-.48-.29-.32-.44-.48-.46-.49-.01,0-.04.05-.08.16-.11.28-.27.55-.47.8l.58.02s.04-.02.04-.06.02-.08.05-.12.07-.06.11-.06.08.02.12.05c.04.04.07.08.08.12l.02.07h.22ZM78.53,57.12c.13-.16.24-.28.33-.38.09-.09.13-.15.13-.16s-.18-.2-.54-.55-.55-.53-.56-.53c0,0-.03.04-.05.13-.02.09-.05.19-.1.3-.04.11-.07.18-.08.2,0,.03.29.36.86.98ZM78.54,53.96s.02-.01.06-.04c.04-.03.08-.07.13-.11.05-.04.1-.09.15-.14.05-.05.09-.08.12-.11.03-.03.06-.05.09-.08-.14-.19-.46-.52-.96-1.02-.09-.09-.14-.14-.15-.14,0,0,0,.02-.02.05,0,.03-.02.06-.03.11-.01.04-.04.11-.07.19-.03.08-.07.16-.11.23-.04.07-.06.12-.08.14,0,.03.25.29.74.78.08.09.13.13.13.13ZM78.53,50.76c.2-.21.29-.33.29-.35,0-.02-.23-.03-.69-.03l.4.37ZM78.31,54.93s-.08-.02-.11-.05c-.04-.03-.05-.06-.05-.09,0-.04.02-.08.05-.12.04-.04.08-.06.12-.06.02,0,.04,0,.05,0,.07.02.1.08.1.16,0,.1-.05.15-.16.15ZM78.34,53.35s-.08-.02-.12-.06-.06-.08-.06-.12c0-.02,0-.05.02-.07.02-.06.08-.09.15-.09.04,0,.08.02.12.06.04.04.06.08.06.12,0,.02,0,.04-.03.07-.02.03-.04.05-.07.07-.03.02-.05.03-.07.03ZM78.38,56.59h-.03s-.03,0-.07-.03c-.07-.03-.11-.09-.11-.17,0-.04.01-.07.04-.1.04-.04.07-.07.1-.07h.05c.06,0,.1.03.14.09.02.03.03.06.03.08,0,.04-.02.09-.06.13-.02.03-.05.05-.1.06ZM78.36,51.8s-.04,0-.06-.01c-.07-.03-.1-.06-.1-.1,0-.03,0-.05,0-.07,0-.08.04-.13.13-.17.02-.01.04-.02.05-.02.03,0,.07.02.11.06s.06.08.06.12c0,.06-.02.1-.06.13-.04.03-.08.04-.12.04ZM78.35,58.14s-.07-.02-.11-.05-.05-.08-.05-.13c0-.04.02-.08.05-.1s.06-.04.1-.04c.02,0,.05,0,.07.02.07.03.1.08.1.14,0,.04-.02.08-.05.11s-.07.05-.11.05ZM79.23,56.27v-.4c.01-.17,0-.3,0-.38s-.01-.16-.02-.24c-.23.23-.39.4-.49.52.11.09.2.17.27.24.04.04.12.13.24.27ZM79.2,59.47l.02-.65c0-.09,0-.19-.02-.32-.17.17-.32.33-.43.46,0,.02.14.19.43.51ZM79.21,53.01s0-.29,0-.86l-.43.43c.28.28.43.42.43.42ZM79.2,57.83c.02-.15.03-.46.04-.94-.19.2-.34.36-.46.51l.42.43ZM79.17,54.57s.02-.11.02-.33,0-.33-.02-.33-.14.11-.37.32c.23.23.35.35.37.35ZM79.2,51.39s.01-.28.01-.83l-.21.23c-.1.11-.16.18-.16.21,0,.04.1.15.3.33.04.03.06.05.06.05Z"/>
    <path class="cls-2" d="M22.77,68.01v1.46c.01,3.68,0,6.67-.01,8.97,0,1.3.03,2.63.08,4l3.25-.08c.79,0,1.75-.03,2.89-.06l-.04-1.31c0-.5.12-.75.37-.75.15,0,.27.02.35.06.16.12.24,1.55.24,4.3,0,.3-.01.48-.04.53-.09.18-.19.28-.31.3-.2,0-.33-.04-.41-.11-.07-.07-.12-.23-.13-.48-.01-.25-.02-.79-.03-1.62-3.98.05-6.01.09-6.12.12-.03.13-.05,3.14-.06,9.03l1.64-.03c.5,0,.75.15.75.46,0,.18-.09.31-.27.38-.27.06-2.53.09-6.79.09-3,0-4.55,0-4.67-.03-.15-.09-.22-.24-.22-.42,0-.24.14-.38.42-.42.12,0,.24-.01.37-.01.39,0,.74-.02,1.04-.06.04-.58.06-1.95.06-4.11l-.06-18.62c-.49-.15-.92-.36-1.3-.66-.69-.55-1.09-1.09-1.21-1.61-.12-.53-.19-.93-.19-1.2,0-.48.1-.96.31-1.43.57-1.19,1.44-1.79,2.61-1.79.76,0,1.4.25,1.93.75.33.33.49.71.49,1.16v.27c-.12.24-.27.36-.45.36-.12,0-.22-.04-.31-.13-.09-.09-.13-.23-.13-.41v-.13c.01-.16-.07-.33-.23-.49-.22-.22-.54-.38-.94-.46-.13-.03-.25-.04-.37-.04-.79,0-1.38.42-1.79,1.26-.16.36-.24.73-.24,1.11,0,.83.35,1.52,1.05,2.08.52.42,1.04.64,1.56.66s.82.03.89.03c.95,0,2.12-.27,3.51-.81,1.74-.74,3.46-1.51,5.15-2.33,1.46-.69,2.99-1.39,4.61-2.09,1.61-.7,3.4-1.39,5.35-2.06,1.74-.56,3.22-.83,4.43-.83.34,0,.67.02.98.06,1.37.21,2.36.69,2.96,1.44.54.69.81,1.41.81,2.16,0,.97-.34,1.7-1.03,2.2-.05.05-.14.08-.26.08s-.22-.04-.31-.13-.13-.19-.13-.31c0-.2.06-.32.19-.37.34-.25.53-.54.57-.88.03-.34.05-.55.05-.62,0-.52-.19-1.04-.57-1.54-.44-.58-1.02-.93-1.74-1.05-.72-.12-1.23-.17-1.53-.17-1.95,0-5.08.95-9.42,2.84-1.59.69-3.12,1.38-4.56,2.07-1.01.49-2.04.96-3.08,1.43ZM16.02,76.74s.21-.13.51-.38c.97-.79,1.45-1.79,1.45-3.01v-.24c0-1.14-.33-2-1-2.57-.1-.09-.22-.19-.36-.29s-.27-.18-.39-.25c-.12-.07-.2-.1-.24-.1-.02,0-.03.14-.03.42,0,.25.01.39.04.42.03.03.08.06.13.08.25.11.49.35.73.72.35.54.53,1.04.53,1.52,0,.25-.03.52-.1.81-.15.67-.44,1.18-.86,1.54-.15.13-.27.21-.37.26-.07.03-.1.21-.1.57s.02.51.05.51ZM15.97,74.64l.14-.17c.1-.13.19-.35.28-.66.08-.31.12-.55.12-.71,0-.4-.18-.83-.54-1.27v2.81ZM16.09,84.65c.26-.21.48-.43.67-.67.51-.67.81-1.27.9-1.8.08-.53.13-.91.13-1.14,0-.53-.1-1.02-.31-1.46-.1-.19-.25-.41-.44-.66-.19-.25-.38-.47-.58-.66-.19-.19-.32-.28-.39-.28-.03,0-.04.14-.04.41,0,.24.02.38.05.42.03.04.08.07.13.1.26.14.51.48.76,1.02.19.39.28.81.28,1.26,0,.73-.26,1.35-.78,1.86l-.37.39v1.22ZM16.1,82.05c.05,0,.11-.09.17-.28.07-.23.1-.44.1-.62,0-.22-.07-.5-.21-.85-.03-.09-.06-.14-.08-.15-.04,0-.06.3-.06.89,0,.68.03,1.02.08,1.02ZM16.02,92.23c.19-.12.33-.21.41-.28.32-.27.64-.7.98-1.3.39-.69.58-1.35.58-1.97,0-.92-.28-1.67-.83-2.25-.47-.49-.8-.73-.98-.73-.06,0-.09.12-.09.37,0,.13.01.23.04.29.03.07.11.16.24.27.51.52.78,1.29.78,2.31,0,.5-.05.91-.16,1.21s-.31.59-.6.86l-.37.37v.83ZM16.08,89.99c.11-.1.17-.45.17-1.04,0-.51-.06-.87-.17-1.05-.03,0-.04.35-.04,1.05s.01,1.04.04,1.04ZM20.01,81.99s.48-.47,1.32-1.35l-3.87-3.89-.69.59.36.35c.87.82,1.38,1.74,1.53,2.75l.08.45c.81.74,1.23,1.11,1.27,1.11ZM20.13,89.88s.25-.23.64-.64c.36-.36.54-.57.54-.64,0-.08-1.06-1.26-3.19-3.55-.34-.37-.53-.56-.55-.58-.04.02-.23.22-.58.6.68.53,1.16,1.06,1.45,1.58.12.24.23.53.32.86.09.33.14.62.14.85s.34.68,1.02,1.33c.12.12.19.18.21.18ZM20.43,92.28c.37,0,.55-.01.55-.04,0,0-.36-.4-1.07-1.18-.71-.78-1.09-1.18-1.12-1.21-.03,0-.1.13-.19.4-.28.69-.67,1.35-1.16,1.97l1.41.05c.08,0,.12-.05.12-.15s.04-.2.13-.3c.08-.1.17-.15.27-.15s.19.04.3.14c.1.09.17.19.19.3l.04.18h.54ZM17.49,69.78l.14.14c.7.65,1.11,1.47,1.21,2.46l.08.55c.82.83,1.24,1.25,1.26,1.25.03,0,.26-.22.69-.66s.66-.67.66-.69-.12-.13-.35-.3c-.23-.17-.52-.44-.87-.8-.33-.33-1.06-1-2.18-2.03-.21.03-.42.06-.63.09ZM20.21,85.99c.33-.39.59-.69.81-.93.21-.23.32-.36.32-.4s-.44-.48-1.33-1.35c-.89-.87-1.35-1.3-1.38-1.3-.02,0-.05.11-.1.32-.05.21-.13.46-.24.74-.11.28-.18.44-.19.49,0,.07.72.87,2.12,2.42ZM20.24,78.22s.06-.04.14-.11c.08-.07.19-.17.31-.28s.25-.22.38-.33c.13-.11.23-.2.3-.26s.14-.13.22-.2c-.34-.45-1.13-1.29-2.35-2.49-.23-.22-.36-.34-.37-.35,0,.02-.02.06-.04.13-.02.07-.05.16-.08.27-.03.11-.09.27-.17.47s-.17.39-.26.57c-.09.18-.16.29-.2.35,0,.09.6.72,1.8,1.92.21.21.33.32.33.32ZM19.24,69.42l.98.96c.81-.77,1.22-1.18,1.22-1.22,0-.02-.12-.16-.36-.42-.15.07-.29.13-.45.19-.05.02-.1.04-.15.06,0,.15-.05.25-.16.33-.11.07-.2.11-.29.11-.05,0-.1,0-.14-.03-.09-.04-.16-.09-.21-.13-.15.05-.29.1-.44.14ZM19.67,80.6c-.1,0-.2-.04-.28-.12-.08-.08-.12-.15-.12-.23,0-.09.04-.19.13-.29.08-.1.18-.15.28-.15.04,0,.09,0,.14.03.16.06.24.19.24.39,0,.25-.13.37-.4.37ZM19.76,76.74c-.09,0-.19-.05-.28-.15-.09-.1-.14-.2-.14-.3,0-.06.01-.12.04-.17.06-.15.18-.23.37-.23.1,0,.2.05.3.14s.14.19.14.29c0,.05-.02.11-.07.17s-.11.12-.17.17-.13.07-.18.07ZM19.84,84.69h-.06s-.09-.02-.18-.06c-.16-.08-.24-.21-.24-.41,0-.09.03-.17.09-.24.09-.11.18-.17.26-.17h.12c.14,0,.25.08.35.23.04.08.06.14.06.19,0,.11-.05.22-.14.32-.06.07-.14.12-.24.14ZM19.8,72.93c-.05,0-.1,0-.14-.03-.16-.08-.25-.16-.26-.24-.01-.08-.02-.13-.02-.16,0-.19.1-.33.31-.42.06-.03.11-.04.14-.04.08,0,.18.05.28.15s.15.2.15.29c0,.15-.05.26-.16.33-.11.07-.2.11-.29.11ZM19.79,88.49c-.09,0-.18-.04-.26-.12-.08-.08-.12-.19-.12-.33,0-.1.04-.18.11-.24.07-.06.16-.09.25-.09.05,0,.11.01.18.04.16.07.24.18.24.35,0,.09-.04.18-.12.27-.08.09-.17.13-.28.13ZM21.94,83.89v-.99c.01-.42,0-.73-.01-.93-.02-.2-.03-.4-.04-.58-.57.57-.96.99-1.19,1.27.26.21.49.41.67.58.1.1.3.32.58.66ZM21.87,91.75l.04-1.59c0-.21-.01-.48-.04-.78-.42.43-.78.81-1.07,1.13,0,.05.36.47,1.07,1.25ZM21.88,75.9s.01-.7.01-2.11l-1.07,1.07c.69.69,1.04,1.04,1.05,1.04ZM21.86,87.72c.06-.36.09-1.13.09-2.31-.47.48-.84.9-1.11,1.25l1.02,1.07ZM21.79,79.74s.04-.28.04-.82-.02-.82-.05-.82c-.03,0-.33.26-.9.78.57.57.87.85.91.86ZM21.87,71.91s.03-.68.03-2.04l-.53.57c-.26.27-.39.45-.39.53,0,.1.24.38.73.82.09.08.15.13.15.13Z"/>
    <path class="cls-2" d="M34.56,93.19h-2.3c-.7,0-1.09-.03-1.16-.1-.11-.1-.17-.21-.17-.32,0-.19.1-.33.31-.41.08-.03.33-.06.73-.1l7.8-22.7s-.05-.02-.15-.03c-.45-.02-.74-.03-.85-.05-.22-.04-.33-.18-.33-.41,0-.12.05-.23.14-.32.02-.02.04-.03.06-.04s.07-.03.13-.04.16-.02.3-.03c.13,0,.31-.01.55-.02.23,0,.53-.01.88-.02.36,0,.79,0,1.3-.01.51,0,1.11-.01,1.81-.02l4.9-.04c.17.19.26.32.26.39v.1c0,.2-.1.32-.3.36-.07.02-.18.03-.35.03-.26,0-.39.03-.39.08,0,.08,1.35,3.89,4.05,11.44l3.98,11.23c.45,0,.72,0,.78.03.07.02.12.06.17.12.08.09.12.2.12.33,0,.1-.03.19-.09.26-.09.1-1.2.17-3.33.21l-6.89.06c-.17-.17-.26-.32-.26-.44,0-.18.09-.31.26-.4.07-.03.25-.04.55-.04.35,0,.53-.02.53-.05,0-.06-.17-.58-.51-1.57-.34-.99-.51-1.49-.52-1.51-1.01,0-3.12.03-6.32.08-4.12.08-6.23.13-6.32.15-.03.03-.37.99-1,2.88,0,.02.46.03,1.38.03.71,0,1.11,0,1.21.01.14,0,.24.05.32.13.11.11.17.23.17.35,0,.1-.04.21-.13.31-.09.08-.53.12-1.31.12ZM34.26,88.44l9.83-.18c1.42-.03,2.13-.08,2.13-.13,0-.07-.97-3-2.9-8.8-1.93-5.8-2.91-8.69-2.94-8.69,0,0-1.02,2.9-3.02,8.71-2,5.8-3.04,8.84-3.11,9.09ZM43.63,77.16c.07,0,.18-.18.35-.55.27-.55.41-1.25.41-2.12s-.12-1.52-.37-2.06c-.27-.58-.82-1.14-1.63-1.67-.55-.36-.91-.54-1.08-.54h-.03c.02.18.12.52.32,1.05l.41.05c.45.03.85.23,1.2.62.45.47.67,1.08.67,1.81,0,.55-.15,1.14-.46,1.77l-.23.49c.15.41.22.63.22.66.09.33.17.49.23.49ZM42.78,74.7s.09-.14.13-.35c.03-.17.05-.36.05-.55,0-.36-.05-.65-.15-.87-.09-.16-.22-.32-.39-.48s-.29-.23-.37-.23c-.08,0-.12.02-.12.05,0,.09.13.51.4,1.27.27.76.42,1.15.44,1.16ZM46.97,74.29l.54-.81c.19-.31.28-.49.28-.54,0-.04-.28-.27-.83-.68-.36-.27-.93-.64-1.72-1.12-1.13-.69-1.85-1.12-2.16-1.27-.19-.1-.31-.19-.37-.27-.03-.05-.07-.08-.12-.1-.06-.02-.15-.03-.29-.03h-.33l.36.21c1.52.82,2.44,1.85,2.76,3.08l.1.42c.37.19.64.34.81.44.17.11.5.33.98.66ZM45.99,84.46c.15-.15.26-.28.32-.37.29-.45.44-1.12.44-1.99,0-.62-.04-1.15-.13-1.57-.11-.45-.45-.9-1.03-1.35-.49-.38-.92-.59-1.3-.63l-.28-.04c.13.41.21.65.26.71s.09.1.15.1c.27,0,.63.21,1.07.62.44.42.66.9.66,1.46,0,.35-.12.83-.36,1.43-.05.14-.09.23-.12.27s-.04.1-.04.17c0,.09.12.49.36,1.2ZM45.69,70.33c.07-.03.22-.31.45-.84,0-.02-.1-.03-.29-.03-.21,0-.36.05-.46.15-.1.1-.2.15-.29.15s-.19-.05-.28-.14c-.09-.09-.2-.14-.32-.14-.1,0-.15.01-.15.04s.19.15.58.39c.41.25.66.39.76.42ZM49.37,82.07l.81-1.38c-1.16-.94-2.13-1.68-2.93-2.21-1.53-1.01-2.32-1.52-2.35-1.52-.03,0-.06.03-.11.08s-.1.14-.16.25c-.06.11-.12.23-.18.35l.28.08c.45.11.93.37,1.44.77.8.63,1.25,1.3,1.36,2,0,.13.03.22.08.28.04.06.13.13.27.22.17.11.47.32.89.63.39.29.59.44.6.44ZM45.18,81.89s.02-.02.03-.07.03-.1.04-.17.02-.13.02-.19c0-.3-.13-.58-.39-.85l-.26-.28c.34,1.04.53,1.56.55,1.56ZM48.33,78.09c.05,0,.18-.15.38-.42.2-.27.3-.43.3-.47,0-.07-.23-.3-.66-.69-.34-.31-.77-.65-1.29-1.03-.75-.56-1.34-.97-1.76-1.25l-.1,1.63s0,.08.03.13c.02.05.18.18.48.39,1.71,1.13,2.59,1.7,2.62,1.71ZM45.93,72.98c-.13,0-.23-.05-.3-.14-.07-.09-.11-.19-.11-.29,0-.08.03-.16.08-.22.08-.1.16-.15.23-.15h.1c.11,0,.22.06.32.19.03.08.05.15.05.23,0,.09-.03.17-.1.25-.07.08-.16.12-.27.12ZM48.48,91.88c.25-.3.43-.55.54-.76.28-.55.44-.96.46-1.22.03-.26.04-.45.04-.57,0-.34-.06-.7-.18-1.08-.39-1.32-1.18-2.14-2.38-2.47-.21-.07-.36-.1-.44-.1-.06,0-.09.02-.09.06,0,.06.03.17.09.32.07.22.14.36.21.41.04.03.1.06.17.09.21.08.45.2.71.36.65.42,1.05.9,1.2,1.43.04.16.06.42.06.77,0,.29-.01.51-.04.64-.03.23-.15.55-.35.95-.06.12-.12.2-.17.24-.06.04-.08.08-.08.13,0,.14.09.4.26.78ZM47.47,71.49s-.08-.24-.24-.7c-.16-.46-.26-.71-.28-.74-.08,0-.22.28-.42.83l.95.6ZM47.13,76.72c-.12,0-.22-.04-.29-.13-.07-.09-.11-.19-.11-.3,0-.09.03-.16.09-.22.08-.1.18-.15.31-.15s.24.06.33.19c.03.08.05.15.05.23,0,.09-.04.17-.11.26-.07.08-.17.13-.28.13ZM51.89,89.53s.3-.43.78-1.27c-.65-.51-2.22-1.61-4.72-3.3-.49-.33-.74-.5-.75-.5-.03,0-.06.02-.1.07s-.08.1-.12.15c-.03.05-.05.09-.05.13,0,.04.1.09.29.14.19.05.46.15.79.31,1.11.57,1.85,1.56,2.24,2.94.04.17.15.32.31.44.33.26.78.56,1.32.9ZM47.83,89.97c.12-.27.18-.55.18-.83,0-.56-.25-1.01-.75-1.36-.07-.05-.12-.08-.14-.08h-.01c0,.12.12.49.35,1.13l.37,1.14ZM50.91,85.84c.06-.02.27-.35.62-.99-.59-.51-1.32-1.07-2.17-1.67-.26-.18-.81-.59-1.66-1.23-.06.63-.1,1.18-.12,1.65,2.13,1.49,3.24,2.24,3.33,2.25ZM49,75.83s-.18-.59-.55-1.64l-.1-.3s-.12.14-.31.42c-.19.28-.28.45-.28.49,0,.02.08.08.2.18.12.1.27.22.42.35.16.13.3.25.42.35s.19.15.2.15ZM48.28,80.59c-.1,0-.19-.04-.25-.11-.06-.07-.1-.15-.1-.24,0-.06.01-.12.04-.19.07-.16.18-.24.35-.24.09,0,.17.05.26.15.09.1.13.2.13.28,0,.1-.04.19-.13.25-.09.06-.19.1-.31.1ZM49.38,84.52c-.28,0-.42-.14-.42-.41,0-.06.02-.12.05-.18.08-.14.2-.21.37-.21.28,0,.42.13.42.39,0,.27-.14.41-.42.41ZM50.32,79.62c0-.09-.08-.38-.26-.87-.17-.49-.28-.78-.33-.89-.03,0-.24.27-.63.8.77.63,1.18.95,1.22.96ZM50.75,92.22c.92,0,1.93-.03,3.03-.08l-.9-.73c-.23-.18-1.04-.77-2.43-1.76-.19.96-.54,1.82-1.07,2.57h1.36ZM51.88,83.94s-.04-.15-.13-.4c-.09-.25-.19-.57-.33-.94s-.25-.68-.35-.93c-.1-.25-.16-.37-.17-.37-.04.02-.3.45-.81,1.3.67.48,1.13.83,1.39,1.05.11.09.2.16.28.21.07.06.11.08.12.08ZM50.92,88.36c-.08,0-.16-.04-.26-.12-.08-.09-.12-.18-.12-.28,0-.05.01-.11.04-.17.06-.16.18-.24.37-.24.09,0,.17.04.26.13.08.09.13.18.13.27,0,.05-.03.11-.08.17-.05.06-.11.12-.17.17-.06.05-.12.07-.17.07ZM51.46,91.91c-.09,0-.17-.04-.24-.13-.08-.09-.12-.18-.12-.27,0-.05.01-.11.04-.17.06-.16.18-.24.36-.24.09,0,.18.04.27.13.08.09.13.18.13.27,0,.05-.03.11-.08.17-.05.06-.11.12-.17.17-.06.05-.13.07-.19.07ZM53.16,87.51s-.07-.24-.22-.62c-.31-.9-.49-1.41-.55-1.54-.03,0-.15.16-.33.47s-.28.5-.28.56c0,.03.22.23.65.58s.68.54.74.55ZM54.56,91.58c0-.08-.17-.58-.49-1.5-.33-.92-.51-1.38-.55-1.38-.04.02-.2.26-.48.72-.25.39-.37.62-.37.69,0,.04.02.08.06.1.04.02.12.07.22.15.11.08.23.17.36.26.13.09.41.31.84.64.24.21.37.31.4.31Z"/>
    <path class="cls-2" d="M74.04,93.31c-.51,0-.84,0-.98,0-.14,0-.24-.04-.29-.1-.1-.09-.15-.16-.15-.23,0-.19.04-.32.11-.39s.25-.12.52-.13l1.84-.05c-4.54-5.25-6.85-7.91-6.94-7.98-.03.09-.05,2.7-.05,7.85.57,0,.95.03,1.14.05.3.03.46.13.47.28v.13c0,.14-.06.25-.18.33-.26.09-3.24.14-8.96.14-1.05,0-1.65-.02-1.77-.05-.19-.09-.28-.22-.28-.41s.08-.33.24-.39c.11-.04.3-.06.57-.06.33,0,.68-.03,1.04-.08.04-.44.06-1.8.06-4.1l-.06-18.75c-.73,0-1.15,0-1.27-.03-.19-.02-.32-.12-.39-.29,0-.03-.01-.06-.01-.09,0-.16.07-.29.22-.38.2-.07,1.61-.12,4.23-.17.98-.02,2.18-.03,3.6-.03,1.93,0,3.41.09,4.45.26s2,.5,2.89.97c1.68.9,2.81,1.95,3.39,3.14s.87,2.28.87,3.25c0,.6-.09,1.21-.26,1.84-.43,1.41-1.24,2.61-2.44,3.62-1.48,1.23-3.27,1.98-5.36,2.25-.41.05-.89.09-1.43.12l7.4,8.57,1.2-.04c.27,0,.44.01.53.04.2.07.3.2.32.4,0,.19-.08.32-.23.4-.12.05-1.47.09-4.04.12ZM61.29,76.64s.21-.13.51-.4c.97-.78,1.45-1.78,1.45-2.99v-.24c0-1.14-.33-2-1-2.57-.1-.09-.22-.19-.36-.29s-.27-.18-.39-.25-.2-.1-.24-.1c-.02,0-.03.14-.03.42,0,.25.01.39.04.42s.08.06.13.08c.25.11.5.35.75.72.34.54.51,1.05.51,1.52,0,.25-.03.52-.1.81-.15.67-.44,1.18-.85,1.54-.15.13-.28.21-.39.26-.07.03-.1.21-.1.57s.02.51.05.51ZM61.24,74.53l.14-.18c.1-.12.2-.34.28-.65s.13-.55.13-.71c0-.4-.18-.83-.55-1.27v2.81ZM61.35,84.55c.26-.21.48-.43.67-.67.51-.67.82-1.27.91-1.8.09-.53.14-.91.14-1.14,0-.53-.11-1.02-.32-1.47-.1-.2-.25-.42-.44-.66-.19-.24-.39-.46-.58-.66s-.32-.29-.39-.29c-.02,0-.03.14-.03.42,0,.24.01.38.04.42.03.04.07.07.12.1.26.14.51.48.77,1.02.19.41.28.83.28,1.26,0,.72-.27,1.34-.8,1.86l-.37.38v1.22ZM61.38,81.95s.1-.1.16-.31.1-.42.1-.64c0-.19-.07-.45-.21-.8-.03-.09-.06-.14-.08-.15-.03,0-.05.3-.05.89,0,.68.03,1.01.08,1.01ZM61.3,92.13c.2-.13.33-.22.4-.28.34-.28.67-.72.99-1.3.21-.4.37-.78.48-1.14.07-.27.1-.56.1-.85,0-.9-.28-1.64-.83-2.22-.48-.49-.81-.73-.99-.73-.06,0-.09.12-.09.36,0,.14.02.24.05.31s.11.16.23.27c.52.52.78,1.33.78,2.42,0,.45-.05.83-.16,1.12-.11.29-.3.57-.58.85l-.37.37v.83ZM61.35,89.89c.1-.1.15-.45.15-1.04,0-.7-.05-1.05-.15-1.05-.03,0-.05.35-.05,1.05s.02,1.04.05,1.04ZM65.27,81.89s.48-.47,1.32-1.36l-3.87-3.88-.69.58.36.35c.87.83,1.38,1.75,1.53,2.75l.08.45c.81.75,1.24,1.12,1.27,1.12ZM65.39,89.78s.26-.23.64-.64c.36-.36.54-.58.54-.66,0-.07-1.06-1.25-3.19-3.53-.34-.37-.53-.56-.55-.58-.03.02-.23.22-.58.6.69.55,1.18,1.08,1.45,1.58.12.24.23.53.32.86.09.33.14.62.14.85,0,.15.06.3.19.45.26.3.54.59.83.89.11.12.18.18.19.18ZM65.45,74.07s.25-.22.69-.66c.44-.44.66-.67.66-.69s-.12-.13-.35-.3c-.24-.18-.53-.44-.88-.8s-1.15-1.11-2.4-2.25h-.72l.45.44c.7.65,1.11,1.47,1.22,2.47l.08.55c.82.83,1.24,1.25,1.26,1.25ZM65.71,92.18c.36,0,.54-.01.54-.04s-.36-.43-1.08-1.2-1.09-1.17-1.12-1.19c0,0-.07.13-.19.38-.22.64-.61,1.3-1.16,1.98.2,0,.39,0,.57.01.18,0,.35.01.49.02.15,0,.24,0,.28.01.04,0,.07,0,.08,0,.07,0,.1-.05.1-.15s.04-.2.13-.3c.09-.1.18-.15.26-.15.09,0,.19.04.3.13s.17.19.19.3l.04.18h.55ZM65.49,85.88c.32-.38.58-.69.8-.92.22-.23.33-.37.33-.41,0-.03-.45-.47-1.34-1.34-.89-.87-1.35-1.3-1.38-1.3s-.06.11-.12.33c-.05.22-.13.47-.24.75s-.18.44-.19.49c0,.07.72.87,2.13,2.42ZM65.5,78.11s.06-.04.14-.12c.6-.51,1-.86,1.21-1.07-.39-.49-1.17-1.32-2.35-2.48-.23-.22-.36-.34-.37-.35-.02.02-.06.15-.13.4-.07.25-.21.6-.42,1.04-.09.18-.16.3-.21.35,0,.09.6.73,1.81,1.92.21.21.31.31.32.31ZM65.49,70.28c.47-.51.71-.8.71-.85,0-.04-.57-.06-1.7-.06.33.31.66.61.99.91ZM64.95,80.5c-.1,0-.2-.04-.28-.12-.09-.08-.13-.16-.13-.24s.04-.18.13-.28.19-.15.29-.15c.04,0,.09,0,.13.03.16.06.24.19.24.39,0,.25-.13.37-.39.37ZM65.03,76.64c-.09,0-.19-.05-.28-.15s-.13-.2-.13-.32c0-.26.14-.38.41-.38.09,0,.19.05.28.14.09.09.14.19.14.3,0,.05-.02.11-.07.17s-.1.12-.17.17c-.07.05-.13.07-.18.07ZM65.08,84.58s-.08,0-.1-.01-.06-.02-.1-.04-.09-.05-.13-.1c-.04-.04-.07-.09-.1-.15-.03-.06-.04-.12-.04-.17,0-.09.03-.18.09-.24.09-.11.18-.17.26-.17h.13c.14,0,.25.08.33.23.04.08.06.14.06.19,0,.25-.14.4-.41.46ZM65.07,72.83s-.09,0-.13-.03c-.16-.08-.25-.16-.26-.24s-.02-.13-.02-.16c0-.19.1-.33.31-.42.05-.03.09-.04.13-.04.09,0,.18.05.28.15.1.1.15.2.15.29,0,.15-.05.25-.15.33-.1.07-.2.11-.29.11ZM65.05,88.39c-.09,0-.18-.04-.26-.12s-.12-.19-.12-.33c0-.1.04-.18.12-.24s.16-.09.24-.09c.06,0,.12.01.19.04.15.07.23.18.23.35,0,.09-.04.18-.12.27-.08.09-.17.13-.28.13ZM67.2,83.77l.03-.98c0-.5-.03-1-.08-1.52-.57.57-.96.99-1.2,1.27.37.3.59.49.68.57,0,0,.19.23.57.66ZM67.14,91.65l.04-1.59c0-.21-.01-.48-.04-.78-.17.18-.34.35-.5.52-.16.17-.29.31-.39.42s-.16.18-.17.19c0,.05.36.47,1.07,1.25ZM67.15,75.79s.01-.7.01-2.11l-1.07,1.07c.69.69,1.05,1.04,1.05,1.04ZM67.14,87.62c.05-.36.08-1.13.09-2.31-.47.48-.84.9-1.12,1.25l1.03,1.07ZM67.06,79.64s.05-.28.05-.82-.02-.82-.05-.82-.33.26-.9.78c.57.57.87.85.9.86ZM67.14,71.81s.03-.68.03-2.04l-.53.57c-.26.27-.39.45-.39.53,0,.1.24.38.73.82.09.09.15.13.15.13ZM68.15,82.9l1.12-.04c.75-.02,1.33-.07,1.72-.17,1.83-.39,3.34-1.18,4.54-2.35,1.27-1.26,1.9-2.7,1.9-4.32,0-.4-.03-.77-.1-1.09-.44-1.95-1.67-3.47-3.71-4.54-1.22-.63-2.51-.97-3.88-1l-1.68-.06.03,2.15c0,2.01-.01,3.57-.04,4.67-.02.8-.03,1.55-.03,2.25,0,1.14.05,2.64.14,4.51Z"/>
    <path class="cls-2" d="M83.62,93.19h-2.3c-.7,0-1.09-.03-1.16-.1-.11-.1-.17-.21-.17-.32,0-.19.1-.33.31-.41.08-.03.33-.06.73-.1l7.8-22.7s-.05-.02-.15-.03c-.45-.02-.74-.03-.85-.05-.22-.04-.33-.18-.33-.41,0-.12.05-.23.14-.32.02-.02.04-.03.06-.04s.07-.03.13-.04.16-.02.3-.03c.13,0,.31-.01.55-.02.23,0,.53-.01.88-.02.36,0,.79,0,1.3-.01.51,0,1.11-.01,1.81-.02l4.9-.04c.17.19.26.32.26.39v.1c0,.2-.1.32-.3.36-.07.02-.18.03-.35.03-.26,0-.39.03-.39.08,0,.08,1.35,3.89,4.05,11.44l3.98,11.23c.45,0,.72,0,.78.03.07.02.12.06.17.12.08.09.12.2.12.33,0,.1-.03.19-.09.26-.09.1-1.2.17-3.33.21l-6.89.06c-.17-.17-.26-.32-.26-.44,0-.18.09-.31.26-.4.07-.03.25-.04.55-.04.35,0,.53-.02.53-.05,0-.06-.17-.58-.51-1.57-.34-.99-.51-1.49-.52-1.51-1.01,0-3.12.03-6.32.08-4.12.08-6.23.13-6.32.15-.03.03-.37.99-1,2.88,0,.02.46.03,1.38.03.71,0,1.11,0,1.21.01.14,0,.24.05.32.13.11.11.17.23.17.35,0,.1-.04.21-.13.31-.09.08-.53.12-1.31.12ZM83.31,88.44l9.83-.18c1.42-.03,2.13-.08,2.13-.13,0-.07-.97-3-2.9-8.8-1.93-5.8-2.91-8.69-2.94-8.69,0,0-1.02,2.9-3.02,8.71-2,5.8-3.04,8.84-3.11,9.09ZM92.68,77.16c.07,0,.18-.18.35-.55.27-.55.41-1.25.41-2.12s-.12-1.52-.37-2.06c-.27-.58-.82-1.14-1.63-1.67-.55-.36-.91-.54-1.08-.54h-.03c.02.18.12.52.32,1.05l.41.05c.45.03.85.23,1.2.62.45.47.67,1.08.67,1.81,0,.55-.15,1.14-.46,1.77l-.23.49c.15.41.22.63.22.66.09.33.17.49.23.49ZM91.83,74.7s.09-.14.13-.35c.03-.17.05-.36.05-.55,0-.36-.05-.65-.15-.87-.09-.16-.22-.32-.39-.48s-.29-.23-.37-.23c-.08,0-.12.02-.12.05,0,.09.13.51.4,1.27.27.76.42,1.15.44,1.16ZM96.02,74.29l.54-.81c.19-.31.28-.49.28-.54,0-.04-.28-.27-.83-.68-.36-.27-.93-.64-1.72-1.12-1.13-.69-1.85-1.12-2.16-1.27-.19-.1-.31-.19-.37-.27-.03-.05-.07-.08-.12-.1-.06-.02-.15-.03-.29-.03h-.33l.36.21c1.52.82,2.44,1.85,2.76,3.08l.1.42c.37.19.64.34.81.44.17.11.5.33.98.66ZM95.04,84.46c.15-.15.26-.28.32-.37.29-.45.44-1.12.44-1.99,0-.62-.04-1.15-.13-1.57-.11-.45-.45-.9-1.03-1.35-.49-.38-.92-.59-1.3-.63l-.28-.04c.13.41.21.65.26.71s.09.1.15.1c.27,0,.63.21,1.07.62.44.42.66.9.66,1.46,0,.35-.12.83-.36,1.43-.05.14-.09.23-.12.27s-.04.1-.04.17c0,.09.12.49.36,1.2ZM94.75,70.33c.07-.03.22-.31.45-.84,0-.02-.1-.03-.29-.03-.21,0-.36.05-.46.15-.1.1-.2.15-.29.15s-.19-.05-.28-.14c-.09-.09-.2-.14-.32-.14-.1,0-.15.01-.15.04s.19.15.58.39c.41.25.66.39.76.42ZM98.42,82.07l.81-1.38c-1.16-.94-2.13-1.68-2.93-2.21-1.53-1.01-2.32-1.52-2.35-1.52-.03,0-.06.03-.11.08s-.1.14-.16.25c-.06.11-.12.23-.18.35l.28.08c.45.11.93.37,1.44.77.8.63,1.25,1.3,1.36,2,0,.13.03.22.08.28.04.06.13.13.27.22.17.11.47.32.89.63.39.29.59.44.6.44ZM94.23,81.89s.02-.02.03-.07.03-.1.04-.17.02-.13.02-.19c0-.3-.13-.58-.39-.85l-.26-.28c.34,1.04.53,1.56.55,1.56ZM97.38,78.09c.05,0,.18-.15.38-.42.2-.27.3-.43.3-.47,0-.07-.23-.3-.66-.69-.34-.31-.77-.65-1.29-1.03-.75-.56-1.34-.97-1.76-1.25l-.1,1.63s0,.08.03.13c.02.05.18.18.48.39,1.71,1.13,2.59,1.7,2.62,1.71ZM94.98,72.98c-.13,0-.23-.05-.3-.14-.07-.09-.11-.19-.11-.29,0-.08.03-.16.08-.22.08-.1.16-.15.23-.15h.1c.11,0,.22.06.32.19.03.08.05.15.05.23,0,.09-.03.17-.1.25-.07.08-.16.12-.27.12ZM97.54,91.88c.25-.3.43-.55.54-.76.28-.55.44-.96.46-1.22.03-.26.04-.45.04-.57,0-.34-.06-.7-.18-1.08-.39-1.32-1.18-2.14-2.38-2.47-.21-.07-.36-.1-.44-.1-.06,0-.09.02-.09.06,0,.06.03.17.09.32.07.22.14.36.21.41.04.03.1.06.17.09.21.08.45.2.71.36.65.42,1.05.9,1.2,1.43.04.16.06.42.06.77,0,.29-.01.51-.04.64-.03.23-.15.55-.35.95-.06.12-.12.2-.17.24-.06.04-.08.08-.08.13,0,.14.09.4.26.78ZM96.52,71.49s-.08-.24-.24-.7c-.16-.46-.26-.71-.28-.74-.08,0-.22.28-.42.83l.95.6ZM96.19,76.72c-.12,0-.22-.04-.29-.13-.07-.09-.11-.19-.11-.3,0-.09.03-.16.09-.22.08-.1.18-.15.31-.15s.24.06.33.19c.03.08.05.15.05.23,0,.09-.04.17-.11.26-.07.08-.17.13-.28.13ZM100.94,89.53s.3-.43.78-1.27c-.65-.51-2.22-1.61-4.72-3.3-.49-.33-.74-.5-.75-.5-.03,0-.06.02-.1.07s-.08.1-.12.15c-.03.05-.05.09-.05.13,0,.04.1.09.29.14.19.05.46.15.79.31,1.11.57,1.85,1.56,2.24,2.94.04.17.15.32.31.44.33.26.78.56,1.32.9ZM96.88,89.97c.12-.27.18-.55.18-.83,0-.56-.25-1.01-.75-1.36-.07-.05-.12-.08-.14-.08h-.01c0,.12.12.49.35,1.13l.37,1.14ZM99.97,85.84c.06-.02.27-.35.62-.99-.59-.51-1.32-1.07-2.17-1.67-.26-.18-.81-.59-1.66-1.23-.06.63-.1,1.18-.12,1.65,2.13,1.49,3.24,2.24,3.33,2.25ZM98.05,75.83s-.18-.59-.55-1.64l-.1-.3s-.12.14-.31.42c-.19.28-.28.45-.28.49,0,.02.08.08.2.18.12.1.27.22.42.35.16.13.3.25.42.35s.19.15.2.15ZM97.33,80.59c-.1,0-.19-.04-.25-.11-.06-.07-.1-.15-.1-.24,0-.06.01-.12.04-.19.07-.16.18-.24.35-.24.09,0,.17.05.26.15.09.1.13.2.13.28,0,.1-.04.19-.13.25-.09.06-.19.1-.31.1ZM98.44,84.52c-.28,0-.42-.14-.42-.41,0-.06.02-.12.05-.18.08-.14.2-.21.37-.21.28,0,.42.13.42.39,0,.27-.14.41-.42.41ZM99.38,79.62c0-.09-.08-.38-.26-.87-.17-.49-.28-.78-.33-.89-.03,0-.24.27-.63.8.77.63,1.18.95,1.22.96ZM99.8,92.22c.92,0,1.93-.03,3.03-.08l-.9-.73c-.23-.18-1.04-.77-2.43-1.76-.19.96-.54,1.82-1.07,2.57h1.36ZM100.93,83.94s-.04-.15-.13-.4c-.09-.25-.19-.57-.33-.94s-.25-.68-.35-.93c-.1-.25-.16-.37-.17-.37-.04.02-.3.45-.81,1.3.67.48,1.13.83,1.39,1.05.11.09.2.16.28.21.07.06.11.08.12.08ZM99.98,88.36c-.08,0-.16-.04-.26-.12-.08-.09-.12-.18-.12-.28,0-.05.01-.11.04-.17.06-.16.18-.24.37-.24.09,0,.17.04.26.13.08.09.13.18.13.27,0,.05-.03.11-.08.17-.05.06-.11.12-.17.17-.06.05-.12.07-.17.07ZM100.52,91.91c-.09,0-.17-.04-.24-.13-.08-.09-.12-.18-.12-.27,0-.05.01-.11.04-.17.06-.16.18-.24.36-.24.09,0,.18.04.27.13.08.09.13.18.13.27,0,.05-.03.11-.08.17-.05.06-.11.12-.17.17-.06.05-.13.07-.19.07ZM102.22,87.51s-.07-.24-.22-.62c-.31-.9-.49-1.41-.55-1.54-.03,0-.15.16-.33.47s-.28.5-.28.56c0,.03.22.23.65.58s.68.54.74.55ZM103.62,91.58c0-.08-.17-.58-.49-1.5-.33-.92-.51-1.38-.55-1.38-.04.02-.2.26-.48.72-.25.39-.37.62-.37.69,0,.04.02.08.06.1.04.02.12.07.22.15.11.08.23.17.36.26.13.09.41.31.84.64.24.21.37.31.4.31Z"/>
    <path class="cls-2" d="M124.88,93.94c-.11,0-.22-.05-.32-.15s-.15-.24-.15-.4v-.26l-13.15.05c-2.28,0-3.42-.01-3.43-.04-.16-.09-.25-.18-.25-.27,0-.09,0-.15,0-.17,0-.25.15-.38.44-.4.11,0,.24-.01.37-.01.32,0,.66-.03,1.04-.08.03-.47.05-1.84.05-4.11,0-3.42-.02-9.67-.06-18.75-.69,0-1.08,0-1.18-.01-.31,0-.46-.15-.46-.41,0-.12.03-.22.1-.3.07-.12.83-.18,2.3-.19.63,0,1.58-.02,2.87-.06.73-.03,1.46-.05,2.21-.05.5,0,1.17.01,2.02.04.85.03,1.31.06,1.4.08.16.05.24.18.24.39,0,.22-.09.36-.26.41-.09.03-.6.04-1.55.04l.04,3.16c0,1.16-.02,2.39-.05,3.69-.02.87-.03,1.63-.03,2.3s.01,1.21.03,1.66c.02.45.04,1.14.04,2.09,0,.95.01,1.77.01,2.47l-.03,7.57h7.29c.02-1.9.04-2.94.06-3.12,0-.06.05-.12.12-.19.1-.08.2-.12.3-.12.12,0,.23.06.32.17.06.05.1.15.11.29.01.15.02.47.02.98,0,1.94-.02,3.06-.06,3.35-.06.19-.13.29-.22.32-.09.02-.14.03-.17.03ZM110.33,76.63c.05,0,.22-.13.51-.39.98-.8,1.46-1.81,1.46-3.03v-.22c0-1.13-.33-1.99-1-2.57-.1-.09-.22-.19-.36-.29s-.27-.18-.39-.25-.2-.1-.24-.1c-.03,0-.04.14-.04.42,0,.24.02.38.05.41s.08.06.14.09c.24.11.48.35.73.72.35.55.53,1.05.53,1.5,0,.25-.03.52-.1.82-.15.65-.43,1.17-.86,1.54-.15.13-.27.21-.37.26-.08.02-.12.21-.12.57s.02.51.05.51ZM110.29,74.52l.14-.17c.1-.13.19-.35.28-.66.08-.31.12-.55.12-.72,0-.4-.18-.83-.54-1.27v2.81ZM110.41,84.53c.16-.13.3-.25.4-.36.68-.74,1.07-1.44,1.17-2.11.09-.54.13-.93.13-1.16,0-.53-.11-1.01-.32-1.45-.1-.19-.25-.41-.44-.66-.19-.25-.38-.47-.57-.66s-.32-.28-.39-.28c-.03,0-.04.14-.04.41,0,.23.01.37.04.41.03.04.07.08.13.1.26.14.51.48.76,1.02.19.38.28.8.28,1.29,0,.72-.26,1.33-.78,1.84l-.37.39v1.22ZM110.42,81.94c.05,0,.1-.09.15-.28.08-.23.12-.44.12-.62,0-.25-.07-.53-.21-.85-.04-.08-.07-.14-.09-.15-.03,0-.05.3-.05.89,0,.68.03,1.01.08,1.01ZM110.34,92.12c.51-.31.98-.83,1.39-1.58.39-.69.58-1.36.58-1.99,0-.91-.27-1.65-.82-2.22-.47-.48-.8-.72-.99-.72-.06,0-.09.15-.09.44,0,.09.02.17.04.23.03.06.11.15.23.26.52.52.79,1.29.8,2.31,0,.51-.05.91-.16,1.21s-.31.59-.6.86l-.37.37v.83ZM110.4,89.88c.1-.05.15-.4.15-1.04,0-.7-.05-1.05-.15-1.05-.03,0-.04.35-.04,1.04s.01,1.05.04,1.05ZM114.33,81.89s.48-.48,1.32-1.36l-3.87-3.89-.69.59.36.35c.87.82,1.38,1.74,1.53,2.75l.08.45c.81.75,1.24,1.12,1.27,1.12ZM114.44,89.76s.26-.23.64-.64c.36-.38.54-.6.54-.67,0-.03-.24-.32-.72-.85-1.98-2.14-2.99-3.23-3.03-3.25-.21.21-.39.41-.57.6.4.33.71.62.94.87.39.45.67.97.84,1.57.08.33.13.63.14.87,0,.08.01.14.03.2s.07.13.15.23c.08.1.21.24.39.43s.32.34.44.46c.12.12.19.17.21.17ZM114.51,74.07s.25-.22.69-.66.66-.67.66-.7-.12-.13-.35-.3c-.24-.18-.53-.44-.88-.8s-1.16-1.11-2.42-2.26h-.71l.45.45c.7.65,1.11,1.47,1.22,2.46l.06.55c.82.84,1.25,1.26,1.27,1.26ZM114.75,92.17c.36,0,.54-.01.54-.04,0-.02-.35-.41-1.06-1.19-.71-.78-1.08-1.18-1.12-1.2-.03,0-.1.13-.19.4-.27.67-.66,1.32-1.17,1.97l1.43.05c.07,0,.1-.05.1-.15s.04-.2.13-.3.18-.15.28-.15.19.04.29.13.16.19.19.3l.05.18h.54ZM114.56,78.11l.14-.12c.08-.07.19-.16.31-.27s.25-.22.37-.33c.12-.11.22-.2.3-.26.07-.06.15-.13.22-.2-.19-.25-.7-.81-1.54-1.67-.75-.77-1.14-1.16-1.2-1.16-.02.02-.06.14-.12.37-.06.23-.21.58-.44,1.06-.09.18-.15.3-.21.35,0,.09.6.73,1.81,1.91.21.21.33.32.33.32ZM114.53,85.88c.33-.39.59-.71.81-.94.21-.23.32-.36.32-.4s-.44-.48-1.33-1.35-1.35-1.3-1.38-1.3c-.02,0-.05.11-.1.32-.05.21-.13.46-.24.75-.11.28-.18.45-.19.49,0,.07.72.88,2.12,2.43ZM114.53,70.27c.49-.52.73-.81.73-.85s-.28-.06-.83-.06h-.87s.98.91.98.91ZM113.99,80.48c-.09,0-.18-.04-.27-.12-.09-.08-.13-.16-.13-.24s.04-.18.13-.28c.08-.1.18-.15.28-.15.05,0,.1,0,.14.03.15.07.23.2.23.38,0,.25-.13.37-.39.37ZM114.07,76.63c-.09,0-.18-.05-.27-.15-.09-.1-.14-.21-.14-.32,0-.25.14-.37.41-.37.1,0,.2.05.3.14.09.09.14.19.14.3,0,.05-.03.11-.08.17-.05.06-.11.12-.17.17s-.13.07-.19.07ZM114.12,84.57h-.09c-.09-.03-.17-.08-.25-.16-.08-.08-.12-.19-.12-.31,0-.09.03-.18.09-.24.09-.11.21-.17.36-.17s.26.08.36.23c.03.08.06.14.06.19,0,.05-.01.11-.04.17-.03.06-.06.12-.11.17-.05.06-.14.1-.28.12ZM114.12,72.81s-.09,0-.14-.03c-.16-.08-.25-.16-.26-.24-.01-.08-.02-.13-.02-.16,0-.18.11-.32.32-.42.05-.03.09-.04.13-.04.08,0,.17.05.26.15.1.1.15.2.15.3,0,.15-.05.25-.15.33-.1.07-.2.11-.28.11ZM114.11,88.37c-.11,0-.21-.04-.28-.12-.08-.08-.12-.18-.12-.29,0-.25.12-.37.36-.37.07,0,.13.01.19.04.16.07.24.18.24.35,0,.08-.04.16-.12.26-.08.09-.17.14-.28.14ZM116.24,83.77l.04-.99c0-.42-.03-.93-.08-1.52-.49.48-.89.9-1.2,1.27.33.27.55.46.67.58s.31.34.57.66ZM116.18,91.64c.03-.79.05-1.32.05-1.59,0-.25-.02-.51-.05-.78-.69.73-1.04,1.11-1.05,1.14,0,.05.35.46,1.05,1.23ZM116.21,75.78s.01-.7.01-2.11l-1.07,1.07c.69.69,1.04,1.04,1.05,1.04ZM116.19,87.62c.05-.37.08-1.14.09-2.33-.48.48-.85.9-1.12,1.25l1.03,1.08ZM116.11,79.62s.04-.28.04-.82-.01-.82-.04-.82c-.03,0-.33.26-.9.78.56.57.86.85.9.86ZM116.19,71.81s.03-.34.03-1.03v-1.03s-.54.57-.54.57c-.25.27-.37.44-.37.53,0,.08.17.28.5.6.25.24.38.36.38.36Z"/>
    <path class="cls-2" d="M129.52,93.19c-1.49,0-2.26-.01-2.3-.04-.15-.09-.22-.19-.22-.28v-.14c0-.26.15-.39.44-.41.11,0,.24-.01.37-.01.33,0,.68-.03,1.03-.08.04-.44.06-1.81.06-4.11,0-3.42-.02-9.69-.05-18.8-.69,0-1.09,0-1.2-.01-.18,0-.3-.04-.36-.12-.06-.08-.09-.19-.09-.33s.04-.27.12-.36c.05-.11.55-.17,1.49-.17h.78c5.44.01,8.23.03,8.35.06.25.07.38.22.39.46,0,.21-.09.35-.27.41-.08.03-.59.04-1.54.04l.04,3.16c0,1.16-.02,2.39-.05,3.69-.02.87-.03,1.63-.03,2.29s0,1.23.03,1.7c.03.86.05,3.11.05,6.75v5.38s1.14.05,1.14.05c.33.03.49.17.49.41l-.03.13c-.02.11-.09.18-.23.21-.17.04-.6.07-1.29.09-.3,0-2.68.02-7.13.04ZM129.76,76.64s.21-.13.51-.39c.97-.79,1.45-1.79,1.45-3.01v-.28c0-1.11-.33-1.96-1-2.53-.1-.09-.22-.19-.35-.29-.13-.1-.26-.18-.38-.25s-.2-.1-.24-.1c-.03,0-.04.14-.04.42,0,.25.01.39.04.42.03.03.08.06.13.08.25.11.5.35.75.72.35.54.53,1.05.53,1.54,0,.24-.03.5-.1.78-.16.67-.45,1.18-.86,1.54-.15.13-.27.21-.39.26-.07.03-.1.21-.1.57s.02.51.05.51ZM129.71,74.53l.14-.17c.1-.13.2-.35.28-.66s.13-.55.13-.72c0-.4-.18-.83-.55-1.27v2.81ZM129.84,84.55c.24-.19.46-.41.66-.67.52-.67.83-1.27.91-1.8s.13-.91.13-1.14c0-.53-.11-1.02-.32-1.47-.1-.19-.25-.41-.44-.66-.19-.25-.38-.47-.57-.66s-.32-.28-.39-.28c-.03,0-.04.14-.04.41,0,.25.01.39.04.42.03.03.07.06.13.09.25.14.5.48.76,1.02.19.41.28.84.28,1.29,0,.72-.27,1.33-.8,1.84l-.36.38v1.22ZM129.86,81.95c.05,0,.1-.09.15-.28.07-.23.11-.44.12-.62,0-.17-.03-.36-.1-.55-.1-.28-.17-.43-.19-.45-.03,0-.05.3-.05.89,0,.68.03,1.01.08,1.01ZM129.78,92.13c.52-.31.98-.83,1.39-1.58.21-.4.37-.78.48-1.14.07-.27.1-.56.1-.85,0-.89-.28-1.63-.83-2.22-.46-.49-.79-.73-.99-.73-.05,0-.08.15-.08.45,0,.09.02.17.04.23.03.06.11.15.23.26.52.52.78,1.33.78,2.42,0,.45-.05.83-.16,1.12-.11.29-.3.57-.58.85l-.37.37v.83ZM129.83,89.89c.1-.1.15-.45.15-1.04,0-.7-.05-1.05-.15-1.05-.03,0-.04.35-.04,1.04s.01,1.05.04,1.05ZM133.75,81.89s.48-.47,1.32-1.35l-3.86-3.89-.71.59.36.35c.87.82,1.39,1.74,1.54,2.75l.08.45c.39.37.75.69,1.05.95.12.1.19.15.21.15ZM133.87,89.78s.26-.23.64-.64c.37-.37.55-.59.55-.66,0-.03-.24-.32-.73-.86-1.9-2.1-2.91-3.18-3.02-3.25,0,0-.04.04-.1.09-.06.05-.22.22-.48.51.4.32.72.6.95.86.39.46.67.99.84,1.58.08.33.13.62.13.85,0,.15.06.3.19.45.26.3.54.59.83.89.11.12.18.18.19.18ZM133.93,74.08s.26-.22.69-.66.66-.67.66-.7-.12-.13-.35-.3-.53-.44-.88-.8-1.16-1.11-2.41-2.25l-.71-.05.44.5c.71.65,1.12,1.47,1.22,2.46l.08.55c.82.84,1.24,1.26,1.26,1.26ZM134.19,92.18c.36,0,.54-.01.54-.04,0,0-.11-.13-.33-.37-.22-.24-.47-.51-.75-.82-.28-.31-.53-.58-.75-.82-.22-.24-.35-.36-.37-.38-.03,0-.09.13-.18.4-.27.67-.66,1.32-1.17,1.97l1.43.05c.07,0,.1-.05.1-.15s.04-.2.13-.3.18-.15.26-.15c.1,0,.2.04.3.13s.16.19.19.3l.04.18h.55ZM133.98,78.12c.06,0,.51-.39,1.35-1.18-.33-.45-1.12-1.29-2.35-2.49-.23-.22-.36-.33-.37-.33,0,0-.02.05-.04.12s-.05.16-.08.27c-.03.11-.09.27-.17.47s-.17.39-.26.57c-.09.18-.16.3-.2.35,0,.09.71.84,2.13,2.24ZM133.97,85.88c.32-.38.58-.69.8-.92.22-.23.33-.36.33-.4s-.44-.48-1.33-1.35-1.35-1.3-1.38-1.3c-.02,0-.05.11-.1.32-.05.21-.13.46-.25.74-.12.28-.18.44-.19.49,0,.07.71.87,2.12,2.42ZM133.97,70.28c.48-.52.72-.81.72-.85s-.27-.06-.82-.06h-.87s.98.91.98.91ZM133.43,80.5c-.1,0-.2-.04-.28-.12-.09-.08-.13-.15-.13-.23,0-.09.04-.19.13-.29s.19-.15.29-.15c.04,0,.09,0,.13.03.16.07.24.2.24.39,0,.25-.13.37-.39.37ZM133.5,76.64c-.09,0-.19-.05-.28-.15s-.13-.2-.13-.32c0-.26.14-.38.41-.38.09,0,.19.05.28.14.09.09.14.19.14.3,0,.05-.02.11-.07.17s-.11.12-.17.17-.13.07-.18.07ZM133.58,84.58h-.06s-.1-.02-.19-.06c-.15-.08-.22-.22-.22-.44,0-.08.03-.15.08-.22.09-.11.21-.17.36-.17s.27.08.36.23c.04.08.06.15.06.22,0,.08-.04.18-.13.29-.05.06-.14.11-.26.14ZM133.56,72.83c-.05,0-.1,0-.14-.03-.16-.08-.25-.16-.26-.24s-.02-.13-.02-.16c0-.18.1-.32.31-.42.05-.03.09-.04.13-.04.08,0,.18.05.28.15.1.1.15.2.15.29,0,.15-.05.25-.15.33-.1.07-.2.11-.28.11ZM133.53,88.39c-.11,0-.2-.04-.28-.12-.07-.08-.11-.18-.11-.29,0-.25.12-.37.36-.37.06,0,.12.01.19.04.15.07.23.18.23.35,0,.1-.04.19-.11.28-.07.08-.17.12-.29.12ZM135.68,83.79c0-.23.01-.45.02-.66,0-.21,0-.43,0-.67,0-.24-.03-.63-.06-1.17-.49.48-.89.9-1.21,1.27.33.27.55.46.67.58.12.12.32.34.57.66ZM135.61,91.65c.03-.79.05-1.32.05-1.59,0-.25-.02-.51-.05-.78-.7.74-1.05,1.12-1.05,1.14,0,.05.35.46,1.05,1.23ZM135.63,75.79s.03-.7.03-2.11l-1.07,1.07c.69.69,1.03,1.04,1.04,1.04ZM135.61,87.63c.06-.37.09-1.14.09-2.33-.47.48-.84.9-1.1,1.25l1.01,1.08ZM135.54,79.64s.05-.28.05-.82-.02-.82-.05-.82-.33.26-.9.78c.57.57.87.85.9.86ZM135.61,71.81s.03-.68.03-2.04l-.53.57c-.26.27-.39.44-.39.53s.17.29.51.6c.24.23.36.35.37.35Z"/>
  </g>
</svg>