<?xml version="1.0" encoding="UTF-8"?>
<svg id="Layer_1" xmlns="http://www.w3.org/2000/svg" baseProfile="tiny" version="1.2" viewBox="0 0 60.9 60.9">
  <!-- Generator: Adobe Illustrator 29.0.0, SVG Export Plug-In . SVG Version: 2.1.0 Build 186)  -->
  <rect x="-.5" y="-.2" width="61.9" height="61.5" fill="#561244"/>
  <path d="M54.9,23.4h-.2c0-.1-.2-.2-.3-.2,0,0-.2,0-.3,0-.3,0-.6,0-.9.2-.3.1-.6.3-.8.6-.2.3-.4.6-.5.9s-.2.8-.2,1.3,0,1,.2,1.4c.2.4.3.7.6.9.2.2.5.4.8.5.3.1.6.2.9.2.4,0,.8,0,1.1-.2.3-.2.6-.4.8-.7.2-.3.4-.7.5-1.2s.2-1,.2-1.6,0-1.5-.2-2.1c-.1-.6-.4-1.2-.6-1.6s-.6-.8-1-1c-.4-.2-.9-.4-1.5-.4s-.3,0-.5,0c-.2,0-.3,0-.5.2-.2,0-.3.2-.4.3-.1.1-.2.2-.3.3v.2c.1,0,.3-.1.3-.1,0,0,.1,0,.2-.1s.2,0,.3-.1c.1,0,.3,0,.4,0,.3,0,.5,0,.7.2.2.1.4.3.6.6s.3.5.5.8.2.7.3,1h-.2ZM54.2,28.6c-.1,0-.3,0-.4-.2-.1-.1-.2-.3-.3-.5,0-.2-.1-.5-.1-.7,0-.3,0-.6,0-1,0-.8,0-1.4.2-1.8.1-.4.3-.6.6-.6s.3,0,.4.1.2.2.3.3c0,.2,0,.3,0,.5,0,.2,0,.4,0,.5,0,.2,0,.3,0,.4v.2c0,1.7-.3,2.6-.9,2.6ZM49.6,27.4c0,.3,0,.6,0,.9,0,.2,0,.5-.2.6s-.1.3-.2.4c0,.1-.2.2-.3.2,0,0-.2,0-.3.1v.2c.2,0,.4,0,.5,0s.4-.1.6-.2c.2-.1.4-.2.6-.4.2-.2.4-.4.5-.7.2-.3.3-.6.4-1,0-.4.1-.9.1-1.4s0-1-.1-1.4c0-.4-.2-.7-.3-.9-.1-.2-.3-.4-.5-.5s-.4-.1-.7-.1-.2,0-.3,0c-.1,0-.2,0-.3.1,0,0-.2.1-.3.2s-.2.1-.2.2c-.2.2-.3.3-.5.5,0,0,0-.2,0-.3,0-.1,0-.2-.1-.4,0-.1-.2-.2-.3-.3-.1,0-.3-.1-.6-.1s-.3,0-.4,0c-.1,0-.3,0-.4.1-.1,0-.2.1-.3.2-.1,0-.2.1-.3.2h.1c0,.1.1,0,.1,0h.2c.1,0,.2,0,.3,0,0,0,0,.2,0,.3v4.5s.1.2.1.2c0,0,.1.1.3.2.1,0,.3,0,.5,0s.4,0,.5,0c.1,0,.2,0,.3-.2v-.2c.1,0,.1-.2.1-.2v-3.9c.1,0,.3-.2.3-.2l.2-.2c0,0,.2,0,.3,0s.2,0,.3,0,.2.1.2.3c0,.1.1.4.2.6,0,.3,0,.7,0,1.1s0,.9,0,1.2ZM43.5,23.9c.2.2.2.4.2.7s0,.4-.1.5c0,.2-.3.3-.5.4-.3.1-.6.2-.9.3-.3.1-.5.2-.7.4-.2.1-.4.3-.5.5-.1.2-.2.5-.2.8s0,.5.1.7c0,.2.2.4.3.5.1.1.3.2.5.3s.3,0,.5,0,.3,0,.4,0c.1,0,.3,0,.4-.1.1,0,.3-.2.4-.3.1-.1.3-.2.4-.4,0,.3.2.5.4.6s.4.2.6.2.4,0,.5,0c.1,0,.3-.1.4-.2.1,0,.2-.2.3-.3s.1-.2.2-.3h-.1c0-.1-.2,0-.2,0h-.2c0,0-.1,0-.1,0h0c0,0,0-.2,0-.2h0v-3.3c0-.3,0-.6-.2-.8-.1-.2-.3-.4-.5-.5s-.4-.2-.7-.3c-.3,0-.5,0-.8,0s-.5,0-.7,0c-.2,0-.5.1-.7.2-.2.1-.3.2-.5.4-.1.2-.2.4-.2.6s0,.4.2.6.3.2.5.2h.2s.2-.2.2-.2v-.2c.1,0,.2-.2.2-.2,0-.1,0-.2,0-.3h-.2c0-.1-.2-.2-.2-.2h0c0-.1,0-.3,0-.3h.2c0-.2.2-.2.3-.3.1,0,.2,0,.4,0,.3,0,.5,0,.7.2ZM43.8,27.5c0,0,0,.2,0,.3,0,0,0,.2-.2.3l-.2.2c0,0-.2,0-.3,0h-.2c0,0-.2-.2-.2-.2,0,0,0-.2-.1-.3,0-.1,0-.3,0-.5s0-.4,0-.6c0-.2.1-.3.2-.4,0-.1.2-.2.3-.3.1,0,.2,0,.4,0s.2,0,.2,0c0,0,0,.1,0,.2v1.4ZM39.8,23.8c.1,0,.2.1.2.2h0c0,0-.1.2-.1.2h-.1c0,.1,0,.3,0,.3,0,.1,0,.2.1.3,0,0,.2.1.4.1s.3,0,.4-.2.1-.2.1-.4,0-.3-.1-.5-.2-.3-.3-.3c-.1,0-.3-.2-.5-.2-.2,0-.4,0-.7,0s-.4,0-.6,0c-.2,0-.4.1-.5.3-.2.1-.3.3-.4.4s-.1.4-.1.6,0,.4.1.6.2.4.4.6c.1.2.3.4.5.5.2.2.3.3.5.5.1.2.3.3.4.5,0,.2.1.3.1.4,0,.3,0,.4-.3.6s-.4.2-.7.2-.2,0-.3,0c-.1,0-.2,0-.3-.1s-.2-.1-.2-.2l-.2-.2h-.2c0,.2.2.3.3.5.1.1.3.2.4.3.2.1.3.2.6.3.2,0,.4.1.7.1s.6,0,.8-.1c.2,0,.4-.2.6-.3.2-.1.3-.3.4-.5,0-.2.1-.4.1-.7s0-.5-.2-.7c-.1-.2-.2-.4-.4-.6s-.3-.4-.5-.5-.4-.3-.5-.5c-.2-.2-.3-.3-.4-.4-.1-.1-.2-.3-.2-.4s0-.2,0-.3v-.2c.1,0,.3-.1.3-.1h.2c.2,0,.3,0,.4,0ZM34.7,23.9c.2.2.2.4.2.7s0,.4-.1.5c0,.2-.3.3-.5.4-.3.1-.6.2-.9.3-.3.1-.5.2-.7.4-.2.1-.4.3-.5.5-.1.2-.2.5-.2.8s0,.5.1.7c0,.2.2.4.3.5.1.1.3.2.5.3s.3,0,.5,0,.3,0,.4,0c.1,0,.3,0,.4-.1.1,0,.3-.2.4-.3.1-.1.3-.2.4-.4,0,.3.2.5.4.6s.4.2.6.2.4,0,.5,0c.1,0,.3-.1.4-.2.1,0,.2-.2.3-.3s.1-.2.2-.3h-.1c0-.1-.2,0-.2,0h-.2c0,0-.1,0-.1,0h0c0,0,0-.2,0-.2h0v-3.3c0-.3,0-.6-.2-.8-.1-.2-.3-.4-.5-.5s-.4-.2-.7-.3c-.3,0-.5,0-.8,0s-.5,0-.7,0c-.2,0-.5.1-.7.2-.2.1-.3.2-.5.4-.1.2-.2.4-.2.6s0,.4.2.6.3.2.5.2h.2s.2-.2.2-.2v-.2c.1,0,.2-.2.2-.2,0-.1,0-.2,0-.3h-.2c0-.1-.2-.2-.2-.2h0c0-.1,0-.3,0-.3h.2c0-.2.2-.2.3-.3.1,0,.2,0,.4,0,.3,0,.5,0,.7.2ZM35,27.5c0,0,0,.2,0,.3,0,0,0,.2-.2.3l-.2.2c0,0-.2,0-.3,0h-.2c0,0-.2-.2-.2-.2,0,0,0-.2-.1-.3,0-.1,0-.3,0-.5s0-.4,0-.6c0-.2.1-.3.2-.4,0-.1.2-.2.3-.3.1,0,.2,0,.4,0s.2,0,.2,0c0,0,0,.1,0,.2v1.4ZM28.6,24.7v-.2c0,0,.2-.2.2-.2l.2-.2h.2c.1,0,.3,0,.4,0,.1,0,.2.2.3.4s.1.4.2.7c0,.3,0,.6,0,1s0,.6,0,.9c0,.3,0,.5-.2.7s-.2.4-.3.5-.3.2-.4.2-.2,0-.3,0c0,0-.2-.1-.2-.2v-.2c-.1,0-.2-.2-.2-.2v-3.1ZM26.9,31.3v.2s.1.2.1.2c0,0,.1.1.3.2s.3,0,.5,0,.4,0,.5,0,.2,0,.3-.2v-.2c.1,0,.1-.2.1-.2v-2.7l.2.2c0,0,.2.1.3.2.1,0,.2.1.4.2s.3,0,.5,0,.5,0,.7-.2c.2-.1.4-.3.6-.5.2-.2.3-.6.4-.9.1-.4.2-.8.2-1.4s0-.9-.1-1.2-.2-.7-.4-.9c-.2-.2-.4-.4-.6-.5-.2-.1-.5-.2-.8-.2s-.3,0-.4,0c-.1,0-.3,0-.4.1s-.2.1-.3.2-.2.2-.3.3v-.2c0,0-.3-.2-.3-.2,0,0-.2-.1-.3-.2-.1,0-.3,0-.4,0s-.3,0-.4,0c-.1,0-.3,0-.4.1-.1,0-.2.1-.3.2-.1,0-.2.1-.3.2h.1c0,.1.1,0,.1,0h.2c.1,0,.2,0,.3,0,0,0,0,.2,0,.3v7.1ZM24.5,27.4c0,.3,0,.6,0,.9,0,.2,0,.5-.2.6s-.1.3-.2.4c0,.1-.2.2-.3.2,0,0-.2,0-.3.1v.2c.2,0,.4,0,.5,0s.4-.1.6-.2c.2-.1.4-.2.6-.4.2-.2.4-.4.5-.7.2-.3.3-.6.4-1,0-.4.1-.9.1-1.4s0-1-.1-1.4c0-.4-.2-.7-.3-.9-.1-.2-.3-.4-.5-.5s-.4-.1-.7-.1-.2,0-.3,0c-.1,0-.2,0-.3.1,0,0-.2.1-.3.2s-.2.1-.2.2c-.2.2-.3.3-.5.5,0,0,0-.2,0-.3,0-.1,0-.2-.1-.4,0-.1-.2-.2-.3-.3-.1,0-.3-.1-.6-.1s-.3,0-.4,0c-.1,0-.3,0-.4.1-.1,0-.2.1-.3.2-.1,0-.2.1-.3.2h.1c0,.1.1,0,.1,0h.2c.1,0,.2,0,.3,0,0,0,0,.2,0,.3v4.5s.1.2.1.2c0,0,.1.1.3.2.1,0,.3,0,.5,0s.4,0,.5,0c.1,0,.2,0,.3-.2v-.2c.1,0,.1-.2.1-.2v-3.9c.1,0,.3-.2.3-.2l.2-.2c0,0,.2,0,.3,0s.2,0,.3,0,.2.1.2.3c0,.1.1.4.2.6,0,.3,0,.7,0,1.1s0,.9,0,1.2ZM18.4,23.9c.2.2.2.4.2.7s0,.4-.1.5c0,.2-.3.3-.5.4-.3.1-.6.2-.9.3-.3.1-.5.2-.7.4-.2.1-.4.3-.5.5-.1.2-.2.5-.2.8s0,.5.1.7c0,.2.2.4.3.5.1.1.3.2.5.3s.3,0,.5,0,.3,0,.4,0c.1,0,.3,0,.4-.1.1,0,.3-.2.4-.3.1-.1.3-.2.4-.4,0,.3.2.5.4.6s.4.2.6.2.4,0,.5,0c.1,0,.3-.1.4-.2.1,0,.2-.2.3-.3s.1-.2.2-.3h-.1c0-.1-.2,0-.2,0h-.2c0,0-.1,0-.1,0h0c0,0,0-.2,0-.2h0v-3.3c0-.3,0-.6-.2-.8-.1-.2-.3-.4-.5-.5s-.4-.2-.7-.3c-.3,0-.5,0-.8,0s-.5,0-.7,0c-.2,0-.5.1-.7.2-.2.1-.3.2-.5.4-.1.2-.2.4-.2.6s0,.4.2.6.3.2.5.2h.2s.2-.2.2-.2v-.2c.1,0,.2-.2.2-.2,0-.1,0-.2,0-.3h-.2c0-.1-.2-.2-.2-.2h0c0-.1,0-.3,0-.3h.2c0-.2.2-.2.3-.3.1,0,.2,0,.4,0,.3,0,.5,0,.7.2ZM18.6,27.5c0,0,0,.2,0,.3,0,0,0,.2-.2.3l-.2.2c0,0-.2,0-.3,0h-.2c0,0-.2-.2-.2-.2,0,0,0-.2-.1-.3,0-.1,0-.3,0-.5s0-.4,0-.6c0-.2.1-.3.2-.4,0-.1.2-.2.3-.3.1,0,.2,0,.4,0s.2,0,.2,0c0,0,0,.1,0,.2v1.4ZM10.8,27c.1-.3.3-.6.4-.9.1-.3.2-.5.3-.7s.2-.4.3-.6.2-.4.3-.6.2-.4.3-.5.2-.3.3-.5c0,.2,0,.4,0,.7,0,.3,0,.6,0,.9s0,.6,0,1,0,.6.1,1c0,.3,0,.6.1.9,0,.3,0,.5.1.7,0,0,0,.2,0,.3,0,.1,0,.2.2.3,0,0,.2.2.3.2.1,0,.4,0,.6,0s.4,0,.5,0c.2,0,.3,0,.4-.1.1,0,.2-.1.4-.2.1,0,.2-.1.3-.2v-.2c-.2,0-.2,0-.3.1s-.2,0-.3,0-.2,0-.2,0c0,0,0-.2,0-.3,0,0,0-.2,0-.4,0-.2,0-.4,0-.7,0-.3,0-.6,0-.9,0-.3,0-.7-.1-1.1,0-.4,0-.8-.1-1.1,0-.4,0-.8-.1-1.1,0-.4,0-.7,0-1,0-.3,0-.6,0-.8,0-.2,0-.4,0-.6,0-.2,0-.3.2-.5s.1-.3.2-.4.2-.2.3-.3c0,0,.2-.1.3-.2h.2c.1,0,.2,0,.2,0v.2c.1,0,.2.2.2.2h.2c0,0,.2,0,.2,0,0,0,0-.2,0-.4s0-.3-.2-.4c-.1,0-.3-.1-.5-.1s-.5,0-.7.1c-.2,0-.4.2-.6.4-.2.2-.4.5-.7.8-.2.3-.5.7-.8,1.2s-.6,1-.9,1.6c-.3.6-.7,1.3-1,2l-1.5-3c0-.2-.2-.3-.2-.4,0-.1-.2-.3-.3-.4-.1-.1-.3-.2-.5-.2-.2,0-.5,0-.8,0s-.8,0-1.1.1-.7.2-1,.4c-.3.2-.5.4-.7.7-.2.3-.3.6-.3,1s0,.3,0,.5c0,.1.1.3.2.4,0,.1.2.2.4.3.1,0,.3,0,.5,0s.2,0,.3,0c.1,0,.2,0,.3-.2s.2-.2.2-.3c0-.1,0-.2,0-.4s0-.2,0-.3v-.2c-.1,0-.2,0-.2,0h-.1s-.1,0-.1,0h-.1c0,.1-.2.2-.2.2,0,0-.1,0-.2,0h0s-.1,0-.1,0v-.2c-.1,0-.2-.2-.2-.3s0-.3,0-.4.1-.2.2-.3.2-.2.3-.3.2-.1.4-.2.2,0,.3-.1c.1,0,.2,0,.3,0s.2,0,.2,0h.2c0,0,.2.3.2.3,0,0,.1.2.2.3,0,.1,0,.3,0,.5,0,.2,0,.4,0,.6s0,.5,0,.7c0,.3,0,.5,0,.8,0,.2,0,.4,0,.6s0,.4,0,.5c0,.2,0,.3,0,.5s0,.4,0,.5c0,.3,0,.6-.2.9,0,.3-.2.5-.3.7-.1.2-.3.3-.5.4s-.4.1-.7.1-.3,0-.4,0-.2,0-.2-.2l-.2-.2v-.2c-.1,0-.2-.2-.2-.2h-.1c0,0-.2,0-.2,0h-.1c0,.1,0,.3,0,.3v.2c0,0,0,.2,0,.2,0,0,.2.1.3.2.1,0,.3,0,.5.1s.4,0,.5,0c.4,0,.8,0,1.1-.2.3-.1.5-.3.7-.5.2-.2.3-.5.4-.8,0-.3.2-.6.2-1,0-.3,0-.7,0-1.1,0-.4,0-.8,0-1.2v-1.3c0,0,2.1,4,2.1,4h.5Z" fill="#f3ea2e"/>
  <path d="M42.4,34.6c.1,0,.2.1.2.2h0c0,0-.1.2-.1.2h-.1c0,.1,0,.3,0,.3,0,.1,0,.2.1.3,0,0,.2.1.4.1s.3,0,.4-.2.1-.2.1-.4,0-.3-.1-.5-.2-.3-.3-.3c-.1,0-.3-.2-.5-.2-.2,0-.4,0-.7,0s-.4,0-.6,0c-.2,0-.4.1-.5.3-.2.1-.3.3-.4.4s-.1.4-.1.6,0,.4.1.6.2.4.4.6c.1.2.3.4.5.5.2.2.3.3.5.5.1.2.3.3.4.5,0,.2.1.3.1.4,0,.3,0,.4-.3.6s-.4.2-.7.2-.2,0-.3,0c-.1,0-.2,0-.3-.1s-.2-.1-.2-.2l-.2-.2h-.2c0,.2.2.3.3.5.1.1.3.2.4.3.2.1.3.2.6.3.2,0,.4.1.7.1s.6,0,.8-.1c.2,0,.4-.2.6-.3.2-.1.3-.3.4-.5,0-.2.1-.4.1-.7s0-.5-.2-.7c-.1-.2-.2-.4-.4-.6s-.3-.4-.5-.5-.4-.3-.5-.5c-.2-.2-.3-.3-.4-.4-.1-.1-.2-.3-.2-.4s0-.2,0-.3v-.2c.1,0,.3-.1.3-.1h.2c.2,0,.3,0,.4,0ZM37.5,33.1c0,0,.1.2.2.2,0,0,.2.1.3.2s.2,0,.4,0,.2,0,.4,0c.1,0,.2,0,.3-.2,0,0,.1-.1.2-.2,0,0,0-.2,0-.3s0-.2,0-.3c0,0-.1-.2-.2-.2,0,0-.2-.1-.3-.2-.1,0-.2,0-.4,0s-.3,0-.4,0c-.1,0-.2,0-.3.2,0,0-.1.2-.2.2,0,0,0,.2,0,.3s0,.2,0,.3ZM39.3,35c0,0,0-.2,0-.3,0-.1,0-.2-.1-.3s-.2-.2-.3-.2c-.1,0-.3,0-.6,0s-.3,0-.4,0c-.1,0-.3,0-.4.1-.1,0-.2.1-.3.2-.1,0-.2.1-.3.2h.1c0,.1.1,0,.1,0h.2c.1,0,.2,0,.3,0,0,0,0,.2,0,.3v4.5s.1.2.1.2c0,0,.1.1.3.2.1,0,.3,0,.5,0s.4,0,.5,0c.1,0,.2,0,.3-.2v-.2c.1,0,.1-.2.1-.2v-4.4ZM36.7,32.1c0,0,0-.2,0-.3,0-.1,0-.2-.1-.3,0,0-.2-.2-.3-.2-.1,0-.3,0-.6,0s-.3,0-.4,0c-.1,0-.3,0-.4.1-.1,0-.2.1-.3.2-.1,0-.2.1-.3.2h.1c0,.1.1,0,.1,0h.2c.1,0,.2,0,.3,0s0,.2,0,.3v7.4s.1.2.1.2c0,0,.1.1.2.2.1,0,.3,0,.5,0s.4,0,.5,0c.1,0,.2,0,.3-.2v-.2c.1,0,.1-.2.1-.2v-7.3ZM32.1,34.8c.2.2.2.4.2.7s0,.4-.1.5c0,.2-.3.3-.5.4-.3.1-.6.2-.9.3-.3.1-.5.2-.7.4-.2.1-.4.3-.5.5-.1.2-.2.5-.2.8s0,.5.1.7c0,.2.2.4.3.5.1.1.3.2.5.3s.3,0,.5,0,.3,0,.4,0c.1,0,.3,0,.4-.1.1,0,.3-.2.4-.3.1-.1.3-.2.4-.4,0,.3.2.5.4.6s.4.2.6.2.4,0,.5,0c.1,0,.3-.1.4-.2.1,0,.2-.2.3-.3s.1-.2.2-.3h-.1c0-.1-.2,0-.2,0h-.2c0,0-.1,0-.1,0h0c0,0,0-.2,0-.2h0v-3.3c0-.3,0-.6-.2-.8-.1-.2-.3-.4-.5-.5s-.4-.2-.7-.3c-.3,0-.5,0-.8,0s-.5,0-.7,0c-.2,0-.5.1-.7.2-.2.1-.3.2-.5.4-.1.2-.2.4-.2.6s0,.4.2.6.3.2.5.2h.2s.2-.2.2-.2v-.2c.1,0,.2-.2.2-.2,0-.1,0-.2,0-.3h-.2c0-.1-.2-.2-.2-.2h0c0-.1,0-.3,0-.3h.2c0-.2.2-.2.3-.3.1,0,.2,0,.4,0,.3,0,.5,0,.7.2ZM32.3,38.3c0,0,0,.2,0,.3,0,0,0,.2-.2.3l-.2.2c0,0-.2,0-.3,0h-.2c0,0-.2-.2-.2-.2,0,0,0-.2-.1-.3,0-.1,0-.3,0-.5s0-.4,0-.6c0-.2.1-.3.2-.4,0-.1.2-.2.3-.3.1,0,.2,0,.4,0s.2,0,.2,0c0,0,0,.1,0,.2v1.4ZM26,32.1c0,0,0-.2,0-.3,0-.1,0-.2-.1-.3,0,0-.2-.2-.3-.2-.1,0-.3,0-.6,0s-.3,0-.4,0c-.1,0-.3,0-.4.1-.1,0-.2.1-.3.2-.1,0-.2.1-.3.2h.1c0,.1.1,0,.1,0h.2c.1,0,.2,0,.3,0s0,.2,0,.3v7.4s.1.2.1.2c0,0,.1.1.3.2.1,0,.3,0,.5,0s.4,0,.5,0c.1,0,.2,0,.3-.2v-.2c.1,0,.1-.2.1-.2v-3.9c.1,0,.3-.2.3-.2l.2-.2c0,0,.2,0,.3,0s.2,0,.3,0,.2.1.2.3.1.4.2.6c0,.3,0,.7,0,1.1,0,.7,0,1.2,0,1.7,0,.4-.1.8-.2,1s-.2.4-.3.6c-.1.1-.3.2-.4.2v.2c.2,0,.4,0,.5,0s.4-.1.6-.2c.2-.1.4-.2.6-.4s.4-.4.5-.7c.2-.3.3-.6.4-1,0-.4.1-.9.1-1.4s0-1-.1-1.4c0-.4-.2-.7-.3-.9-.1-.2-.3-.4-.5-.5-.2,0-.4-.1-.7-.1s-.2,0-.3,0c-.1,0-.2,0-.3.1s-.2.1-.3.2-.2.1-.2.2c-.2.2-.3.3-.5.5v-3ZM22.3,39.8c.1-.1.2-.3.2-.6v-7.1c.3,0,.6,0,.8,0,.2,0,.4,0,.6.1.2,0,.3,0,.4.1s.2,0,.2.1h.1c0,0,0,.1,0,.1h.1c0,0,0-.2,0-.2v-.2s0-.1,0-.1v-.2s0-.1,0-.1h-.1c0-.1-.2-.2-.2-.2,0,0-.2,0-.4,0-.2,0-.4,0-.6,0-.2,0-.5,0-.8,0-.3,0-.6,0-.9,0-.6,0-1.2,0-1.8.2-.6.1-1,.3-1.5.5-.4.2-.7.5-1,.8s-.4.7-.4,1.1,0,.3,0,.5c0,.1.1.3.2.4,0,.1.2.2.4.3.1,0,.3,0,.5,0s.2,0,.3,0c.1,0,.2,0,.3-.2s.2-.2.2-.3c0-.1,0-.2,0-.4s0-.2,0-.3v-.2c-.1,0-.2,0-.2,0h-.1s-.1,0-.1,0h-.1c0,.1-.2.2-.2.2,0,0-.1,0-.2,0h0s-.1,0-.1,0v-.2c-.1,0-.2-.2-.2-.3s0-.3.1-.5c0-.1.2-.3.4-.4.2-.1.3-.2.5-.3.2,0,.4-.2.6-.2s.4-.1.6-.1.3,0,.4,0v7.1c0,.3,0,.5.2.6.1.1.4.2.7.2s.5,0,.7-.2Z" fill="#f3ea2e"/>
</svg>