<svg width="24" height="24" viewBox="0 0 24 24" fill="none" xmlns="http://www.w3.org/2000/svg">
<path fill-rule="evenodd" clip-rule="evenodd" d="M19.9442 7.98745C19.9569 8.16245 19.9569 8.33748 19.9569 8.51247C19.9569 13.8499 15.8326 20 8.29444 20C5.97209 20 3.81473 19.3374 2 18.1875C2.32996 18.225 2.64719 18.2375 2.98985 18.2375C4.90607 18.2375 6.67006 17.6 8.0787 16.5125C6.27666 16.475 4.76649 15.3125 4.24618 13.7125C4.5 13.7499 4.7538 13.775 5.02032 13.775C5.38833 13.775 5.75638 13.7249 6.099 13.6375C4.22083 13.2624 2.81215 11.6375 2.81215 9.67496V9.62498C3.35782 9.92498 3.99239 10.1125 4.66493 10.1375C3.56087 9.41244 2.83754 8.17495 2.83754 6.77494C2.83754 6.02496 3.04055 5.33746 3.3959 4.73745C5.41369 7.18745 8.4467 8.78742 11.8477 8.96245C11.7843 8.66245 11.7462 8.34998 11.7462 8.03747C11.7462 5.81245 13.5736 3.99997 15.8452 3.99997C17.0254 3.99997 18.0914 4.48747 18.8401 5.27497C19.7665 5.09998 20.6548 4.76246 21.4416 4.29997C21.137 5.23749 20.4898 6.02499 19.6396 6.52496C20.4645 6.4375 21.264 6.21245 22 5.89998C21.4417 6.69995 20.7437 7.41242 19.9442 7.98745Z" fill="#8C4B38"/>
</svg>
