<?xml version="1.0" encoding="utf-8"?>
<!-- Generator: Adobe Illustrator 16.0.0, SVG Export Plug-In . SVG Version: 6.00 Build 0)  -->
<!DOCTYPE svg PUBLIC "-//W3C//DTD SVG 1.1//EN" "http://www.w3.org/Graphics/SVG/1.1/DTD/svg11.dtd">
<svg version="1.1"
	 id="Layer_1" sodipodi:docname="OSF-logo.svg" inkscape:version="1.1 (c68e22c387, 2021-05-23)" xmlns:svg="http://www.w3.org/2000/svg" xmlns:sodipodi="http://sodipodi.sourceforge.net/DTD/sodipodi-0.dtd" xmlns:inkscape="http://www.inkscape.org/namespaces/inkscape"
	 xmlns="http://www.w3.org/2000/svg" xmlns:xlink="http://www.w3.org/1999/xlink" x="0px" y="0px" width="100px" height="50px"
	 viewBox="0 0 100 50" enable-background="new 0 0 100 50" xml:space="preserve">
<sodipodi:namedview  id="namedview95" inkscape:window-x="-8" fit-margin-bottom="0" inkscape:pageopacity="0.0" inkscape:window-y="-8" inkscape:window-height="715" inkscape:pageshadow="2" inkscape:current-layer="Layer_1" fit-margin-right="0" inkscape:window-width="1366" fit-margin-left="0" inkscape:cx="24.006003" fit-margin-top="0" inkscape:zoom="2.3327498" inkscape:cy="62.372741" showgrid="false" bordercolor="#666666" borderopacity="1.0" pagecolor="#ffffff" inkscape:pagecheckerboard="0" inkscape:window-maximized="1">
	<inkscape:grid  type="xygrid" id="grid99" originx="6.8462862e-07" originy="-1.9367073e-06"></inkscape:grid>
</sodipodi:namedview>
<g id="g92" transform="matrix(0.44097154,0,0,0.44097154,84.669892,47.259147)">
	<g id="g8">
		<path id="path2" fill="#662E19" d="M-69.019-69.76c0,15.405,12.49,27.892,27.89,27.892c15.405,0,27.895-12.488,27.895-27.892
			s-12.49-27.895-27.895-27.895C-56.529-97.654-69.019-85.164-69.019-69.76z M-57.53-69.162c0-9.062,7.344-16.406,16.401-16.406
			c9.062,0,16.403,7.344,16.403,16.406s-7.344,16.406-16.403,16.406C-50.186-52.756-57.53-60.1-57.53-69.162z"/>
		<path id="path4" fill="#662E19" d="M-0.084-21.491h-10.661c0.027,1.705,0.04,1.258,0.04,1.479c0,3.14-2.542,6.101-5.683,6.101
			c-2.507,0-4.631-2.026-5.386-4.44c-0.062-0.407-0.23-2.624-0.244-2.899c-0.441-8.59-7.543-15.46-16.237-15.46
			c-8.98,0-16.259,7.237-16.259,16.219c0,0.195,0.022-1.001,0.027,0.704h10.519c-0.042-0.644-0.042-0.505-0.042-0.722
			c0-3.14,2.545-5.76,5.685-5.76s5.523,2.655,5.685,5.793c0.011,0.224,0.042,0.467,0.064,0.755h0.009
			c0.195,8.814,7.397,15.896,16.253,15.896c8.98,0,16.262-7.281,16.262-16.262C-0.053-20.277-0.075-19.786-0.084-21.491
			L-0.084-21.491z"/>
		<polygon id="polygon6" fill="#662E19" points="-9.144,-50.477 -9.144,-28.312 -18.518,-28.312 -18.518,-26.181 21.123,-26.181 
			21.123,-28.312 21.123,-64.544 9.611,-64.544 9.611,-28.312 1.087,-28.312 1.087,-50.477 		"/>
	</g>
	<g id="g90">
		<rect id="rect10" x="-192.007" y="-107.17" fill="#662E19" width="112.961" height="113.386"/>
		<g id="g88">
			<g id="g18">
				<g id="g16">
					<path id="path12" fill="#FFFFFF" d="M-163.845-76.124c0,1.085-0.202,2.11-0.609,3.078c-0.405,0.966-1.001,1.827-1.776,2.584
						c-0.788,0.76-1.674,1.34-2.66,1.741c-0.988,0.403-2.022,0.605-3.109,0.605c-1.096,0-2.146-0.204-3.142-0.609
						c-0.997-0.407-1.882-0.985-2.644-1.736c-0.78-0.757-1.371-1.614-1.774-2.576c-0.401-0.959-0.605-1.989-0.605-3.087
						c0-1.092,0.202-2.122,0.605-3.087s0.994-1.831,1.774-2.595c0.777-0.757,1.661-1.333,2.649-1.732
						c0.988-0.394,2.033-0.593,3.136-0.593c1.103,0,2.144,0.197,3.127,0.593c0.983,0.399,1.865,0.974,2.644,1.732
						c0.775,0.771,1.371,1.643,1.776,2.611C-164.046-78.224-163.845-77.201-163.845-76.124z M-166.429-76.124
						c0-0.771-0.142-1.506-0.423-2.201s-0.689-1.311-1.216-1.856c-0.514-0.534-1.112-0.946-1.789-1.236
						c-0.678-0.288-1.391-0.432-2.144-0.432c-0.749,0-1.464,0.144-2.141,0.427c-0.678,0.286-1.28,0.7-1.809,1.24
						c-0.527,0.536-0.935,1.152-1.209,1.847c-0.279,0.695-0.419,1.435-0.419,2.212c0,0.773,0.14,1.501,0.419,2.188
						c0.275,0.689,0.682,1.304,1.209,1.847c0.527,0.543,1.129,0.957,1.803,1.242c0.673,0.283,1.393,0.427,2.148,0.427
						c0.744,0,1.453-0.144,2.122-0.427c0.673-0.286,1.276-0.7,1.812-1.242c0.527-0.543,0.935-1.158,1.214-1.851
						C-166.571-74.632-166.429-75.358-166.429-76.124z"/>
					<path id="path14" fill="#FFFFFF" d="M-172.001-67.97c-1.109,0-2.188-0.21-3.196-0.622c-1.012-0.412-1.916-1.008-2.688-1.767
						c-0.791-0.768-1.397-1.65-1.805-2.624c-0.41-0.97-0.616-2.026-0.616-3.14c0-1.103,0.206-2.161,0.616-3.142
						c0.407-0.977,1.016-1.867,1.805-2.642c0.786-0.766,1.694-1.36,2.695-1.763c0.999-0.399,2.073-0.602,3.189-0.602
						c1.112,0,2.184,0.204,3.18,0.602c0.997,0.403,1.9,0.997,2.688,1.763c0.788,0.782,1.397,1.676,1.812,2.657
						c0.412,0.983,0.62,2.035,0.62,3.127c0,1.098-0.208,2.153-0.62,3.131s-1.023,1.867-1.812,2.635
						c-0.797,0.766-1.705,1.362-2.706,1.772C-169.837-68.179-170.9-67.97-172.001-67.97L-172.001-67.97z M-172.001-83.991
						c-1.081,0-2.117,0.197-3.083,0.585c-0.966,0.39-1.843,0.961-2.604,1.701c-0.762,0.749-1.346,1.608-1.741,2.549
						c-0.394,0.946-0.594,1.964-0.594,3.032c0,1.076,0.199,2.095,0.594,3.03c0.394,0.939,0.979,1.789,1.741,2.529
						c0.749,0.735,1.621,1.311,2.6,1.71c0.974,0.396,2.015,0.598,3.087,0.598c1.063,0,2.091-0.199,3.056-0.594
						s1.847-0.97,2.613-1.714c0.762-0.74,1.351-1.594,1.745-2.538c0.399-0.943,0.602-1.962,0.602-3.021
						c0-1.056-0.204-2.071-0.602-3.018c-0.394-0.946-0.983-1.809-1.745-2.567c-0.76-0.74-1.634-1.311-2.595-1.699
						C-169.893-83.793-170.923-83.991-172.001-83.991z M-172.001-70.278c-0.771,0-1.513-0.146-2.201-0.438
						c-0.687-0.29-1.311-0.72-1.851-1.271c-0.54-0.554-0.957-1.189-1.24-1.891s-0.425-1.457-0.425-2.243
						c0-0.795,0.142-1.555,0.425-2.266c0.283-0.709,0.702-1.346,1.24-1.893c0.54-0.551,1.165-0.981,1.856-1.269
						c1.386-0.585,3.012-0.585,4.396,0.004c0.693,0.295,1.311,0.722,1.836,1.267c0.538,0.554,0.957,1.194,1.245,1.902
						c0.288,0.706,0.434,1.468,0.434,2.252c0,0.78-0.146,1.532-0.434,2.239c-0.288,0.706-0.706,1.344-1.245,1.898
						c-0.545,0.551-1.169,0.979-1.856,1.271C-170.506-70.424-171.239-70.278-172.001-70.278z M-172.001-81.705
						c-0.726,0-1.428,0.14-2.086,0.416c-0.656,0.275-1.249,0.682-1.763,1.209c-0.514,0.52-0.91,1.125-1.178,1.798
						c-0.272,0.675-0.407,1.402-0.407,2.157c0,0.753,0.137,1.47,0.407,2.139c0.268,0.667,0.664,1.271,1.178,1.798
						c0.514,0.527,1.105,0.935,1.758,1.209c0.651,0.277,1.36,0.419,2.091,0.419c0.724,0,1.417-0.14,2.068-0.419
						c0.651-0.275,1.245-0.682,1.763-1.209c0.514-0.525,0.912-1.134,1.187-1.805c0.275-0.671,0.412-1.389,0.412-2.13
						c0-0.751-0.137-1.473-0.412-2.146c-0.272-0.675-0.673-1.284-1.187-1.812c-0.496-0.523-1.085-0.926-1.741-1.205
						C-170.568-81.566-171.27-81.705-172.001-81.705z"/>
				</g>
			</g>
			<g id="g26">
				<g id="g24">
					<path id="path20" fill="#FFFFFF" d="M-177.196-46.387l2.017-0.935c0.193,0.693,0.543,1.222,1.052,1.588
						c0.512,0.365,1.165,0.549,1.958,0.549c0.749,0,1.346-0.21,1.789-0.627c0.443-0.419,0.664-0.979,0.664-1.681
						c0-0.915-0.757-1.73-2.274-2.443c-0.21-0.106-0.374-0.186-0.487-0.235c-1.716-0.835-2.857-1.592-3.426-2.268
						c-0.571-0.678-0.855-1.506-0.855-2.48c0-1.269,0.43-2.297,1.289-3.083c0.859-0.786,1.989-1.178,3.384-1.178
						c1.147,0,2.108,0.221,2.883,0.664c0.771,0.441,1.304,1.076,1.603,1.905l-1.978,1.023c-0.312-0.489-0.653-0.846-1.025-1.074
						c-0.372-0.228-0.799-0.339-1.28-0.339c-0.682,0-1.22,0.177-1.621,0.529c-0.399,0.354-0.598,0.828-0.598,1.424
						c0,0.937,0.877,1.807,2.633,2.613c0.135,0.064,0.241,0.115,0.321,0.151c1.535,0.706,2.591,1.4,3.165,2.077
						c0.574,0.678,0.861,1.519,0.861,2.531c0,1.475-0.465,2.646-1.395,3.512c-0.926,0.87-2.179,1.304-3.76,1.304
						c-1.324,0-2.409-0.306-3.255-0.917C-176.379-44.381-176.935-45.253-177.196-46.387z"/>
					<path id="path22" fill="#FFFFFF" d="M-172.278-42.569c-1.38,0-2.531-0.328-3.426-0.97c-0.899-0.647-1.497-1.583-1.776-2.781
						l-0.053-0.23l2.542-1.178l0.093,0.328c0.173,0.636,0.483,1.105,0.939,1.431c0.461,0.328,1.061,0.494,1.789,0.494
						c0.678,0,1.198-0.179,1.59-0.549c0.385-0.361,0.571-0.842,0.571-1.466c0-0.786-0.709-1.521-2.104-2.181
						c-0.215-0.106-0.372-0.184-0.483-0.233c-1.778-0.866-2.93-1.632-3.532-2.345c-0.613-0.731-0.923-1.625-0.923-2.671
						c0-1.346,0.467-2.454,1.386-3.293c0.908-0.835,2.115-1.256,3.579-1.256c1.194,0,2.21,0.235,3.025,0.702
						c0.828,0.476,1.411,1.167,1.732,2.062l0.084,0.237l-2.436,1.26l-0.142-0.226c-0.288-0.447-0.6-0.777-0.935-0.979
						c-0.323-0.199-0.704-0.299-1.129-0.299c-0.611,0-1.081,0.151-1.431,0.458c-0.337,0.301-0.501,0.693-0.501,1.209
						c0,0.806,0.828,1.599,2.467,2.35c0.135,0.064,0.239,0.113,0.314,0.148c1.594,0.733,2.662,1.437,3.269,2.153
						c0.618,0.729,0.93,1.643,0.93,2.724c0,1.548-0.498,2.801-1.484,3.72C-169.299-43.034-170.628-42.569-172.278-42.569z
						 M-176.855-46.223c0.266,0.948,0.766,1.692,1.49,2.215c0.793,0.571,1.831,0.861,3.087,0.861c1.499,0,2.695-0.412,3.563-1.225
						c0.875-0.819,1.302-1.896,1.302-3.302c0-0.937-0.268-1.727-0.793-2.345c-0.545-0.642-1.577-1.315-3.065-2.002
						c-0.08-0.035-0.186-0.084-0.323-0.151c-1.882-0.864-2.799-1.807-2.799-2.875c0-0.68,0.235-1.231,0.7-1.643
						c0.452-0.399,1.061-0.602,1.812-0.602c0.532,0,1.014,0.128,1.431,0.381c0.35,0.213,0.673,0.531,0.97,0.943l1.515-0.78
						c-0.288-0.651-0.74-1.149-1.382-1.519c-0.722-0.416-1.645-0.627-2.737-0.627c-1.315,0-2.387,0.37-3.187,1.105
						c-0.804,0.735-1.196,1.674-1.196,2.866c0,0.917,0.257,1.668,0.786,2.294c0.54,0.647,1.661,1.382,3.331,2.197
						c0.106,0.044,0.275,0.124,0.492,0.235c1.612,0.762,2.436,1.672,2.436,2.702c0,0.78-0.255,1.417-0.755,1.891
						c-0.496,0.467-1.167,0.704-1.989,0.704c-0.853,0-1.566-0.202-2.124-0.602c-0.481-0.341-0.837-0.819-1.059-1.422
						L-176.855-46.223z"/>
				</g>
			</g>
			
				<text id="text28" transform="matrix(2.2677 0 0 2.2677 -112.5609 -22.0424)" fill="#FFFFFF" font-family="'FuturaBT-Medium'" font-size="9.5958"> </text>
			<g id="g50">
				<g id="g32">
					<path id="path30" fill="#FFFFFF" d="M-152.141-54.585c-0.689-0.585-1.417-1.023-2.184-1.318
						c-0.766-0.292-1.572-0.438-2.416-0.438c-1.634,0-2.965,0.525-3.988,1.575c-1.023,1.047-1.537,2.405-1.537,4.075
						c0,1.614,0.498,2.945,1.497,3.995c0.997,1.05,2.257,1.575,3.774,1.575c0.886,0,1.727-0.157,2.529-0.472
						c0.802-0.312,1.568-0.788,2.303-1.42v2.746c-0.651,0.472-1.364,0.822-2.135,1.052c-0.771,0.235-1.603,0.35-2.502,0.35
						c-1.147,0-2.203-0.188-3.173-0.563c-0.97-0.374-1.823-0.926-2.56-1.656c-0.729-0.713-1.289-1.559-1.681-2.525
						c-0.392-0.974-0.587-2.006-0.587-3.103c0-1.098,0.195-2.128,0.587-3.094c0.392-0.961,0.957-1.807,1.701-2.538
						c0.742-0.735,1.594-1.293,2.556-1.67c0.961-0.376,1.998-0.567,3.114-0.567c0.881,0,1.719,0.128,2.516,0.385
						c0.797,0.252,1.568,0.642,2.319,1.156L-152.141-54.585z"/>
				</g>
				<g id="g36">
					<path id="path34" fill="#FFFFFF" d="M-150.312-43.273v-14.957h2.432v5.516h7.357v-5.516h2.432v14.957h-2.432v-7.264h-7.357
						v7.264H-150.312z"/>
				</g>
				<g id="g40">
					<path id="path38" fill="#FFFFFF" d="M-120.417-50.721c0,1.063-0.197,2.066-0.598,3.014c-0.399,0.948-0.981,1.794-1.743,2.533
						c-0.771,0.744-1.639,1.311-2.604,1.705c-0.966,0.394-1.98,0.594-3.043,0.594c-1.076,0-2.104-0.199-3.083-0.598
						c-0.977-0.399-1.838-0.963-2.589-1.701c-0.764-0.74-1.34-1.583-1.736-2.522c-0.394-0.941-0.591-1.949-0.591-3.025
						c0-1.07,0.197-2.075,0.591-3.023c0.396-0.948,0.974-1.794,1.736-2.545c0.764-0.742,1.628-1.309,2.598-1.694
						c0.966-0.39,1.991-0.582,3.074-0.582c1.074,0,2.097,0.193,3.061,0.582c0.966,0.388,1.825,0.952,2.589,1.694
						c0.764,0.757,1.344,1.61,1.743,2.56C-120.614-52.778-120.417-51.777-120.417-50.721z M-122.953-50.721
						c0-0.755-0.137-1.477-0.412-2.157c-0.275-0.68-0.673-1.287-1.191-1.818c-0.505-0.523-1.085-0.928-1.75-1.209
						c-0.664-0.283-1.364-0.425-2.099-0.425c-0.737,0-1.439,0.142-2.104,0.416c-0.66,0.281-1.253,0.687-1.772,1.218
						c-0.518,0.523-0.912,1.127-1.183,1.809c-0.275,0.68-0.412,1.402-0.412,2.166c0,0.755,0.137,1.473,0.412,2.146
						c0.27,0.673,0.664,1.276,1.183,1.807c0.52,0.531,1.107,0.939,1.769,1.218c0.662,0.279,1.362,0.419,2.106,0.419
						c0.726,0,1.42-0.14,2.077-0.419c0.656-0.279,1.247-0.687,1.772-1.218c0.518-0.529,0.912-1.136,1.189-1.812
						C-123.088-49.259-122.953-49.97-122.953-50.721z"/>
				</g>
				<g id="g44">
					<path id="path42" fill="#FFFFFF" d="M-102.738-50.721c0,1.063-0.204,2.066-0.6,3.014c-0.399,0.948-0.979,1.794-1.743,2.533
						c-0.771,0.744-1.639,1.311-2.604,1.705c-0.966,0.394-1.98,0.594-3.043,0.594c-1.076,0-2.104-0.199-3.083-0.598
						c-0.977-0.399-1.84-0.963-2.591-1.701c-0.762-0.74-1.342-1.583-1.736-2.522c-0.394-0.941-0.591-1.949-0.591-3.025
						c0-1.07,0.197-2.075,0.591-3.023c0.396-0.948,0.974-1.794,1.736-2.545c0.766-0.742,1.63-1.309,2.598-1.694
						c0.968-0.39,1.993-0.582,3.076-0.582c1.076,0,2.095,0.193,3.058,0.582c0.963,0.388,1.827,0.952,2.591,1.694
						c0.764,0.757,1.344,1.61,1.743,2.56C-102.942-52.781-102.738-51.777-102.738-50.721z M-105.276-50.721
						c0-0.755-0.137-1.477-0.412-2.157c-0.275-0.68-0.673-1.287-1.191-1.818c-0.505-0.523-1.087-0.928-1.75-1.209
						c-0.664-0.283-1.364-0.425-2.099-0.425c-0.737,0-1.435,0.142-2.102,0.416c-0.662,0.281-1.256,0.687-1.774,1.218
						c-0.518,0.523-0.91,1.127-1.183,1.809c-0.275,0.68-0.41,1.402-0.41,2.166c0,0.755,0.135,1.473,0.41,2.146
						c0.272,0.673,0.664,1.276,1.183,1.807c0.518,0.534,1.107,0.939,1.769,1.218c0.662,0.279,1.362,0.419,2.104,0.419
						c0.729,0,1.422-0.14,2.079-0.419c0.656-0.279,1.249-0.687,1.772-1.218c0.518-0.529,0.912-1.136,1.191-1.812
						C-105.413-49.259-105.276-49.97-105.276-50.721z"/>
				</g>
				<g id="g48">
					<path id="path46" fill="#FFFFFF" d="M-101.053-43.273v-14.957h2.434v12.78h6.478v2.177H-101.053z"/>
				</g>
			</g>
			<g id="g58">
				<g id="g56">
					<path id="path52" fill="#FFFFFF" d="M-176.501-17.731v-15.555h8.681v2.144h-6.152v3.88h6.152v2.221h-6.152v7.31H-176.501z"/>
					<path id="path54" fill="#FFFFFF" d="M-173.826-17.584h-2.817v-15.847h8.969v2.436h-6.152v3.588h6.152v2.511h-6.152V-17.584
						L-173.826-17.584z M-176.355-17.877h2.239v-7.31h6.15v-1.931h-6.15v-4.168h6.15v-1.854h-8.389V-17.877L-176.355-17.877z"/>
				</g>
			</g>
			<g id="g76">
				<g id="g62">
					<path id="path60" fill="#FFFFFF" d="M-148.881-25.187c0,1.063-0.199,2.068-0.598,3.014c-0.399,0.948-0.981,1.794-1.745,2.536
						c-0.768,0.74-1.639,1.311-2.604,1.705c-0.966,0.392-1.98,0.591-3.043,0.591c-1.076,0-2.104-0.199-3.08-0.598
						s-1.84-0.966-2.589-1.699c-0.762-0.742-1.342-1.583-1.738-2.527c-0.396-0.937-0.591-1.944-0.591-3.021
						c0-1.072,0.195-2.077,0.591-3.025c0.396-0.946,0.977-1.794,1.738-2.542c0.762-0.744,1.626-1.309,2.595-1.699
						c0.966-0.388,1.991-0.582,3.074-0.582c1.076,0,2.097,0.195,3.061,0.582c0.963,0.392,1.827,0.954,2.589,1.699
						c0.764,0.755,1.344,1.608,1.743,2.558C-149.08-27.244-148.881-26.243-148.881-25.187L-148.881-25.187z M-151.414-25.187
						c0-0.755-0.14-1.475-0.414-2.155c-0.277-0.682-0.675-1.289-1.189-1.82c-0.505-0.523-1.09-0.926-1.754-1.209
						s-1.364-0.425-2.099-0.425c-0.735,0-1.437,0.14-2.099,0.419c-0.664,0.279-1.253,0.687-1.772,1.216
						c-0.518,0.527-0.912,1.129-1.187,1.812c-0.272,0.682-0.407,1.4-0.407,2.166c0,0.755,0.135,1.47,0.407,2.144
						c0.275,0.678,0.669,1.278,1.187,1.809s1.107,0.937,1.767,1.216s1.36,0.421,2.104,0.421c0.729,0,1.422-0.142,2.077-0.421
						c0.66-0.279,1.249-0.684,1.774-1.216c0.516-0.529,0.915-1.136,1.189-1.814C-151.554-23.723-151.414-24.436-151.414-25.187
						L-151.414-25.187z"/>
				</g>
				<g id="g66">
					<path id="path64" fill="#FFFFFF" d="M-131.206-25.187c0,1.063-0.199,2.068-0.598,3.014c-0.396,0.948-0.979,1.794-1.743,2.536
						c-0.771,0.74-1.639,1.311-2.604,1.705c-0.966,0.394-1.98,0.591-3.047,0.591c-1.072,0-2.102-0.199-3.078-0.598
						c-0.979-0.399-1.84-0.966-2.589-1.699c-0.764-0.742-1.342-1.583-1.736-2.527c-0.396-0.937-0.594-1.944-0.594-3.021
						c0-1.072,0.197-2.077,0.594-3.025c0.394-0.946,0.972-1.794,1.736-2.542c0.764-0.744,1.628-1.309,2.595-1.699
						c0.966-0.388,1.991-0.582,3.072-0.582c1.076,0,2.099,0.195,3.065,0.582c0.961,0.392,1.825,0.954,2.587,1.699
						c0.764,0.755,1.346,1.608,1.743,2.558C-131.406-27.244-131.206-26.243-131.206-25.187L-131.206-25.187z M-133.74-25.187
						c0-0.755-0.135-1.475-0.414-2.155c-0.275-0.682-0.673-1.289-1.189-1.82c-0.505-0.523-1.09-0.926-1.752-1.209
						c-0.664-0.283-1.364-0.425-2.102-0.425c-0.733,0-1.435,0.14-2.097,0.419c-0.664,0.279-1.258,0.687-1.774,1.216
						c-0.52,0.527-0.91,1.129-1.185,1.812c-0.275,0.682-0.407,1.4-0.407,2.166c0,0.755,0.133,1.47,0.407,2.144
						c0.275,0.678,0.664,1.278,1.185,1.809c0.518,0.531,1.107,0.937,1.769,1.216c0.66,0.279,1.36,0.421,2.104,0.421
						c0.729,0,1.422-0.142,2.079-0.421s1.249-0.684,1.772-1.216c0.52-0.529,0.915-1.136,1.189-1.814
						C-133.875-23.723-133.74-24.436-133.74-25.187L-133.74-25.187z"/>
				</g>
				<g id="g70">
					<path id="path68" fill="#FFFFFF" d="M-129.517-17.709v-14.957h3.28c2.13,0,3.63,0.106,4.498,0.323
						c0.868,0.213,1.63,0.571,2.285,1.076c0.864,0.66,1.519,1.508,1.967,2.542c0.445,1.039,0.669,2.219,0.669,3.546
						c0,1.329-0.224,2.507-0.669,3.53c-0.447,1.025-1.103,1.871-1.967,2.54c-0.656,0.505-1.4,0.861-2.232,1.076
						c-0.835,0.215-2.135,0.323-3.898,0.323h-0.653H-129.517L-129.517-17.709z M-127.085-19.903h2.042
						c1.125,0,1.967-0.078,2.529-0.226c0.563-0.148,1.052-0.401,1.466-0.755c0.567-0.485,0.99-1.085,1.271-1.803
						c0.283-0.72,0.425-1.555,0.425-2.511c0-0.952-0.142-1.789-0.425-2.507c-0.281-0.72-0.704-1.32-1.271-1.803
						c-0.421-0.354-0.926-0.607-1.517-0.757c-0.591-0.151-1.513-0.226-2.764-0.226h-0.879h-0.879L-127.085-19.903z"/>
				</g>
				<g id="g74">
					<path id="path72" fill="#FFFFFF" d="M-115.131-20.731l1.94-0.901c0.186,0.671,0.523,1.183,1.012,1.53
						c0.492,0.35,1.118,0.525,1.88,0.525c0.722,0,1.298-0.202,1.723-0.605c0.425-0.401,0.638-0.939,0.638-1.614
						c0-0.877-0.729-1.661-2.186-2.347c-0.206-0.104-0.361-0.177-0.472-0.226c-1.648-0.806-2.746-1.53-3.293-2.181
						c-0.551-0.649-0.824-1.446-0.824-2.387c0-1.22,0.414-2.208,1.242-2.963c0.826-0.755,1.913-1.136,3.253-1.136
						c1.103,0,2.026,0.217,2.77,0.642c0.74,0.425,1.253,1.036,1.541,1.834l-1.9,0.979c-0.299-0.469-0.629-0.813-0.983-1.03
						c-0.359-0.219-0.771-0.328-1.231-0.328c-0.653,0-1.174,0.171-1.559,0.512c-0.385,0.341-0.578,0.797-0.578,1.369
						c0,0.899,0.844,1.736,2.536,2.516c0.128,0.06,0.23,0.106,0.306,0.142c1.479,0.682,2.494,1.349,3.043,1.998
						c0.554,0.651,0.828,1.464,0.828,2.436c0,1.417-0.445,2.542-1.338,3.377s-2.099,1.251-3.616,1.251
						c-1.273,0-2.319-0.292-3.134-0.877C-114.347-18.803-114.878-19.642-115.131-20.731z"/>
				</g>
			</g>
			<g id="g86">
				<g id="g80">
					<path id="path78" fill="#FFFFFF" d="M-161.914-68.781v-14.957h2.434v12.78h6.478v2.177H-161.914z"/>
				</g>
				<g id="g84">
					<path id="path82" fill="#FFFFFF" d="M-150.475-68.781v-14.957h3.28c2.133,0,3.63,0.106,4.498,0.321
						c0.87,0.215,1.63,0.574,2.285,1.078c0.864,0.66,1.521,1.508,1.967,2.542c0.445,1.036,0.669,2.219,0.669,3.546
						s-0.224,2.505-0.669,3.53c-0.445,1.025-1.103,1.871-1.967,2.538c-0.656,0.503-1.4,0.861-2.232,1.078
						c-0.835,0.215-2.133,0.321-3.898,0.321h-0.651h-3.282V-68.781z M-148.044-70.978h2.042c1.125,0,1.967-0.075,2.529-0.226
						c0.563-0.148,1.054-0.399,1.466-0.753c0.567-0.485,0.992-1.085,1.271-1.805c0.283-0.72,0.425-1.555,0.425-2.509
						c0-0.952-0.142-1.789-0.425-2.507c-0.279-0.72-0.704-1.32-1.271-1.805c-0.421-0.354-0.926-0.607-1.519-0.755
						c-0.587-0.151-1.506-0.226-2.759-0.226h-0.881h-0.877V-70.978z"/>
				</g>
			</g>
		</g>
	</g>
</g>
</svg>
